<?xml version="1.0" encoding="utf-8"?>
<!-- Generator: Adobe Illustrator 17.0.2, SVG Export Plug-In . SVG Version: 6.00 Build 0)  -->
<!DOCTYPE svg PUBLIC "-//W3C//DTD SVG 1.1//EN" "http://www.w3.org/Graphics/SVG/1.1/DTD/svg11.dtd">
<svg version="1.1" id="Capa_1" xmlns="http://www.w3.org/2000/svg" xmlns:xlink="http://www.w3.org/1999/xlink" x="0px" y="0px"
	 width="64px" height="64px" viewBox="0 0 64 64" enable-background="new 0 0 64 64" xml:space="preserve">
<path d="M41.584,30.5c2.761,0,5-2.239,5-5v-19c0-2.761-2.239-5-5-5h-19c-2.761,0-5,2.239-5,5v19c0,2.761,2.239,5,5,5H41.584z
	 M20.584,25.5v-19c0-1.103,0.897-2,2-2h19c1.103,0,2,0.897,2,2v19c0,1.103-0.897,2-2,2h-19C21.481,27.5,20.584,26.603,20.584,25.5z"
	/>
<path d="M1.584,37.5v19c0,2.761,2.239,5,5,5h19c2.761,0,5-2.239,5-5v-19c0-2.761-2.239-5-5-5h-19
	C3.822,32.5,1.584,34.739,1.584,37.5z M27.584,37.5v19c0,1.103-0.897,2-2,2h-19c-1.103,0-2-0.897-2-2v-19c0-1.103,0.897-2,2-2h19
	C26.687,35.5,27.584,36.397,27.584,37.5z"/>
<path d="M62.084,37.5c0-2.761-2.239-5-5-5h-19c-2.761,0-5,2.239-5,5v19c0,2.761,2.239,5,5,5h19c2.761,0,5-2.239,5-5V37.5z
	 M59.084,56.5c0,1.103-0.897,2-2,2h-19c-1.103,0-2-0.897-2-2v-19c0-1.103,0.897-2,2-2h19c1.103,0,2,0.897,2,2V56.5z"/>
<path d="M23.971,24.827c0.214,0.106,0.442,0.157,0.667,0.157c0.551,0,1.082-0.305,1.344-0.833l1.361-2.735h9.482l1.361,2.735
	c0.262,0.527,0.793,0.833,1.344,0.833c0.225,0,0.453-0.051,0.667-0.157c0.742-0.369,1.044-1.27,0.675-2.011L33.427,7.849
	c-0.006-0.012-0.015-0.022-0.021-0.034c-0.025-0.048-0.055-0.091-0.085-0.135c-0.026-0.038-0.05-0.078-0.08-0.113
	c-0.03-0.036-0.064-0.068-0.097-0.101c-0.037-0.037-0.072-0.075-0.113-0.108c-0.032-0.026-0.067-0.048-0.101-0.071
	c-0.047-0.033-0.095-0.065-0.147-0.093c-0.011-0.006-0.02-0.014-0.031-0.019c-0.028-0.014-0.057-0.02-0.085-0.032
	c-0.051-0.022-0.103-0.043-0.155-0.059c-0.045-0.013-0.091-0.022-0.136-0.032c-0.049-0.01-0.098-0.019-0.147-0.024
	c-0.048-0.005-0.096-0.005-0.145-0.005c-0.048,0-0.097,0-0.145,0.005c-0.049,0.005-0.098,0.014-0.147,0.024
	c-0.046,0.009-0.091,0.018-0.135,0.031c-0.053,0.016-0.105,0.037-0.158,0.06c-0.027,0.012-0.056,0.018-0.083,0.031
	c-0.011,0.005-0.019,0.013-0.03,0.019c-0.053,0.028-0.102,0.062-0.151,0.095c-0.033,0.023-0.067,0.043-0.098,0.068
	c-0.042,0.034-0.079,0.073-0.117,0.112c-0.032,0.032-0.064,0.062-0.093,0.098c-0.03,0.037-0.055,0.077-0.081,0.116
	c-0.029,0.043-0.059,0.086-0.084,0.133c-0.006,0.012-0.015,0.022-0.021,0.034l-7.445,14.967
	C22.927,23.557,23.229,24.458,23.971,24.827z M32.084,11.885l3.248,6.531h-6.497L32.084,11.885z"/>
<path d="M12.5,56.365h3.802c3.234,0,5.865-2.631,5.865-5.865c0-2.242-1.266-4.192-3.119-5.179C19.639,44.519,20,43.539,20,42.468
	c0-2.665-2.168-4.833-4.833-4.833H12.5c-1.114,0-2.049,0.737-2.371,1.745C10.048,39.565,10,39.769,10,39.985v0.15v4.667v2.333v6.73
	v0.086c0,0.119,0.017,0.234,0.044,0.345C10.25,55.469,11.27,56.365,12.5,56.365z M19.167,50.5c0,1.58-1.285,2.865-2.865,2.865H13
	v-5.73h3.302C17.882,47.635,19.167,48.92,19.167,50.5z M17,42.468c0,1.011-0.822,1.833-1.833,1.833H13v-3.667h2.167
	C16.178,40.635,17,41.457,17,42.468z"/>
<path d="M52.83,51.328c-1.107,1.043-2.554,1.617-4.076,1.617c-3.278,0-5.944-2.667-5.944-5.945s2.667-5.945,5.944-5.945
	c1.456,0,2.856,0.532,3.944,1.497c0.62,0.55,1.569,0.494,2.118-0.126c0.55-0.62,0.493-1.568-0.126-2.118
	c-1.638-1.453-3.745-2.252-5.935-2.252c-4.932,0-8.944,4.013-8.944,8.945s4.012,8.945,8.944,8.945c2.289,0,4.467-0.864,6.133-2.434
	c0.603-0.568,0.631-1.518,0.063-2.121C54.383,50.789,53.434,50.76,52.83,51.328z"/>
</svg>
