<?xml version="1.0" encoding="utf-8"?>
<!-- Generator: Adobe Illustrator 17.0.2, SVG Export Plug-In . SVG Version: 6.00 Build 0)  -->
<!DOCTYPE svg PUBLIC "-//W3C//DTD SVG 1.1//EN" "http://www.w3.org/Graphics/SVG/1.1/DTD/svg11.dtd">
<svg version="1.1" id="Capa_1" xmlns="http://www.w3.org/2000/svg" xmlns:xlink="http://www.w3.org/1999/xlink" x="0px" y="0px"
	 width="64px" height="64px" viewBox="0 0 64 64" enable-background="new 0 0 64 64" xml:space="preserve">
<path d="M7.039,42.345c0.88,1.64,2.003,2.655,3.264,2.946c2.324,0.536,3.143,0.622,4.58,0.622c0.466,0,0.876-0.217,1.125-0.596
	c0.359-0.546,0.429-1.359-0.348-3.377c1.747-0.872,3.143-2.203,3.985-3.801c0.521,0.182,0.669,0.27,0.658,0.245
	c0.09,0.077,0.184,0.208,0.305,0.358c0.572,0.713,1.637,2.04,3.6,2.359l1.23,0.199l-0.071-1.244c-0.023-0.406-0.242-3.6-1.437-5.479
	c1.195-1.879,1.414-5.072,1.437-5.478l0.071-1.244l-1.23,0.199c-1.963,0.319-3.028,1.646-3.6,2.359
	c-0.121,0.15-0.215,0.281-0.245,0.319c-0.034,0.019-0.198,0.103-0.733,0.289c-0.848-1.593-2.246-2.919-3.992-3.785
	c0.844-2.186,0.686-2.949,0.37-3.431c-0.249-0.379-0.659-0.597-1.126-0.597c-0.511,0-0.945,0.012-1.395,0.05V14.59l12.779-1.444
	c0.895,1.135,2.158,1.963,3.608,2.307v24.793c-0.367-0.024-0.734-0.033-1.154-0.033c-0.467,0-0.877,0.218-1.126,0.597
	c-0.362,0.552-0.429,1.377,0.37,3.432c-1.746,0.866-3.143,2.191-3.991,3.784c-0.53-0.184-0.683-0.272-0.673-0.25
	c-0.09-0.077-0.184-0.208-0.305-0.358c-0.572-0.713-1.637-2.04-3.6-2.359l-1.23-0.199l0.071,1.244
	c0.023,0.405,0.242,3.599,1.438,5.478c-1.195,1.879-1.414,5.072-1.438,5.479l-0.071,1.244l1.23-0.199
	c1.963-0.319,3.028-1.646,3.6-2.359c0.121-0.15,0.215-0.281,0.247-0.32c0.034-0.019,0.193-0.1,0.716-0.283
	c0.843,1.598,2.238,2.929,3.985,3.801c-0.777,2.018-0.707,2.83-0.347,3.377c0.249,0.379,0.659,0.596,1.125,0.596
	c1.437,0,2.256-0.086,4.58-0.622c1.261-0.291,2.384-1.307,3.265-2.946c3.54-1.342,5.803-4.344,5.803-7.748
	c0-3.386-2.247-6.382-5.76-7.732c-0.887-1.689-2.025-2.734-3.307-3.03c-0.154-0.036-0.285-0.064-0.427-0.096V15.452
	c1.938-0.46,3.54-1.786,4.377-3.548l9.738-1.101v12.408c0,0.158,0.031,0.308,0.077,0.451c-0.237,0.051-0.487,0.108-0.763,0.171
	c-1.283,0.296-2.421,1.341-3.308,3.03c-3.513,1.351-5.76,4.347-5.76,7.732c0,3.403,2.264,6.405,5.804,7.748
	c0.88,1.64,2.003,2.655,3.264,2.946c2.324,0.536,3.143,0.622,4.58,0.622c0.466,0,0.876-0.217,1.125-0.596
	c0.359-0.546,0.429-1.359-0.348-3.377c1.747-0.872,3.143-2.203,3.985-3.801c0.521,0.182,0.669,0.27,0.658,0.245
	c0.09,0.077,0.184,0.208,0.305,0.358c0.572,0.713,1.637,2.04,3.6,2.359l1.23,0.199l-0.071-1.244c-0.023-0.406-0.242-3.6-1.437-5.479
	c1.195-1.879,1.414-5.072,1.437-5.478l0.071-1.244l-1.23,0.199c-1.963,0.319-3.028,1.646-3.6,2.359
	c-0.121,0.15-0.215,0.281-0.245,0.319c-0.034,0.019-0.198,0.103-0.733,0.289c-0.848-1.593-2.246-2.919-3.992-3.785
	c0.844-2.186,0.686-2.949,0.37-3.431c-0.249-0.379-0.659-0.597-1.126-0.597c-0.322,0-0.612,0.005-0.895,0.018
	c0-0.006,0.002-0.012,0.002-0.018V9.25c0-0.022-0.006-0.043-0.007-0.065c0.003-0.075,0.006-0.151-0.003-0.228
	c-0.093-0.824-0.839-1.423-1.659-1.322L37.868,8.816c-0.139-2.934-2.223-5.361-4.993-6.018V1h-3v1.798
	c-2.867,0.68-5.009,3.255-5.009,6.327c0,0.392,0.041,0.775,0.108,1.148L11.819,11.76c-0.022,0.002-0.041,0.01-0.062,0.013
	c-0.054,0.008-0.107,0.02-0.158,0.034c-0.045,0.012-0.089,0.025-0.132,0.041c-0.048,0.018-0.094,0.039-0.139,0.061
	c-0.042,0.021-0.084,0.043-0.124,0.068c-0.041,0.026-0.081,0.054-0.119,0.083c-0.038,0.029-0.075,0.059-0.11,0.091
	c-0.035,0.033-0.068,0.068-0.1,0.104c-0.031,0.035-0.062,0.071-0.09,0.109c-0.029,0.039-0.054,0.08-0.079,0.122
	c-0.024,0.041-0.048,0.083-0.068,0.126c-0.02,0.043-0.037,0.088-0.054,0.133c-0.017,0.047-0.032,0.095-0.045,0.144
	c-0.011,0.045-0.019,0.091-0.026,0.137c-0.008,0.052-0.014,0.105-0.016,0.159c-0.001,0.022-0.007,0.043-0.007,0.065v10.242
	c0,0.101,0.011,0.199,0.03,0.294c-0.074,0.017-0.137,0.03-0.214,0.048c-1.283,0.296-2.421,1.341-3.308,3.03
	c-3.513,1.351-5.76,4.347-5.76,7.732C1.235,38,3.499,41.002,7.039,42.345z M34.991,45.099l0.182,0.38l0.398,0.136
	c2.915,0.993,4.798,3.341,4.798,5.982c0,2.654-1.896,5.006-4.831,5.991l-0.397,0.134l-0.184,0.376
	c-0.623,1.278-1.371,2.075-2.106,2.244c-1.813,0.419-2.582,0.533-3.442,0.562c0.089-0.385,0.292-1.036,0.747-2.091l0.415-0.961
	l-0.979-0.37c-1.983-0.753-3.5-2.185-4.161-3.93l-0.335-0.885l-0.902,0.286c-1.315,0.418-1.729,0.612-1.924,0.721
	c-0.324,0.18-0.561,0.475-0.834,0.816c-0.278,0.346-0.592,0.737-1.01,1.056c0.22-1.292,0.619-2.687,1.208-3.238l0.779-0.729
	l-0.779-0.729c-0.588-0.552-0.988-1.946-1.208-3.237c0.418,0.318,0.733,0.71,1.01,1.056c0.274,0.342,0.511,0.637,0.835,0.816
	c0.2,0.11,0.618,0.306,1.936,0.724l0.897,0.284l0.338-0.878c0.67-1.742,2.191-3.168,4.174-3.914l0.984-0.37l-0.419-0.964
	c-0.472-1.087-0.68-1.754-0.771-2.146c0.86,0.029,1.629,0.144,3.442,0.562C33.6,42.956,34.36,43.778,34.991,45.099z M50.195,25.221
	c-0.091,0.392-0.299,1.059-0.771,2.146l-0.419,0.964l0.984,0.37c1.982,0.746,3.503,2.172,4.173,3.914l0.338,0.878l0.897-0.284
	c1.319-0.418,1.737-0.613,1.936-0.724c0.324-0.18,0.561-0.475,0.834-0.816c0.277-0.346,0.592-0.737,1.01-1.056
	c-0.22,1.291-0.619,2.686-1.208,3.237l-0.779,0.729l0.779,0.729c0.588,0.552,0.987,1.946,1.208,3.238
	c-0.418-0.318-0.732-0.71-1.01-1.056c-0.274-0.342-0.511-0.637-0.832-0.814c-0.196-0.109-0.61-0.304-1.925-0.723l-0.902-0.287
	l-0.336,0.886c-0.662,1.745-2.179,3.177-4.162,3.93l-0.979,0.37l0.415,0.961c0.456,1.055,0.658,1.706,0.748,2.091
	c-0.861-0.029-1.629-0.144-3.442-0.562c-0.734-0.169-1.482-0.966-2.105-2.244l-0.184-0.376l-0.397-0.134
	c-2.935-0.985-4.832-3.337-4.832-5.991c0-2.641,1.883-4.989,4.798-5.982l0.399-0.136l0.181-0.38c0.63-1.32,1.39-2.143,2.14-2.315
	C48.566,25.364,49.334,25.25,50.195,25.221z M27.866,9.125c0-1.396,0.826-2.594,2.009-3.159c0.457-0.218,0.961-0.35,1.5-0.35
	s1.043,0.132,1.5,0.35c1.183,0.565,2.009,1.763,2.009,3.159c0,0.01-0.003,0.019-0.003,0.029c-0.011,1.383-0.831,2.57-2.006,3.13
	c-0.136,0.065-0.277,0.115-0.421,0.163c-0.342,0.112-0.7,0.187-1.079,0.187c-0.105,0-0.203-0.022-0.305-0.031
	c-0.425-0.037-0.827-0.143-1.195-0.319c-0.946-0.451-1.657-1.308-1.905-2.349C27.907,9.674,27.866,9.405,27.866,9.125z
	 M8.033,28.614l0.399-0.136l0.181-0.38c0.63-1.32,1.39-2.143,2.14-2.315c1.813-0.419,2.582-0.533,3.442-0.562
	c-0.091,0.392-0.299,1.059-0.771,2.146l-0.419,0.964l0.984,0.37c1.982,0.746,3.503,2.172,4.173,3.914l0.338,0.878l0.897-0.284
	c1.319-0.418,1.737-0.613,1.936-0.724c0.324-0.18,0.561-0.475,0.834-0.816c0.277-0.346,0.592-0.737,1.01-1.056
	c-0.22,1.291-0.619,2.686-1.208,3.237l-0.779,0.729l0.779,0.729c0.588,0.552,0.987,1.946,1.208,3.238
	c-0.418-0.318-0.732-0.71-1.01-1.056c-0.274-0.342-0.511-0.637-0.832-0.814c-0.196-0.109-0.61-0.304-1.925-0.723l-0.902-0.287
	l-0.336,0.886c-0.662,1.745-2.179,3.177-4.162,3.93l-0.979,0.37l0.415,0.961c0.456,1.055,0.658,1.706,0.748,2.091
	c-0.861-0.029-1.629-0.144-3.442-0.562c-0.734-0.169-1.482-0.966-2.105-2.244l-0.184-0.376l-0.397-0.134
	c-2.935-0.985-4.832-3.337-4.832-5.991C3.235,31.956,5.118,29.607,8.033,28.614z"/>
<path d="M7.22,34.365c1.666,0,1.666-2.583,0-2.583S5.555,34.365,7.22,34.365z"/>
<path d="M43.22,31.782c-1.666,0-1.666,2.583,0,2.583S44.886,31.782,43.22,31.782z"/>
<path d="M37.383,51.365c1.666,0,1.666-2.583,0-2.583S35.717,51.365,37.383,51.365z"/>
</svg>
