<?xml version="1.0" encoding="utf-8"?>
<!-- Generator: Adobe Illustrator 17.0.2, SVG Export Plug-In . SVG Version: 6.00 Build 0)  -->
<!DOCTYPE svg PUBLIC "-//W3C//DTD SVG 1.1//EN" "http://www.w3.org/Graphics/SVG/1.1/DTD/svg11.dtd">
<svg version="1.1" id="Capa_1" xmlns="http://www.w3.org/2000/svg" xmlns:xlink="http://www.w3.org/1999/xlink" x="0px" y="0px"
	 width="64px" height="64px" viewBox="0 0 64 64" enable-background="new 0 0 64 64" xml:space="preserve">
<path d="M43.643,20.277c-0.08-0.143-2-3.512-5.27-4.196c-0.004-0.006-0.42-0.662,0.282-3.289c0.72-1.196,1.099-2.557,1.099-3.951
	c0-4.234-3.445-7.678-7.679-7.678s-7.678,3.444-7.678,7.678c0,0.902,0.162,1.797,0.462,2.604c1.244,3.824,0.711,4.602,0.719,4.602
	c-3.304,0.718-5.223,4.087-5.303,4.23l-1.25,2.233h25.868L43.643,20.277z M24.985,19.51c0.373-0.241,0.786-0.435,1.231-0.531
	c0.842-0.183,1.512-0.672,1.938-1.415c1.047-1.823,0.313-4.724-0.462-7.103c-0.196-0.53-0.295-1.075-0.295-1.62
	c0-2.58,2.099-4.678,4.678-4.678c2.58,0,4.679,2.099,4.679,4.678c0,0.897-0.259,1.772-0.749,2.531l-0.124,0.191l-0.061,0.22
	c-0.764,2.741-0.771,4.597-0.021,5.84c0.427,0.709,1.085,1.178,1.903,1.355c0.433,0.094,0.844,0.287,1.22,0.531H24.985z"/>
<path d="M18.334,61.875h27.5c1.93,0,3.5-1.57,3.5-3.5v-31.25c0-1.93-1.57-3.5-3.5-3.5h-27.5c-1.93,0-3.5,1.57-3.5,3.5V37.5v7v7
	v6.875C14.834,60.305,16.404,61.875,18.334,61.875z M17.834,27.125c0-0.276,0.224-0.5,0.5-0.5h27.5c0.276,0,0.5,0.224,0.5,0.5v31.25
	c0,0.276-0.224,0.5-0.5,0.5h-27.5c-0.276,0-0.5-0.224-0.5-0.5V53h12.5c0.829,0,1.5-0.671,1.5-1.5s-0.671-1.5-1.5-1.5h-12.5v-4h12.5
	c0.829,0,1.5-0.671,1.5-1.5s-0.671-1.5-1.5-1.5h-12.5v-4h12.5c0.829,0,1.5-0.671,1.5-1.5s-0.671-1.5-1.5-1.5h-12.5V27.125z"/>
</svg>
