<?xml version="1.0" encoding="utf-8"?>
<!-- Generator: Adobe Illustrator 17.0.2, SVG Export Plug-In . SVG Version: 6.00 Build 0)  -->
<!DOCTYPE svg PUBLIC "-//W3C//DTD SVG 1.1//EN" "http://www.w3.org/Graphics/SVG/1.1/DTD/svg11.dtd">
<svg version="1.1" id="Capa_1" xmlns="http://www.w3.org/2000/svg" xmlns:xlink="http://www.w3.org/1999/xlink" x="0px" y="0px"
	 width="64px" height="64px" viewBox="0 0 64 64" enable-background="new 0 0 64 64" xml:space="preserve">
<path d="M8.856,47.227c1.442,1.279,3.571-0.835,2.121-2.121C3.801,38.74,3.446,27.389,12.62,23.544l1.007,31.533
	c0,3.909,3.181,7.09,7.09,7.09h22.733c3.909,0,7.09-3.181,7.089-7.042l1.006-31.537c9.064,3.888,8.681,15.177,1.533,21.518
	c-1.45,1.286,0.68,3.4,2.121,2.121c9.098-8.071,8.327-22.607-3.553-26.818l0.012-0.364c0-0.619-0.088-1.216-0.237-1.789l0.027-0.341
	l0.004-0.117c0-2.504-2.624-4.503-6.12-4.801c-0.027-0.002-0.052-0.006-0.079-0.008c-0.132-0.013-0.268-0.015-0.402-0.02
	c-0.095-0.004-0.187-0.014-0.283-0.014h-0.143H29.671V3.833c0-0.829-0.671-1.5-1.5-1.5h-5.963c-0.829,0-1.5,0.671-1.5,1.5v9.121
	h-0.966h-0.143c-0.096,0-0.188,0.011-0.283,0.014c-0.134,0.005-0.27,0.008-0.402,0.02c-0.027,0.002-0.052,0.006-0.079,0.008
	c-3.35,0.286-5.892,2.136-6.098,4.493c-0.095,0.191-0.153,0.414-0.153,0.676V18.5c0,0.127,0.014,0.245,0.039,0.356
	c-0.07,0.402-0.113,0.814-0.113,1.237l0.009,0.281C0.537,24.535-0.269,39.132,8.856,47.227z M47.541,55.077
	c0,2.255-1.834,4.09-4.09,4.09H20.717c-2.255,0-4.09-1.834-4.091-4.138l-0.849-26.571c1.211,0.689,2.774,1.1,4.503,1.1h23.606
	c1.729,0,3.291-0.411,4.503-1.1L47.541,55.077z M23.708,5.333h2.963v7.621h-2.963V5.333z M44.426,15.955
	c0.111,0,0.211,0.013,0.318,0.018c1.672,0.072,3.079,1.143,3.643,2.616l-0.469,6.008l-0.004,0.117c0,0.734-1.605,1.844-4.026,1.844
	H20.281c-2.42,0-4.026-1.11-4.026-1.844l-0.472-6.104c0.564-1.494,1.971-2.565,3.642-2.637c0.107-0.004,0.207-0.018,0.317-0.018
	H44.426z"/>
</svg>
