<?xml version="1.0" encoding="utf-8"?>
<!-- Generator: Adobe Illustrator 17.0.2, SVG Export Plug-In . SVG Version: 6.00 Build 0)  -->
<!DOCTYPE svg PUBLIC "-//W3C//DTD SVG 1.1//EN" "http://www.w3.org/Graphics/SVG/1.1/DTD/svg11.dtd">
<svg version="1.1" id="Capa_1" xmlns="http://www.w3.org/2000/svg" xmlns:xlink="http://www.w3.org/1999/xlink" x="0px" y="0px"
	 width="64px" height="64px" viewBox="0 0 64 64" enable-background="new 0 0 64 64" xml:space="preserve">
<path d="M18.084,12.667c-6.801,0-12.334,5.607-12.332,12.416c-0.027,0.496-0.625,12.234,4.316,20.447
	c2.91,4.835,6.703,5.558,8.705,5.558c3.8,0,7.292-2.496,8.121-5.806c1.23-4.907-0.936-7.553-2.369-9.304
	c-0.792-0.969-1.238-1.543-1.18-2.085c0.066-0.61,0.732-1.8,3.528-4.009c1.409-1.113,3.108-3.443,3.513-5.414
	c0.727-3.544,0.272-6.35-1.35-8.339C26.533,13.06,21.868,12.667,18.084,12.667z M27.447,23.865
	c-0.243,1.188-1.485,2.914-2.433,3.663c-3.063,2.42-4.454,4.226-4.651,6.04c-0.197,1.819,0.886,3.142,1.841,4.309
	c1.359,1.662,2.645,3.231,1.78,6.675c-0.497,1.983-2.786,3.536-5.211,3.536c-2.363,0-4.542-1.458-6.135-4.104
	C8.18,36.572,8.741,25.362,8.75,25.167c0-5.238,4.188-9.5,9.334-9.5c3.121,0,6.923,0.268,8.628,2.358
	C27.737,19.281,27.984,21.247,27.447,23.865z"/>
<circle cx="26.192" cy="8.105" r="3.375"/>
<circle cx="18.617" cy="7.978" r="2.75"/>
<circle cx="13.04" cy="9.652" r="2.125"/>
<circle cx="8.609" cy="12.302" r="1.701"/>
<circle cx="6.165" cy="15.78" r="1.279"/>
<path d="M36.58,40.882c2.796,2.209,3.461,3.399,3.527,4.009c0.059,0.542-0.387,1.117-1.18,2.085
	c-1.433,1.751-3.599,4.397-2.369,9.304c0.83,3.31,4.322,5.806,8.122,5.806c2.002,0,5.795-0.722,8.705-5.558
	c4.941-8.212,4.344-19.951,4.318-20.363c0-6.893-5.533-12.5-12.334-12.5c-3.785,0-8.45,0.394-10.953,3.462
	c-1.623,1.989-2.076,4.794-1.35,8.339C33.472,37.439,35.171,39.769,36.58,40.882z M36.741,29.025
	c1.705-2.09,5.507-2.358,8.629-2.358c5.146,0,9.334,4.262,9.336,9.584c0.007,0.112,0.579,11.303-3.891,18.732
	c-1.593,2.647-3.771,4.104-6.135,4.104c-2.426,0-4.715-1.553-5.212-3.536c-0.863-3.444,0.421-5.013,1.78-6.675
	c0.956-1.167,2.038-2.49,1.841-4.309c-0.196-1.813-1.588-3.62-4.65-6.039c-0.947-0.749-2.189-2.475-2.433-3.663
	C35.469,32.246,35.717,30.281,36.741,29.025z"/>
<circle cx="37.262" cy="19.105" r="3.375"/>
<circle cx="44.837" cy="18.978" r="2.75"/>
<circle cx="50.414" cy="20.652" r="2.125"/>
<circle cx="54.845" cy="23.302" r="1.701"/>
<circle cx="57.289" cy="26.78" r="1.279"/>
</svg>
