<?xml version="1.0" encoding="utf-8"?>
<!-- Generator: Adobe Illustrator 17.0.2, SVG Export Plug-In . SVG Version: 6.00 Build 0)  -->
<!DOCTYPE svg PUBLIC "-//W3C//DTD SVG 1.1//EN" "http://www.w3.org/Graphics/SVG/1.1/DTD/svg11.dtd">
<svg version="1.1" id="Capa_1" xmlns="http://www.w3.org/2000/svg" xmlns:xlink="http://www.w3.org/1999/xlink" x="0px" y="0px"
	 width="64px" height="64px" viewBox="0 0 64 64" enable-background="new 0 0 64 64" xml:space="preserve">
<path d="M23.456,30.762c-2.292,0-2.292,3.554,0,3.554S25.748,30.762,23.456,30.762z"/>
<path d="M34.711,34.094c2.292,0,2.292-3.554,0-3.554S32.419,34.094,34.711,34.094z"/>
<path d="M34.492,38.353c0-0.828-0.671-1.5-1.5-1.5c-0.667,0-1.232,0.435-1.427,1.037c-0.332,0.178-1.188,0.443-2.481,0.443
	s-2.15-0.266-2.481-0.444c-0.195-0.602-0.761-1.036-1.427-1.036c-0.829,0-1.5,0.672-1.5,1.5c0,2.059,2.716,2.98,5.409,2.98
	C31.776,41.333,34.492,40.411,34.492,38.353z"/>
<path d="M55.893,35.193c0.574-1.041,0.904-2.235,0.904-3.505c0-3.954-3.164-7.184-7.093-7.29
	c-3.103-8.415-11.414-14.195-20.62-14.195c-0.602,0-1.199,0.028-1.792,0.076c-1.012-0.119-2.011-0.333-2.951-0.691
	c-1.549-0.589-4.022-2.654-2.013-4.362c1.591-1.353,4.535-1.741,6.508-1.117c1.058,0.335,2.438,1.33,0.89,2.128
	c-1.127,0.581-2.182,0.518-3.328,0.028c-1.582-0.677-2.338,1.882-0.777,2.551c1.928,0.825,4.318,0.691,5.995-0.657
	c1.2-0.964,2.109-2.779,1.179-4.258c-2.064-3.283-7.167-3.225-10.357-1.827c-3.143,1.378-4.839,5.6-1.96,8.239
	c0.461,0.422,0.976,0.767,1.512,1.078c-6.173,2.098-11.25,6.839-13.525,13.008c-3.93,0.105-7.093,3.335-7.093,7.29
	c0,3.954,3.164,7.184,7.093,7.29c3.103,8.416,11.413,14.196,20.621,14.196c1.611,0,3.191-0.187,4.724-0.524
	c1.964,6.012,7.617,10.371,14.276,10.371c8.283,0,15.021-6.738,15.021-15.021C63.105,42.579,60.21,37.834,55.893,35.193z
	 M48.084,60.021c-5.299,0-9.799-3.45-11.395-8.218c-0.317-0.947-0.514-1.946-0.585-2.98c-0.019-0.273-0.042-0.545-0.042-0.823
	c0-6.435,5.086-11.69,11.448-11.992c0.192-0.009,0.38-0.029,0.574-0.029c2.111,0,4.095,0.551,5.821,1.511
	c3.694,2.054,6.201,5.993,6.201,10.511C60.105,54.629,54.713,60.021,48.084,60.021z M29.084,50.174
	c-8.305,0-15.761-5.428-18.131-13.2l-0.376-1.233L9.3,35.927c-0.208,0.031-0.42,0.054-0.637,0.054c-2.367,0-4.293-1.926-4.293-4.293
	s1.926-4.293,4.293-4.293c0.217,0,0.428,0.023,0.637,0.055l1.276,0.187l0.376-1.233c2.37-7.772,9.826-13.2,18.131-13.2
	s15.761,5.428,18.131,13.2l0.376,1.234l1.276-0.188c0.208-0.031,0.419-0.055,0.636-0.055c2.367,0,4.293,1.926,4.293,4.293
	c0,0.806-0.237,1.552-0.625,2.197c-1.592-0.576-3.3-0.906-5.088-0.906c-8.283,0-15.022,6.738-15.022,15.021
	c0,0.582,0.041,1.153,0.106,1.718C31.842,50.009,30.477,50.174,29.084,50.174z"/>
<path d="M54.201,40.384h-4.227c-0.42,0-0.799,0.174-1.071,0.452c-0.207,0.211-0.349,0.484-0.403,0.787
	c-0.015,0.085-0.026,0.172-0.026,0.261c0,0.828,0.671,1.5,1.5,1.5h0.607l-1.852,1.852c-0.634-0.378-1.329-0.638-2.061-0.764
	c-0.343-0.059-0.692-0.095-1.047-0.095c-1.626,0-3.155,0.633-4.305,1.783c-1.202,1.202-1.79,2.784-1.775,4.362
	c0.014,1.54,0.603,3.076,1.775,4.248c1.15,1.149,2.679,1.783,4.305,1.783c1.626,0,3.155-0.634,4.305-1.783s1.783-2.679,1.783-4.305
	c0-1.113-0.303-2.177-0.859-3.109l1.851-1.851v0.606c0,0.828,0.671,1.5,1.5,1.5s1.5-0.672,1.5-1.5v-4.228
	C55.701,41.056,55.03,40.384,54.201,40.384z M47.804,52.649c-1.167,1.166-3.203,1.165-4.368,0c-0.583-0.583-0.904-1.359-0.904-2.184
	c0-0.825,0.321-1.602,0.904-2.185s1.359-0.904,2.184-0.904c0.825,0,1.6,0.321,2.184,0.904
	C49.008,49.485,49.008,51.445,47.804,52.649z"/>
</svg>
