<?xml version="1.0" encoding="utf-8"?>
<!-- Generator: Adobe Illustrator 17.0.2, SVG Export Plug-In . SVG Version: 6.00 Build 0)  -->
<!DOCTYPE svg PUBLIC "-//W3C//DTD SVG 1.1//EN" "http://www.w3.org/Graphics/SVG/1.1/DTD/svg11.dtd">
<svg version="1.1" id="Capa_1" xmlns="http://www.w3.org/2000/svg" xmlns:xlink="http://www.w3.org/1999/xlink" x="0px" y="0px"
	 width="64px" height="64px" viewBox="0 0 64 64" enable-background="new 0 0 64 64" xml:space="preserve">
<path d="M8.917,61.667H55.25c3.584,0,6.5-2.916,6.5-6.5V8.833c0-3.584-2.916-6.5-6.5-6.5H8.917c-3.584,0-6.5,2.916-6.5,6.5v46.333
	C2.417,58.75,5.333,61.667,8.917,61.667z M5.417,8.833c0-1.93,1.57-3.5,3.5-3.5H55.25c1.93,0,3.5,1.57,3.5,3.5v46.333
	c0,1.93-1.57,3.5-3.5,3.5H8.917c-1.93,0-3.5-1.57-3.5-3.5V8.833z"/>
<path d="M10.022,30.318h18.91c0.829,0,1.5-0.671,1.5-1.5V9.908c0-0.829-0.671-1.5-1.5-1.5h-18.91c-0.829,0-1.5,0.671-1.5,1.5v18.91
	C8.522,29.646,9.193,30.318,10.022,30.318z M11.522,11.408h15.91v15.91h-15.91V11.408z"/>
<path d="M45.197,30.318c6.041,0,10.955-4.915,10.955-10.955S51.237,8.408,45.197,8.408s-10.955,4.915-10.955,10.955
	S39.156,30.318,45.197,30.318z M53.152,19.363c0,4.386-3.569,7.955-7.955,7.955s-7.955-3.569-7.955-7.955s3.569-7.955,7.955-7.955
	S53.152,14.977,53.152,19.363z"/>
<path d="M8.521,51.064l9.182,5.326c0.232,0.135,0.493,0.203,0.752,0.203c0.258,0,0.516-0.066,0.748-0.199l9.204-5.29
	c0.464-0.267,0.751-0.761,0.752-1.297l0.021-10.615c0.001-0.536-0.284-1.032-0.748-1.3l-9.183-5.326
	c-0.463-0.27-1.035-0.271-1.5-0.003l-9.203,5.289c-0.464,0.267-0.751,0.761-0.752,1.297L7.773,49.764
	C7.772,50.299,8.057,50.795,8.521,51.064z M10.793,40.021l7.702-4.426l7.684,4.457l-0.018,8.883l-7.702,4.426l-7.684-4.457
	L10.793,40.021z"/>
<path d="M38.251,47.508l-2.249,6.919c-0.201,0.618,0.02,1.295,0.545,1.677c0.263,0.191,0.572,0.287,0.882,0.287
	s0.619-0.096,0.882-0.287l5.885-4.276l5.885,4.276c0.526,0.382,1.237,0.382,1.764,0c0.525-0.382,0.746-1.059,0.545-1.677
	l-2.248-6.919l5.886-4.276c0.525-0.382,0.746-1.059,0.545-1.677c-0.201-0.618-0.777-1.037-1.427-1.037h-7.275l-2.248-6.918
	c-0.201-0.618-0.777-1.037-1.427-1.037s-1.226,0.418-1.427,1.037l-2.248,6.918h-7.274c-0.65,0-1.226,0.418-1.427,1.037
	c-0.201,0.618,0.02,1.295,0.545,1.677L38.251,47.508z M41.612,43.519c0.65,0,1.226-0.418,1.427-1.037l1.158-3.564l1.158,3.564
	c0.201,0.618,0.777,1.037,1.427,1.037h3.748l-3.032,2.203c-0.525,0.382-0.746,1.059-0.545,1.677l1.158,3.564l-3.032-2.203
	c-0.526-0.382-1.237-0.382-1.764,0l-3.032,2.203l1.158-3.564c0.201-0.618-0.02-1.295-0.545-1.677l-3.032-2.203H41.612z"/>
</svg>
