<?xml version="1.0" encoding="utf-8"?>
<!-- Generator: Adobe Illustrator 17.0.2, SVG Export Plug-In . SVG Version: 6.00 Build 0)  -->
<!DOCTYPE svg PUBLIC "-//W3C//DTD SVG 1.1//EN" "http://www.w3.org/Graphics/SVG/1.1/DTD/svg11.dtd">
<svg version="1.1" id="Capa_1" xmlns="http://www.w3.org/2000/svg" xmlns:xlink="http://www.w3.org/1999/xlink" x="0px" y="0px"
	 width="64px" height="64px" viewBox="0 0 64 64" enable-background="new 0 0 64 64" xml:space="preserve">
<path d="M14.25,40.74c0.829,0,1.5-0.671,1.5-1.5v-2.616c0.94-0.193,1.815-0.567,2.59-1.079l1.854,1.854
	c0.293,0.293,0.677,0.439,1.061,0.439s0.768-0.146,1.061-0.439c0.586-0.585,0.586-1.536,0-2.121l-1.854-1.854
	c0.512-0.775,0.886-1.65,1.08-2.59h2.616c0.829,0,1.5-0.671,1.5-1.5s-0.671-1.5-1.5-1.5h-2.616c-0.193-0.941-0.567-1.815-1.08-2.591
	l1.854-1.854c0.586-0.585,0.586-1.536,0-2.121c-0.586-0.586-1.535-0.586-2.121,0l-1.854,1.854c-0.775-0.512-1.65-0.886-2.59-1.079
	v-2.616c0-0.829-0.671-1.5-1.5-1.5s-1.5,0.671-1.5,1.5v2.616c-0.94,0.193-1.815,0.567-2.59,1.079l-1.854-1.854
	c-0.586-0.586-1.535-0.586-2.121,0c-0.586,0.585-0.586,1.536,0,2.121l1.854,1.854c-0.512,0.775-0.886,1.65-1.08,2.591H4.344
	c-0.829,0-1.5,0.671-1.5,1.5s0.671,1.5,1.5,1.5H6.96c0.193,0.94,0.567,1.815,1.08,2.59l-1.854,1.854
	c-0.586,0.585-0.586,1.536,0,2.121c0.293,0.293,0.677,0.439,1.061,0.439s0.768-0.146,1.061-0.439l1.854-1.854
	c0.775,0.512,1.65,0.886,2.59,1.079v2.616C12.75,40.068,13.422,40.74,14.25,40.74z M9.808,29.333c0-2.45,1.993-4.443,4.443-4.443
	s4.443,1.993,4.443,4.443s-1.993,4.442-4.443,4.442S9.808,31.783,9.808,29.333z"/>
<path d="M33.304,62.507c2.684,0,5.25-1,7.224-2.816c0.477-0.439,0.592-1.112,0.356-1.678c-0.154-0.595-0.661-1.06-1.309-1.121
	c-0.253-0.023-6.123-0.629-6.243-5.194c0.12-4.533,5.994-5.17,6.243-5.195c0.593-0.055,1.098-0.456,1.285-1.022
	c0.188-0.565,0.022-1.188-0.421-1.587c-1.961-1.764-4.496-2.735-7.136-2.735c-5.886,0-10.674,4.788-10.674,10.674
	S27.418,62.507,33.304,62.507z M33.304,44.16c0.773,0,1.533,0.116,2.258,0.338c-2.543,1.107-5.026,3.229-5.221,6.876
	c-0.008,0.063-0.019,0.124-0.019,0.189c0,0.037,0.006,0.071,0.007,0.108c-0.001,0.055-0.007,0.107-0.007,0.163
	c0,0.112,0.014,0.22,0.037,0.324c0.263,3.728,2.929,5.839,5.558,6.886c-0.83,0.301-1.711,0.464-2.613,0.464
	c-4.231,0-7.674-3.442-7.674-7.674S29.072,44.16,33.304,44.16z"/>
<path d="M61.332,25.918c-0.201-0.618-0.777-1.037-1.427-1.037h-6.158l-1.903-5.857c-0.201-0.618-0.777-1.037-1.427-1.037
	s-1.226,0.418-1.427,1.037l-1.903,5.857h-6.159c-0.65,0-1.226,0.418-1.427,1.037c-0.201,0.618,0.02,1.295,0.545,1.677l4.983,3.62
	l-1.903,5.857c-0.201,0.618,0.02,1.295,0.545,1.677c0.263,0.191,0.572,0.287,0.882,0.287s0.619-0.096,0.882-0.287l4.982-3.62
	l4.982,3.62c0.526,0.382,1.237,0.382,1.764,0c0.525-0.382,0.746-1.059,0.545-1.677l-1.903-5.858l4.982-3.62
	C61.312,27.213,61.533,26.536,61.332,25.918z M52.615,31.105l0.813,2.504l-2.129-1.547c-0.263-0.191-0.572-0.287-0.882-0.287
	s-0.619,0.096-0.882,0.287l-2.129,1.547l0.813-2.503c0.201-0.618-0.02-1.295-0.545-1.677l-2.129-1.547h2.632
	c0.65,0,1.226-0.418,1.427-1.037l0.813-2.503l0.813,2.503c0.201,0.618,0.777,1.037,1.427,1.037h2.631l-2.129,1.547
	C52.634,29.81,52.414,30.487,52.615,31.105z"/>
<path d="M31.25,1.667c-0.829,0-1.5,0.671-1.5,1.5v3.637L14.167,7.669c-0.795,0.044-1.417,0.702-1.417,1.498v4.5
	c0,0.829,0.671,1.5,1.5,1.5s1.5-0.671,1.5-1.5v-3.081l14-0.778v29.859c0,0.829,0.671,1.5,1.5,1.5s1.5-0.671,1.5-1.5V9.641l16-0.889
	v4.915c0,0.829,0.671,1.5,1.5,1.5s1.5-0.671,1.5-1.5v-6.5c0-0.412-0.17-0.806-0.469-1.09c-0.299-0.283-0.713-0.428-1.114-0.408
	L32.75,6.637v-3.47C32.75,2.338,32.079,1.667,31.25,1.667z"/>
</svg>
