<?xml version="1.0" encoding="utf-8"?>
<!-- Generator: Adobe Illustrator 17.0.2, SVG Export Plug-In . SVG Version: 6.00 Build 0)  -->
<!DOCTYPE svg PUBLIC "-//W3C//DTD SVG 1.1//EN" "http://www.w3.org/Graphics/SVG/1.1/DTD/svg11.dtd">
<svg version="1.1" id="Capa_1" xmlns="http://www.w3.org/2000/svg" xmlns:xlink="http://www.w3.org/1999/xlink" x="0px" y="0px"
	 width="64px" height="64px" viewBox="0 0 64 64" enable-background="new 0 0 64 64" xml:space="preserve">
<path d="M52.833,20.167h-2.886c-1.997-10.074-7.47-19.418-19.17-19.263C21.146,1.033,13.99,10.915,11.939,20.167h-0.773
	c-3.584,0-6.5,2.916-6.5,6.5V55c0,3.584,2.916,6.5,6.5,6.5h41.667c3.584,0,6.5-2.916,6.5-6.5V26.667
	C59.333,23.083,56.417,20.167,52.833,20.167z M30.777,3.904c6.663-0.645,10.914,3.251,13.508,8.444
	c-7.175-6.026-18.701-5.836-26.092,0.235C21.104,7.969,25.491,4.416,30.777,3.904z M17.242,17.778
	c6.283-8.793,20.641-9.378,27.163-1.1c0.309,1.147,0.515,2.315,0.696,3.489H17.083C17.151,19.366,17.192,18.557,17.242,17.778z
	 M56.333,55c0,1.93-1.57,3.5-3.5,3.5H11.167c-1.93,0-3.5-1.57-3.5-3.5V26.667c0-1.93,1.57-3.5,3.5-3.5h0.287
	c-0.047,0.472-0.085,0.942-0.102,1.403c-0.21,0.406,1.56,2.636,2.388,1.984c1.576-0.616,2.39-1.87,2.84-3.386h28.95
	c0.108,0.801,0.222,1.601,0.357,2.398c0.105,0.618,0.835,1.142,1.446,1.101c0.451-0.03,0.873-0.039,1.305-0.025
	c0.918,0.368,2.136-0.061,2.029-1.309c0-0.003-0.001-0.006-0.001-0.009c0-0.053,0.006-0.101,0.001-0.157
	c-0.061-0.664-0.137-1.332-0.225-2h2.392c1.93,0,3.5,1.57,3.5,3.5V55z"/>
<path d="M14.167,31.951h3v1.934c0,0.828,0.671,1.5,1.5,1.5s1.5-0.672,1.5-1.5v-1.934h29.667c0.829,0,1.5-0.672,1.5-1.5
	s-0.671-1.5-1.5-1.5H18.667h-4.5c-0.829,0-1.5,0.672-1.5,1.5S13.338,31.951,14.167,31.951z"/>
<path d="M24,37.333h-8.667c-1.378,0-2.5,1.121-2.5,2.5V54.5c0,1.379,1.122,2.5,2.5,2.5H24c1.378,0,2.5-1.121,2.5-2.5V39.833
	C26.5,38.454,25.378,37.333,24,37.333z M15.833,40.333H23.5v4.196c-0.127-0.006-0.259-0.002-0.399,0.025
	c-2.47,0.476-4.87,0.156-7.268-0.428V40.333z M23.5,54h-7.667v-6.805c2.536,0.546,5.064,0.75,7.667,0.313V54z"/>
<path d="M49.656,37.333H33.677c-1.906,0-3.344,1.075-3.344,2.5V54.5c0,1.425,1.438,2.5,3.344,2.5h15.979
	C51.562,57,53,55.925,53,54.5V39.833C53,38.408,51.562,37.333,49.656,37.333z M50,53.968C49.908,53.986,49.792,54,49.656,54H33.677
	c-0.136,0-0.251-0.014-0.344-0.032V40.365c0.092-0.019,0.208-0.032,0.344-0.032h15.979c0.136,0,0.251,0.014,0.344,0.032V53.968z"/>
<path d="M46.041,45.413c-0.11,0-0.217,0.012-0.322,0.032c-0.01-0.025-0.023-0.049-0.033-0.073c0.089-0.06,0.174-0.128,0.252-0.206
	c0.661-0.661,0.661-1.733,0-2.394c-0.661-0.661-1.733-0.661-2.394,0c-0.078,0.079-0.146,0.164-0.206,0.252
	c-0.025-0.01-0.049-0.023-0.073-0.033c0.02-0.104,0.032-0.211,0.032-0.322c0-0.935-0.758-1.693-1.693-1.693
	s-1.693,0.758-1.693,1.693c0,0.11,0.012,0.217,0.032,0.322c-0.025,0.01-0.049,0.023-0.073,0.033
	c-0.06-0.089-0.128-0.174-0.206-0.252c-0.661-0.661-1.733-0.661-2.394,0s-0.661,1.733,0,2.394c0.079,0.079,0.164,0.146,0.252,0.206
	c-0.01,0.025-0.023,0.049-0.033,0.073c-0.104-0.02-0.211-0.032-0.322-0.032c-0.935,0-1.693,0.758-1.693,1.693
	s0.758,1.693,1.693,1.693c0.11,0,0.217-0.012,0.322-0.032c0.01,0.025,0.023,0.049,0.033,0.073c-0.089,0.06-0.174,0.128-0.252,0.206
	c-0.661,0.661-0.661,1.733,0,2.394s1.733,0.661,2.394,0c0.078-0.079,0.146-0.164,0.206-0.252c0.025,0.01,0.049,0.023,0.073,0.033
	c-0.02,0.104-0.032,0.211-0.032,0.322c0,0.935,0.758,1.693,1.693,1.693s1.693-0.758,1.693-1.693c0-0.11-0.012-0.217-0.032-0.322
	c0.025-0.01,0.049-0.023,0.073-0.033c0.06,0.089,0.128,0.174,0.206,0.252c0.661,0.661,1.733,0.661,2.394,0
	c0.661-0.661,0.661-1.733,0-2.394c-0.078-0.079-0.164-0.146-0.252-0.206c0.01-0.025,0.023-0.049,0.033-0.073
	c0.104,0.02,0.211,0.032,0.322,0.032c0.935,0,1.693-0.758,1.693-1.693S46.976,45.413,46.041,45.413z M44.183,49.683
	c-0.672,0.672-1.566,1.042-2.516,1.042s-1.844-0.37-2.516-1.042c-0.672-0.672-1.042-1.566-1.042-2.516
	c0-0.951,0.37-1.844,1.042-2.516c0.672-0.672,1.566-1.042,2.516-1.042s1.844,0.37,2.516,1.042c0.672,0.672,1.042,1.566,1.042,2.516
	C45.225,48.117,44.855,49.011,44.183,49.683z"/>
<path d="M41.667,44.308c-0.732,0-1.463,0.279-2.021,0.837c-1.116,1.116-1.116,2.926,0,4.042c0.558,0.558,1.29,0.837,2.021,0.837
	s1.463-0.279,2.021-0.837c1.116-1.116,1.116-2.926,0-4.042C43.13,44.587,42.398,44.308,41.667,44.308z"/>
</svg>
