<?xml version="1.0" encoding="utf-8"?>
<!-- Generator: Adobe Illustrator 17.0.2, SVG Export Plug-In . SVG Version: 6.00 Build 0)  -->
<!DOCTYPE svg PUBLIC "-//W3C//DTD SVG 1.1//EN" "http://www.w3.org/Graphics/SVG/1.1/DTD/svg11.dtd">
<svg version="1.1" id="Capa_1" xmlns="http://www.w3.org/2000/svg" xmlns:xlink="http://www.w3.org/1999/xlink" x="0px" y="0px"
	 width="64px" height="64px" viewBox="0 0 64 64" enable-background="new 0 0 64 64" xml:space="preserve">
<path d="M45.084,22.667c0-3.584-2.916-6.5-6.5-6.5H26.395c-3.584,0-6.5,2.916-6.5,6.5c0,0.828,0.672,1.5,1.5,1.5
	c0.119,0,0.233-0.017,0.343-0.043c-1.158,1.699-1.843,3.828-1.843,5.543v9.5v9.916v6.25c0,3.584,2.916,6.5,6.5,6.5h12.189
	c3.584,0,6.5-2.916,6.5-6.5V29.667c0-1.715-0.685-3.844-1.843-5.543c0.111,0.026,0.225,0.043,0.343,0.043
	C44.412,24.167,45.084,23.495,45.084,22.667z M42.084,55.333c0,1.93-1.57,3.5-3.5,3.5H26.395c-1.93,0-3.5-1.57-3.5-3.5v-4.75h2
	v2.326c0,2.342,1.905,4.247,4.246,4.247h6.696c2.342,0,4.247-1.905,4.247-4.247V30.915H24.895v6.752h-2v-8
	c0-2.222,1.844-5.5,3.5-5.5h12.189c1.656,0,3.5,3.278,3.5,5.5V55.333z M27.895,40.667h3.522c0.828,0,1.5-0.672,1.5-1.5
	s-0.672-1.5-1.5-1.5h-3.522v-3.752h9.189v18.994c0,0.688-0.56,1.247-1.247,1.247h-6.696c-0.688,0-1.246-0.56-1.246-1.247v-2.326
	h3.522c0.828,0,1.5-0.672,1.5-1.5s-0.672-1.5-1.5-1.5h-3.522V40.667z M24.895,47.583h-2v-6.916h2V47.583z M38.584,21.167H26.395
	c-1.324,0-2.515,0.634-3.51,1.594c0.002-0.032,0.01-0.062,0.01-0.094c0-1.93,1.57-3.5,3.5-3.5h12.189c1.93,0,3.5,1.57,3.5,3.5
	c0,0.032,0.008,0.063,0.01,0.094C41.099,21.801,39.908,21.167,38.584,21.167z"/>
<path d="M32.489,2.396c-2.55,0-4.625,2.075-4.625,4.625v5.146H24.77c-0.828,0-1.5,0.672-1.5,1.5s0.672,1.5,1.5,1.5h15.439
	c0.828,0,1.5-0.672,1.5-1.5s-0.672-1.5-1.5-1.5h-3.095V7.021C37.114,4.471,35.039,2.396,32.489,2.396z M30.864,12.167V7.021
	c0-0.896,0.729-1.625,1.625-1.625s1.625,0.729,1.625,1.625v5.146H30.864z"/>
</svg>
