<?xml version="1.0" encoding="utf-8"?>
<!-- Generator: Adobe Illustrator 17.0.2, SVG Export Plug-In . SVG Version: 6.00 Build 0)  -->
<!DOCTYPE svg PUBLIC "-//W3C//DTD SVG 1.1//EN" "http://www.w3.org/Graphics/SVG/1.1/DTD/svg11.dtd">
<svg version="1.1" id="Capa_1" xmlns="http://www.w3.org/2000/svg" xmlns:xlink="http://www.w3.org/1999/xlink" x="0px" y="0px"
	 width="64px" height="64px" viewBox="0 0 64 64" enable-background="new 0 0 64 64" xml:space="preserve">
<path d="M37.453,15.565h-0.317c-1.867,0-3.387,1.519-3.387,3.386v4.837c-0.983-0.144-1.966-0.132-2.933,0.021v-4.857
	c0-1.867-1.52-3.386-3.387-3.386h-0.318c-1.867,0-3.386,1.519-3.386,3.386v9.804c-0.834,1.484-1.273,3.151-1.273,4.841
	c0,5.465,4.445,9.91,9.91,9.91s9.91-4.445,9.91-9.91c0-1.808-0.494-3.571-1.433-5.121v-9.523
	C40.84,17.084,39.32,15.565,37.453,15.565z M32.362,41.506c-4.361,0-7.91-3.549-7.91-7.91c0-1.421,0.391-2.823,1.131-4.057
	l0.143-0.237V18.951c0-0.764,0.622-1.386,1.386-1.386h0.318c0.765,0,1.387,0.622,1.387,1.386v7.452l1.286-0.385
	c1.417-0.424,2.903-0.446,4.378-0.036l1.269,0.354v-7.385c0-0.764,0.622-1.386,1.387-1.386h0.317c0.765,0,1.387,0.622,1.387,1.386
	v10.106L39,29.306c0.833,1.285,1.272,2.769,1.272,4.29C40.272,37.957,36.724,41.506,32.362,41.506z"/>
<path d="M35.456,35.188c-0.414,0-0.75,0.336-0.75,0.75c0,0,0,0,0,0c0,0.439-0.357,0.797-0.797,0.797s-0.797-0.357-0.797-0.797
	c0,0,0,0,0,0c0-0.056-0.02-0.106-0.032-0.158c0.191-0.187,0.312-0.446,0.312-0.735c0-0.569-0.461-0.583-1.03-0.583
	s-1.03,0.014-1.03,0.583c0,0.289,0.12,0.548,0.312,0.735c-0.012,0.053-0.032,0.102-0.032,0.158c0,0,0,0,0,0
	c0,0.439-0.357,0.797-0.797,0.797s-0.797-0.357-0.797-0.797c0,0,0,0,0,0c0-0.414-0.336-0.75-0.75-0.75
	c-0.414,0-0.75,0.336-0.75,0.75c0,1.267,1.03,2.297,2.297,2.297c0.598,0,1.138-0.235,1.547-0.61c0.409,0.375,0.949,0.61,1.547,0.61
	c1.267,0,2.297-1.03,2.297-2.297C36.206,35.524,35.87,35.188,35.456,35.188z"/>
<path d="M28.565,32.439c-0.864,0-0.864,1.34,0,1.34C29.429,33.779,29.429,32.439,28.565,32.439z"/>
<path d="M35.713,32.439c-0.864,0-0.864,1.34,0,1.34C36.577,33.779,36.577,32.439,35.713,32.439z"/>
<path d="M40.262,1.446c-0.733,0-1.166,0.059-1.245,0.07l-1.151,0.171l-0.12,1.158c-0.557,5.383-4.521,5.655-5.321,5.655h-0.135
	c-0.789,0-4.753-0.272-5.31-5.655l-0.12-1.158l-1.152-0.171c-0.079-0.012-0.511-0.07-1.244-0.07c-2.532,0-9.201,0.734-16.412,7.538
	c-0.922,0.87-1.093,2.385-0.39,3.447l4.024,6.104c0.548,0.83,1.56,1.272,2.555,1.123c-1.47,6.581-4.048,22.373-0.068,39.826
	c0.278,1.22,1.435,2.14,2.69,2.14h11.25c1.058,0,2.235-0.648,2.802-1.541l1.448-2.283l1.446,2.28
	c0.565,0.895,1.744,1.544,2.804,1.544h11.25c1.256,0,2.412-0.92,2.691-2.141c3.979-17.452,1.4-33.244-0.069-39.825
	c0.13,0.02,0.261,0.03,0.393,0.03c0.877,0,1.686-0.432,2.163-1.155l4.022-6.101c0.704-1.064,0.533-2.579-0.389-3.449
	C49.463,2.181,42.794,1.446,40.262,1.446z M50.751,16.557l-5.006-2.784l1.055,3.532c0.059,0.194,5.748,19.676,0.872,41.32
	l-11.041,0.001c-0.081-0.011-0.245-0.101-0.287-0.149l-2.18-3.435c-0.422-0.666-1.078-1.047-1.802-1.047
	c-0.725,0-1.382,0.382-1.802,1.046l-2.169,3.42c-0.053,0.063-0.217,0.154-0.279,0.164h-11.06
	c-4.866-21.608,0.813-41.126,0.872-41.321l1.051-3.529l-5.002,2.782l-3.673-5.57c6.103-5.667,11.564-6.482,13.893-6.537
	c1.143,5.527,5.526,7.052,8.096,7.052h0.146c2.569,0,6.953-1.524,8.096-7.052c2.328,0.055,7.79,0.87,13.893,6.537L50.751,16.557z"/>
</svg>
