<?xml version="1.0" encoding="utf-8"?>
<!-- Generator: Adobe Illustrator 17.0.2, SVG Export Plug-In . SVG Version: 6.00 Build 0)  -->
<!DOCTYPE svg PUBLIC "-//W3C//DTD SVG 1.1//EN" "http://www.w3.org/Graphics/SVG/1.1/DTD/svg11.dtd">
<svg version="1.1" id="Capa_1" xmlns="http://www.w3.org/2000/svg" xmlns:xlink="http://www.w3.org/1999/xlink" x="0px" y="0px"
	 width="64px" height="64px" viewBox="0 0 64 64" enable-background="new 0 0 64 64" xml:space="preserve">
<path d="M51.914,35.181c-5.644-0.414-11.415,0.705-17.033,1.127c-7.616,0.571-14.953-1.953-22.334-3.434
	c-0.253-0.051-0.488-0.047-0.704-0.002c-2.744-0.699-5.536-1.252-8.42-1.535c-1.668-0.163-2.014,1.828-1.079,2.807
	c-0.031,0.154-0.046,0.314-0.026,0.478l1.989,16.424c0.051,5.428,4.481,9.827,9.92,9.827h35.785c5.423,0,9.844-4.374,9.92-9.78
	l1.676-9.191C65.489,37.953,53.973,35.332,51.914,35.181z M56.958,50.683l-0.024,0.27c0,3.816-3.104,6.921-6.921,6.921H14.228
	c-3.815,0-6.92-3.104-6.92-6.921L5.375,34.906c12.81,1.785,24.384,8.402,37.351,9.638c3.979,0.379,10.837,0.83,15.48-0.704
	L56.958,50.683z M51.914,38.506c1.858,0.049,3.643,0.416,5.315,1.163c0.31,0.138,0.622,0.265,0.923,0.432
	c0.159,0.088-2.916,0.654-3.49,0.727c-6.919,0.878-13.815,0.539-20.589-1.131c-0.337-0.083-0.671-0.174-1.006-0.262
	c2.073,0.061,4.186,0.012,6.372-0.201c2.389-0.233,4.77-0.463,7.157-0.606C48.363,38.523,50.133,38.459,51.914,38.506z"/>
<path d="M33.144,20.735c0-3.24-2.637-5.877-5.878-5.877c-3.24,0-5.877,2.637-5.877,5.877c0,3.241,2.637,5.878,5.877,5.878
	C30.507,26.613,33.144,23.977,33.144,20.735z M24.389,20.735c0-0.602,0.188-1.161,0.505-1.623c-0.152,0.877,0.346,1.886,1.497,1.886
	c1.877,0,2.017-2.684,0.426-3.094c0.147-0.023,0.295-0.045,0.449-0.045c1.587,0,2.878,1.291,2.878,2.877
	c0,1.587-1.291,2.878-2.878,2.878C25.68,23.613,24.389,22.322,24.389,20.735z"/>
<path d="M38.198,27.039c0,3.241,2.637,5.878,5.878,5.878s5.878-2.637,5.878-5.878c0-3.24-2.637-5.877-5.878-5.877
	S38.198,23.799,38.198,27.039z M46.954,27.039c0,1.587-1.291,2.878-2.878,2.878s-2.878-1.291-2.878-2.878
	c0-0.245,0.04-0.48,0.098-0.707c0.153,0.62,0.638,1.145,1.466,1.145c1.925,0,2.024-2.824,0.302-3.122
	c0.316-0.119,0.654-0.193,1.012-0.193C45.663,24.162,46.954,25.453,46.954,27.039z"/>
<path d="M40.924,5.402c-3.24,0-5.877,2.637-5.877,5.878c0,3.24,2.637,5.877,5.877,5.877c3.241,0,5.878-2.637,5.878-5.877
	C46.802,8.039,44.165,5.402,40.924,5.402z M40.924,14.157c-1.586,0-2.877-1.291-2.877-2.877c0-0.292,0.057-0.568,0.138-0.834
	c0.053,0.742,0.554,1.446,1.514,1.446c2.033,0,2.033-3.152,0-3.152c-0.043,0-0.08,0.009-0.121,0.012
	c0.404-0.216,0.858-0.35,1.347-0.35c1.587,0,2.878,1.291,2.878,2.878C43.802,12.866,42.511,14.157,40.924,14.157z"/>
</svg>
