<?xml version="1.0" encoding="utf-8"?>
<!-- Generator: Adobe Illustrator 17.0.2, SVG Export Plug-In . SVG Version: 6.00 Build 0)  -->
<!DOCTYPE svg PUBLIC "-//W3C//DTD SVG 1.1//EN" "http://www.w3.org/Graphics/SVG/1.1/DTD/svg11.dtd">
<svg version="1.1" id="Capa_1" xmlns="http://www.w3.org/2000/svg" xmlns:xlink="http://www.w3.org/1999/xlink" x="0px" y="0px"
	 width="64px" height="64px" viewBox="0 0 64 64" enable-background="new 0 0 64 64" xml:space="preserve">
<path d="M1.531,20.351l-0.1,0.608l6.806,9.588l6.116-2.326c-0.545,4.523-1.35,14.059,0.493,20.505
	c0.419,2.861,2.749,7.778,8.702,8.14v0.006h0.113c0.194,0.01,0.379,0.03,0.58,0.03c0.262,0,0.533-0.012,0.808-0.03h5.465h2.887
	h5.384c0.275,0.018,0.547,0.03,0.808,0.03c0.201,0,0.387-0.02,0.58-0.03h0.193v-0.01c5.27-0.359,7.677-4.3,8.424-7.17l0.25-0.856
	c1.883-6.448,1.069-16.068,0.522-20.616l6.115,2.326l6.807-9.588l-0.1-0.608c-0.575-3.521-3.767-7.07-9.486-10.549
	c-4.078-2.48-7.946-4.01-8.109-4.073l-1.207-0.475L42.94,6.381c-2.406,4.217-10.464,4.275-10.899,4.275c-0.001,0-0.002,0-0.003,0
	l-0.645-0.009c-1.75-0.061-8.289-0.538-10.417-4.266l-0.644-1.127l-1.207,0.475c-0.163,0.063-4.031,1.593-8.109,4.073
	C5.298,13.281,2.106,16.83,1.531,20.351z M19.127,8.975c2.924,3.621,8.472,4.45,11.275,4.633v40.265h-3.946
	c-0.572-4.443-3.754-7.046-8.756-7.046c-0.084,0-0.166,0.001-0.245,0.002c-1.792-7.988,0.186-20.538,0.207-20.67l0.411-2.562
	l-8.732,3.322l-4.72-6.65C5.995,15.521,14.666,10.9,19.127,8.975z M25.049,55.372L25.049,55.372L25.049,55.372
	C25.049,55.372,25.049,55.372,25.049,55.372z M18.25,49.861c2.945,0.15,4.675,1.481,5.149,3.981
	c-0.105-0.011-0.213-0.019-0.314-0.034c-2.821-0.42-4.157-2.316-4.774-3.802C18.291,49.957,18.268,49.909,18.25,49.861z
	 M59.297,20.268l-4.721,6.65l-8.732-3.323l0.412,2.563c0.021,0.132,1.998,12.657,0.21,20.653c-0.127-0.004-0.261-0.006-0.399-0.006
	c-4.918,0-8.047,2.61-8.607,7.066h-3.943V13.607c2.803-0.183,8.351-1.012,11.274-4.633C49.252,10.897,57.922,15.514,59.297,20.268z
	 M40.761,53.801c-0.079,0.012-0.164,0.019-0.246,0.029c0.467-2.521,2.17-3.857,5.071-3.992c-0.023,0.059-0.05,0.12-0.076,0.181
	C44.889,51.487,43.551,53.372,40.761,53.801z"/>
</svg>
