<?xml version="1.0" encoding="utf-8"?>
<!-- Generator: Adobe Illustrator 17.0.2, SVG Export Plug-In . SVG Version: 6.00 Build 0)  -->
<!DOCTYPE svg PUBLIC "-//W3C//DTD SVG 1.1//EN" "http://www.w3.org/Graphics/SVG/1.1/DTD/svg11.dtd">
<svg version="1.1" id="Capa_1" xmlns="http://www.w3.org/2000/svg" xmlns:xlink="http://www.w3.org/1999/xlink" x="0px" y="0px"
	 width="64px" height="64px" viewBox="0 0 64 64" enable-background="new 0 0 64 64" xml:space="preserve">
<path d="M50.306,20.095c0.675,0.477,1.612,0.314,2.09-0.364c1.905-2.711,2.957-5.456,3.04-7.938
	c0.101-3.012-1.207-5.561-3.782-7.371C46.707,0.944,40.41,2.551,36.335,8.348L8.589,48.785c-0.059,0.086-0.108,0.177-0.146,0.269
	c-1.476,1.376-2.405,3.331-2.405,5.503c0,4.155,3.38,7.535,7.534,7.535s7.534-3.38,7.534-7.535c0-4.154-3.38-7.534-7.534-7.534
	c-0.047,0-0.092,0.006-0.139,0.007l1.805-2.63c3.148,2.029,7.053,3.116,11.16,3.116c1.213,0,2.442-0.094,3.673-0.284
	c5.718-0.884,10.653-3.748,13.541-7.856c2.884-4.103,3.601-9.245,2.018-14.479c-1.419-4.69-4.603-9.061-8.747-12.042l1.919-2.796
	c2.577-3.667,7.017-6.072,11.129-3.183c1.755,1.234,2.575,2.809,2.509,4.816c-0.063,1.897-0.927,4.08-2.497,6.312
	C49.465,18.683,49.628,19.619,50.306,20.095z M13.571,50.023c2.5,0,4.534,2.034,4.534,4.534c0,2.5-2.034,4.535-4.534,4.535
	s-4.534-2.034-4.534-4.535C9.037,52.058,11.071,50.023,13.571,50.023z M42.756,25.766c1.311,4.332,0.742,8.553-1.601,11.885
	c-2.421,3.445-6.629,5.856-11.545,6.617c-4.647,0.72-9.216-0.146-12.673-2.346L35.183,15.33
	C38.775,17.932,41.531,21.715,42.756,25.766z"/>
<path d="M39.759,47.023c-4.155,0-7.535,3.38-7.535,7.534c0,4.155,3.38,7.535,7.535,7.535c4.154,0,7.534-3.38,7.534-7.535
	C47.293,50.403,43.913,47.023,39.759,47.023z M39.759,59.092c-2.501,0-4.535-2.034-4.535-4.535c0-2.5,2.034-4.534,4.535-4.534
	c2.5,0,4.534,2.034,4.534,4.534C44.293,57.058,42.259,59.092,39.759,59.092z"/>
</svg>
