<?xml version="1.0" encoding="utf-8"?>
<!-- Generator: Adobe Illustrator 17.0.2, SVG Export Plug-In . SVG Version: 6.00 Build 0)  -->
<!DOCTYPE svg PUBLIC "-//W3C//DTD SVG 1.1//EN" "http://www.w3.org/Graphics/SVG/1.1/DTD/svg11.dtd">
<svg version="1.1" id="Capa_1" xmlns="http://www.w3.org/2000/svg" xmlns:xlink="http://www.w3.org/1999/xlink" x="0px" y="0px"
	 width="64px" height="64px" viewBox="0 0 64 64" enable-background="new 0 0 64 64" xml:space="preserve">
<path d="M59.52,47.042c-0.306-0.308-0.643-0.605-1.018-0.903c-2.181-1.877-6.375-5.213-9.958-6.469
	c-2.522-0.884-6.857-5.162-9.447-7.719c-0.11-0.108-0.211-0.208-0.317-0.312c1.319-2.451,2.021-5.204,2.021-8.065
	c0-2.082-0.388-4.1-1.098-5.993c0.008-0.008,0.017-0.015,0.025-0.022c1.331-1.331,2.064-3.101,2.064-4.982
	c0-1.883-0.733-3.652-2.064-4.983s-3.102-2.063-4.983-2.063c-1.477,0-2.881,0.457-4.062,1.294c-0.571-3.317-3.46-5.851-6.938-5.851
	s-6.367,2.534-6.938,5.851c-1.181-0.837-2.585-1.294-4.062-1.294c-1.882,0-3.651,0.732-4.982,2.063s-2.063,3.101-2.063,4.983
	c0,1.477,0.457,2.881,1.294,4.062c-3.317,0.571-5.851,3.46-5.851,6.938c0,3.478,2.535,6.368,5.853,6.938
	c-1.942,2.749-1.691,6.585,0.767,9.044c1.331,1.331,3.101,2.064,4.982,2.064c1.883,0,3.652-0.733,4.983-2.064
	c0.008-0.008,0.014-0.016,0.022-0.024c1.893,0.71,3.912,1.098,5.995,1.098c2.861,0,5.614-0.702,8.065-2.021
	c0.103,0.105,0.202,0.205,0.309,0.314c2.558,2.591,6.839,6.926,7.722,9.449c1.257,3.584,4.593,7.778,6.435,9.917
	c0.332,0.415,0.629,0.751,0.936,1.058c2.21,2.21,5.093,3.478,7.909,3.478c2.199,0,4.203-0.793,5.643-2.232
	c1.688-1.688,2.461-4.061,2.176-6.681C62.666,51.414,61.451,48.974,59.52,47.042z M55.12,59.824c-2.027,0-4.137-0.947-5.788-2.599
	c-0.226-0.226-0.452-0.483-0.748-0.852c-1.399-1.627-4.777-5.759-5.911-8.994c-1.095-3.125-5.242-7.347-8.318-10.462
	c0.502-0.401,0.989-0.823,1.45-1.284c0.461-0.461,0.883-0.948,1.284-1.45c3.116,3.076,7.338,7.222,10.463,8.318
	c3.234,1.133,7.366,4.511,9.035,5.945c0.327,0.261,0.584,0.487,0.81,0.714c1.452,1.452,2.361,3.254,2.56,5.075
	c0.185,1.698-0.282,3.202-1.314,4.234C57.756,59.356,56.538,59.824,55.12,59.824z M14.767,38.061
	c-0.61,0.355-1.298,0.559-2.022,0.559c-1.08,0-2.097-0.421-2.861-1.186c-1.322-1.323-1.521-3.335-0.626-4.883
	c0.113-0.196,0.248-0.381,0.397-0.56c0.078-0.093,0.142-0.193,0.229-0.281c0.129-0.129,0.275-0.234,0.417-0.343
	c0.167-0.128,0.341-0.238,0.524-0.338c0.26-0.141,0.532-0.253,0.816-0.334c0.224-0.063,0.452-0.106,0.686-0.13
	c0.139-0.014,0.276-0.041,0.418-0.041c1.082,0,2.098,0.421,2.862,1.185c0.821,0.821,1.204,1.91,1.171,2.988
	c-0.01,0.331-0.069,0.657-0.16,0.978c-0.053,0.189-0.114,0.374-0.195,0.555c-0.124,0.276-0.286,0.537-0.475,0.785
	c-0.108,0.142-0.211,0.288-0.341,0.418c-0.014,0.014-0.031,0.024-0.046,0.038C15.321,37.706,15.051,37.896,14.767,38.061z
	 M14.767,9.087c0.017,0.01,0.034,0.017,0.05,0.027c0.282,0.169,0.551,0.361,0.79,0.599c0.13,0.13,0.233,0.276,0.341,0.418
	c0.01,0.013,0.022,0.026,0.032,0.039c0.297,0.4,0.508,0.839,0.638,1.301c0.005,0.016,0.01,0.033,0.015,0.049
	c0.364,1.353,0.034,2.856-1.026,3.916c-0.765,0.764-1.78,1.186-2.862,1.186c-0.363,0-0.714-0.064-1.055-0.157
	c-0.017-0.004-0.033-0.01-0.049-0.015c-0.468-0.133-0.906-0.345-1.3-0.639c-0.014-0.01-0.026-0.022-0.039-0.032
	c-0.143-0.109-0.288-0.214-0.417-0.343c-0.238-0.238-0.43-0.508-0.599-0.789c-0.01-0.016-0.018-0.034-0.027-0.051
	c-0.355-0.61-0.559-1.297-0.558-2.022c-0.001-1.082,0.421-2.098,1.185-2.862c0.765-0.764,1.78-1.185,2.861-1.185
	C13.47,8.528,14.158,8.732,14.767,9.087z M19.85,6.982c0.461-1.727,2.025-3.01,3.895-3.01c1.871,0,3.434,1.282,3.895,3.01
	c0.039,0.146,0.069,0.295,0.092,0.447c0.029,0.194,0.06,0.388,0.06,0.59c0,0.183-0.03,0.358-0.054,0.534
	c-0.02,0.146-0.041,0.291-0.075,0.431c-0.087,0.353-0.225,0.683-0.398,0.993c-0.07,0.126-0.137,0.253-0.22,0.37
	c-0.734,1.036-1.936,1.718-3.299,1.718c-1.466,0-2.741-0.792-3.451-1.962c-0.025-0.041-0.045-0.084-0.068-0.126
	c-0.22-0.394-0.381-0.822-0.459-1.283c-0.008-0.046-0.008-0.095-0.014-0.142c-0.024-0.177-0.054-0.351-0.054-0.534
	c0-0.304,0.04-0.597,0.103-0.882C19.814,7.083,19.836,7.034,19.85,6.982z M32.723,9.086c0.61-0.354,1.297-0.558,2.021-0.558
	c1.081-0.001,2.098,0.421,2.862,1.185c0.764,0.765,1.186,1.78,1.186,2.862c0,0.724-0.205,1.412-0.559,2.022
	c-0.164,0.283-0.354,0.552-0.587,0.792c-0.014,0.015-0.024,0.033-0.039,0.047c-0.129,0.129-0.275,0.234-0.417,0.343
	c-0.246,0.188-0.506,0.351-0.784,0.477c-0.179,0.081-0.366,0.14-0.556,0.194c-0.313,0.089-0.635,0.147-0.968,0.158
	c-0.046,0.002-0.091,0.013-0.137,0.013c-1.081,0-2.097-0.422-2.861-1.186c-0.765-0.765-1.186-1.781-1.186-2.861
	c0-0.143,0.027-0.28,0.041-0.42c0.024-0.234,0.067-0.462,0.13-0.686c0.081-0.285,0.192-0.556,0.333-0.816
	c0.099-0.182,0.21-0.357,0.338-0.524c0.109-0.142,0.214-0.288,0.343-0.417c0.087-0.087,0.187-0.152,0.28-0.23
	C32.34,9.334,32.526,9.201,32.723,9.086z M23.745,37.63c-1.507,0-2.975-0.246-4.368-0.7c0.101-0.287,0.186-0.578,0.25-0.873
	c0.483-2.26-0.146-4.714-1.898-6.467c-1.044-1.044-2.361-1.714-3.788-1.956c0.814-1.149,1.297-2.548,1.297-4.059
	c0-1.512-0.483-2.91-1.297-4.059c1.427-0.243,2.744-0.913,3.788-1.957c1.07-1.07,1.718-2.402,1.955-3.791
	c1.149,0.815,2.549,1.299,4.062,1.299c1.512,0,2.91-0.483,4.059-1.296c0.243,1.427,0.913,2.744,1.957,3.789
	c1.331,1.331,3.101,2.064,4.982,2.064c0.5,0,0.991-0.055,1.469-0.156c0.303-0.064,0.599-0.152,0.889-0.255
	c0.453,1.391,0.699,2.857,0.699,4.363c0,3.119-1.022,6.073-2.885,8.509c-0.38,0.497-0.782,0.98-1.232,1.43
	c-0.45,0.45-0.933,0.852-1.43,1.232C29.818,36.608,26.863,37.63,23.745,37.63z M7.152,19.679c0.053-0.014,0.102-0.036,0.156-0.048
	c0.285-0.064,0.578-0.103,0.881-0.103c0.183,0,0.358,0.03,0.535,0.054c0.047,0.006,0.095,0.006,0.142,0.014
	c0.461,0.078,0.889,0.239,1.283,0.459c0.042,0.023,0.086,0.044,0.127,0.069c1.171,0.71,1.962,1.984,1.962,3.451
	c0,1.363-0.682,2.565-1.718,3.299c-0.117,0.083-0.245,0.15-0.371,0.221c-0.31,0.173-0.64,0.311-0.993,0.398
	c-0.141,0.035-0.285,0.056-0.431,0.075c-0.177,0.024-0.352,0.054-0.535,0.054c-0.202,0-0.395-0.031-0.589-0.06
	c-0.153-0.023-0.301-0.053-0.448-0.092c-1.728-0.461-3.01-2.025-3.01-3.895C4.143,21.703,5.425,20.14,7.152,19.679z"/>
<path d="M51.646,48.168c-0.931,0-1.774,0.33-2.376,0.932c-0.803,0.802-1.106,2.002-0.833,3.291c0.228,1.076,0.84,2.156,1.725,3.04
	c1.158,1.158,2.6,1.822,3.955,1.822c0.931,0,1.774-0.331,2.375-0.932c1.524-1.524,1.134-4.306-0.891-6.331
	C54.443,48.832,53.002,48.168,51.646,48.168z M51.372,51.77c-0.069-0.327-0.016-0.514,0.02-0.548
	c0.019-0.019,0.096-0.054,0.255-0.054c0.41,0,1.138,0.247,1.834,0.943c0.961,0.962,1.039,1.939,0.891,2.089
	c-0.021,0.021-0.106,0.053-0.254,0.053c-0.411,0-1.138-0.247-1.834-0.943C51.812,52.838,51.479,52.276,51.372,51.77z"/>
</svg>
