<?xml version="1.0" encoding="utf-8"?>
<!-- Generator: Adobe Illustrator 17.0.2, SVG Export Plug-In . SVG Version: 6.00 Build 0)  -->
<!DOCTYPE svg PUBLIC "-//W3C//DTD SVG 1.1//EN" "http://www.w3.org/Graphics/SVG/1.1/DTD/svg11.dtd">
<svg version="1.1" id="Capa_1" xmlns="http://www.w3.org/2000/svg" xmlns:xlink="http://www.w3.org/1999/xlink" x="0px" y="0px"
	 width="64px" height="64px" viewBox="0 0 64 64" enable-background="new 0 0 64 64" xml:space="preserve">
<path d="M32.334,58.582c16.421,0,29.285-7.339,29.285-16.708c0-4.058-2.506-7.947-7.058-10.953
	c-0.059-0.039-0.122-0.067-0.184-0.096c0.007-0.129,0.03-0.257,0.03-0.387c0-4.918-4.706-9.176-12.337-11.256
	c0.438-2.02,0.604-4.281-0.436-5.986c-5.354-8.772-17.43-0.713-23.937,1.688c-1.204,0.444-1.786,2.32-0.391,2.995
	c1.211,0.586,2.406,1.203,3.602,1.818c-6.617,2.226-10.647,6.227-10.647,10.741c0,0.131,0.021,0.258,0.028,0.388
	c-0.062,0.029-0.124,0.057-0.182,0.095c-4.551,3.005-7.057,6.895-7.057,10.952C3.048,51.243,15.912,58.582,32.334,58.582z
	 M11.095,33.903c0.782,1.599,2.102,3.086,3.95,4.396c0.264,0.187,0.566,0.276,0.866,0.276c0.47,0,0.933-0.22,1.226-0.633
	c0.479-0.676,0.319-1.612-0.357-2.091c-1.605-1.137-3.519-2.999-3.519-5.413c0-3.416,3.956-6.672,10.104-8.358
	c0.205,0.018,0.424,0.006,0.666-0.076c0.483-0.2,0.984-0.337,1.502-0.41c1.385-0.283,1.608-2.353,0.391-2.995
	c-1.296-0.685-2.596-1.358-3.901-2.023c3.888-1.801,7.712-3.853,12.059-4.006c6.899-0.243,4.789,6.155,3.619,10.063
	c-1.704,5.692-0.521,9.755,5.967,10.216c2.11,0.15,2.096-3.128,0-3.277c-4.968-0.353-3.485-4.124-2.395-7.501
	c6.094,1.669,10.135,4.97,10.135,8.366c0,2.015-1.411,4.046-3.972,5.721c-0.693,0.453-0.888,1.383-0.435,2.076
	c0.288,0.44,0.767,0.679,1.257,0.679c0.281,0,0.566-0.079,0.819-0.245c2.106-1.376,3.625-3.008,4.491-4.769
	c3.251,2.343,5.05,5.148,5.05,7.973c0,7.431-12.037,13.708-26.285,13.708S6.048,49.304,6.048,41.874
	C6.048,39.049,7.846,36.245,11.095,33.903z"/>
<path d="M23.567,42.914c5.832,2.35,13.792,3.332,19.179-0.584c1.718-1.249,0.059-4.14-1.68-2.875
	c-4.715,3.428-11.543,2.291-16.613,0.248C22.46,38.9,21.602,42.122,23.567,42.914z"/>
</svg>
