<?xml version="1.0" encoding="utf-8"?>
<!-- Generator: Adobe Illustrator 17.0.2, SVG Export Plug-In . SVG Version: 6.00 Build 0)  -->
<!DOCTYPE svg PUBLIC "-//W3C//DTD SVG 1.1//EN" "http://www.w3.org/Graphics/SVG/1.1/DTD/svg11.dtd">
<svg version="1.1" id="Capa_1" xmlns="http://www.w3.org/2000/svg" xmlns:xlink="http://www.w3.org/1999/xlink" x="0px" y="0px"
	 width="64px" height="64px" viewBox="0 0 64 64" enable-background="new 0 0 64 64" xml:space="preserve">
<path d="M5.018,15.165v3.283v29.034v4.99v4.292c0,0.829,0.672,1.5,1.5,1.5s1.5-0.671,1.5-1.5v-2.792h47.799v2.792
	c0,0.829,0.672,1.5,1.5,1.5s1.5-0.671,1.5-1.5v-4.292v-4.99V18.448v-3.283c1.865-0.631,3.221-2.378,3.221-4.454
	c0-2.603-2.118-4.721-4.721-4.721s-4.721,2.118-4.721,4.721c0,2.076,1.356,3.823,3.221,4.454v3.283h-9.382H17.4H8.018v-3.283
	c1.866-0.631,3.222-2.378,3.222-4.454c0-2.603-2.118-4.721-4.722-4.721c-2.603,0-4.721,2.118-4.721,4.721
	C1.797,12.786,3.152,14.534,5.018,15.165z M55.596,10.711c0-0.949,0.771-1.721,1.721-1.721s1.721,0.772,1.721,1.721
	s-0.771,1.721-1.721,1.721S55.596,11.66,55.596,10.711z M55.816,50.972H8.018v-3.49H17.4h29.034h9.382V50.972z M55.816,21.448
	v23.034h-9.382V21.448H55.816z M43.435,44.482H33.417V21.448h10.018V44.482z M30.417,21.448v23.034H20.4V21.448H30.417z
	 M17.4,21.448v23.034H8.018V21.448H17.4z M6.518,8.99c0.949,0,1.722,0.772,1.722,1.721s-0.772,1.721-1.722,1.721
	s-1.721-0.772-1.721-1.721S5.568,8.99,6.518,8.99z"/>
</svg>
