<?xml version="1.0" encoding="utf-8"?>
<!-- Generator: Adobe Illustrator 17.0.2, SVG Export Plug-In . SVG Version: 6.00 Build 0)  -->
<!DOCTYPE svg PUBLIC "-//W3C//DTD SVG 1.1//EN" "http://www.w3.org/Graphics/SVG/1.1/DTD/svg11.dtd">
<svg version="1.1" id="Capa_1" xmlns="http://www.w3.org/2000/svg" xmlns:xlink="http://www.w3.org/1999/xlink" x="0px" y="0px"
	 width="64px" height="64px" viewBox="0 0 64 64" enable-background="new 0 0 64 64" xml:space="preserve">
<path d="M11.497,30.066V47.36c-2.338,0.657-4.06,2.803-4.06,5.348c0,3.065,2.494,5.56,5.56,5.56s5.56-2.494,5.56-5.56
	c0-2.545-1.721-4.691-4.06-5.348V30.925c0.412,0.103,0.831,0.201,1.256,0.296v0.011c0,4.508,1.808,8.709,5.091,11.83l1.229,1.168
	l1.01-1.362c0.675-0.911,1.7-1.434,2.812-1.434c1.937,0,3.512,1.575,3.512,3.512c0,0.237-0.027,0.485-0.082,0.738l-0.355,1.661
	l1.692,0.147c0.47,0.041,0.942,0.071,1.423,0.071c9.005,0,16.331-7.326,16.331-16.331v-0.011c0.68-0.152,1.345-0.313,1.991-0.485
	v16.716c-2.185,0.749-3.763,2.82-3.763,5.256c0,3.065,2.494,5.56,5.559,5.56s5.56-2.494,5.56-5.56c0-2.652-1.868-4.873-4.356-5.425
	V29.818c4.983-1.759,8.292-4.252,8.292-7.425c0-6.817-15.258-10.496-29.614-10.496S2.469,15.576,2.469,22.393
	C2.469,25.72,6.108,28.297,11.497,30.066z M15.557,52.708c0,1.411-1.148,2.56-2.56,2.56s-2.56-1.148-2.56-2.56s1.148-2.56,2.56-2.56
	S15.557,51.297,15.557,52.708z M54.762,52.708c0,1.411-1.148,2.56-2.56,2.56s-2.559-1.148-2.559-2.56s1.148-2.56,2.559-2.56
	S54.762,51.297,54.762,52.708z M45.331,32.732c-0.736,6.547-6.233,11.674-12.937,11.828c-0.2-3.412-3.04-6.126-6.5-6.126
	c-1.477,0-2.868,0.49-3.997,1.381c-1.714-2.02-2.77-4.463-3.061-7.083h8.108c1.708,0.103,3.43,0.157,5.14,0.157
	s3.432-0.054,5.14-0.157H45.331z M32.084,14.897c16.489,0,26.614,4.366,26.614,7.496c0,2.782-8.002,6.537-21.356,7.339H26.825
	C13.471,28.93,5.469,25.175,5.469,22.393C5.469,19.263,15.594,14.897,32.084,14.897z"/>
<path d="M32.084,28.686c7.937,0,16.479-1.969,16.479-6.293c0-4.323-8.542-6.292-16.479-6.292s-16.479,1.969-16.479,6.292
	C15.605,26.717,24.147,28.686,32.084,28.686z M32.084,19.101c8.756,0,13.479,2.337,13.479,3.292s-4.723,3.293-13.479,3.293
	s-13.479-2.337-13.479-3.293S23.328,19.101,32.084,19.101z"/>
<path d="M51.514,21.757c1.996,0,1.996-3.095,0-3.095C49.519,18.662,49.519,21.757,51.514,21.757z"/>
<path d="M50.999,26.056c1.996,0,1.996-3.095,0-3.095C49.003,22.961,49.003,26.056,50.999,26.056z"/>
</svg>
