<?xml version="1.0" encoding="utf-8"?>
<!-- Generator: Adobe Illustrator 17.0.2, SVG Export Plug-In . SVG Version: 6.00 Build 0)  -->
<!DOCTYPE svg PUBLIC "-//W3C//DTD SVG 1.1//EN" "http://www.w3.org/Graphics/SVG/1.1/DTD/svg11.dtd">
<svg version="1.1" id="Capa_1" xmlns="http://www.w3.org/2000/svg" xmlns:xlink="http://www.w3.org/1999/xlink" x="0px" y="0px"
	 width="64px" height="64px" viewBox="0 0 64 64" enable-background="new 0 0 64 64" xml:space="preserve">
<path d="M43.294,0.957c-5.298,0-10.278,2.062-14.024,5.809s-5.809,8.727-5.809,14.024c0,4.794,1.704,9.318,4.8,12.912L14.478,47.485
	c-0.112,0.112-0.183,0.246-0.252,0.38c-1.318-0.919-2.879-1.418-4.519-1.418c-2.118,0-4.11,0.825-5.608,2.323
	c-3.092,3.092-3.092,8.124,0,11.216c1.498,1.498,3.49,2.323,5.608,2.323c2.119,0,4.11-0.825,5.608-2.323
	c1.498-1.498,2.323-3.489,2.323-5.608c0-1.64-0.5-3.201-1.418-4.519c0.134-0.069,0.268-0.14,0.38-0.252l13.783-13.784
	c3.595,3.097,8.119,4.8,12.912,4.8c5.297,0,10.278-2.063,14.024-5.809c3.746-3.746,5.809-8.726,5.809-14.024
	s-2.063-10.278-5.809-14.024S48.592,0.957,43.294,0.957z M13.193,57.864c-0.932,0.931-2.169,1.444-3.487,1.444
	c-1.317,0-2.555-0.513-3.487-1.444c-1.922-1.922-1.922-5.051,0-6.974c0.932-0.931,2.17-1.444,3.487-1.444
	c1.317,0,2.556,0.513,3.487,1.444c0.931,0.932,1.444,2.17,1.444,3.487C14.638,55.694,14.125,56.932,13.193,57.864z M43.294,37.623
	c-4.497,0-8.724-1.751-11.903-4.93c-3.179-3.179-4.93-7.406-4.93-11.903c0-2.994,0.792-5.861,2.25-8.387
	c0.953,4.159,4.117,9.469,8.809,14.161c4.692,4.692,10.002,7.856,14.161,8.809C49.155,36.83,46.289,37.623,43.294,37.623z
	 M55.54,32.314c-0.003,0.003-0.007,0.004-0.01,0.007c-0.573,0.575-2.572,0.612-5.606-0.659c-3.351-1.404-7.099-4.035-10.283-7.219
	c-7.255-7.255-9.253-14.514-7.878-15.889c0.003-0.003,0.004-0.008,0.008-0.011c3.134-2.952,7.199-4.586,11.524-4.586
	c4.496,0,8.723,1.75,11.903,4.93c3.179,3.18,4.93,7.407,4.93,11.903C60.127,25.115,58.493,29.18,55.54,32.314z"/>
</svg>
