<?xml version="1.0" encoding="utf-8"?>
<!-- Generator: Adobe Illustrator 17.0.2, SVG Export Plug-In . SVG Version: 6.00 Build 0)  -->
<!DOCTYPE svg PUBLIC "-//W3C//DTD SVG 1.1//EN" "http://www.w3.org/Graphics/SVG/1.1/DTD/svg11.dtd">
<svg version="1.1" id="Capa_1" xmlns="http://www.w3.org/2000/svg" xmlns:xlink="http://www.w3.org/1999/xlink" x="0px" y="0px"
	 width="64px" height="64px" viewBox="0 0 64 64" enable-background="new 0 0 64 64" xml:space="preserve">
<path d="M35.116,31.885c1.167-2.984,0.963-4.006,0.546-4.642c-0.317-0.483-0.841-0.761-1.438-0.761c-1.935,0-3.04,0.116-6.178,0.84
	c-1.716,0.396-3.241,1.805-4.429,4.085c-4.738,1.807-7.771,5.835-7.771,10.389c0,4.577,3.055,8.614,7.828,10.409
	c1.18,2.214,2.685,3.583,4.372,3.973c3.139,0.724,4.243,0.84,6.178,0.84c0.596,0,1.12-0.276,1.437-0.76
	c0.414-0.629,0.619-1.637-0.516-4.566c2.416-1.185,4.339-3.02,5.479-5.226c0.753,0.26,0.987,0.373,1.008,0.38
	c0.077,0.065,0.279,0.316,0.426,0.499c0.82,1.022,2.192,2.733,4.812,3.158l1.537,0.25l-0.089-1.555
	c-0.032-0.551-0.33-4.917-1.965-7.426c1.635-2.509,1.933-6.874,1.965-7.425l0.089-1.555l-1.537,0.25
	c-2.619,0.425-3.992,2.136-4.812,3.158c-0.147,0.183-0.349,0.434-0.361,0.457c-0.05,0.027-0.294,0.151-1.094,0.429
	C39.457,34.888,37.53,33.062,35.116,31.885z M42.912,38.844c0.419-0.233,0.719-0.606,1.097-1.078
	c0.425-0.53,0.913-1.138,1.595-1.598c-0.292,1.831-0.854,3.892-1.709,4.692l-0.974,0.912l0.974,0.912
	c0.852,0.799,1.415,2.859,1.708,4.692c-0.681-0.46-1.168-1.066-1.593-1.597c-0.378-0.472-0.678-0.845-1.097-1.077
	c-0.263-0.146-0.817-0.406-2.588-0.969l-1.128-0.358l-0.419,1.106c-0.906,2.391-2.983,4.353-5.696,5.382l-1.223,0.464l0.519,1.201
	c0.671,1.555,0.941,2.47,1.047,2.979c-1.227-0.032-2.255-0.177-4.815-0.767c-1.026-0.237-2.064-1.337-2.922-3.096l-0.229-0.471
	L24.96,50.01c-4.018-1.35-6.614-4.574-6.614-8.214c0-3.623,2.578-6.841,6.568-8.199l0.499-0.17l0.227-0.476
	c0.868-1.817,1.921-2.952,2.968-3.193c2.56-0.59,3.588-0.734,4.815-0.767c-0.107,0.519-0.384,1.455-1.08,3.056l-0.524,1.205
	l1.23,0.463c2.713,1.02,4.795,2.973,5.713,5.359l0.422,1.098l1.122-0.355C42.289,39.189,42.757,38.93,42.912,38.844z"/>
<path d="M23.848,37.984c-2.256,0-2.256,3.498,0,3.498S26.104,37.984,23.848,37.984z"/>
<path d="M14.096,3.91c0.57-0.208,0.935-0.726,0.98-1.294c0.016-0.207-0.007-0.42-0.082-0.628c-0.282-0.777-1.142-1.185-1.919-0.898
	C12.16,1.42,7.567,3.222,6.853,6.254C6.646,7.136,6.675,8.479,7.998,9.867c1.532,1.608,3.933,2.082,6.051,2.5
	c1.462,0.289,3.282,0.647,3.585,1.298c0.083,0.178,0.267,0.916-0.851,2.943C16,18.03,16.115,19.51,17.048,20.777
	c-3.334,0.274-5.964,3.07-5.964,6.473v29c0,3.584,2.916,6.5,6.5,6.5h29c3.584,0,6.5-2.916,6.5-6.5v-29c0-3.584-2.916-6.5-6.5-6.5
	h-1.003c1.141-1.633,1.903-4.512-1.468-8.691c-4.168-5.169-3.47-6.452-3.462-6.464c0.585-0.822,4.921-0.252,8.751,1.147
	c0.777,0.279,1.639-0.116,1.924-0.895c0.284-0.777-0.115-1.639-0.893-1.923c-2.281-0.836-9.906-3.309-12.221-0.077
	c-0.125,0.174-0.225,0.359-0.313,0.548c-0.964,2.068,0.257,5.054,3.879,9.545c2.866,3.554,1.5,4.983,1.051,5.453
	c-0.494,0.517-1.221,0.971-2.13,1.355c-2.142,0.906-5.315,1.416-8.977,1.388c-3.497-0.029-6.861-0.555-9.252-1.388
	c-0.987-0.344-1.813-0.739-2.406-1.175c-1.061-0.778-0.825-1.206-0.653-1.518c1.324-2.401,1.624-4.2,0.943-5.66
	c-0.946-2.03-3.375-2.51-5.724-2.974c-1.762-0.348-3.585-0.707-4.459-1.625C9.69,7.295,9.75,7.039,9.773,6.942
	C10.017,5.902,12.44,4.513,14.096,3.91z M46.584,23.75c1.93,0,3.5,1.57,3.5,3.5v29c0,1.93-1.57,3.5-3.5,3.5h-29
	c-1.93,0-3.5-1.57-3.5-3.5v-29c0-1.93,1.57-3.5,3.5-3.5h4.508c2.824,0.875,6.442,1.382,10.028,1.382
	c3.291-0.001,6.549-0.426,9.131-1.382H46.584z"/>
</svg>
