<?xml version="1.0" encoding="utf-8"?>
<!-- Generator: Adobe Illustrator 17.0.2, SVG Export Plug-In . SVG Version: 6.00 Build 0)  -->
<!DOCTYPE svg PUBLIC "-//W3C//DTD SVG 1.1//EN" "http://www.w3.org/Graphics/SVG/1.1/DTD/svg11.dtd">
<svg version="1.1" id="Capa_1" xmlns="http://www.w3.org/2000/svg" xmlns:xlink="http://www.w3.org/1999/xlink" x="0px" y="0px"
	 width="64px" height="64px" viewBox="0 0 64 64" enable-background="new 0 0 64 64" xml:space="preserve">
<path d="M12.706,28.235c-1.315,2.497-1.552,4.377-0.725,5.748c0.694,1.15,1.995,1.734,3.865,1.734c0.965,0,2.013-0.155,3.001-0.37
	l-6.393,10.469c-0.422,0.691-0.46,1.483-0.104,2.12c0.357,0.636,1.053,1.016,1.863,1.016h6.571c0.054,4.008,0.302,6.51,0.77,7.816
	c1.534,4.28,3.689,5.179,5.228,5.179c2.34,0,4.342-2.057,5.621-4.446c1.277,2.384,3.281,4.446,5.625,4.446
	c1.539,0,3.694-0.898,5.228-5.179c0.468-1.307,0.715-3.809,0.77-7.816h6.571c0.81,0,1.506-0.38,1.863-1.016
	c0.356-0.637,0.318-1.429-0.104-2.119l-6.393-10.471c0.988,0.215,2.037,0.371,3.001,0.371c0,0,0,0,0,0
	c1.87,0,3.17-0.584,3.865-1.733c0.827-1.371,0.59-3.252-0.725-5.749c-1.83-3.474-5.12-6.091-9.59-7.654
	c1.492-2.081,2.294-4.56,2.294-7.179C44.807,6.563,39.243,1,32.405,1c-6.839,0-12.402,5.563-12.402,12.402
	c0,2.619,0.802,5.098,2.294,7.179C17.826,22.145,14.536,24.762,12.706,28.235z M40.431,55.757c-0.716,1.997-1.614,3.19-2.403,3.19
	c-1.445,0-3.602-3.125-4.055-5.904c-0.067-0.412-0.271-1.667-1.568-1.667c-1.298,0-1.502,1.255-1.575,1.705
	c-0.446,2.741-2.603,5.866-4.048,5.866c-0.789,0-1.688-1.193-2.403-3.19c-0.244-0.681-0.532-2.431-0.593-6.805h17.238
	C40.962,53.327,40.675,55.076,40.431,55.757z M25.324,22.807l2.672-0.667l-2.01-1.883c-1.924-1.803-2.983-4.236-2.983-6.854
	C23.002,8.218,27.22,4,32.405,4c5.184,0,9.402,4.218,9.402,9.402c0,2.618-1.06,5.052-2.983,6.854l-2.009,1.883l2.671,0.667
	c4.865,1.216,8.217,3.512,9.963,6.827c1.152,2.188,0.814,2.794,0.811,2.8c-0.044,0.074-0.378,0.284-1.296,0.284c0,0,0,0,0,0
	c-1.694,0-4.176-0.716-5.786-1.329l-4.1-1.56l9.845,16.123h-6.386h-1.497H23.771h-1.498h-6.387l9.846-16.124l-4.101,1.562
	c-1.609,0.612-4.091,1.328-5.786,1.328c-0.918,0-1.252-0.211-1.296-0.284c-0.003-0.006-0.341-0.613,0.811-2.8
	C17.106,26.318,20.458,24.021,25.324,22.807z"/>
</svg>
