<?xml version="1.0" encoding="utf-8"?>
<!-- Generator: Adobe Illustrator 17.0.2, SVG Export Plug-In . SVG Version: 6.00 Build 0)  -->
<!DOCTYPE svg PUBLIC "-//W3C//DTD SVG 1.1//EN" "http://www.w3.org/Graphics/SVG/1.1/DTD/svg11.dtd">
<svg version="1.1" id="Capa_1" xmlns="http://www.w3.org/2000/svg" xmlns:xlink="http://www.w3.org/1999/xlink" x="0px" y="0px"
	 width="64px" height="64px" viewBox="0 0 64 64" enable-background="new 0 0 64 64" xml:space="preserve">
<path d="M45.125,2.952c-4.69,0-9.1,1.827-12.416,5.143s-5.143,7.726-5.143,12.416c0,0.979,0.098,1.942,0.254,2.89
	c0.468-0.2,0.951-0.36,1.443-0.492c0.481-0.129,0.971-0.226,1.471-0.29c-0.1-0.693-0.168-1.394-0.168-2.108
	c0-3.889,1.515-7.545,4.264-10.295c2.75-2.75,6.406-4.264,10.295-4.264s7.544,1.514,10.294,4.264
	c2.75,2.75,4.264,6.406,4.264,10.295s-1.514,7.544-4.264,10.294s-6.406,4.264-10.294,4.264c-0.713,0-1.415-0.068-2.108-0.168
	c-0.063,0.499-0.16,0.99-0.29,1.471c-0.132,0.493-0.293,0.975-0.492,1.443c0.948,0.156,1.91,0.254,2.89,0.254
	c4.69,0,9.1-1.827,12.416-5.143c3.316-3.316,5.143-7.726,5.143-12.416c0-4.69-1.827-9.1-5.143-12.416
	C54.225,4.778,49.815,2.952,45.125,2.952z"/>
<path d="M15.536,62.7C15.537,62.7,15.537,62.7,15.536,62.7c3.366,0,6.531-1.311,8.911-3.69c1.017-1.017,1.85-2.206,2.476-3.537
	c2.264-3.537,3.907-7.586,4.808-10.074l10.085,10.085c0.772,0.772,1.798,1.197,2.89,1.197s2.118-0.425,2.89-1.197l0.8-0.8
	c0.772-0.772,1.197-1.798,1.197-2.89s-0.425-2.118-1.197-2.89l-8.087-8.087l-1.061-1.061l-0.286-0.286
	c0.432-0.686,0.768-1.415,1.003-2.171c0.152-0.486,0.257-0.982,0.327-1.484c0.072-0.515,0.102-1.033,0.088-1.552
	c-0.028-1.024-0.224-2.042-0.588-3.012c-0.451-1.201-1.15-2.329-2.115-3.293c-0.966-0.966-2.095-1.666-3.298-2.116
	c-0.97-0.363-1.986-0.559-3.009-0.587c-0.519-0.014-1.037,0.016-1.552,0.088c-0.501,0.07-0.997,0.176-1.484,0.327
	c-0.755,0.235-1.484,0.571-2.17,1.003l-0.286-0.286l-1.061-1.061l-8.087-8.087c-0.772-0.771-1.798-1.196-2.89-1.196
	s-2.118,0.425-2.89,1.197l-0.801,0.8c-1.592,1.593-1.592,4.186,0,5.779l10.086,10.086c-2.488,0.901-6.537,2.544-10.074,4.808
	c-1.33,0.627-2.52,1.459-3.536,2.476c-4.914,4.913-4.914,12.908,0,17.821C9.006,61.39,12.17,62.7,15.536,62.7z M35.556,30.08
	c0.748,0.748,1.265,1.64,1.556,2.587c0.191,0.62,0.284,1.264,0.279,1.908c-0.004,0.534-0.079,1.066-0.218,1.585
	c-0.102,0.38-0.24,0.75-0.414,1.109l-8.391-8.392c0.358-0.174,0.729-0.312,1.108-0.414c0.519-0.139,1.051-0.214,1.585-0.218
	c0.644-0.005,1.287,0.088,1.907,0.279C33.916,28.815,34.808,29.332,35.556,30.08z M12.272,21.698c-0.424-0.424-0.424-1.113,0-1.537
	l0.8-0.8c0.205-0.206,0.478-0.318,0.769-0.318s0.563,0.113,0.769,0.318l8.256,8.256l1.093,1.093l1.096,1.096L35.83,40.582
	l1.096,1.096l1.094,1.094l8.255,8.255c0.205,0.206,0.318,0.479,0.318,0.769s-0.113,0.563-0.318,0.769l-0.8,0.8
	c-0.411,0.41-1.126,0.41-1.537,0l-9.198-9.198l-1.281-1.281l-1.4-1.4l-1.213-1.213l-6.692-6.692l-0.722-0.722l0,0l-0.681-0.681
	l-1.275-1.275L12.272,21.698z M8.748,43.31c0.796-0.795,1.735-1.445,2.792-1.929l1.958-0.902l-0.17-0.17
	c3.053-1.728,6.302-3,8.271-3.702c0.377-0.134,0.724-0.255,0.995-0.346l0.714,0.714l5.353,5.353l0.714,0.714
	c-0.091,0.272-0.212,0.62-0.347,0.999c-0.701,1.968-1.971,5.212-3.701,8.267l-0.173-0.173l-0.898,1.962
	c-0.484,1.056-1.133,1.995-1.929,2.791c-1.814,1.813-4.225,2.812-6.789,2.812c0,0,0,0-0.001,0c-2.564,0-4.976-0.999-6.789-2.812
	c-1.813-1.813-2.812-4.225-2.812-6.789C5.936,47.535,6.934,45.124,8.748,43.31z"/>
</svg>
