<?xml version="1.0" encoding="utf-8"?>
<!-- Generator: Adobe Illustrator 17.0.2, SVG Export Plug-In . SVG Version: 6.00 Build 0)  -->
<!DOCTYPE svg PUBLIC "-//W3C//DTD SVG 1.1//EN" "http://www.w3.org/Graphics/SVG/1.1/DTD/svg11.dtd">
<svg version="1.1" id="Capa_1" xmlns="http://www.w3.org/2000/svg" xmlns:xlink="http://www.w3.org/1999/xlink" x="0px" y="0px"
	 width="64px" height="64px" viewBox="0 0 64 64" enable-background="new 0 0 64 64" xml:space="preserve">
<path d="M40.72,21.107c1.492-2.081,2.294-4.56,2.294-7.179c0-6.839-5.563-12.402-12.402-12.402c-6.838,0-12.402,5.563-12.402,12.402
	c0,2.619,0.802,5.098,2.294,7.179c-4.471,1.563-7.761,4.181-9.59,7.654c-1.315,2.496-1.552,4.376-0.724,5.747
	c0.694,1.151,1.995,1.734,3.866,1.734c1.736,0,3.765-0.513,5.191-0.954c-0.02,0.846-0.049,1.826-0.078,2.794
	c-0.254,8.543-0.4,16.439,0.593,19.212c1.534,4.28,3.689,5.179,5.228,5.179c2.34,0,4.342-2.057,5.621-4.446
	c1.277,2.384,3.282,4.446,5.625,4.446c1.538,0,3.694-0.898,5.228-5.179c0.993-2.772,0.847-10.67,0.593-19.214
	c-0.029-0.967-0.058-1.947-0.078-2.792c1.426,0.441,3.455,0.954,5.191,0.954c1.871,0,3.172-0.583,3.866-1.734
	c0.827-1.37,0.59-3.25-0.725-5.747C48.48,25.288,45.19,22.671,40.72,21.107z M24.988,59.474c-0.789,0-1.688-1.192-2.403-3.19
	c-0.367-1.024-0.527-3.381-0.58-6.172c1.768,1.997,4.214,3.372,6.978,3.767C28.445,56.55,26.386,59.474,24.988,59.474z M35.833,44
	h3.153c-0.376,2.104-1.533,3.936-3.153,5.201V44z M32.833,50.007H28.39V44h4.444V50.007z M25.39,49.202
	c-1.62-1.265-2.777-3.098-3.153-5.202h3.153V49.202z M38.638,56.283c-0.716,1.998-1.614,3.19-2.403,3.19
	c-1.392,0-3.439-2.899-3.993-5.596c2.763-0.395,5.209-1.769,6.977-3.766C39.165,52.902,39.005,55.259,38.638,56.283z M48.466,32.959
	c-0.045,0.073-0.378,0.284-1.298,0.284c-1.76,0-4.079-0.725-5.211-1.119c-0.217-0.511-0.621-1.004-1.422-1.004l-0.646,0.006
	l-0.442,0.456c-0.569,0.586-0.569,0.586-0.39,6.589c0.025,0.843,0.053,1.807,0.08,2.829h-3.303H25.39h-3.303
	c0.027-1.021,0.055-1.984,0.08-2.827c0.179-6.005,0.179-6.005-0.39-6.591l-0.454-0.462h-0.634c-0.803,0-1.207,0.495-1.423,1.007
	c-1.288,0.448-3.561,1.116-5.21,1.116c-0.923,0-1.25-0.205-1.297-0.284c-0.003-0.006-0.341-0.613,0.81-2.799
	c1.746-3.315,5.098-5.611,9.963-6.827l2.671-0.667l-2.009-1.883c-1.923-1.803-2.983-4.236-2.983-6.854
	c0-5.185,4.218-9.402,9.402-9.402c5.185,0,9.402,4.218,9.402,9.402c0,2.618-1.06,5.052-2.983,6.854l-2.009,1.883l2.671,0.667
	c4.865,1.216,8.217,3.512,9.963,6.827C48.807,32.347,48.47,32.953,48.466,32.959z"/>
<path d="M26.333,28.833c-1.935,0-1.935,3,0,3C28.268,31.833,28.268,28.833,26.333,28.833z"/>
<path d="M35,28.667c-1.935,0-1.935,3,0,3S36.935,28.667,35,28.667z"/>
</svg>
