<?xml version="1.0" encoding="utf-8"?>
<!-- Generator: Adobe Illustrator 17.0.2, SVG Export Plug-In . SVG Version: 6.00 Build 0)  -->
<!DOCTYPE svg PUBLIC "-//W3C//DTD SVG 1.1//EN" "http://www.w3.org/Graphics/SVG/1.1/DTD/svg11.dtd">
<svg version="1.1" id="Capa_1" xmlns="http://www.w3.org/2000/svg" xmlns:xlink="http://www.w3.org/1999/xlink" x="0px" y="0px"
	 width="64px" height="64px" viewBox="0 0 64 64" enable-background="new 0 0 64 64" xml:space="preserve">
<path d="M61.132,12.869c-0.614,0-1.076,0.297-1.612,0.642c-0.794,0.511-2.031,1.306-4.213,1.563
	c-0.14-1.683-0.688-4.285-2.602-6.387c-1.975-2.17-4.874-3.271-8.616-3.271c-6.688,0-11.215,1.683-13.454,5.001
	c-2.176,3.223-2.078,7.833,0.314,13.764c0.442,0.97,0.874,2.69,0.572,3.29c-0.023,0.047-0.051,0.101-0.206,0.136
	c-1.498,0.276-14.749,2.839-18.811,7.552c-0.327,0.379-0.627,0.571-0.891,0.571c-1.305,0-3.616-3.325-4.874-6.31
	c-0.229-0.544-0.758-0.903-1.349-0.917c-0.584,0.008-1.134,0.32-1.389,0.854c-0.186,0.39-4.504,9.633-1.036,18.222
	c1.979,4.904,6.064,8.546,12.142,10.825c0.168,0.063,0.347,0.096,0.526,0.096H47.08c0.299,0,0.59-0.089,0.838-0.256
	c0.282-0.19,6.938-4.753,7.869-12.495c0.609-5.06-1.362-10.2-5.86-15.286c-0.005-0.638,0.104-1.834,0.928-2.354
	c4.391-0.281,12.145-2.624,12.145-9.764L63,17.511c0.004-2.742,0.006-3.479-0.655-4.141C62.022,13.047,61.591,12.869,61.132,12.869z
	 M60,17.506l-0.001,0.839c0,2.586-1.477,4.437-4.514,5.656c-2.494,1.002-5.069,1.127-5.093,1.128
	c-0.186,0.008-0.368,0.05-0.538,0.125c-2.757,1.205-3.107,4.354-2.88,6.024c0.041,0.302,0.173,0.583,0.377,0.808
	c4.129,4.533,5.966,9.001,5.46,13.279c-0.644,5.453-4.959,9.157-6.225,10.135H15.91c-5.11-1.972-8.526-5.008-10.154-9.025
	c-1.856-4.582-1.044-9.566-0.157-12.693c1.388,2.315,3.516,4.949,6.016,4.949c0.809,0,2.014-0.28,3.162-1.612
	c2.86-3.318,13.302-5.861,17.128-6.57c1.049-0.226,1.844-0.824,2.299-1.729c1.076-2.143-0.247-5.274-0.497-5.819
	c-1.972-4.889-2.168-8.558-0.585-10.903c1.647-2.44,5.338-3.679,10.968-3.679c2.852,0,4.998,0.765,6.382,2.272
	c2.141,2.334,1.868,5.798,1.866,5.827c-0.04,0.42,0.1,0.838,0.384,1.15s0.688,0.49,1.109,0.49c2.921,0,4.897-0.761,6.17-1.44
	C60.001,16.97,60,17.235,60,17.506z"/>
</svg>
