<?xml version="1.0" encoding="utf-8"?>
<!-- Generator: Adobe Illustrator 17.0.2, SVG Export Plug-In . SVG Version: 6.00 Build 0)  -->
<!DOCTYPE svg PUBLIC "-//W3C//DTD SVG 1.1//EN" "http://www.w3.org/Graphics/SVG/1.1/DTD/svg11.dtd">
<svg version="1.1" id="Capa_1" xmlns="http://www.w3.org/2000/svg" xmlns:xlink="http://www.w3.org/1999/xlink" x="0px" y="0px"
	 width="64px" height="64px" viewBox="0 0 64 64" enable-background="new 0 0 64 64" xml:space="preserve">
<path d="M55.158,25.199c-2.974-8.205-10.375-14.181-19.021-15.628c-0.143-0.053-0.296-0.093-0.47-0.103
	c-0.109-0.006-0.222-0.005-0.332-0.01c-1.07-0.143-2.153-0.232-3.252-0.232c-10.327,0-19.644,6.511-23.074,15.973
	c-4.379,0.05-7.926,3.628-7.926,8.019s3.547,7.969,7.926,8.019c3.431,9.462,12.747,15.973,23.074,15.973s19.644-6.51,23.074-15.973
	c4.379-0.05,7.926-3.628,7.926-8.019S59.537,25.25,55.158,25.199z M55.064,38.237c-0.217,0-0.453-0.02-0.742-0.062l-1.277-0.188
	l-0.376,1.235c-2.691,8.825-11.156,14.988-20.585,14.988c-9.43,0-17.895-6.164-20.585-14.988l-0.376-1.235l-1.277,0.188
	c-0.289,0.042-0.525,0.062-0.742,0.062c-2.768,0-5.02-2.252-5.02-5.02s2.252-5.019,5.02-5.019c0.22,0,0.455,0.02,0.74,0.062
	l1.278,0.191l0.377-1.237c1.825-5.983,6.306-10.735,11.939-13.18c-1.258,2.786,0.45,6.22,3.297,7.559
	c3.547,1.669,9.286,1.887,11.707-1.744c1.091-1.636,0.122-3.705-1.198-4.825c-1.847-1.567-4.531-1.79-6.725-0.919
	c-1.776,0.705-1.003,3.607,0.798,2.893c1.304-0.517,2.492-0.556,3.743,0.131c1.717,0.944,0.135,2.022-1.065,2.367
	c-2.237,0.643-5.538,0.118-7.287-1.452c-2.208-1.982,0.636-4.231,2.396-4.847c1.908-0.668,4.006-0.816,6.026-0.743
	c8.161,1.162,15.143,6.898,17.54,14.76l0.377,1.237l1.278-0.191c0.285-0.042,0.521-0.062,0.74-0.062c2.768,0,5.02,2.251,5.02,5.019
	S57.832,38.237,55.064,38.237z"/>
<path d="M24.75,31.176c-2.579,0-2.579,4,0,4S27.33,31.176,24.75,31.176z"/>
<path d="M39.417,34.926c2.579,0,2.579-4,0-4S36.838,34.926,39.417,34.926z"/>
<path d="M32.084,38.819c-3.253,0-5.899,2.646-5.899,5.898v1.5h11.798v-1.5C37.982,41.465,35.336,38.819,32.084,38.819z
	 M32.084,41.819c1.05,0,1.971,0.561,2.479,1.398h-4.96C30.112,42.38,31.034,41.819,32.084,41.819z"/>
<path d="M38.584,38v2.5c0,1.935,3,1.935,3,0V38C41.584,36.065,38.584,36.065,38.584,38z"/>
</svg>
