<?xml version="1.0" encoding="utf-8"?>
<!-- Generator: Adobe Illustrator 17.0.2, SVG Export Plug-In . SVG Version: 6.00 Build 0)  -->
<!DOCTYPE svg PUBLIC "-//W3C//DTD SVG 1.1//EN" "http://www.w3.org/Graphics/SVG/1.1/DTD/svg11.dtd">
<svg version="1.1" id="Capa_1" xmlns="http://www.w3.org/2000/svg" xmlns:xlink="http://www.w3.org/1999/xlink" x="0px" y="0px"
	 width="64px" height="64px" viewBox="0 0 64 64" enable-background="new 0 0 64 64" xml:space="preserve">
<path d="M32.084,2.343c-8.909,0-16.157,7.248-16.157,16.157c0,3.577,1.191,7.033,3.377,9.859c-2.575,3.65-3.98,8.246-3.98,13.082
	c0,11.147,7.519,20.216,16.761,20.216c9.241,0,16.76-9.068,16.76-20.216c0-4.836-1.405-9.432-3.98-13.082
	c2.186-2.825,3.377-6.281,3.377-9.859C48.24,9.591,40.992,2.343,32.084,2.343z M41.781,29.25c2.62,3.26,4.062,7.59,4.062,12.191
	c0,9.493-6.173,17.216-13.76,17.216c-7.588,0-13.761-7.723-13.761-17.216c0-4.602,1.442-8.932,4.062-12.191l0.801-0.996
	l-0.856-0.948c-2.194-2.431-3.403-5.558-3.403-8.806c0-7.255,5.902-13.157,13.157-13.157c7.254,0,13.156,5.902,13.156,13.157
	c0,3.249-1.209,6.376-3.403,8.805l-0.856,0.949L41.781,29.25z"/>
<path d="M43.711,18.5c0-1.803-1.283-3.312-2.984-3.661c-1.454-3.422-4.865-5.729-8.643-5.729s-7.188,2.308-8.643,5.729
	c-1.701,0.349-2.985,1.858-2.985,3.661s1.284,3.312,2.985,3.661c1.454,3.422,4.865,5.729,8.643,5.729s7.188-2.308,8.643-5.729
	C42.428,21.812,43.711,20.303,43.711,18.5z M39.999,19.238l-1.42-0.199l-0.363,1.247c-0.788,2.711-3.311,4.604-6.132,4.604
	s-5.344-1.894-6.132-4.604l-0.363-1.247l-1.285,0.181l-0.11,0.018c-0.406,0-0.737-0.331-0.737-0.737s0.331-0.737,0.713-0.738
	l1.42,0.199l0.363-1.247c0.788-2.711,3.311-4.604,6.132-4.604s5.344,1.894,6.132,4.604l0.363,1.247l1.285-0.181l0.11-0.018
	c0.406,0,0.736,0.331,0.736,0.737S40.381,19.237,39.999,19.238z"/>
<path d="M32.084,19.083c-1.935,0-1.935,3,0,3S34.018,19.083,32.084,19.083z"/>
</svg>
