<?xml version="1.0" encoding="utf-8"?>
<!-- Generator: Adobe Illustrator 17.0.2, SVG Export Plug-In . SVG Version: 6.00 Build 0)  -->
<!DOCTYPE svg PUBLIC "-//W3C//DTD SVG 1.1//EN" "http://www.w3.org/Graphics/SVG/1.1/DTD/svg11.dtd">
<svg version="1.1" id="Capa_1" xmlns="http://www.w3.org/2000/svg" xmlns:xlink="http://www.w3.org/1999/xlink" x="0px" y="0px"
	 width="64px" height="64px" viewBox="0 0 64 64" enable-background="new 0 0 64 64" xml:space="preserve">
<path d="M4.584,53.866c0,4.687,3.813,8.5,8.5,8.5s8.5-3.813,8.5-8.5c0-1.027-0.192-2.008-0.528-2.921
	c2.042,0.599,4.199,0.927,6.432,0.927c1.908,0,3.761-0.238,5.534-0.681c-0.28,0.842-0.438,1.739-0.438,2.674
	c0,4.687,3.813,8.5,8.5,8.5s8.5-3.813,8.5-8.5c0-3.969-2.738-7.301-6.422-8.232c4.095-3.861,6.768-9.21,7.146-15.176
	c2.151-0.397,4.22-1.038,6.2-1.996c1.741-0.842,0.219-3.429-1.514-2.59c-1.618,0.782-3.334,1.286-5.089,1.629H29.523l6.173-19.907
	l-1.433-0.444c-2.187-0.678-4.466-1.021-6.775-1.021C14.876,6.128,4.616,16.388,4.616,29c0,6.477,2.71,12.328,7.051,16.494
	C7.653,46.172,4.584,49.663,4.584,53.866z M41.084,48.366c3.033,0,5.5,2.467,5.5,5.5s-2.467,5.5-5.5,5.5s-5.5-2.467-5.5-5.5
	c0-1.936,1.008-3.638,2.524-4.618c0.224-0.118,0.445-0.241,0.665-0.366C39.477,48.554,40.258,48.366,41.084,48.366z M7.616,29
	c0-10.958,8.915-19.872,19.872-19.872c1.502,0,2.989,0.167,4.438,0.497L25.452,30.5h21.851c-0.51,6.813-4.482,12.662-10.147,15.835
	c-0.154,0.086-0.303,0.182-0.46,0.264c-2.755,1.448-5.886,2.273-9.209,2.273C16.53,48.872,7.616,39.958,7.616,29z M13.084,48.366
	c3.033,0,5.5,2.467,5.5,5.5s-2.467,5.5-5.5,5.5s-5.5-2.467-5.5-5.5S10.051,48.366,13.084,48.366z"/>
</svg>
