<?xml version="1.0" encoding="utf-8"?>
<!-- Generator: Adobe Illustrator 17.0.2, SVG Export Plug-In . SVG Version: 6.00 Build 0)  -->
<!DOCTYPE svg PUBLIC "-//W3C//DTD SVG 1.1//EN" "http://www.w3.org/Graphics/SVG/1.1/DTD/svg11.dtd">
<svg version="1.1" id="Capa_1" xmlns="http://www.w3.org/2000/svg" xmlns:xlink="http://www.w3.org/1999/xlink" x="0px" y="0px"
	 width="64px" height="64px" viewBox="0 0 64 64" enable-background="new 0 0 64 64" xml:space="preserve">
<path d="M44,8.167c-4.357,0-11.667,2.089-11.667,16.078v15.456c0,9.446,6.58,17.132,14.667,17.132s14.667-7.686,14.667-17.132
	v-7.025c0-4.446-2.15-10.415-5.61-15.577C52.251,11.423,47.857,8.167,44,8.167z M58.667,39.701c0,7.792-5.233,14.132-11.667,14.132
	s-11.667-6.34-11.667-14.132V24.245c0-8.678,2.916-13.078,8.667-13.078c5.441,0,14.667,12.225,14.667,21.509V39.701z"/>
<path d="M47,29.068c-4.008,0-7.27,3.746-7.27,8.35v5.62c0,4.604,3.261,8.351,7.27,8.351s7.27-3.746,7.27-8.351v-5.62
	C54.27,32.814,51.008,29.068,47,29.068z M51.27,43.038c0,2.95-1.916,5.351-4.27,5.351s-4.27-2.4-4.27-5.351v-5.62
	c0-2.95,1.916-5.35,4.27-5.35s4.27,2.399,4.27,5.35V43.038z"/>
<path d="M20,2.167c-3.857,0-8.251,3.256-12.056,8.932c-3.46,5.162-5.61,11.131-5.61,15.577v7.025c0,9.446,6.58,17.132,14.667,17.132
	s14.667-7.686,14.667-17.132V18.245C31.667,4.256,24.357,2.167,20,2.167z M28.667,33.701c0,7.792-5.233,14.132-11.667,14.132
	S5.333,41.493,5.333,33.701v-7.025c0-9.284,9.225-21.509,14.667-21.509c5.75,0,8.667,4.4,8.667,13.078V33.701z"/>
<path d="M17,23.068c-4.008,0-7.27,3.746-7.27,8.35v5.62c0,4.604,3.261,8.351,7.27,8.351s7.27-3.746,7.27-8.351v-5.62
	C24.27,26.814,21.008,23.068,17,23.068z M21.27,37.038c0,2.95-1.916,5.351-4.27,5.351s-4.27-2.4-4.27-5.351v-5.62
	c0-2.95,1.916-5.35,4.27-5.35s4.27,2.399,4.27,5.35V37.038z"/>
<path d="M14.686,20.25c0-1.611-1.306-2.917-2.917-2.917s-2.917,1.306-2.917,2.917s1.306,2.917,2.917,2.917
	S14.686,21.861,14.686,20.25z M12.77,20.121c0.347,0,0.629,0.282,0.629,0.629c0,0.347-0.282,0.629-0.629,0.629
	c-0.347,0-0.629-0.282-0.629-0.629C12.141,20.403,12.422,20.121,12.77,20.121z M10.77,20.379c-0.347,0-0.629-0.282-0.629-0.629
	c0-0.347,0.282-0.629,0.629-0.629c0.347,0,0.629,0.282,0.629,0.629C11.399,20.097,11.117,20.379,10.77,20.379z"/>
<path d="M52.77,29.667c1.611,0,2.917-1.306,2.917-2.917s-1.306-2.917-2.917-2.917s-2.917,1.306-2.917,2.917
	S51.159,29.667,52.77,29.667z M53.77,25.621c0.347,0,0.629,0.282,0.629,0.629c0,0.347-0.282,0.629-0.629,0.629
	c-0.347,0-0.629-0.282-0.629-0.629C53.141,25.903,53.422,25.621,53.77,25.621z M51.77,26.621c0.347,0,0.629,0.282,0.629,0.629
	c0,0.347-0.282,0.629-0.629,0.629c-0.347,0-0.629-0.282-0.629-0.629C51.141,26.903,51.422,26.621,51.77,26.621z"/>
</svg>
