<?xml version="1.0" encoding="utf-8"?>
<!-- Generator: Adobe Illustrator 17.0.2, SVG Export Plug-In . SVG Version: 6.00 Build 0)  -->
<!DOCTYPE svg PUBLIC "-//W3C//DTD SVG 1.1//EN" "http://www.w3.org/Graphics/SVG/1.1/DTD/svg11.dtd">
<svg version="1.1" id="Capa_1" xmlns="http://www.w3.org/2000/svg" xmlns:xlink="http://www.w3.org/1999/xlink" x="0px" y="0px"
	 width="64px" height="64px" viewBox="0 0 64 64" enable-background="new 0 0 64 64" xml:space="preserve">
<path d="M32.084,2.25C15.68,2.25,2.334,15.596,2.334,32s13.346,29.75,29.75,29.75S61.834,48.404,61.834,32S48.488,2.25,32.084,2.25z
	 M45.709,32c0,13.958-6.239,25.75-13.625,25.75S18.459,45.958,18.459,32S24.698,6.25,32.084,6.25S45.709,18.042,45.709,32z
	 M6.334,32c0-10.211,5.974-19.052,14.61-23.213c-3.978,5.41-6.485,13.725-6.485,23.213s2.506,17.802,6.485,23.213
	C12.308,51.052,6.334,42.211,6.334,32z M43.224,55.213c3.978-5.41,6.485-13.725,6.485-23.213s-2.506-17.802-6.485-23.213
	C51.86,12.948,57.834,21.789,57.834,32S51.86,51.052,43.224,55.213z"/>
</svg>
