<?xml version="1.0" encoding="utf-8"?>
<!-- Generator: Adobe Illustrator 17.0.2, SVG Export Plug-In . SVG Version: 6.00 Build 0)  -->
<!DOCTYPE svg PUBLIC "-//W3C//DTD SVG 1.1//EN" "http://www.w3.org/Graphics/SVG/1.1/DTD/svg11.dtd">
<svg version="1.1" id="Capa_1" xmlns="http://www.w3.org/2000/svg" xmlns:xlink="http://www.w3.org/1999/xlink" x="0px" y="0px"
	 width="64px" height="64px" viewBox="0 0 64 64" enable-background="new 0 0 64 64" xml:space="preserve">
<path d="M49.647,35.717c1.87,0,3.17-0.584,3.865-1.734c0.828-1.37,0.59-3.25-0.725-5.747c-1.83-3.474-5.121-6.091-9.59-7.654
	c1.492-2.081,2.294-4.56,2.294-7.179C45.491,6.563,39.927,1,33.088,1S20.686,6.563,20.686,13.402c0,2.619,0.802,5.099,2.294,7.179
	c-4.47,1.563-7.76,4.181-9.59,7.654c-1.315,2.496-1.552,4.376-0.725,5.747c0.694,1.15,1.995,1.734,3.865,1.734
	c1.736,0,3.766-0.514,5.192-0.955c-0.02,0.847-0.049,1.829-0.078,2.798c-0.254,8.541-0.4,16.438,0.593,19.209
	c1.534,4.28,3.689,5.179,5.228,5.179c2.34,0,4.341-2.057,5.621-4.447c1.277,2.385,3.281,4.447,5.625,4.447
	c1.539,0,3.694-0.898,5.228-5.179c0.993-2.771,0.847-10.669,0.593-19.211c-0.029-0.968-0.058-1.95-0.078-2.796
	C45.88,35.203,47.91,35.716,49.647,35.717C49.646,35.717,49.646,35.717,49.647,35.717z M41.115,55.757
	c-0.716,1.997-1.614,3.19-2.403,3.19c-1.445,0-3.601-3.125-4.055-5.909c-0.18-1.103-0.708-1.662-1.568-1.662
	c-0.861,0-1.389,0.56-1.575,1.705c-0.447,2.741-2.604,5.866-4.048,5.866c-0.789,0-1.688-1.193-2.403-3.19
	c-0.668-1.865-0.658-8.127-0.543-13.436h17.139C41.773,47.63,41.782,53.892,41.115,55.757z M44.434,31.597
	c-0.217-0.51-0.621-1.003-1.422-1.003L42.366,30.6l-0.442,0.455c-0.569,0.586-0.569,0.586-0.391,6.592
	c0.015,0.516,0.032,1.085,0.049,1.675H24.595c0.017-0.589,0.033-1.157,0.049-1.673c0.179-6.008,0.179-6.008-0.391-6.594
	l-0.454-0.461h-0.635c-0.803,0-1.207,0.494-1.423,1.006c-1.288,0.448-3.561,1.117-5.21,1.117c-0.919,0-1.252-0.211-1.297-0.284
	c-0.003-0.006-0.341-0.612,0.811-2.799c1.746-3.315,5.098-5.611,9.963-6.827l2.672-0.667l-2.01-1.883
	c-1.924-1.803-2.983-4.236-2.983-6.854C23.686,8.218,27.904,4,33.088,4s9.402,4.218,9.402,9.402c0,2.618-1.06,5.052-2.983,6.854
	l-2.01,1.883l2.672,0.667c4.865,1.215,8.217,3.512,9.963,6.827c1.152,2.187,0.814,2.793,0.811,2.799
	c-0.044,0.073-0.378,0.284-1.296,0.284h0C47.886,32.716,45.566,31.991,44.434,31.597z"/>
</svg>
