<?xml version="1.0" encoding="utf-8"?>
<!-- Generator: Adobe Illustrator 17.0.2, SVG Export Plug-In . SVG Version: 6.00 Build 0)  -->
<!DOCTYPE svg PUBLIC "-//W3C//DTD SVG 1.1//EN" "http://www.w3.org/Graphics/SVG/1.1/DTD/svg11.dtd">
<svg version="1.1" id="Capa_1" xmlns="http://www.w3.org/2000/svg" xmlns:xlink="http://www.w3.org/1999/xlink" x="0px" y="0px"
	 width="64px" height="64px" viewBox="0 0 64 64" enable-background="new 0 0 64 64" xml:space="preserve">
<path d="M31.354,16.595c0.667,0,1.287,0.203,1.802,0.549c-0.784-0.972-1.983-1.594-3.329-1.594c-2.361,0-4.275,1.914-4.275,4.275
	s1.914,4.275,4.275,4.275c1.346,0,2.545-0.622,3.329-1.594c-0.515,0.347-1.135,0.549-1.802,0.549c-1.784,0-3.231-1.446-3.231-3.231
	S29.569,16.595,31.354,16.595z"/>
<path d="M60.75,21.601c-0.828,0-1.5,0.672-1.5,1.5v3.701H48.234H15.766H4.75v-3.701c0-0.828-0.672-1.5-1.5-1.5s-1.5,0.672-1.5,1.5
	v3.701v26.107v4.261v3.81c0,0.828,0.672,1.5,1.5,1.5s1.5-0.672,1.5-1.5v-2.31h54.5v2.31c0,0.828,0.672,1.5,1.5,1.5
	s1.5-0.672,1.5-1.5v-3.81v-4.261V26.802v-3.701C62.25,22.272,61.578,21.601,60.75,21.601z M59.25,29.802v20.107H48.234V29.802H59.25
	z M45.234,49.909H33.5V29.802h11.734V49.909z M30.5,29.802v20.107H18.766V29.802H30.5z M15.766,29.802v20.107H4.75V29.802H15.766z
	 M59.25,55.67H4.75v-2.761h11.016h32.469H59.25V55.67z"/>
<path d="M16.166,13.734c0,0.276,0.224,0.5,0.5,0.5h1.249c0.058,0,0.112-0.015,0.164-0.033c0.077,0.5,0.269,0.957,0.555,1.347
	c-0.049,0.024-0.097,0.051-0.137,0.091l-0.884,0.883c-0.195,0.195-0.195,0.512,0,0.707c0.098,0.098,0.226,0.146,0.354,0.146
	s0.256-0.049,0.354-0.146l0.884-0.883c0.041-0.041,0.068-0.089,0.091-0.137c0.39,0.286,0.847,0.479,1.346,0.555
	c-0.018,0.052-0.033,0.105-0.033,0.163v1.25c0,0.276,0.224,0.5,0.5,0.5s0.5-0.224,0.5-0.5v-1.25c0-0.058-0.015-0.111-0.033-0.163
	c0.499-0.077,0.956-0.269,1.346-0.555c0.024,0.049,0.051,0.097,0.091,0.137l0.884,0.883c0.098,0.098,0.226,0.146,0.354,0.146
	s0.256-0.049,0.354-0.146c0.195-0.195,0.195-0.512,0-0.707L23.72,15.64c-0.04-0.04-0.088-0.067-0.137-0.091
	c0.287-0.39,0.479-0.848,0.556-1.347c0.052,0.018,0.105,0.033,0.163,0.033h1.25c0.276,0,0.5-0.224,0.5-0.5s-0.224-0.5-0.5-0.5h-1.25
	c-0.058,0-0.112,0.015-0.163,0.033c-0.077-0.499-0.269-0.957-0.556-1.346c0.049-0.024,0.096-0.05,0.137-0.091l0.884-0.883
	c0.195-0.195,0.195-0.512,0-0.707s-0.512-0.195-0.707,0l-0.884,0.883c-0.04,0.04-0.067,0.088-0.091,0.137
	c-0.39-0.286-0.847-0.478-1.346-0.555c0.018-0.052,0.033-0.105,0.033-0.163v-1.25c0-0.276-0.224-0.5-0.5-0.5s-0.5,0.224-0.5,0.5
	v1.25c0,0.058,0.015,0.111,0.033,0.163c-0.499,0.077-0.956,0.269-1.346,0.555c-0.024-0.049-0.051-0.097-0.091-0.137L18.32,10.24
	c-0.195-0.195-0.512-0.195-0.707,0s-0.195,0.512,0,0.707l0.884,0.883c0.041,0.041,0.088,0.067,0.137,0.091
	c-0.286,0.39-0.479,0.847-0.555,1.346c-0.052-0.018-0.106-0.033-0.164-0.033h-1.249C16.39,13.234,16.166,13.458,16.166,13.734z"/>
<path d="M16.632,2.369c0,0.553,0.447,1,1,1h2.477v3.464c0,0.553,0.447,1,1,1s1-0.447,1-1V3.369h5.624v10.624c0,0.553,0.447,1,1,1
	s1-0.447,1-1V3.369h6.596v3.464c0,0.553,0.447,1,1,1s1-0.447,1-1V3.369h1.505c0.553,0,1-0.447,1-1s-0.447-1-1-1h-2.505h-8.596
	h-7.624h-3.477C17.079,1.369,16.632,1.816,16.632,2.369z"/>
<path d="M40.458,11.295c-1.068,0-1.934,0-1.934,0l-0.598-1.84c-0.33-1.016-0.865-1.016-1.195,0c-0.33,1.016-0.598,1.84-0.598,1.84
	h-1.934c-1.068,0-1.234,0.509-0.369,1.137c0.864,0.628,1.565,1.137,1.565,1.137l-0.598,1.84c-0.33,1.016,0.103,1.331,0.967,0.703
	s1.565-1.137,1.565-1.137l1.565,1.137c0.864,0.628,1.297,0.313,0.967-0.703c-0.33-1.016-0.598-1.84-0.598-1.84l1.565-1.137
	C41.692,11.804,41.526,11.295,40.458,11.295z"/>
</svg>
