<?xml version="1.0" encoding="utf-8"?>
<!-- Generator: Adobe Illustrator 17.0.2, SVG Export Plug-In . SVG Version: 6.00 Build 0)  -->
<!DOCTYPE svg PUBLIC "-//W3C//DTD SVG 1.1//EN" "http://www.w3.org/Graphics/SVG/1.1/DTD/svg11.dtd">
<svg version="1.1" id="Capa_1" xmlns="http://www.w3.org/2000/svg" xmlns:xlink="http://www.w3.org/1999/xlink" x="0px" y="0px"
	 width="64px" height="64px" viewBox="0 0 64 64" enable-background="new 0 0 64 64" xml:space="preserve">
<path d="M54.833,2.667H9.167c-3.584,0-6.5,2.916-6.5,6.5v5.666v34.334v5.666c0,3.584,2.916,6.5,6.5,6.5h45.666
	c3.584,0,6.5-2.916,6.5-6.5v-5.666V14.833V9.167C61.333,5.583,58.417,2.667,54.833,2.667z M12.349,17.833
	c0.638,1.971,2.47,3.41,4.651,3.41c1.37,0,2.608-0.567,3.5-1.476c0.892,0.909,2.13,1.476,3.5,1.476c2.181,0,4.013-1.439,4.651-3.41
	h11.698c0.638,1.971,2.47,3.41,4.651,3.41s4.013-1.439,4.651-3.41h8.682V30.5h-9.786c-0.729-1.8-2.489-3.076-4.547-3.076
	c-1.269,0-2.416,0.497-3.288,1.289c-0.899-0.99-2.183-1.623-3.622-1.623c-1.37,0-2.608,0.568-3.5,1.476
	c-0.892-0.909-2.13-1.476-3.5-1.476c-2.181,0-4.012,1.439-4.65,3.41H5.667V17.833H12.349z M15.09,16.333
	c0-0.611,0.294-1.15,0.742-1.5c0.324-0.253,0.726-0.409,1.168-0.409s0.844,0.157,1.168,0.409c0.448,0.35,0.742,0.889,0.742,1.5
	c0,0.611-0.293,1.15-0.741,1.5c-0.324,0.253-0.726,0.41-1.169,0.41s-0.845-0.157-1.169-0.41
	C15.383,17.483,15.09,16.944,15.09,16.333z M25.91,16.333c0,0.611-0.293,1.15-0.741,1.5c-0.324,0.253-0.726,0.41-1.169,0.41
	s-0.845-0.157-1.169-0.41c-0.448-0.35-0.741-0.889-0.741-1.5c0-0.611,0.294-1.15,0.742-1.5c0.324-0.253,0.726-0.409,1.168-0.409
	s0.844,0.157,1.168,0.409C25.616,15.183,25.91,15.722,25.91,16.333z M43.09,16.333c0-0.611,0.294-1.15,0.742-1.5
	c0.324-0.253,0.726-0.409,1.168-0.409s0.844,0.157,1.168,0.409c0.448,0.35,0.742,0.889,0.742,1.5c0,0.611-0.293,1.15-0.741,1.5
	c-0.324,0.253-0.726,0.41-1.169,0.41s-0.845-0.157-1.169-0.41C43.383,17.483,43.09,16.944,43.09,16.333z M55.755,46.167
	c-0.527-2.143-2.452-3.743-4.755-3.743c-1.37,0-2.608,0.567-3.5,1.476c-0.892-0.908-2.13-1.476-3.5-1.476
	c-2.303,0-4.228,1.6-4.755,3.743h-18.49c-0.527-2.143-2.452-3.743-4.755-3.743s-4.228,1.6-4.755,3.743H5.667V33.5H25.44
	c0.638,1.971,2.469,3.41,4.65,3.41c1.37,0,2.609-0.568,3.5-1.476c0.891,0.909,2.129,1.476,3.5,1.476c1.269,0,2.416-0.497,3.289-1.29
	c0.899,0.99,2.183,1.623,3.621,1.623c2.303,0,4.227-1.6,4.755-3.743h9.578v12.667H55.755z M52.91,47.333
	c0,0.878-0.598,1.611-1.406,1.834c-0.162,0.045-0.329,0.076-0.505,0.076s-0.343-0.032-0.505-0.076
	c-0.808-0.223-1.406-0.956-1.406-1.834c0-0.441,0.156-0.842,0.409-1.166c0.35-0.449,0.889-0.743,1.502-0.743
	s1.152,0.294,1.502,0.743C52.754,46.491,52.91,46.892,52.91,47.333z M42.09,47.333c0-0.441,0.156-0.842,0.409-1.166
	c0.35-0.449,0.889-0.743,1.502-0.743s1.152,0.294,1.502,0.743c0.252,0.324,0.409,0.725,0.409,1.166c0,0.878-0.598,1.611-1.406,1.834
	c-0.162,0.045-0.329,0.076-0.505,0.076s-0.343-0.032-0.505-0.076C42.688,48.944,42.09,48.211,42.09,47.333z M17.91,47.333
	c0,0.878-0.598,1.611-1.406,1.834c-0.162,0.045-0.329,0.076-0.505,0.076s-0.343-0.032-0.505-0.076
	c-0.808-0.223-1.406-0.956-1.406-1.834c0-0.441,0.156-0.842,0.409-1.166c0.35-0.449,0.889-0.743,1.502-0.743
	s1.152,0.294,1.502,0.743C17.754,46.491,17.91,46.892,17.91,47.333z M28.181,32c0-0.611,0.294-1.15,0.741-1.5
	c0.324-0.253,0.726-0.41,1.168-0.41c0.442,0,0.845,0.157,1.169,0.41C31.707,30.85,32,31.389,32,32s-0.293,1.15-0.741,1.5
	c-0.324,0.253-0.726,0.41-1.169,0.41c-0.442,0-0.844-0.157-1.168-0.41C28.474,33.15,28.181,32.611,28.181,32z M39,32
	c0,0.611-0.293,1.15-0.741,1.5c-0.324,0.253-0.726,0.41-1.169,0.41c-0.442,0-0.844-0.157-1.168-0.41
	c-0.448-0.35-0.741-0.889-0.741-1.5s0.294-1.15,0.741-1.5c0.324-0.253,0.726-0.41,1.168-0.41c0.442,0,0.845,0.157,1.169,0.41
	C38.707,30.85,39,31.389,39,32z M45.91,32.333c0,0.442-0.156,0.843-0.409,1.167c-0.35,0.449-0.889,0.743-1.501,0.743
	s-1.152-0.294-1.501-0.743c-0.252-0.324-0.409-0.725-0.409-1.167c0-0.877,0.598-1.61,1.406-1.833
	c0.162-0.045,0.329-0.076,0.505-0.076s0.343,0.032,0.505,0.076C45.312,30.723,45.91,31.456,45.91,32.333z M58.333,54.833
	c0,1.93-1.57,3.5-3.5,3.5H9.167c-1.93,0-3.5-1.57-3.5-3.5v-5.666h5.786c0.729,1.8,2.489,3.076,4.547,3.076s3.818-1.276,4.547-3.076
	h18.906c0.729,1.8,2.489,3.076,4.547,3.076c1.37,0,2.608-0.567,3.5-1.476c0.892,0.909,2.13,1.476,3.5,1.476
	c2.058,0,3.818-1.276,4.547-3.076h2.786V54.833z M49.651,14.833c-0.638-1.971-2.47-3.409-4.651-3.409s-4.012,1.438-4.651,3.409
	H28.651c-0.638-1.971-2.47-3.409-4.651-3.409c-1.37,0-2.608,0.567-3.5,1.476c-0.892-0.908-2.13-1.476-3.5-1.476
	c-2.181,0-4.012,1.438-4.651,3.409H5.667V9.167c0-1.93,1.57-3.5,3.5-3.5h45.666c1.93,0,3.5,1.57,3.5,3.5v5.666H49.651z"/>
</svg>
