<?xml version="1.0" encoding="utf-8"?>
<!-- Generator: Adobe Illustrator 17.0.2, SVG Export Plug-In . SVG Version: 6.00 Build 0)  -->
<!DOCTYPE svg PUBLIC "-//W3C//DTD SVG 1.1//EN" "http://www.w3.org/Graphics/SVG/1.1/DTD/svg11.dtd">
<svg version="1.1" id="Capa_1" xmlns="http://www.w3.org/2000/svg" xmlns:xlink="http://www.w3.org/1999/xlink" x="0px" y="0px"
	 width="64px" height="64px" viewBox="0 0 64 64" enable-background="new 0 0 64 64" xml:space="preserve">
<path d="M60.755,28.002H12.537c-0.469-3.195-2.211-10.705-8.215-10.705c-0.828,0-1.5,0.671-1.5,1.5s0.672,1.5,1.5,1.5
	c0.399,0,0.759,0.09,1.103,0.217c2.027,0.748,3.126,3.469,3.697,5.753c0.437,1.745,0.572,3.212,0.581,3.319
	c0.024,7.364,3.183,14.001,8.209,18.65c-0.972,1.362-1.551,3.024-1.551,4.822c0,4.591,3.735,8.327,8.327,8.327
	c3.954,0,7.267-2.773,8.112-6.474c0.799,0.076,1.608,0.118,2.427,0.118c0.819,0,1.628-0.043,2.428-0.118
	c0.846,3.701,4.158,6.474,8.112,6.474c4.591,0,8.326-3.735,8.326-8.327c0-1.797-0.578-3.459-1.55-4.821
	c5.045-4.666,8.212-11.336,8.212-18.734V28.002z M50.386,46.134c-1.323-0.885-2.911-1.403-4.618-1.403
	c-4.201,0-7.675,3.129-8.238,7.177c-0.757,0.077-1.524,0.121-2.302,0.121c-0.777,0-1.544-0.044-2.301-0.121
	c-0.563-4.048-4.037-7.177-8.238-7.177c-1.708,0-3.296,0.518-4.619,1.403c-4.174-3.807-6.924-9.15-7.319-15.132h44.954
	C57.31,36.985,54.56,42.327,50.386,46.134z M51.094,53.058c0,2.937-2.39,5.327-5.326,5.327c-2.455,0-4.506-1.678-5.121-3.94
	c-0.121-0.445-0.206-0.904-0.206-1.387c0-0.036,0.01-0.069,0.011-0.105c0.011-0.575,0.126-1.12,0.306-1.637
	c0.726-2.08,2.686-3.585,5.01-3.585c0.729,0,1.424,0.149,2.057,0.415c0.514,0.216,0.973,0.528,1.39,0.886
	c0.381,0.327,0.726,0.693,1.002,1.114C50.768,50.984,51.094,51.982,51.094,53.058z M30.016,53.058c0,0.483-0.085,0.942-0.206,1.387
	c-0.615,2.262-2.666,3.94-5.121,3.94c-2.938,0-5.327-2.39-5.327-5.327c0-1.076,0.326-2.074,0.876-2.912
	c0.277-0.421,0.621-0.787,1.002-1.114c0.417-0.358,0.876-0.669,1.39-0.886c0.634-0.266,1.329-0.415,2.058-0.415
	c2.324,0,4.285,1.506,5.011,3.586c0.18,0.516,0.295,1.062,0.306,1.636C30.006,52.989,30.016,53.022,30.016,53.058z"/>
<path d="M60.755,23.5c0-11.332-9.219-20.55-20.55-20.55h-1.5V25h22.05V23.5z M41.705,22V6.014C50.188,6.735,56.971,13.517,57.691,22
	H41.705z"/>
</svg>
