<?xml version="1.0" encoding="utf-8"?>
<!-- Generator: Adobe Illustrator 17.0.2, SVG Export Plug-In . SVG Version: 6.00 Build 0)  -->
<!DOCTYPE svg PUBLIC "-//W3C//DTD SVG 1.1//EN" "http://www.w3.org/Graphics/SVG/1.1/DTD/svg11.dtd">
<svg version="1.1" id="Capa_1" xmlns="http://www.w3.org/2000/svg" xmlns:xlink="http://www.w3.org/1999/xlink" x="0px" y="0px"
	 width="64px" height="64px" viewBox="0 0 64 64" enable-background="new 0 0 64 64" xml:space="preserve">
<path d="M9.251,61.167h37.333c3.584,0,6.5-2.916,6.5-6.5V17.333c0-3.584-2.916-6.5-6.5-6.5H9.251c-3.584,0-6.5,2.916-6.5,6.5v37.333
	C2.751,58.25,5.667,61.167,9.251,61.167z M5.751,17.333c0-1.93,1.57-3.5,3.5-3.5h37.333c1.93,0,3.5,1.57,3.5,3.5v37.333
	c0,1.93-1.57,3.5-3.5,3.5H9.251c-1.93,0-3.5-1.57-3.5-3.5V17.333z"/>
<path d="M54.417,55.667c0,0.399,0.158,0.759,0.412,1.028c0.273,0.289,0.658,0.472,1.088,0.472c0.828,0,1.5-0.671,1.5-1.5V13.333
	c0-3.584-2.916-6.5-6.5-6.5H9.584c-0.828,0-1.5,0.671-1.5,1.5c0,0.203,0.041,0.396,0.114,0.572c0.225,0.544,0.76,0.928,1.386,0.928
	h37h3.991h0.342c1.93,0,3.5,1.57,3.5,3.5v0.701V55.667z"/>
<path d="M59.917,53.167c0.828,0,1.5-0.671,1.5-1.5V9.333c0-3.584-2.916-6.5-6.5-6.5H13.584c-0.828,0-1.5,0.671-1.5,1.5
	s0.672,1.5,1.5,1.5h41.333c1.93,0,3.5,1.57,3.5,3.5v42.333C58.417,52.495,59.089,53.167,59.917,53.167z"/>
<path d="M17.438,31.441h1.568c0.486,0,0.88,0.394,0.88,0.88v10.128c0,0.486,0.394,0.88,0.88,0.88h4.454
	c-0.052-0.213-0.087-0.432-0.087-0.661v-3.602c0-1.538,1.247-2.785,2.785-2.785c1.538,0,2.785,1.247,2.785,2.785v3.602
	c0,0.229-0.035,0.448-0.087,0.661h4.454c0.486,0,0.88-0.394,0.88-0.88V32.321c0-0.486,0.394-0.88,0.88-0.88h1.568
	c0.486,0,0.624-0.299,0.308-0.669l-10.216-11.95c-0.316-0.369-0.827-0.369-1.143,0L17.13,30.773
	C16.814,31.142,16.952,31.441,17.438,31.441z"/>
<path d="M19.973,53.384c0.24-0.05,0.45-0.143,0.627-0.279c0.157-0.118,0.288-0.263,0.393-0.437c0.165-0.261,0.247-0.556,0.247-0.884
	c0-0.319-0.072-0.59-0.216-0.813c-0.144-0.223-0.358-0.386-0.64-0.489c0.186-0.095,0.327-0.201,0.423-0.316
	c0.171-0.206,0.257-0.478,0.257-0.817c0-0.329-0.085-0.611-0.255-0.847c-0.282-0.384-0.762-0.581-1.438-0.591h-2.681v5.548h2.5
	C19.47,53.459,19.732,53.434,19.973,53.384z M17.796,48.875h1.207c0.265,0,0.484,0.029,0.656,0.087
	c0.199,0.083,0.298,0.253,0.298,0.512c0,0.233-0.075,0.396-0.225,0.487c-0.151,0.092-0.346,0.137-0.586,0.137h-1.349V48.875z
	 M17.796,52.496v-1.479h1.366c0.238,0.003,0.423,0.034,0.555,0.094c0.235,0.108,0.353,0.306,0.353,0.595
	c0,0.341-0.122,0.572-0.364,0.693c-0.134,0.065-0.321,0.098-0.562,0.098H17.796z"/>
<path d="M24.691,47.742c-0.793,0-1.399,0.216-1.818,0.647c-0.562,0.509-0.843,1.272-0.843,2.288c0,0.996,0.281,1.759,0.843,2.288
	c0.419,0.432,1.025,0.647,1.818,0.647s1.399-0.216,1.818-0.647c0.56-0.529,0.839-1.292,0.839-2.288c0-1.016-0.28-1.779-0.839-2.288
	C26.09,47.958,25.484,47.742,24.691,47.742z M25.784,52.123c-0.27,0.339-0.634,0.508-1.093,0.508s-0.826-0.169-1.099-0.508
	c-0.273-0.339-0.41-0.82-0.41-1.445c0-0.625,0.137-1.107,0.41-1.445s0.64-0.508,1.099-0.508s0.824,0.17,1.093,0.51
	c0.27,0.34,0.405,0.821,0.405,1.443C26.189,51.303,26.054,51.784,25.784,52.123z"/>
<path d="M30.686,47.742c-0.793,0-1.399,0.216-1.818,0.647c-0.562,0.509-0.843,1.272-0.843,2.288c0,0.996,0.281,1.759,0.843,2.288
	c0.419,0.432,1.025,0.647,1.818,0.647s1.399-0.216,1.818-0.647c0.56-0.529,0.839-1.292,0.839-2.288c0-1.016-0.28-1.779-0.839-2.288
	C32.085,47.958,31.479,47.742,30.686,47.742z M31.78,52.123c-0.27,0.339-0.634,0.508-1.093,0.508s-0.826-0.169-1.099-0.508
	c-0.273-0.339-0.41-0.82-0.41-1.445c0-0.625,0.137-1.107,0.41-1.445s0.64-0.508,1.099-0.508s0.824,0.17,1.093,0.51
	c0.27,0.34,0.405,0.821,0.405,1.443C32.184,51.303,32.049,51.784,31.78,52.123z"/>
<polygon points="37.531,47.911 35.387,50.197 35.387,47.911 34.247,47.911 34.247,53.459 35.387,53.459 35.387,51.604 
	35.945,51.038 37.655,53.459 39.145,53.459 36.752,50.193 39.029,47.911 "/>
</svg>
