<?xml version="1.0" encoding="utf-8"?>
<!-- Generator: Adobe Illustrator 17.0.2, SVG Export Plug-In . SVG Version: 6.00 Build 0)  -->
<!DOCTYPE svg PUBLIC "-//W3C//DTD SVG 1.1//EN" "http://www.w3.org/Graphics/SVG/1.1/DTD/svg11.dtd">
<svg version="1.1" id="Capa_1" xmlns="http://www.w3.org/2000/svg" xmlns:xlink="http://www.w3.org/1999/xlink" x="0px" y="0px"
	 width="64px" height="64px" viewBox="0 0 64 64" enable-background="new 0 0 64 64" xml:space="preserve">
<path d="M58.703,7.849c0.714,3.504-6.101,4.472-7.656,7.34c-0.735,1.357-0.57,3.325,0.292,4.591c1.1,1.616,3.837,3.175,2.121,4.96
	c-0.199,0.08-9.184,3.637-21.754,3.637c-7.451,0-14.678-1.233-21.479-3.664c-0.014-0.005-0.029-0.005-0.043-0.01
	c-1.804-1.391-4.229-3.404-4.049-5.595c0.203-2.466,2.07-3.473,4.158-4.201c2.618-0.913,5.318-1.696,7.179-3.878
	c1.363-1.598-0.944-3.928-2.317-2.317c-2.92,3.422-9.326,2.576-11.405,7.018c-2.258,4.823,0.829,8.602,4.473,11.549v11.479
	c0,11.627,9.46,21.086,21.087,21.086h5.142c11.627,0,21.087-9.459,21.087-21.086V27.256c1.497-1.306,2.76-2.992,1.784-5.075
	c-0.782-1.668-4.953-4.545-2.723-6.276c3.522-2.733,8.423-3.245,7.265-8.926C61.441,4.908,58.282,5.786,58.703,7.849z
	 M11.222,38.758V28.219c6.535,2.097,13.415,3.159,20.484,3.159c9.77,0,17.354-2.008,20.831-3.131v10.511
	c0,9.973-8.113,18.086-18.087,18.086h-5.142C19.335,56.844,11.222,48.73,11.222,38.758z"/>
</svg>
