<?xml version="1.0" encoding="utf-8"?>
<!-- Generator: Adobe Illustrator 16.0.0, SVG Export Plug-In . SVG Version: 6.00 Build 0)  -->
<!DOCTYPE svg PUBLIC "-//W3C//DTD SVG 1.1//EN" "http://www.w3.org/Graphics/SVG/1.1/DTD/svg11.dtd">
<svg version="1.1" id="Capa_1" xmlns="http://www.w3.org/2000/svg" xmlns:xlink="http://www.w3.org/1999/xlink" x="0px" y="0px"
	 width="64px" height="64px" viewBox="0 0 64 64" enable-background="new 0 0 64 64" xml:space="preserve">
<g>
	<path d="M55.415,24.303C52.381,15.934,44.831,9.837,36.013,8.36c-0.146-0.054-0.303-0.095-0.481-0.105
		c-0.11-0.006-0.229-0.005-0.341-0.01c-1.091-0.146-2.194-0.237-3.315-0.237c-10.535,0-20.04,6.643-23.54,16.295
		c-4.466,0.052-8.084,3.701-8.084,8.181c0,4.479,3.618,8.129,8.085,8.181c3.5,9.651,13.004,16.295,23.54,16.295
		c4.101,0,8.04-1.018,11.534-2.817c-0.801-0.701-1.578-1.471-2.268-2.298c-2.85,1.313-5.998,2.055-9.267,2.055
		c-9.62,0-18.255-6.289-21-15.292l-0.385-1.262l-1.303,0.195c-0.293,0.044-0.534,0.063-0.755,0.063
		c-2.824,0-5.121-2.298-5.121-5.121c0-2.824,2.297-5.122,5.121-5.122c0.221,0,0.462,0.021,0.757,0.063l1.302,0.192l0.384-1.26
		c1.861-6.104,6.433-10.952,12.18-13.446c-1.283,2.842,0.459,6.344,3.363,7.711c3.619,1.703,9.474,1.924,11.942-1.779
		c1.114-1.669,0.126-3.78-1.221-4.922c-1.886-1.599-4.623-1.826-6.861-0.938c-1.812,0.719-1.023,3.68,0.814,2.952
		c1.331-0.527,2.542-0.567,3.819,0.134c1.752,0.963,0.138,2.063-1.087,2.415c-2.282,0.656-5.649,0.121-7.434-1.481
		c-2.252-2.022,0.649-4.317,2.444-4.945c1.947-0.682,4.086-0.833,6.146-0.758c8.325,1.185,15.451,7.037,17.896,15.058l0.384,1.26
		l1.303-0.192c0.294-0.043,0.535-0.063,0.756-0.063c2.825,0,5.122,2.297,5.122,5.122c0,2.823-2.297,5.121-5.122,5.121
		c-0.221,0-0.462-0.02-0.754-0.063l-1.304-0.194l-0.385,1.261c-0.137,0.448-0.299,0.886-0.464,1.32
		c0.464-0.108,0.946-0.171,1.442-0.171c1.09,0,2.114,0.273,3.012,0.755c3.772-0.726,6.635-4.045,6.635-8.028
		C63.501,28.004,59.883,24.354,55.415,24.303z"/>
	<path d="M25.414,31.421c-2.631,0-2.631,4.08,0,4.08C28.045,35.501,28.046,31.421,25.414,31.421z"/>
	<path d="M38.337,31.166c-2.632,0-2.632,4.081,0,4.081C40.968,35.246,40.969,31.166,38.337,31.166z"/>
	<path d="M31.876,45.746c3.317,0,6.018-2.7,6.018-6.018c0-0.847-0.686-1.53-1.53-1.53s-1.53,0.684-1.53,1.53
		c0,1.631-1.327,2.957-2.957,2.957c-1.63,0-2.958-1.326-2.958-2.957c0-0.847-0.685-1.53-1.53-1.53c-0.845,0-1.53,0.684-1.53,1.53
		C25.858,43.046,28.558,45.746,31.876,45.746z"/>
	<path d="M49.456,42.538c-6.171-3.54-14.629,6.38,0,13.882C64.239,48.838,55.438,39.109,49.456,42.538z M49.456,52.948
		c-7.308-4.334-5.261-8.064-2.69-8.064c1.202,0,1.794,0.809,2.69,1.658c0.893-0.847,1.488-1.657,2.69-1.657
		C54.41,44.885,57.063,48.425,49.456,52.948z"/>
</g>
</svg>
