<?xml version="1.0" encoding="utf-8"?>
<!-- Generator: Adobe Illustrator 17.0.2, SVG Export Plug-In . SVG Version: 6.00 Build 0)  -->
<!DOCTYPE svg PUBLIC "-//W3C//DTD SVG 1.1//EN" "http://www.w3.org/Graphics/SVG/1.1/DTD/svg11.dtd">
<svg version="1.1" id="Capa_1" xmlns="http://www.w3.org/2000/svg" xmlns:xlink="http://www.w3.org/1999/xlink" x="0px" y="0px"
	 width="64px" height="64px" viewBox="0 0 64 64" enable-background="new 0 0 64 64" xml:space="preserve">
<path d="M54.45,25.078c0.01-0.118,0.146-1.657,0.619-3.376c0.5-1.815,1.382-3.797,2.881-4.484c0.346-0.158,0.718-0.264,1.134-0.264
	c0.828,0,1.5-0.671,1.5-1.5s-0.672-1.5-1.5-1.5c-5.391,0-7.008,6.583-7.462,9.542H8.62v1.5c0,7.324,3.458,13.852,8.823,18.05
	c0.06,0.506,0.372,0.97,0.871,1.194l9.873,4.426l-6.012,2.695c-1.179-1.051-2.727-1.695-4.426-1.695
	c-3.676,0-6.666,2.991-6.666,6.667c0,3.676,2.99,6.667,6.666,6.667s6.667-2.991,6.667-6.667c0-0.874-0.174-1.708-0.481-2.474
	l7.918-3.55l7.74,3.47c-0.328,0.787-0.51,1.649-0.51,2.553c0,3.676,2.99,6.667,6.666,6.667s6.667-2.991,6.667-6.667
	c0-3.676-2.991-6.667-6.667-6.667c-1.666,0-3.187,0.619-4.357,1.633l-5.873-2.633l9.873-4.426c0.66-0.296,1.002-1.01,0.852-1.69
	C51.239,38.359,54.425,32.085,54.45,25.078z M21.417,56.333c0,2.021-1.645,3.667-3.667,3.667c-2.021,0-3.666-1.645-3.666-3.667
	c0-2.022,1.645-3.667,3.666-3.667c0.385,0,0.75,0.076,1.099,0.187c1.087,0.344,1.95,1.172,2.337,2.239
	C21.327,55.482,21.417,55.896,21.417,56.333z M44.774,52.815c0.313-0.087,0.636-0.149,0.976-0.149c2.022,0,3.667,1.645,3.667,3.667
	c0,2.021-1.645,3.667-3.667,3.667c-2.021,0-3.666-1.645-3.666-3.667c0-0.467,0.096-0.911,0.256-1.322
	C42.756,53.942,43.658,53.126,44.774,52.815z M31.536,44.912c-10.477,0-19.091-8.132-19.86-18.416h39.721
	C50.627,36.78,42.013,44.912,31.536,44.912z"/>
<path d="M27.101,1.167c-10.19,0-18.48,8.29-18.48,18.48v1.5h19.98V1.167H27.101z M25.601,18.146H11.692
	c0.709-7.341,6.566-13.199,13.908-13.908V18.146z"/>
</svg>
