<?xml version="1.0" encoding="utf-8"?>
<!-- Generator: Adobe Illustrator 17.0.2, SVG Export Plug-In . SVG Version: 6.00 Build 0)  -->
<!DOCTYPE svg PUBLIC "-//W3C//DTD SVG 1.1//EN" "http://www.w3.org/Graphics/SVG/1.1/DTD/svg11.dtd">
<svg version="1.1" id="Capa_1" xmlns="http://www.w3.org/2000/svg" xmlns:xlink="http://www.w3.org/1999/xlink" x="0px" y="0px"
	 width="64px" height="64px" viewBox="0 0 64 64" enable-background="new 0 0 64 64" xml:space="preserve">
<path d="M4.988,39.847c0.113,0.108,0.244,0.201,0.39,0.271c0.136,0.065,13.511,6.584,14.966,15.173v1.474c0,0.828,0.671,1.5,1.5,1.5
	h20.101c0.829,0,1.5-0.672,1.5-1.5v-1.473c1.454-8.571,14.831-15.108,14.966-15.174c0.142-0.068,0.27-0.158,0.38-0.264
	c2.142-1.632,3.415-4.179,3.415-6.852V22.975c0-4.759-3.872-8.631-8.631-8.631h-0.187c-0.071-0.002-0.14-0.011-0.212-0.011h-9.759
	c-0.072,0-0.141,0.009-0.212,0.011h-22.65c-0.071-0.002-0.14-0.011-0.212-0.011h-9.759c-0.072,0-0.141,0.009-0.212,0.011h-0.158
	c-4.759,0-8.63,3.872-8.63,8.631v0.358v9.669C1.584,35.671,2.853,38.214,4.988,39.847z M43.205,17.344h10.184
	c3.21,0.113,5.788,2.752,5.788,5.989c0,3.309-2.691,6-6,6h-9.759c-3.309,0-6-2.691-6-6C37.417,20.096,39.995,17.457,43.205,17.344z
	 M36.718,17.344c-1.426,1.593-2.301,3.688-2.301,5.989c0,4.963,4.038,9,9,9h9.759c2.32,0,4.432-0.89,6.029-2.337v3.006
	c0,1.787-0.832,3.425-2.285,4.505c-1.825,0.908-14.937,7.752-16.458,17.429c-0.012,0.077-0.018,0.155-0.018,0.233v0.095H23.344
	v-0.095c0-0.078-0.006-0.156-0.018-0.232c-1.521-9.678-14.633-16.521-16.458-17.43c-1.453-1.079-2.284-2.718-2.284-4.505v-2.98
	c1.594,1.432,3.694,2.311,6,2.311h9.759c4.962,0,9-4.037,9-9c0-2.301-0.875-4.396-2.301-5.989H36.718z M10.372,17.344h10.184
	c3.21,0.113,5.788,2.752,5.788,5.989c0,3.309-2.691,6-6,6h-9.759c-3.309,0-6-2.691-6-6C4.584,20.096,7.162,17.457,10.372,17.344z"/>
<path d="M20.25,28c2.573,0,4.667-2.094,4.667-4.667s-2.093-4.666-4.667-4.666s-4.667,2.093-4.667,4.666S17.677,28,20.25,28z
	 M20.25,21.667c0.919,0,1.667,0.747,1.667,1.666S21.169,25,20.25,25s-1.667-0.748-1.667-1.667S19.332,21.667,20.25,21.667z"/>
<path d="M43.25,28c2.573,0,4.667-2.094,4.667-4.667s-2.093-4.666-4.667-4.666s-4.667,2.093-4.667,4.666S40.677,28,43.25,28z
	 M43.25,21.667c0.919,0,1.667,0.747,1.667,1.666S44.169,25,43.25,25s-1.667-0.748-1.667-1.667S42.332,21.667,43.25,21.667z"/>
</svg>
