<?xml version="1.0" encoding="utf-8"?>
<!-- Generator: Adobe Illustrator 17.0.2, SVG Export Plug-In . SVG Version: 6.00 Build 0)  -->
<!DOCTYPE svg PUBLIC "-//W3C//DTD SVG 1.1//EN" "http://www.w3.org/Graphics/SVG/1.1/DTD/svg11.dtd">
<svg version="1.1" id="Capa_1" xmlns="http://www.w3.org/2000/svg" xmlns:xlink="http://www.w3.org/1999/xlink" x="0px" y="0px"
	 width="64px" height="64px" viewBox="0 0 64 64" enable-background="new 0 0 64 64" xml:space="preserve">
<path d="M18.944,39.63c0,0.272,0.014,0.543,0.04,0.813c0.044,0.451,0.129,0.907,0.272,1.442l0.102,0.342
	c2.083,6.672,11.636,11.637,12.041,11.845l0.685,0.352l0.685-0.352c0.405-0.208,9.957-5.172,12.029-11.81l0.123-0.42
	c0.134-0.489,0.219-0.948,0.261-1.392c0.027-0.272,0.042-0.545,0.042-0.82c0-4.629-3.767-8.396-8.396-8.396
	c-1.71,0-3.354,0.517-4.744,1.474c-1.391-0.958-3.034-1.474-4.744-1.474C22.711,31.234,18.944,35,18.944,39.63z M27.34,34.234
	c1.383,0,2.701,0.528,3.711,1.487l1.033,0.981l1.033-0.981c1.01-0.959,2.328-1.487,3.711-1.487c2.975,0,5.396,2.42,5.396,5.396
	c0,0.173-0.009,0.346-0.027,0.528c-0.026,0.28-0.082,0.572-0.174,0.909l-0.036,0.146l1.438,0.424l-1.479-0.304
	c-1.427,4.569-7.767,8.5-9.868,9.697c-2.831-1.593-8.553-5.524-9.861-9.715l-0.074-0.26c-0.088-0.323-0.144-0.618-0.171-0.9
	c-0.017-0.174-0.026-0.348-0.026-0.524C21.944,36.654,24.365,34.234,27.34,34.234z"/>
<path d="M30.082,11.527c0.601-0.211,1.002-0.779,1.002-1.415v-5.44c0-0.445-0.198-0.868-0.541-1.153
	c-0.342-0.285-0.791-0.401-1.231-0.322C16.868,5.498,6.848,23.384,6.848,36.659c0,13.916,11.321,25.236,25.236,25.236
	S57.32,50.575,57.32,36.659c0-13.275-10.021-31.162-22.464-33.462c-0.438-0.082-0.89,0.037-1.231,0.322
	c-0.343,0.285-0.541,0.708-0.541,1.153v5.44c0,0.636,0.401,1.204,1.002,1.415c2.413,0.85,4.034,3.135,4.034,5.688
	c0,3.328-2.708,6.036-6.036,6.036s-6.036-2.708-6.036-6.036C26.048,14.663,27.669,12.377,30.082,11.527z M32.084,26.251
	c4.982,0,9.036-4.054,9.036-9.036c0-3.458-1.985-6.588-5.036-8.095V6.607C46.081,9.945,54.32,25.257,54.32,36.659
	c0,12.261-9.976,22.236-22.236,22.236S9.848,48.92,9.848,36.659c0-11.402,8.239-26.714,18.236-30.052V9.12
	c-3.051,1.507-5.036,4.638-5.036,8.095C23.048,22.197,27.102,26.251,32.084,26.251z"/>
</svg>
