<?xml version="1.0" encoding="utf-8"?>
<!-- Generator: Adobe Illustrator 17.0.2, SVG Export Plug-In . SVG Version: 6.00 Build 0)  -->
<!DOCTYPE svg PUBLIC "-//W3C//DTD SVG 1.1//EN" "http://www.w3.org/Graphics/SVG/1.1/DTD/svg11.dtd">
<svg version="1.1" id="Capa_1" xmlns="http://www.w3.org/2000/svg" xmlns:xlink="http://www.w3.org/1999/xlink" x="0px" y="0px"
	 width="64px" height="64px" viewBox="0 0 64 64" enable-background="new 0 0 64 64" xml:space="preserve">
<path d="M39.819,62.333c4.507,0,12.049,0,12.049-7.83V13.715c0-6.644-5.405-12.049-12.049-12.049H24.348
	c-6.644,0-12.049,5.405-12.049,12.049v40.789c0,7.83,7.542,7.83,12.049,7.83H39.819z M15.299,54.504V13.715
	c0-4.99,4.06-9.049,9.049-9.049h15.472c4.989,0,9.049,4.059,9.049,9.049v40.789c0,3.746-2.029,4.83-9.049,4.83H24.348
	C17.328,59.333,15.299,58.25,15.299,54.504z"/>
<path d="M32.084,23.744c7.15,0,12.752-3.746,12.752-8.529s-5.602-8.529-12.752-8.529s-12.752,3.746-12.752,8.529
	S24.934,23.744,32.084,23.744z M32.084,9.686c5.286,0,9.752,2.532,9.752,5.529s-4.466,5.529-9.752,5.529s-9.752-2.532-9.752-5.529
	S26.798,9.686,32.084,9.686z"/>
<path d="M44.518,44.215c0-1.235-0.224-2.439-0.667-3.593c0.892-1.136,1.389-2.545,1.389-4.003c0-3.577-2.91-6.487-6.487-6.487
	c-2.237,0-4.269,1.133-5.448,2.965C32.336,33,31.354,33,30.383,33.101c-1.179-1.834-3.211-2.969-5.449-2.969
	c-3.577,0-6.487,2.91-6.487,6.487c0,1.471,0.504,2.891,1.41,4.03c-0.437,1.146-0.657,2.342-0.657,3.566
	c0,6.171,5.679,11.191,12.659,11.191S44.518,50.386,44.518,44.215z M22.199,44.215c0-1.104,0.259-2.18,0.769-3.197l0.517-1.029
	l-0.861-0.765c-0.748-0.664-1.177-1.614-1.177-2.605c0-1.923,1.564-3.487,3.487-3.487c1.421,0,2.688,0.852,3.227,2.169l0.461,1.126
	l1.197-0.219c1.333-0.244,2.729-0.244,4.054-0.005l1.194,0.215l0.46-1.122c0.54-1.315,1.806-2.165,3.226-2.165
	c1.923,0,3.487,1.564,3.487,3.487c0,0.984-0.424,1.929-1.161,2.592l-0.854,0.767l0.518,1.025c0.516,1.019,0.776,2.1,0.776,3.212
	c0,4.517-4.333,8.191-9.659,8.191S22.199,48.731,22.199,44.215z"/>
<path d="M28.524,42.285c-2.041,0-2.041,3.165,0,3.165C30.564,45.45,30.564,42.285,28.524,42.285z"/>
<path d="M35.248,45.318c2.041,0,2.041-3.165,0-3.165C33.208,42.153,33.208,45.318,35.248,45.318z"/>
</svg>
