<?xml version="1.0" encoding="utf-8"?>
<!-- Generator: Adobe Illustrator 17.0.2, SVG Export Plug-In . SVG Version: 6.00 Build 0)  -->
<!DOCTYPE svg PUBLIC "-//W3C//DTD SVG 1.1//EN" "http://www.w3.org/Graphics/SVG/1.1/DTD/svg11.dtd">
<svg version="1.1" id="Capa_1" xmlns="http://www.w3.org/2000/svg" xmlns:xlink="http://www.w3.org/1999/xlink" x="0px" y="0px"
	 width="64px" height="64px" viewBox="0 0 64 64" enable-background="new 0 0 64 64" xml:space="preserve">
<path d="M61.334,54.625v-2.25c0-3.349-2.547-6.113-5.805-6.462c0.665-1.019,1.055-2.233,1.055-3.538v-2.25
	c0-3.112-2.2-5.717-5.125-6.35c0.709-1.041,1.125-2.298,1.125-3.65v-2.25c0-3.112-2.2-5.717-5.125-6.35
	c0.709-1.041,1.125-2.298,1.125-3.65v-2.25c0-3.584-2.916-6.5-6.5-6.5h-4.5V7.25c0-3.446-2.804-6.25-6.25-6.25
	s-6.25,2.804-6.25,6.25v1.875h-4.5c-3.584,0-6.5,2.916-6.5,6.5v2.25c0,1.352,0.416,2.608,1.125,3.65
	c-2.925,0.633-5.125,3.238-5.125,6.35v2.25c0,1.352,0.416,2.608,1.125,3.65c-2.925,0.633-5.125,3.238-5.125,6.35v2.25
	c0,1.427,0.468,2.744,1.251,3.818c-2.608,0.846-4.501,3.296-4.501,6.182v2.25c0,3.584,2.916,6.5,6.5,6.5h45.5
	C58.418,61.125,61.334,58.209,61.334,54.625z M5.834,54.625v-2.25c0-1.93,1.57-3.5,3.5-3.5h3.25h37.5h4.75c1.93,0,3.5,1.57,3.5,3.5
	v2.25c0,1.93-1.57,3.5-3.5,3.5h-45.5C7.404,58.125,5.834,56.555,5.834,54.625z M17.084,17.875v-2.25c0-1.93,1.57-3.5,3.5-3.5h4.5h3
	h6.5h3h4.5c1.93,0,3.5,1.57,3.5,3.5v2.25c0,1.93-1.57,3.5-3.5,3.5h-4.5h-3h-6.5h-3h-4.5C18.654,21.375,17.084,19.805,17.084,17.875z
	 M13.084,30.125v-2.25c0-1.93,1.57-3.5,3.5-3.5h4h4.5h3h6.5h3h4.5h4c1.93,0,3.5,1.57,3.5,3.5v2.25c0,1.93-1.57,3.5-3.5,3.5H34.507
	h-6.347H16.584C14.654,33.625,13.084,32.055,13.084,30.125z M9.084,40.125c0-1.93,1.57-3.5,3.5-3.5h4h29.5h4
	c1.93,0,3.5,1.57,3.5,3.5v2.25c0,1.93-1.57,3.5-3.5,3.5h-37.5c-1.93,0-3.5-1.57-3.5-3.5V40.125z M28.084,7.25
	c0-1.792,1.458-3.25,3.25-3.25s3.25,1.458,3.25,3.25v1.875h-6.5V7.25z"/>
<path d="M50.209,52.875c1.517,0,2.75,1.233,2.75,2.75c0,0.829,0.671,1.5,1.5,1.5s1.5-0.671,1.5-1.5c0-3.17-2.58-5.75-5.75-5.75
	c-0.829,0-1.5,0.671-1.5,1.5S49.38,52.875,50.209,52.875z"/>
<path d="M45.209,40.875c1.517,0,2.75,1.233,2.75,2.75c0,0.829,0.671,1.5,1.5,1.5s1.5-0.671,1.5-1.5c0-3.17-2.58-5.75-5.75-5.75
	c-0.829,0-1.5,0.671-1.5,1.5S44.38,40.875,45.209,40.875z"/>
<path d="M41.209,28.375c1.517,0,2.75,1.233,2.75,2.75c0,0.829,0.671,1.5,1.5,1.5s1.5-0.671,1.5-1.5c0-3.17-2.58-5.75-5.75-5.75
	c-0.829,0-1.5,0.671-1.5,1.5S40.38,28.375,41.209,28.375z"/>
<path d="M37.209,15.75c0.128,0,0.251,0.021,0.375,0.038c1.338,0.185,2.375,1.324,2.375,2.712c0,0.829,0.671,1.5,1.5,1.5
	s1.5-0.671,1.5-1.5c0-3.044-2.38-5.536-5.375-5.731c-0.125-0.008-0.248-0.019-0.375-0.019c-0.829,0-1.5,0.671-1.5,1.5
	S36.38,15.75,37.209,15.75z"/>
</svg>
