<?xml version="1.0" encoding="utf-8"?>
<!-- Generator: Adobe Illustrator 17.0.2, SVG Export Plug-In . SVG Version: 6.00 Build 0)  -->
<!DOCTYPE svg PUBLIC "-//W3C//DTD SVG 1.1//EN" "http://www.w3.org/Graphics/SVG/1.1/DTD/svg11.dtd">
<svg version="1.1" id="Capa_1" xmlns="http://www.w3.org/2000/svg" xmlns:xlink="http://www.w3.org/1999/xlink" x="0px" y="0px"
	 width="64px" height="64px" viewBox="0 0 64 64" enable-background="new 0 0 64 64" xml:space="preserve">
<path d="M58.611,36.332c0-4.086-2.888-7.51-6.729-8.339c2.096-2.854,1.707-5.658-1.166-8.531l-0.439-0.439h-1.153
	c0.598-6.038,2.812-12.172,8.574-15.004c1.899-0.933,0.235-3.763-1.656-2.833c-6.82,3.352-9.513,10.685-10.198,17.838H45.19H18.128
	h-0.157C17.286,11.87,14.592,4.536,7.773,1.185c-1.891-0.93-3.555,1.9-1.656,2.833c5.762,2.832,7.976,8.967,8.574,15.004h-1.65
	l-0.439,0.439c-2.873,2.873-3.262,5.677-1.166,8.531c-3.841,0.829-6.729,4.253-6.729,8.339c0,4.106,2.917,7.545,6.789,8.351
	c-0.906,1.377-1.393,2.989-1.393,4.676c0,2.278,0.887,4.42,2.498,6.031s3.753,2.498,6.031,2.498c1.687,0,3.298-0.485,4.675-1.392
	c0.807,3.871,4.245,6.788,8.352,6.788s7.545-2.917,8.352-6.788c1.377,0.906,2.988,1.392,4.675,1.392c2.278,0,4.42-0.887,6.031-2.498
	s2.498-3.753,2.498-6.031c0-1.687-0.486-3.299-1.393-4.676C55.694,43.877,58.611,40.438,58.611,36.332z M50.081,41.861
	c-0.333,0-0.678-0.035-1.054-0.107l-1.252-0.149l-1.025,2.48l1.018,0.688c0.318,0.216,0.589,0.437,0.828,0.675
	c1.044,1.045,1.619,2.433,1.619,3.91s-0.575,2.865-1.619,3.91c-1.045,1.044-2.433,1.619-3.91,1.619s-2.865-0.575-3.91-1.619
	c-0.238-0.239-0.459-0.51-0.675-0.828l-0.69-1.021l-2.562,1.065l0.232,1.216c0.073,0.38,0.108,0.725,0.108,1.054
	c0,3.05-2.48,5.53-5.53,5.53s-5.53-2.48-5.53-5.53c0-0.329,0.035-0.674,0.108-1.054l0.146-1.255l-2.475-1.026l-0.69,1.021
	c-0.216,0.318-0.437,0.589-0.675,0.828c-1.045,1.044-2.433,1.619-3.91,1.619s-2.865-0.575-3.91-1.619
	c-1.044-1.045-1.619-2.433-1.619-3.91s0.575-2.865,1.619-3.91c0.239-0.238,0.51-0.459,0.828-0.675l1.018-0.688l-1.063-2.563
	l-1.214,0.232c-0.376,0.072-0.721,0.107-1.054,0.107c-3.05,0-5.53-2.48-5.53-5.529c0-3.05,2.48-5.53,5.53-5.53
	c0.329,0,0.674,0.035,1.054,0.108l1.255,0.146l1.026-2.475l-1.021-0.69c-0.318-0.216-0.589-0.437-0.828-0.675
	c-2.008-2.008-2.147-3.287-0.42-5.193h3.825V35.96c0,6.858,5.579,12.438,12.438,12.438h2.188c6.858,0,12.438-5.579,12.438-12.438
	V22.022h3.825c1.728,1.906,1.588,3.186-0.42,5.193c-0.239,0.238-0.51,0.459-0.828,0.675l-1.021,0.69l1.065,2.562l1.216-0.232
	c0.38-0.073,0.725-0.108,1.054-0.108c3.05,0,5.53,2.48,5.53,5.53C55.611,39.381,53.131,41.861,50.081,41.861z M42.19,22.022V35.96
	c0,5.204-4.233,9.438-9.438,9.438h-2.188c-5.204,0-9.438-4.233-9.438-9.438V22.022H42.19z"/>
<path d="M23.875,33.373c0.015,0.059,0.029,0.117,0.036,0.137l0.037,0.115c1.22,3.906,6.436,6.677,7.026,6.98l0.685,0.351
	l0.685-0.351c0.591-0.304,5.807-3.074,7.018-6.953l0.034-0.104c0.017-0.052,0.03-0.104,0.044-0.159
	c0.081-0.298,0.137-0.597,0.165-0.88c0.018-0.175,0.026-0.35,0.026-0.525c0-2.941-2.393-5.335-5.334-5.335
	c-0.936,0-1.841,0.243-2.638,0.699c-0.797-0.456-1.702-0.699-2.638-0.699c-2.941,0-5.334,2.394-5.334,5.335
	c0,0.176,0.009,0.351,0.025,0.511C23.74,32.786,23.795,33.079,23.875,33.373z M26.698,32.2c-0.008-0.071-0.011-0.145-0.011-0.217
	c0-1.287,1.047-2.335,2.334-2.335c0.598,0,1.167,0.229,1.604,0.644l1.033,0.982l1.033-0.982c0.438-0.415,1.007-0.644,1.604-0.644
	c1.287,0,2.334,1.048,2.334,2.335c0,0.072-0.003,0.146-0.012,0.225c-0.013,0.133-0.039,0.263-0.072,0.384l-0.04,0.139
	c-0.614,1.968-3.278,3.889-4.847,4.822c-1.536-0.92-4.238-2.869-4.857-4.85l-1.431,0.451l1.401-0.557
	C26.739,32.474,26.712,32.346,26.698,32.2z"/>
</svg>
