<?xml version="1.0" encoding="utf-8"?>
<!-- Generator: Adobe Illustrator 17.0.2, SVG Export Plug-In . SVG Version: 6.00 Build 0)  -->
<!DOCTYPE svg PUBLIC "-//W3C//DTD SVG 1.1//EN" "http://www.w3.org/Graphics/SVG/1.1/DTD/svg11.dtd">
<svg version="1.1" id="Capa_1" xmlns="http://www.w3.org/2000/svg" xmlns:xlink="http://www.w3.org/1999/xlink" x="0px" y="0px"
	 width="64px" height="64px" viewBox="0 0 64 64" enable-background="new 0 0 64 64" xml:space="preserve">
<path d="M6.768,36.012c0,2.271,0.885,4.406,2.491,6.013l18.05,18.05c1.606,1.606,3.742,2.491,6.013,2.491
	c2.272,0,4.408-0.885,6.014-2.491l18.05-18.05c3.316-3.315,3.316-8.711,0-12.026l-8.283-8.283c3.823-0.087,7.338-1.279,8.768-5.455
	c1.635-4.773-3.711-8.724-3.427-13.343c0.134-2.173-3.238-2.097-3.371,0.06c-0.181,2.944,1.258,5.453,2.543,8
	c1.025,2.031,1.688,4.11,0.076,6.08c-1.681,2.055-5.849,1.363-8.116,1.121c-0.003,0-0.006,0-0.009,0l-6.23-6.23
	c-1.606-1.606-3.742-2.491-6.014-2.491c-2.271,0-4.407,0.885-6.013,2.491l-9.922,9.922c-0.093-0.064-0.192-0.124-0.303-0.174
	c-2.993-1.345-0.334-3.735,0.433-5.744c0.562-1.473,0.259-3.482-0.799-4.665C14.48,8.785,7.428,9.436,7.31,5.759
	C7.241,3.594,3.87,3.465,3.94,5.638c0.191,5.962,5.219,5.31,9.393,7.208c2.644,1.203-0.848,5.074-1.234,6.929
	c-0.467,2.243,1.078,3.616,2.818,4.565l-5.658,5.658C7.653,31.604,6.768,33.739,6.768,36.012z M29.43,14.068
	c1.04-1.039,2.422-1.612,3.892-1.612c1.471,0,2.853,0.573,3.893,1.612l18.05,18.051c2.146,2.146,2.146,5.638,0,7.784l-18.05,18.05
	c-1.04,1.039-2.422,1.612-3.893,1.612c-1.47,0-2.853-0.573-3.892-1.612l-18.05-18.05c-1.04-1.04-1.612-2.422-1.612-3.892
	c0-1.471,0.573-2.853,1.612-3.893L29.43,14.068z"/>
<path d="M19.75,41.791c1.698,4.313,5.361,7.596,9.77,8.961c0.927,1.567,2.616,2.632,4.565,2.632c1.949,0,3.638-1.065,4.564-2.632
	c4.408-1.364,8.072-4.647,9.77-8.961c2.773-0.241,4.957-2.576,4.957-5.411s-2.184-5.17-4.957-5.411
	c-2.258-5.737-7.992-9.652-14.333-9.652c-6.341,0-12.075,3.916-14.334,9.652c-2.773,0.241-4.957,2.576-4.957,5.411
	S16.976,41.55,19.75,41.791z M34.084,50.384c-1.226,0-2.222-0.958-2.304-2.163c-0.004-0.053-0.016-0.103-0.016-0.156
	c0-0.245,0.049-0.477,0.119-0.699c0.299-0.936,1.166-1.621,2.201-1.621c1.034,0,1.902,0.684,2.2,1.621
	c0.071,0.222,0.119,0.454,0.119,0.699c0,0.054-0.012,0.104-0.016,0.156C36.305,49.426,35.309,50.384,34.084,50.384z M20.225,33.948
	c0.122,0,0.241,0.014,0.358,0.031l1.279,0.19l0.377-1.236c0.939-3.078,3.105-5.587,5.873-7.089c-0.694,1.888,0.466,4.126,2.366,5.02
	c2.458,1.156,6.435,1.308,8.113-1.208c0.756-1.134,0.085-2.568-0.83-3.344c-1.28-1.086-3.14-1.24-4.66-0.637
	c-1.231,0.488-0.695,2.5,0.553,2.005c0.904-0.359,1.727-0.385,2.594,0.091c1.19,0.654,0.094,1.401-0.738,1.64
	c-1.55,0.446-3.838,0.082-5.05-1.006c-1.53-1.373,0.441-2.932,1.661-3.359c1.342-0.47,2.819-0.57,4.237-0.513
	c4.471,0.83,8.245,4.049,9.572,8.4l0.377,1.236l1.279-0.19c0.118-0.018,0.236-0.031,0.359-0.031c1.341,0,2.432,1.091,2.432,2.432
	s-1.091,2.432-2.432,2.432c-0.125,0-0.247-0.015-0.366-0.031l-1.273-0.184l-0.375,1.23c-1.02,3.344-3.488,6.016-6.604,7.454
	c-0.085-0.566-0.257-1.098-0.506-1.592c0.364-0.506,0.586-1.077,0.586-1.703c0-2.105-2.287-3.693-5.319-3.693
	s-5.32,1.588-5.32,3.693c0,0.626,0.222,1.196,0.586,1.703c-0.249,0.494-0.422,1.026-0.506,1.592
	c-3.116-1.438-5.584-4.11-6.604-7.454l-0.375-1.23l-1.273,0.184c-0.12,0.017-0.241,0.031-0.366,0.031
	c-1.341,0-2.432-1.091-2.432-2.432S18.884,33.948,20.225,33.948z"/>
<path d="M30.264,38.164c1.556,0,1.556-2.412,0-2.412S28.709,38.164,30.264,38.164z"/>
<path d="M37.903,38.013c1.556,0,1.556-2.412,0-2.412S36.348,38.013,37.903,38.013z"/>
</svg>
