<?xml version="1.0" encoding="utf-8"?>
<!-- Generator: Adobe Illustrator 17.0.2, SVG Export Plug-In . SVG Version: 6.00 Build 0)  -->
<!DOCTYPE svg PUBLIC "-//W3C//DTD SVG 1.1//EN" "http://www.w3.org/Graphics/SVG/1.1/DTD/svg11.dtd">
<svg version="1.1" id="Capa_1" xmlns="http://www.w3.org/2000/svg" xmlns:xlink="http://www.w3.org/1999/xlink" x="0px" y="0px"
	 width="64px" height="64px" viewBox="0 0 64 64" enable-background="new 0 0 64 64" xml:space="preserve">
<path d="M52.137,18.534l4.024-6.103c0.702-1.065,0.529-2.58-0.392-3.447c-7.21-6.804-13.879-7.538-16.411-7.538
	c-0.733,0-1.166,0.059-1.245,0.07l-1.151,0.171l-0.12,1.158c-0.557,5.383-4.521,5.655-5.321,5.655h-0.135
	c-0.789,0-4.753-0.272-5.31-5.655l-0.12-1.158l-1.152-0.171c-0.079-0.012-0.511-0.07-1.244-0.07c-2.532,0-9.201,0.734-16.412,7.538
	c-0.922,0.87-1.093,2.385-0.39,3.447l4.022,6.103c0.549,0.832,1.563,1.277,2.557,1.125c-1.47,6.58-4.049,22.372-0.069,39.823
	c0.276,1.222,1.434,2.143,2.691,2.143h11.25c1.058,0,2.235-0.648,2.802-1.541l1.447-2.283l1.448,2.282
	c0.575,0.908,1.728,1.542,2.803,1.542h11.25c1.256,0,2.412-0.92,2.691-2.141c3.979-17.452,1.4-33.244-0.069-39.825
	c0.13,0.02,0.261,0.03,0.393,0.03C50.851,19.689,51.659,19.258,52.137,18.534z M44.842,13.772l1.055,3.532
	c0.059,0.194,5.748,19.676,0.872,41.32l-11.041,0.001c-0.081-0.011-0.246-0.102-0.288-0.149l-2.179-3.435
	c-0.422-0.666-1.078-1.047-1.803-1.047c-0.724,0-1.38,0.381-1.802,1.046l-2.168,3.42c-0.053,0.063-0.217,0.154-0.279,0.164h-11.06
	c-4.866-21.608,0.813-41.126,0.872-41.321l1.051-3.529l-5.002,2.782l-3.673-5.57C15.5,5.319,20.962,4.504,23.29,4.449
	c1.143,5.527,5.526,7.052,8.096,7.052h0.146c2.569,0,6.953-1.524,8.096-7.052c2.328,0.055,7.789,0.869,13.892,6.538l-3.672,5.569
	L44.842,13.772z"/>
<path d="M40.25,20.559H22.667c-1.379,0-2.5,1.121-2.5,2.5v12.953c0,1.379,1.121,2.5,2.5,2.5H40.25c1.379,0,2.5-1.121,2.5-2.5V23.059
	C42.75,21.68,41.629,20.559,40.25,20.559z M39.75,35.512H23.167V23.559H39.75V35.512z"/>
<path d="M25.75,27.667c1.935,0,1.935-3,0-3C23.816,24.667,23.816,27.667,25.75,27.667z"/>
<path d="M36.917,27.667c1.935,0,1.935-3,0-3C34.983,24.667,34.983,27.667,36.917,27.667z"/>
</svg>
