<?xml version="1.0" encoding="utf-8"?>
<!-- Generator: Adobe Illustrator 17.0.2, SVG Export Plug-In . SVG Version: 6.00 Build 0)  -->
<!DOCTYPE svg PUBLIC "-//W3C//DTD SVG 1.1//EN" "http://www.w3.org/Graphics/SVG/1.1/DTD/svg11.dtd">
<svg version="1.1" id="Capa_1" xmlns="http://www.w3.org/2000/svg" xmlns:xlink="http://www.w3.org/1999/xlink" x="0px" y="0px"
	 width="64px" height="64px" viewBox="0 0 64 64" enable-background="new 0 0 64 64" xml:space="preserve">
<path d="M50.057,27.784l-1.556-0.058v13.524l1.556-0.058c4.012-0.149,5.801-2.217,5.801-6.705
	C55.858,30.001,54.069,27.934,50.057,27.784z M51.501,37.965v-6.952c0.932,0.349,1.357,1.222,1.357,3.476
	S52.433,37.616,51.501,37.965z"/>
<path d="M8.142,34.488c0,4.582,1.911,6.717,6.015,6.717h1.5V27.772h-1.5C10.053,27.772,8.142,29.906,8.142,34.488z M12.657,38.053
	c-1.024-0.304-1.515-1.176-1.515-3.564c0-2.388,0.491-3.26,1.515-3.563V38.053z"/>
<path d="M51.59,20.689v-6.421c0-2.139-1.745-3.879-3.89-3.879h-4.662c-4.333,0-6.495-1.338-6.625-1.87l-0.368-1.507
	c-0.376-1.536-2.149-2.65-4.216-2.65h-7.489c-2.067,0-3.84,1.115-4.215,2.65l-0.369,1.507c-0.244,0.996-1.47,1.87-2.625,1.87h-0.662
	c-2.145,0-3.89,1.74-3.89,3.879v6.39c-6.01,0.885-10.67,6.749-10.67,13.83c0,7.114,4.7,13.002,10.749,13.847v4.155
	c0,3.888,3.7,7.051,8.249,7.051h22.347c4.548,0,8.249-3.164,8.249-7.053v-4.181c5.96-0.933,10.591-6.811,10.591-13.819
	C62.092,27.516,57.506,21.666,51.59,20.689z M15.578,14.268c0-0.484,0.399-0.879,0.89-0.879h0.662c2.537,0,4.97-1.826,5.54-4.157
	l0.335-1.42c0.09-0.133,0.603-0.45,1.334-0.45h7.489c0.732,0,1.245,0.318,1.302,0.362l0.368,1.508
	c0.608,2.486,4.441,4.157,9.539,4.157H47.7c0.491,0,0.89,0.395,0.89,0.879v4.526H15.578V14.268z M49.976,45.435l-1.475,0.025v7.028
	c0,2.234-2.354,4.053-5.249,4.053H20.906c-2.894,0-5.249-1.817-5.249-4.051v-7.051h-1.5c-5.1,0-9.249-4.913-9.249-10.951
	s4.149-10.95,9.249-10.95h1.5v-1.744h32.844v1.724l1.475,0.025c5.027,0.085,9.116,4.995,9.116,10.945S55.002,45.35,49.976,45.435z"
	/>
<path d="M35.967,29.481c-1.392,0-2.733,0.402-3.883,1.151c-1.149-0.749-2.491-1.151-3.883-1.151c-3.939,0-7.144,3.205-7.144,7.145
	c0,0.233,0.012,0.465,0.034,0.691c0.038,0.389,0.111,0.778,0.229,1.213l0.089,0.303c1.739,5.568,9.655,9.683,9.991,9.855
	l0.685,0.351l0.685-0.351c0.336-0.173,8.251-4.287,9.997-9.871l0.088-0.309c0.113-0.412,0.186-0.803,0.222-1.184
	c0.024-0.232,0.036-0.465,0.036-0.699C43.111,32.687,39.906,29.481,35.967,29.481z M40.09,37.03
	c-0.021,0.218-0.063,0.441-0.134,0.698l-0.06,0.21c-1.019,3.263-5.487,6.375-7.812,7.706c-2.326-1.332-6.796-4.452-7.842-7.795
	l-1.447,0.396l1.414-0.527c-0.067-0.245-0.11-0.472-0.131-0.693c-0.013-0.133-0.02-0.265-0.02-0.398
	c0-2.285,1.859-4.145,4.144-4.145c1.062,0,2.074,0.406,2.85,1.143l1.033,0.982l1.033-0.982c0.776-0.736,1.788-1.143,2.85-1.143
	c2.285,0,4.144,1.859,4.144,4.145C40.111,36.759,40.104,36.89,40.09,37.03z"/>
</svg>
