<?xml version="1.0" encoding="utf-8"?>
<!-- Generator: Adobe Illustrator 17.0.2, SVG Export Plug-In . SVG Version: 6.00 Build 0)  -->
<!DOCTYPE svg PUBLIC "-//W3C//DTD SVG 1.1//EN" "http://www.w3.org/Graphics/SVG/1.1/DTD/svg11.dtd">
<svg version="1.1" id="Capa_1" xmlns="http://www.w3.org/2000/svg" xmlns:xlink="http://www.w3.org/1999/xlink" x="0px" y="0px"
	 width="64px" height="64px" viewBox="0 0 64 64" enable-background="new 0 0 64 64" xml:space="preserve">
<path d="M44.948,3.017c-0.639-0.37-1.364-0.565-2.097-0.565c-1.633,0-3.205,0.937-4.102,2.446C37.54,6.93,35.054,10.341,32,10.341
	c-3.053,0-5.539-3.411-6.749-5.443c-0.897-1.51-2.469-2.446-4.102-2.446c-0.733,0-1.458,0.195-2.097,0.565
	c-3.296,1.911-7.866,5.291-10.916,10.536c-0.872,1.499-0.629,3.748,0.553,5.12l2.633,3.058c0.875,1.015,2.182,1.584,3.407,1.478
	l-2.541,20.056c-0.272,2.15,0.646,4.958,2.133,6.53l7.464,7.897C23.033,60.238,25.644,62,28.667,62h6.667
	c3.022,0,5.634-1.762,6.882-4.309l7.464-7.896c1.488-1.573,2.405-4.381,2.133-6.531l-2.54-20.056
	c0.099,0.009,0.198,0.014,0.298,0.014c0,0,0,0,0,0c1.142,0,2.303-0.558,3.107-1.491l2.633-3.058c1.182-1.372,1.424-3.622,0.552-5.12
	C52.812,8.307,48.243,4.928,44.948,3.017z M39.69,55.964C39.026,57.732,37.331,59,35.333,59h-6.667
	c-1.997,0-3.692-1.267-4.356-3.035c-0.192-0.51-0.31-1.056-0.31-1.632c0-2.573,2.093-4.666,4.667-4.666h6.667
	c2.573,0,4.667,2.093,4.667,4.666C40,54.909,39.881,55.454,39.69,55.964z M53.038,16.716l-2.633,3.058
	c-0.253,0.294-0.611,0.448-0.845,0.46L45.588,18l3.247,25.641c0.16,1.259-0.465,3.172-1.336,4.093l-4.681,4.952
	c-0.756-3.438-3.822-6.019-7.484-6.019h-6.667c-3.662,0-6.727,2.581-7.484,6.019l-4.681-4.953c-0.872-0.921-1.496-2.833-1.336-4.092
	L18.413,18l-3.982,2.222c-0.223,0-0.582-0.154-0.835-0.448l-2.633-3.058c-0.347-0.402-0.466-1.253-0.232-1.655
	c2.719-4.677,6.845-7.72,9.827-9.448c0.687-0.396,1.637,0.013,2.116,0.819c1.876,3.151,5.017,6.909,9.327,6.909
	c4.311,0,7.451-3.758,9.327-6.91c0.478-0.802,1.431-1.216,2.115-0.818c2.982,1.729,7.107,4.771,9.827,9.449
	C53.503,15.463,53.384,16.313,53.038,16.716z"/>
<path d="M41.584,24.904c0.411-0.646,0.631-1.395,0.631-2.178c0-1.087-0.423-2.108-1.192-2.877c-1.321-1.32-3.514-1.54-5.054-0.561
	c-0.407-1.815-2.032-3.177-3.969-3.177s-3.562,1.361-3.969,3.177c-1.539-0.979-3.732-0.76-5.054,0.561
	c-0.769,0.769-1.191,1.79-1.191,2.877c0,0.782,0.22,1.532,0.63,2.178c-1.816,0.407-3.177,2.032-3.177,3.969
	c0,1.938,1.361,3.562,3.177,3.97c-0.411,0.646-0.63,1.395-0.63,2.179c0,1.086,0.423,2.107,1.191,2.876
	c1.322,1.322,3.515,1.54,5.054,0.561c0.407,1.815,2.032,3.177,3.969,3.177s3.562-1.361,3.969-3.178
	c0.646,0.411,1.395,0.631,2.179,0.631c1.086,0,2.107-0.423,2.875-1.19c0.769-0.769,1.192-1.79,1.192-2.876
	c0-0.783-0.22-1.533-0.631-2.179c1.816-0.407,3.177-2.032,3.177-3.97C44.761,26.937,43.4,25.312,41.584,24.904z M36.593,37.046
	c0.739-0.411,1.428-0.923,2.043-1.537c0.622-0.622,1.129-1.315,1.535-2.049c0.776,1.006,0.714,2.456-0.208,3.377
	C39.073,37.726,37.585,37.791,36.593,37.046z M32,40.135c-1.333,0-2.42-1.026-2.543-2.328c0.857,0.26,1.757,0.394,2.678,0.394
	c0.823,0,1.627-0.117,2.401-0.325C34.381,39.145,33.31,40.135,32,40.135z M24.037,36.837c-0.982-0.982-0.995-2.567-0.05-3.571
	c0.428,0.816,0.978,1.573,1.648,2.243c0.571,0.571,1.209,1.049,1.888,1.445C26.538,37.793,24.962,37.761,24.037,36.837z
	 M27.668,20.91c0.014,0.014,0.023,0.031,0.037,0.045c-0.749,0.414-1.447,0.931-2.07,1.553s-1.14,1.32-1.553,2.07
	c-0.014-0.013-0.031-0.023-0.045-0.036c-0.485-0.485-0.752-1.13-0.752-1.815c0-0.687,0.267-1.331,0.752-1.816
	C25.007,19.941,26.698,19.941,27.668,20.91z M32,17.612c1.405,0,2.547,1.135,2.564,2.536c-0.783-0.213-1.596-0.332-2.429-0.332
	c-0.928,0-1.835,0.138-2.699,0.401c0-0.013-0.004-0.025-0.004-0.038C29.433,18.764,30.584,17.612,32,17.612z M39.963,20.91
	c0.485,0.485,0.752,1.13,0.752,1.816c0,0.625-0.232,1.209-0.637,1.675c-0.391-0.675-0.866-1.316-1.443-1.893
	c-0.67-0.67-1.426-1.22-2.242-1.648C37.371,19.948,39.012,19.96,39.963,20.91z M26.696,34.448c-1.453-1.453-2.253-3.385-2.253-5.439
	s0.8-3.986,2.253-5.439s3.385-2.253,5.439-2.253s3.986,0.8,5.439,2.253c2.999,2.999,2.999,7.88,0,10.879
	c-1.453,1.453-3.385,2.253-5.439,2.253S28.149,35.901,26.696,34.448z M23.306,26.306c0.013,0,0.025,0.004,0.038,0.004
	c-0.264,0.864-0.402,1.771-0.402,2.699c0,0.833,0.119,1.647,0.332,2.429c-1.401-0.017-2.536-1.16-2.536-2.565
	C20.739,27.457,21.891,26.306,23.306,26.306z M40.998,31.411c0.448-1.665,0.427-3.429-0.074-5.082
	c1.307,0.118,2.337,1.207,2.337,2.544C43.261,30.185,42.269,31.258,40.998,31.411z"/>
<path d="M28.05,27.034c-0.804,0-0.804,1.247,0,1.247C28.854,28.282,28.854,27.034,28.05,27.034z"/>
<path d="M36.089,28.282c0.804,0,0.804-1.247,0-1.247C35.284,27.034,35.284,28.282,36.089,28.282z"/>
<path d="M34.614,28.324c0-0.414-0.336-0.75-0.75-0.75c-0.414,0-0.75,0.336-0.75,0.75c0,0,0,0,0,0c0,0.595-0.484,1.079-1.079,1.079
	s-1.079-0.484-1.079-1.079c0,0,0,0,0,0c0-0.414-0.336-0.75-0.75-0.75c-0.414,0-0.75,0.336-0.75,0.75
	c0,1.422,1.157,2.579,2.579,2.579S34.614,29.746,34.614,28.324z"/>
</svg>
