<?xml version="1.0" encoding="utf-8"?>
<!-- Generator: Adobe Illustrator 17.0.2, SVG Export Plug-In . SVG Version: 6.00 Build 0)  -->
<!DOCTYPE svg PUBLIC "-//W3C//DTD SVG 1.1//EN" "http://www.w3.org/Graphics/SVG/1.1/DTD/svg11.dtd">
<svg version="1.1" id="Capa_1" xmlns="http://www.w3.org/2000/svg" xmlns:xlink="http://www.w3.org/1999/xlink" x="0px" y="0px"
	 width="64px" height="64px" viewBox="0 0 64 64" enable-background="new 0 0 64 64" xml:space="preserve">
<path d="M48.826,8.744c-1.371-1.607-3.673,0.718-2.312,2.312c1.857,2.177,4.551,2.958,7.164,3.869
	c2.083,0.727,3.946,1.732,4.149,4.192c0.179,2.184-2.234,4.19-4.034,5.578c-0.017,0.005-0.034,0.006-0.051,0.012
	c-6.787,2.426-13.996,3.655-21.43,3.655c0,0-0.002,0-0.002,0c-12.571,0-21.552-3.566-21.711-3.63
	c-1.703-1.779,1.024-3.333,2.121-4.945c0.86-1.264,1.025-3.228,0.291-4.582c-1.551-2.862-8.352-3.828-7.639-7.324
	c0.42-2.058-2.732-2.935-3.153-0.869c-1.156,5.67,3.735,6.18,7.249,8.907c2.226,1.727-1.937,4.598-2.717,6.263
	c-0.974,2.077,0.284,3.758,1.776,5.061v11.48c0,11.604,9.441,21.045,21.045,21.045h5.13c11.604,0,21.045-9.44,21.045-21.045V27.268
	c3.634-2.94,6.712-6.71,4.46-11.522C58.131,11.314,51.739,12.158,48.826,8.744z M52.746,38.724c0,9.95-8.095,18.045-18.045,18.045
	h-5.13c-9.95,0-18.045-8.095-18.045-18.045V28.24c3.471,1.12,11.038,3.122,20.783,3.122c0.001,0,0.001,0,0.002,0
	c7.051,0,13.915-1.059,20.435-3.151V38.724z"/>
<path d="M28.488,35.562c-1.369-0.803-3.259-0.579-4.412,0.571c-1.193,1.194-1.384,3.017-0.57,4.412
	c-1.562,0.41-2.716,1.834-2.716,3.522s1.155,3.112,2.716,3.523c-0.813,1.394-0.623,3.217,0.571,4.411
	c1.151,1.151,3.041,1.373,4.412,0.571c0.411,1.561,1.834,2.715,3.522,2.715s3.111-1.154,3.522-2.715
	c1.369,0.804,3.261,0.579,4.412-0.571c1.194-1.194,1.384-3.018,0.571-4.411c1.561-0.411,2.716-1.835,2.716-3.523
	s-1.155-3.111-2.716-3.522c0.813-1.395,0.624-3.218-0.57-4.412c-1.151-1.149-3.04-1.374-4.412-0.571
	c-0.411-1.561-1.834-2.715-3.522-2.715S28.899,34.002,28.488,35.562z M35.249,38.024l0.344-0.508
	c0.077-0.113,0.163-0.224,0.261-0.322c0.809-0.809,2.222-0.809,3.03,0c0.835,0.835,0.835,2.195,0.001,3.029
	c-0.1,0.1-0.209,0.186-0.322,0.262l-0.455,0.463l0.469,1.136l0.604-0.116c0.133-0.025,0.269-0.041,0.409-0.041
	c1.181,0,2.142,0.961,2.142,2.142c0,1.182-0.961,2.143-2.142,2.143c-0.14,0-0.276-0.017-0.409-0.042l-0.602-0.11l-0.234,0.563
	l0.693,0.288l0,0l0,0l-0.746-0.169l-0.237,0.565l0.508,0.345c0.112,0.076,0.221,0.161,0.321,0.262c0.835,0.835,0.835,2.193,0,3.029
	c-0.808,0.809-2.222,0.808-3.028,0.002c-0.1-0.101-0.186-0.209-0.262-0.322l-0.448-0.476l-1.152,0.482l0.117,0.609
	c0.025,0.133,0.042,0.269,0.042,0.409c0,1.181-0.961,2.142-2.142,2.142s-2.142-0.961-2.142-2.142c0-0.14,0.016-0.274,0.042-0.407
	l0.1-0.604L29.449,50.4l-0.291,0.69l0,0l0,0l0.191-0.737l-0.575-0.251l-0.349,0.521c-0.076,0.112-0.161,0.22-0.259,0.318
	c-0.809,0.809-2.221,0.809-3.029,0c-0.835-0.836-0.835-2.194,0.001-3.03c0.1-0.1,0.207-0.185,0.32-0.261l0.464-0.458l-0.478-1.141
	l-0.604,0.116c-0.133,0.025-0.269,0.042-0.408,0.042c-1.181,0-2.142-0.961-2.142-2.143c0-1.181,0.961-2.142,2.142-2.142
	c0.14,0,0.276,0.016,0.408,0.041l0.602,0.11l0.234-0.563l-0.692-0.288l0,0l0.001,0l0.743,0.177l0.246-0.571l-0.515-0.347
	c-0.113-0.077-0.222-0.162-0.321-0.261c-0.835-0.835-0.835-2.195,0-3.03c0.809-0.809,2.222-0.808,3.028-0.001
	c0.1,0.101,0.186,0.209,0.261,0.321l0.343,0.508l1.258-0.525l-0.117-0.602c-0.026-0.132-0.042-0.267-0.042-0.406
	c0-1.181,0.961-2.142,2.142-2.142s2.142,0.961,2.142,2.142c0,0.14-0.016,0.276-0.042,0.408l-0.048,0.601L35.249,38.024z"/>
<path d="M27.719,39.777c-2.431,2.432-2.431,6.387,0,8.818c1.178,1.178,2.744,1.826,4.409,1.826c1.665,0,3.231-0.648,4.409-1.826
	c2.431-2.432,2.431-6.387,0-8.818c-1.178-1.178-2.743-1.826-4.409-1.826C30.462,37.951,28.897,38.6,27.719,39.777z M35.477,47.535
	c-0.895,0.894-2.083,1.387-3.348,1.387c-1.265,0-2.454-0.493-3.349-1.387c-1.846-1.847-1.846-4.851,0-6.697
	c0.895-0.895,2.083-1.387,3.349-1.387c1.265,0,2.454,0.492,3.348,1.387C37.322,42.685,37.322,45.688,35.477,47.535z"/>
</svg>
