<?xml version="1.0" encoding="utf-8"?>
<!-- Generator: Adobe Illustrator 17.0.2, SVG Export Plug-In . SVG Version: 6.00 Build 0)  -->
<!DOCTYPE svg PUBLIC "-//W3C//DTD SVG 1.1//EN" "http://www.w3.org/Graphics/SVG/1.1/DTD/svg11.dtd">
<svg version="1.1" id="Capa_1" xmlns="http://www.w3.org/2000/svg" xmlns:xlink="http://www.w3.org/1999/xlink" x="0px" y="0px"
	 width="64px" height="64px" viewBox="0 0 64 64" enable-background="new 0 0 64 64" xml:space="preserve">
<path d="M23.72,61.823l0.377,0.252l15.928,0.028l0.378-0.251c6.372-4.23,9.339-9.719,9.339-17.272c0-7.92-3.386-14.873-8.45-18.741
	c2.975-2.583,4.867-6.382,4.867-10.622c0-7.762-6.315-14.077-14.077-14.077c-7.762,0-14.077,6.315-14.077,14.077
	c0,4.24,1.892,8.039,4.867,10.622c-4.143,3.164-7.159,8.394-8.121,14.528c-0.183,0.316-0.25,0.683-0.143,1.045
	c-0.121,1.035-0.186,2.092-0.186,3.168C14.424,52.105,17.378,57.584,23.72,61.823z M17.424,44.58c0-0.175,0.017-0.345,0.02-0.519
	c1.897,1.432,3.912,2.65,6.026,3.659c-1.583,1.21-3.241,2.333-5.112,3.028C17.731,48.9,17.424,46.863,17.424,44.58z M39.116,59.102
	l-14.1-0.024c-2.389-1.656-4.17-3.491-5.408-5.598c2.598-1.037,4.806-2.707,7.006-4.431c5.866,2.2,12.268,3.093,18.57,3.253
	C43.95,54.928,41.961,57.143,39.116,59.102z M46.636,42.381c-0.04,0.003-0.077,0-0.118,0.006c-3.757,0.565-7.478,0.185-10.991-0.907
	c3.297-2.459,6.071-5.305,7.844-8.992C45.134,35.241,46.302,38.648,46.636,42.381z M21.007,15.217
	c0-6.108,4.969-11.077,11.077-11.077s11.077,4.969,11.077,11.077c0,3.674-1.805,6.926-4.567,8.943
	c-1.126,0.822-2.409,1.433-3.798,1.785c-0.87,0.22-1.775,0.35-2.712,0.35s-1.842-0.13-2.712-0.35
	c-1.389-0.352-2.673-0.963-3.798-1.785C22.812,22.143,21.007,18.891,21.007,15.217z M25.5,27.651
	c1.967,1.046,4.206,1.643,6.584,1.643c2.378,0,4.617-0.598,6.584-1.643c0.923,0.604,1.794,1.322,2.593,2.155
	c-1.671,4.575-5.103,7.7-9.089,10.391c-4.181-1.909-7.942-4.821-10.968-8.287C22.415,30.167,23.868,28.719,25.5,27.651z
	 M19.62,34.641c6.864,7.526,16.869,12.02,27.105,10.705c-0.044,1.419-0.21,2.743-0.506,3.983
	C36.158,49.2,25.557,47.25,17.778,40.484C18.137,38.383,18.771,36.418,19.62,34.641z"/>
<path d="M36.444,23.285c2.864-1.554,4.812-4.587,4.812-8.068c0-5.058-4.115-9.172-9.172-9.172c-5.058,0-9.173,4.115-9.173,9.172
	c0,3.481,1.949,6.514,4.813,8.068c1.298,0.704,2.783,1.105,4.36,1.105C33.661,24.39,35.146,23.989,36.444,23.285z M25.911,15.217
	c0-3.403,2.769-6.172,6.173-6.172c3.403,0,6.172,2.769,6.172,6.172s-2.769,6.172-6.172,6.172
	C28.68,21.39,25.911,18.621,25.911,15.217z"/>
<path d="M29.584,12.167c-1.935,0-1.935,3,0,3S31.518,12.167,29.584,12.167z"/>
<path d="M34.25,15c1.935,0,1.935-3,0-3C32.316,12,32.316,15,34.25,15z"/>
<path d="M32.084,16.333c-1.935,0-1.935,3,0,3S34.018,16.333,32.084,16.333z"/>
</svg>
