<?xml version="1.0" encoding="utf-8"?>
<!-- Generator: Adobe Illustrator 17.0.2, SVG Export Plug-In . SVG Version: 6.00 Build 0)  -->
<!DOCTYPE svg PUBLIC "-//W3C//DTD SVG 1.1//EN" "http://www.w3.org/Graphics/SVG/1.1/DTD/svg11.dtd">
<svg version="1.1" id="Capa_1" xmlns="http://www.w3.org/2000/svg" xmlns:xlink="http://www.w3.org/1999/xlink" x="0px" y="0px"
	 width="64px" height="64px" viewBox="0 0 64 64" enable-background="new 0 0 64 64" xml:space="preserve">
<path d="M54.555,44.555c-0.684-2.528-1.66-4.837-2.859-6.933c1.96-2.822,3.622-5.824,5.265-8.838
	c0.442-0.811,0.111-2.208-0.958-2.355c-2.362-0.324-4.724-0.565-7.105-0.324c-2.037,0.205-2.057,3.413,0,3.206
	c1.374-0.138,2.751-0.117,4.123-0.012c-1.018,1.836-2.065,3.653-3.21,5.411c-5.204-7.122-12.821-11.429-18.299-13.791
	c-2.173-0.937-4.006-1.571-5.216-1.948c1.485-4.133,3.469-7.834,6.117-10.13c1.914-1.659,3.995-2.408,6.346-2.299
	c0.192,0.009,0.383,0.012,0.579,0.033c0.826,0.077,1.562-0.512,1.648-1.336c0.086-0.824-0.512-1.562-1.335-1.648
	c-3.41-0.356-6.508,0.647-9.203,2.983c-4.53,3.929-7.285,11.159-8.955,18.133c-0.34-0.019-0.677-0.052-1.021-0.052
	c-10.021,0-18.172,8.152-18.172,18.172C2.298,52.848,10.45,61,20.471,61s18.172-8.152,18.172-18.173
	c0-7.08-4.079-13.211-10.002-16.209l-0.672,1.333l-0.677,1.343c4.945,2.503,8.351,7.622,8.351,13.533
	C35.643,51.193,28.837,58,20.471,58S5.298,51.193,5.298,42.827s6.806-15.172,15.172-15.172c0.125,0,0.245,0.016,0.369,0.019
	c-1.562,7.766-1.847,14.544-1.868,15.096c-0.031,0.828,0.615,1.524,1.442,1.556c0.019,0.001,0.039,0.001,0.058,0.001
	c0.802,0,1.467-0.635,1.498-1.443c0.002-0.058,0.059-1.399,0.249-3.525c0.249-2.779,0.73-6.907,1.62-11.313
	c0.098-0.487,0.202-0.977,0.311-1.469c0.107-0.485,0.219-0.971,0.337-1.458c0.266-1.103,0.557-2.208,0.881-3.3
	c0.28,0.086,0.609,0.193,0.963,0.31c1.026,0.342,2.34,0.822,3.838,1.458c7.009,2.978,17.939,9.408,21.382,21.37
	c0.138,0.478,0.275,0.956,0.388,1.452c0.111,0.489,0.197,0.995,0.283,1.501c0.171,1.01,0.29,2.055,0.352,3.136
	c0.032,0.567,0.063,1.135,0.063,1.722c0,0.828,0.671,1.5,1.5,1.5s1.5-0.672,1.5-1.5c0-1.792-0.149-3.491-0.409-5.114
	c2.363,0.504,4.142,2.604,4.142,5.114c0,2.886-2.348,5.233-5.233,5.233s-5.233-2.348-5.233-5.233c0-1.533,0.675-2.901,1.73-3.859
	l-1.017-1.121l-1.004-1.106c-1.659,1.507-2.709,3.674-2.709,6.086c0,4.54,3.693,8.233,8.233,8.233s8.233-3.693,8.233-8.233
	C62.369,48.369,58.9,44.776,54.555,44.555z"/>
</svg>
