<?xml version="1.0" encoding="utf-8"?>
<!-- Generator: Adobe Illustrator 17.0.2, SVG Export Plug-In . SVG Version: 6.00 Build 0)  -->
<!DOCTYPE svg PUBLIC "-//W3C//DTD SVG 1.1//EN" "http://www.w3.org/Graphics/SVG/1.1/DTD/svg11.dtd">
<svg version="1.1" id="Capa_1" xmlns="http://www.w3.org/2000/svg" xmlns:xlink="http://www.w3.org/1999/xlink" x="0px" y="0px"
	 width="64px" height="64px" viewBox="0 0 64 64" enable-background="new 0 0 64 64" xml:space="preserve">
<path d="M9.01,40.019c2.636,7.27,8.75,12.783,16.123,14.954c1.306,2.512,3.929,4.235,6.951,4.235s5.644-1.723,6.95-4.235
	c7.373-2.171,13.487-7.685,16.123-14.954c4.379-0.05,7.927-3.628,7.927-8.019s-3.547-7.969-7.927-8.019
	c-2.974-8.203-10.374-14.18-19.019-15.627C35.995,8.3,35.842,8.26,35.667,8.25c-0.109-0.006-0.224-0.005-0.334-0.01
	c-1.069-0.143-2.152-0.232-3.249-0.232c-10.327,0-19.644,6.511-23.074,15.973C4.631,24.031,1.084,27.609,1.084,32
	S4.631,39.969,9.01,40.019z M27.25,44.613c0-0.851,1.928-2.137,4.833-2.137c2.905,0,4.833,1.286,4.833,2.137
	c0,0.146-0.076,0.307-0.186,0.47c-1.302-0.964-2.906-1.542-4.647-1.542c-1.741,0-3.346,0.578-4.648,1.542
	C27.327,44.92,27.25,44.76,27.25,44.613z M33.633,55.931c-0.489,0.167-1.004,0.278-1.549,0.278s-1.06-0.111-1.549-0.278
	c-1.567-0.535-2.774-1.838-3.151-3.47c-0.081-0.35-0.134-0.711-0.134-1.086c0-0.876,0.252-1.688,0.662-2.397
	c0.657-1.138,1.751-1.985,3.064-2.296c0.357-0.085,0.725-0.14,1.108-0.14s0.751,0.056,1.108,0.14
	c1.312,0.31,2.406,1.158,3.063,2.296c0.409,0.709,0.662,1.521,0.662,2.397c0,0.375-0.052,0.735-0.134,1.086
	C36.406,54.093,35.199,55.396,33.633,55.931z M9.103,26.98c0.217,0,0.453,0.02,0.743,0.062l1.277,0.188l0.376-1.235
	c1.825-5.982,6.306-10.734,11.939-13.179c-1.257,2.785,0.45,6.219,3.297,7.558c3.547,1.669,9.286,1.887,11.707-1.744
	c1.091-1.636,0.122-3.705-1.198-4.825c-1.847-1.567-4.531-1.79-6.725-0.919c-1.776,0.705-1.003,3.607,0.798,2.893
	c1.304-0.517,2.492-0.556,3.743,0.131c1.717,0.944,0.135,2.022-1.065,2.367c-2.237,0.643-5.538,0.118-7.287-1.452
	c-2.208-1.982,0.636-4.231,2.396-4.847c1.908-0.668,4.005-0.816,6.024-0.743c8.161,1.161,15.144,6.898,17.542,14.76l0.376,1.235
	l1.277-0.188c0.29-0.042,0.525-0.062,0.743-0.062c2.768,0,5.02,2.252,5.02,5.02s-2.252,5.02-5.02,5.02
	c-0.218,0-0.453-0.02-0.74-0.062l-1.279-0.191l-0.377,1.237c-1.912,6.269-6.744,11.181-12.758,13.509
	c0.001-0.046,0.007-0.091,0.007-0.137c0-1.487-0.424-2.874-1.147-4.06c0.725-0.781,1.147-1.702,1.147-2.702
	c0-2.881-3.44-5.137-7.833-5.137s-7.833,2.256-7.833,5.137c0,1,0.422,1.921,1.147,2.702c-0.723,1.186-1.147,2.573-1.147,4.06
	c0,0.046,0.006,0.091,0.007,0.137c-6.015-2.328-10.846-7.24-12.758-13.509l-0.377-1.237l-1.279,0.191
	C9.556,37,9.321,37.02,9.103,37.02c-2.768,0-5.019-2.252-5.019-5.02S6.335,26.98,9.103,26.98z"/>
<path d="M25.75,34.958c2.579,0,2.579-4,0-4S23.171,34.958,25.75,34.958z"/>
<path d="M38.417,34.708c2.579,0,2.579-4,0-4S35.838,34.708,38.417,34.708z"/>
</svg>
