<?xml version="1.0" encoding="utf-8"?>
<!-- Generator: Adobe Illustrator 17.0.2, SVG Export Plug-In . SVG Version: 6.00 Build 0)  -->
<!DOCTYPE svg PUBLIC "-//W3C//DTD SVG 1.1//EN" "http://www.w3.org/Graphics/SVG/1.1/DTD/svg11.dtd">
<svg version="1.1" id="Capa_1" xmlns="http://www.w3.org/2000/svg" xmlns:xlink="http://www.w3.org/1999/xlink" x="0px" y="0px"
	 width="64px" height="64px" viewBox="0 0 64 64" enable-background="new 0 0 64 64" xml:space="preserve">
<path d="M3.233,60.478c1.353,1.354,3.235,2.099,5.301,2.099c2.635,0,5.332-1.186,7.396-3.25c0.288-0.287,0.566-0.603,0.841-0.947
	c1.742-2.025,4.839-5.92,6.006-9.25c0.352-1.006,1.174-2.364,2.2-3.824c0.262,0.026,0.527,0.039,0.794,0.039
	c1.504,0,2.944-0.416,4.188-1.194c0.817,3.507,3.969,6.127,7.721,6.127c3.752,0,6.904-2.62,7.722-6.127
	c1.245,0.778,2.685,1.194,4.188,1.194c2.118,0,4.108-0.825,5.605-2.322c2.654-2.654,3.029-6.737,1.127-9.794
	c3.508-0.816,6.128-3.969,6.128-7.722c0-3.752-2.62-6.904-6.127-7.722c0.778-1.245,1.194-2.685,1.194-4.188
	c0-2.118-0.825-4.108-2.322-5.605c-1.497-1.497-3.488-2.322-5.605-2.322c-1.504,0-2.944,0.416-4.188,1.194
	c-0.817-3.508-3.969-6.128-7.722-6.128c-3.752,0-6.904,2.62-7.721,6.128c-1.245-0.777-2.685-1.194-4.188-1.194
	c-2.118,0-4.108,0.825-5.605,2.322c-1.498,1.497-2.322,3.487-2.322,5.605c0,1.504,0.416,2.943,1.194,4.188
	c-3.507,0.817-6.127,3.97-6.127,7.722s2.62,6.904,6.127,7.722c-0.778,1.244-1.194,2.685-1.194,4.188
	c0,0.541,0.056,1.074,0.161,1.593c-1.304,0.893-2.509,1.604-3.421,1.924c-3.332,1.167-7.226,4.265-9.208,5.971
	c-0.379,0.303-0.703,0.588-0.99,0.875C0.567,51.598,0.05,57.295,3.233,60.478z M22.288,33.931c0.21-0.211,0.451-0.407,0.735-0.599
	l1.026-0.692l-1.055-2.539l-1.222,0.237c-0.333,0.065-0.639,0.097-0.935,0.097c-2.717,0-4.927-2.211-4.927-4.928
	s2.21-4.928,4.927-4.928c0.295,0,0.602,0.031,0.938,0.096l1.249,0.16l1.021-2.464l-1.022-0.69c-0.284-0.191-0.525-0.388-0.737-0.6
	c-0.931-0.931-1.443-2.169-1.443-3.484c0-1.316,0.513-2.554,1.443-3.484s2.168-1.443,3.484-1.443c1.316,0,2.553,0.513,3.485,1.444
	c0.212,0.212,0.408,0.453,0.598,0.734l0.693,1.028l2.535-1.064l-0.232-1.21c-0.065-0.336-0.096-0.644-0.096-0.938
	c0-2.717,2.21-4.928,4.927-4.928c2.717,0,4.928,2.211,4.928,4.928c0,0.295-0.031,0.602-0.096,0.938l-0.146,1.248l2.446,1.028
	l0.695-1.028c0.191-0.283,0.387-0.524,0.6-0.737c0.931-0.931,2.168-1.443,3.484-1.443c1.316,0,2.554,0.513,3.484,1.443
	s1.443,2.168,1.443,3.484c0,1.315-0.513,2.554-1.443,3.484c-0.214,0.214-0.455,0.41-0.734,0.598l-1.025,0.689l1.056,2.54
	l1.215-0.233c0.336-0.064,0.644-0.096,0.938-0.096c2.717,0,4.927,2.211,4.927,4.928s-2.21,4.928-4.927,4.928
	c-0.296,0-0.602-0.031-0.935-0.097l-1.256-0.163l-1.021,2.465l1.026,0.692c0.284,0.191,0.524,0.388,0.737,0.601
	c1.921,1.921,1.921,5.047,0,6.969c-0.931,0.931-2.168,1.443-3.484,1.443c-1.316,0-2.553-0.513-3.483-1.442
	c-0.215-0.216-0.412-0.457-0.6-0.736l-0.687-1.02l-2.542,1.057l0.233,1.209c0.065,0.336,0.096,0.643,0.096,0.938
	c0,2.717-2.21,4.927-4.928,4.927c-2.717,0-4.927-2.21-4.927-4.927c0-0.296,0.031-0.603,0.096-0.938l0.159-1.243l-2.467-1.022
	l-0.687,1.02c-0.188,0.279-0.385,0.521-0.599,0.735c-0.516,0.516-1.132,0.888-1.797,1.131c-0.535,0.195-1.1,0.312-1.687,0.312
	c-0.712,0-1.396-0.162-2.025-0.447c-0.534-0.242-1.032-0.569-1.459-0.997c-0.248-0.248-0.461-0.519-0.647-0.806
	c-0.515-0.791-0.796-1.712-0.796-2.678c0-0.184,0.033-0.362,0.053-0.542C21.018,35.766,21.486,34.733,22.288,33.931z M6.505,49.901
	c0.237-0.236,0.486-0.449,0.783-0.688c1.5-1.291,5.312-4.407,8.286-5.448c1.042-0.365,2.296-1.07,3.61-1.934
	c0.285,0.423,0.612,0.822,0.981,1.191c0.544,0.544,1.154,0.996,1.811,1.355c-0.909,1.369-1.651,2.678-2.03,3.759
	c-1.042,2.972-4.158,6.784-5.485,8.328c-0.202,0.254-0.414,0.502-0.651,0.739c-1.507,1.508-3.43,2.372-5.276,2.372
	c-0.894,0-2.171-0.212-3.18-1.22C3.341,56.343,3.858,52.55,6.505,49.901z"/>
<path d="M28.259,35.447c0.001,0.001,0.002,0.002,0.002,0.003c0.001,0.001,0.002,0.002,0.003,0.002
	c0.878,0.877,1.86,1.609,2.909,2.209c2.042,1.166,4.355,1.799,6.769,1.799c3.657,0,7.095-1.424,9.681-4.01
	c5.338-5.338,5.338-14.023,0-19.361c-2.586-2.586-6.024-4.01-9.681-4.01c-3.657,0-7.095,1.424-9.681,4.01
	c-4.45,4.45-5.176,11.221-2.206,16.445C26.647,33.574,27.372,34.56,28.259,35.447z M30.382,18.209c2.02-2.02,4.704-3.131,7.56-3.131
	c2.855,0,5.54,1.111,7.56,3.131c4.168,4.168,4.168,10.951,0,15.119c-2.02,2.02-4.704,3.131-7.56,3.131
	c-2.851,0-5.531-1.108-7.549-3.121c-0.003-0.003-0.007-0.006-0.011-0.01c-0.003-0.003-0.006-0.007-0.009-0.01
	C26.215,29.149,26.218,22.374,30.382,18.209z"/>
<path d="M9.75,57.926c2.165,0,3.926-1.761,3.926-3.926s-1.761-3.926-3.926-3.926S5.825,51.835,5.825,54S7.586,57.926,9.75,57.926z
	 M9.75,53.074c0.51,0,0.926,0.415,0.926,0.926s-0.416,0.926-0.926,0.926S8.825,54.511,8.825,54S9.24,53.074,9.75,53.074z"/>
</svg>
