<?xml version="1.0" encoding="utf-8"?>
<!-- Generator: Adobe Illustrator 17.0.2, SVG Export Plug-In . SVG Version: 6.00 Build 0)  -->
<!DOCTYPE svg PUBLIC "-//W3C//DTD SVG 1.1//EN" "http://www.w3.org/Graphics/SVG/1.1/DTD/svg11.dtd">
<svg version="1.1" id="Capa_1" xmlns="http://www.w3.org/2000/svg" xmlns:xlink="http://www.w3.org/1999/xlink" x="0px" y="0px"
	 width="64px" height="64px" viewBox="0 0 64 64" enable-background="new 0 0 64 64" xml:space="preserve">
<path d="M41.452,17.886c-0.772,1.805,1.88,3.375,2.659,1.554c1.508-3.525,1.876-8.073-1.267-10.848
	c-1.483-1.309-3.669,0.861-2.178,2.178C42.694,12.561,42.436,15.585,41.452,17.886z"/>
<path d="M39.575,33.851c6.894-1.724,11.867-11.957,11.867-18.805c0-7.653-6.226-13.879-13.879-13.879
	c-2.763,0-5.335,0.821-7.5,2.219c-2.165-1.398-4.737-2.219-7.5-2.219c-7.653,0-13.879,6.226-13.879,13.879
	c0,6.959,5.135,17.413,12.204,18.881c-0.704,1.21-1.13,2.526-0.909,4.052c0.551,3.809,4.634,8.747,0.32,11.526
	c-5.722,3.685-2.501,7.4-0.01,12.002c0.921,1.702,3.511,0.187,2.59-1.514c-1.575-2.91-4.208-5.874-0.382-8.338
	c0.969-0.624,1.932-1.44,2.381-2.527c2.19-5.307-4.404-10.201-0.358-15.192c0.022-0.028,0.036-0.057,0.056-0.085
	c2.02-0.505,3.874-1.74,5.488-3.408c1.703,1.76,3.674,3.037,5.825,3.484c-0.704,1.21-1.13,2.526-0.909,4.052
	c0.551,3.809,4.634,8.747,0.32,11.526c-5.722,3.685-2.501,7.4-0.01,12.002c0.921,1.702,3.511,0.187,2.59-1.514
	c-1.575-2.91-4.208-5.874-0.382-8.338c0.969-0.624,1.932-1.44,2.381-2.527c2.19-5.307-4.404-10.201-0.358-15.192
	C39.542,33.908,39.555,33.879,39.575,33.851z M31.993,28.098c-0.346-0.38-0.679-0.789-1-1.217c-0.324-0.433-0.635-0.887-0.93-1.359
	c-1.033-1.651-1.88-3.505-2.467-5.335c-0.365-1.138-0.631-2.265-0.778-3.325c-0.088-0.633-0.134-1.243-0.134-1.816
	c0-0.781,0.087-1.541,0.244-2.276c0.279-1.302,0.794-2.516,1.494-3.601c0.468-0.726,1.019-1.391,1.641-1.984
	c0.366-0.35,0.757-0.673,1.169-0.969c0.413-0.297,0.844-0.568,1.298-0.806c1.507-0.79,3.217-1.243,5.033-1.243
	c5.999,0,10.879,4.88,10.879,10.879c0,6.051-5.084,16.061-10.879,16.061C35.561,31.107,33.645,29.912,31.993,28.098z M22.563,31.107
	c-5.794,0-10.879-10.01-10.879-16.061c0-5.999,4.88-10.879,10.879-10.879c1.816,0,3.526,0.453,5.033,1.243
	c-2.416,2.499-3.912,5.894-3.912,9.636c0,3.985,1.683,9.117,4.449,13.052C26.481,29.912,24.565,31.107,22.563,31.107z"/>
</svg>
