<?xml version="1.0" encoding="utf-8"?>
<!-- Generator: Adobe Illustrator 17.0.2, SVG Export Plug-In . SVG Version: 6.00 Build 0)  -->
<!DOCTYPE svg PUBLIC "-//W3C//DTD SVG 1.1//EN" "http://www.w3.org/Graphics/SVG/1.1/DTD/svg11.dtd">
<svg version="1.1" id="Capa_1" xmlns="http://www.w3.org/2000/svg" xmlns:xlink="http://www.w3.org/1999/xlink" x="0px" y="0px"
	 width="64px" height="64px" viewBox="0 0 64 64" enable-background="new 0 0 64 64" xml:space="preserve">
<path d="M27.995,52.847c0,2.551,1.53,4.549,3.483,4.549s3.483-1.998,3.483-4.549c0-2.55-1.53-4.548-3.483-4.548
	S27.995,50.297,27.995,52.847z M31.479,54.366c-0.179-0.155-0.483-0.685-0.483-1.52s0.306-1.364,0.483-1.519
	c0.178,0.154,0.483,0.684,0.483,1.519S31.657,54.211,31.479,54.366z"/>
<path d="M40.338,1.672c-2.811,0-5.354,1.47-6.767,3.828c-1.382-0.159-2.796-0.157-4.184,0.005c-1.411-2.361-3.956-3.833-6.769-3.833
	c-4.354,0-7.896,3.541-7.896,7.895c0,1.871,0.671,3.674,1.87,5.091c-0.6,1.49-0.903,3.049-0.903,4.649
	c0,6.325,4.816,11.669,11.384,13.36c-0.022,3.087-0.097,7.801-1.006,9.693c-1.41,2.93-1.926,7.461-2.103,9.845
	c-0.051,0.445-0.075,0.844-0.075,1.22c0,5.005,3.404,9.076,7.588,9.076s7.588-4.071,7.588-9.076c0-0.37-0.023-0.757-0.069-1.163
	c-0.184-2.442-0.701-6.976-2.108-9.901c-0.909-1.889-0.984-6.594-1.006-9.683c6.589-1.679,11.424-7.032,11.424-13.37
	c0-1.612-0.308-3.183-0.917-4.682c1.182-1.412,1.843-3.203,1.843-5.059C48.232,5.213,44.691,1.672,40.338,1.672z M22.619,4.672
	c1.995,0,3.773,1.195,4.529,3.045l0.279,0.682c1.276-0.363,2.635-0.565,4.051-0.565c1.415,0,2.774,0.202,4.049,0.565l0.282-0.687
	c0.758-1.846,2.535-3.039,4.528-3.039c2.699,0,4.895,2.195,4.895,4.895c0,1.382-0.594,2.707-1.63,3.638L42.95,13.79
	c0.324,0.522,0.591,1.073,0.818,1.641c0.466,1.163,0.732,2.408,0.732,3.709c0,1.172-0.205,2.302-0.586,3.365
	c-1.008,2.812-3.249,5.152-6.171,6.547c-1.049,0.501-2.189,0.874-3.389,1.109c-0.489,0.096-0.986,0.174-1.495,0.221
	c-0.454,0.042-0.914,0.065-1.38,0.065c-0.466,0-0.926-0.023-1.38-0.065c-0.509-0.047-1.006-0.125-1.495-0.221
	c-1.201-0.235-2.34-0.608-3.39-1.109c-2.922-1.396-5.163-3.735-6.171-6.547c-0.381-1.063-0.586-2.193-0.586-3.365
	c0-1.305,0.267-2.552,0.735-3.718c0.227-0.566,0.494-1.116,0.817-1.637l-0.633-0.563c-1.05-0.932-1.652-2.265-1.652-3.656
	C17.724,6.867,19.92,4.672,22.619,4.672z M34.186,43.66c1.237,2.573,1.685,7.029,1.824,8.878c0.032,0.29,0.057,0.585,0.057,0.886
	c0,3.351-2.059,6.076-4.588,6.076s-4.588-2.726-4.588-6.076c0-0.3,0.023-0.593,0.062-0.939c0.134-1.794,0.579-6.247,1.819-8.824
	c1.146-2.383,1.267-6.881,1.299-10.492c0.471,0.037,0.947,0.064,1.429,0.064c0.468,0,0.929-0.027,1.387-0.062
	C32.917,36.782,33.039,41.277,34.186,43.66z"/>
<path d="M29.976,22.416v4.61c0,0.828,0.672,1.5,1.5,1.5s1.5-0.672,1.5-1.5v-4.61c1.741-0.458,2.966-1.681,2.966-3.172
	c0-1.894-1.962-3.376-4.466-3.376s-4.466,1.482-4.466,3.376C27.01,20.735,28.235,21.959,29.976,22.416z M31.476,18.868
	c0.716,0,1.18,0.221,1.382,0.376c-0.202,0.154-0.667,0.375-1.382,0.375s-1.18-0.221-1.382-0.375
	C30.296,19.089,30.76,18.868,31.476,18.868z"/>
<path d="M25.718,15.708c1.35,0,1.35-2.094,0-2.094C24.368,13.614,24.368,15.708,25.718,15.708z"/>
<path d="M37.233,15.708c1.35,0,1.35-2.094,0-2.094C35.883,13.614,35.883,15.708,37.233,15.708z"/>
<path d="M13.674,14.637c0.412-0.719,0.164-1.636-0.554-2.048c-0.718-0.413-1.635-0.165-2.048,0.554
	c-1.388,2.417-2.121,5.176-2.121,7.978c0,2.801,0.733,5.559,2.12,7.976c0.277,0.482,0.782,0.753,1.302,0.753
	c0.254,0,0.511-0.063,0.746-0.199c0.718-0.412,0.966-1.329,0.554-2.048c-0.578-1.008-1.011-2.09-1.301-3.212
	c-0.275-1.063-0.421-2.161-0.421-3.269c0-1.109,0.146-2.208,0.421-3.272C12.662,16.727,13.095,15.644,13.674,14.637z"/>
<path d="M49.278,27.602c-0.412,0.719-0.164,1.636,0.554,2.048c0.236,0.136,0.492,0.199,0.746,0.199c0.52,0,1.024-0.271,1.302-0.753
	C53.267,26.679,54,23.921,54,21.12c0-2.802-0.733-5.561-2.121-7.978c-0.413-0.719-1.331-0.964-2.048-0.554
	c-0.718,0.412-0.966,1.329-0.554,2.048c0.578,1.007,1.012,2.09,1.301,3.212C50.853,18.912,51,20.011,51,21.12
	c0,1.108-0.146,2.206-0.421,3.27C50.289,25.511,49.856,26.594,49.278,27.602z"/>
</svg>
