<?xml version="1.0" encoding="utf-8"?>
<!-- Generator: Adobe Illustrator 17.0.2, SVG Export Plug-In . SVG Version: 6.00 Build 0)  -->
<!DOCTYPE svg PUBLIC "-//W3C//DTD SVG 1.1//EN" "http://www.w3.org/Graphics/SVG/1.1/DTD/svg11.dtd">
<svg version="1.1" id="Capa_1" xmlns="http://www.w3.org/2000/svg" xmlns:xlink="http://www.w3.org/1999/xlink" x="0px" y="0px"
	 width="64px" height="64px" viewBox="0 0 64 64" enable-background="new 0 0 64 64" xml:space="preserve">
<path d="M29.446,27.625c-3.097,0-6.52,1.575-9.158,4.214c-4.649,4.648-5.61,10.971-2.189,14.392
	c1.324,1.324,3.134,2.024,5.235,2.024c3.095,0,6.519-1.575,9.156-4.214c4.649-4.649,5.611-10.972,2.189-14.393
	C33.356,28.325,31.546,27.625,29.446,27.625z M23.334,45.255c-0.898,0-2.168-0.199-3.114-1.146
	c-2.157-2.157-1.154-6.806,2.189-10.149c2.088-2.088,4.719-3.335,7.037-3.335c0.897,0,2.166,0.198,3.112,1.145
	c2.157,2.157,1.155,6.806-2.189,10.15C28.281,44.008,25.65,45.255,23.334,45.255z"/>
<path d="M55.458,11.758c-0.571,0-1.134,0.065-1.682,0.194c-0.377-0.47-0.781-0.922-1.209-1.35c-0.435-0.435-0.895-0.846-1.376-1.229
	c0.583-2.442-0.124-5.029-1.942-6.848c-1.379-1.379-3.213-2.139-5.163-2.139s-3.784,0.76-5.163,2.139
	c-1.204,1.204-1.94,2.79-2.1,4.47c-1.327,0.575-2.511,1.38-3.53,2.399c-1.999,1.999-3.174,4.696-3.374,7.633
	c-2.208-0.759-5.925-1.795-9.752-1.795c-3.176,0-5.862,0.718-7.983,2.132c-2.561,1.707-3.614,3.546-3.131,5.467
	c0.646,2.568,3.907,4.034,6.552,4.756c-3.707,3.92-11.598,12.598-13.349,17.242c-1.09,2.891-0.923,5.907,0.436,7.871
	c1.509,2.182,4.289,2.756,7.511,1.433c-1.032,2.522-0.81,4.31-0.262,5.509c0.898,1.966,3.06,3.14,5.78,3.14
	c1.243,0,2.551-0.244,3.779-0.708c4.643-1.75,13.313-9.633,17.235-13.343c0.852,3.096,2.662,6.654,5.632,6.654
	c1.618,0,3.165-1.09,4.598-3.239c4.257-6.385,1.01-16.084-0.108-18.96c2.669-0.327,5.084-1.474,6.92-3.309
	c1.026-1.028,1.835-2.222,2.411-3.559c1.676-0.164,3.228-0.895,4.431-2.097c2.847-2.848,2.847-7.48,0-10.327
	C59.24,12.517,57.407,11.758,55.458,11.758z M58.497,22.1c-0.863,0.864-2.043,1.312-3.274,1.248l-1.146-0.062l-0.358,1.092
	c-0.427,1.298-1.121,2.435-2.063,3.378c-1.89,1.89-4.673,2.783-7.61,2.458l-4.257-0.479l4.095,4.095
	c0.673,1.644,4.279,11.112,0.587,16.651c-1.177,1.766-1.906,1.903-2.102,1.903c-1.188,0-2.889-3.617-3.19-6.79l-0.299-3.14
	l-2.247,2.214c-3.539,3.487-13.706,12.907-18.189,14.598c-0.894,0.337-1.835,0.515-2.721,0.515c-1.514,0-2.655-0.519-3.052-1.387
	c-0.741-1.621,0.634-4.69,3.679-8.209c0.319-0.369,0.914-1.055,0.5-1.961l-0.406-0.879h-0.964c-0.6,0-0.973,0.323-1.333,0.635
	c-3.896,3.371-6.192,3.874-7.215,3.874c-0.791,0-1.37-0.281-1.771-0.86c-0.782-1.132-0.821-3.184-0.097-5.106
	c1.69-4.483,11.11-14.65,14.598-18.189l2.214-2.247l-3.14-0.299c-2.989-0.285-6.471-1.854-6.772-3.054
	c-0.13-0.519,0.592-1.376,1.886-2.238c1.62-1.08,3.746-1.628,6.319-1.628c4.612,0,9.23,1.766,10.332,2.215l2.936,2.936l-0.479-4.257
	c-0.335-2.987,0.538-5.69,2.458-7.61c0.938-0.938,2.067-1.629,3.358-2.057l1.095-0.362l-0.069-1.151
	c-0.073-1.23,0.381-2.434,1.246-3.299c0.812-0.812,1.893-1.26,3.042-1.26s2.229,0.447,3.042,1.26c1.24,1.24,1.603,3.089,0.923,4.709
	l-0.47,1.123l1.001,0.691c0.665,0.459,1.292,0.981,1.863,1.553c0.568,0.569,1.086,1.188,1.539,1.84l0.691,0.995l1.118-0.468
	c1.581-0.66,3.484-0.293,4.703,0.926C60.174,17.693,60.174,20.423,58.497,22.1z"/>
<path d="M39.952,18.707c1.463,1.463,3.731-0.806,2.268-2.268S38.489,17.244,39.952,18.707z"/>
<path d="M44.866,23.243c1.463,1.463,3.731-0.806,2.268-2.268S43.404,21.78,44.866,23.243z"/>
<path d="M39.763,23.684c1.463,1.463,3.731-0.806,2.268-2.268C40.568,19.953,38.3,22.221,39.763,23.684z"/>
</svg>
