<?xml version="1.0" encoding="utf-8"?>
<!-- Generator: Adobe Illustrator 17.0.2, SVG Export Plug-In . SVG Version: 6.00 Build 0)  -->
<!DOCTYPE svg PUBLIC "-//W3C//DTD SVG 1.1//EN" "http://www.w3.org/Graphics/SVG/1.1/DTD/svg11.dtd">
<svg version="1.1" id="Capa_1" xmlns="http://www.w3.org/2000/svg" xmlns:xlink="http://www.w3.org/1999/xlink" x="0px" y="0px"
	 width="64px" height="64px" viewBox="0 0 64 64" enable-background="new 0 0 64 64" xml:space="preserve">
<path d="M8.952,23.537c0.611-0.795,1.281-1.554,2.004-2.273C9.487,20.341,8.5,18.716,8.5,16.855c0-2.877,2.341-5.218,5.218-5.218
	c2.572,0,4.701,1.874,5.128,4.325c0.919-0.401,1.866-0.761,2.844-1.067c-0.883-3.586-4.117-6.258-7.972-6.258
	c-4.531,0-8.218,3.687-8.218,8.218C5.5,19.61,6.867,22.046,8.952,23.537z"/>
<path d="M47.718,11.637c2.877,0,5.218,2.341,5.218,5.218c0,1.898-1.03,3.547-2.55,4.46c0.725,0.725,1.394,1.49,2.005,2.292
	c2.139-1.485,3.545-3.956,3.545-6.751c0-4.532-3.687-8.218-8.218-8.218c-3.871,0-7.117,2.693-7.983,6.303
	c0.98,0.312,1.93,0.676,2.85,1.083C42.986,13.542,45.126,11.637,47.718,11.637z"/>
<path d="M1.845,35.465c0,13.918,12.937,25.242,28.839,25.242c15.901,0,28.838-11.323,28.838-25.242c0-3.179-0.666-6.271-1.982-9.205
	c2.396-2.539,3.75-5.907,3.75-9.405c0-7.564-6.154-13.718-13.718-13.718c-5.182,0-9.843,2.876-12.186,7.422
	c-3.126-0.449-6.346-0.447-9.479,0.012c-2.34-4.553-7.003-7.434-12.191-7.434C6.154,3.137,0,9.291,0,16.855
	c0,3.527,1.374,6.916,3.802,9.46C2.503,29.233,1.845,32.306,1.845,35.465z M3,16.855c0-5.91,4.808-10.718,10.718-10.718
	c4.37,0,8.263,2.617,9.919,6.667l0.46,1.126l1.198-0.219c3.52-0.645,7.202-0.647,10.709-0.014l1.193,0.215l0.46-1.122
	c1.659-4.042,5.551-6.654,9.915-6.654c5.91,0,10.718,4.808,10.718,10.718c0,3.026-1.301,5.929-3.568,7.966l-0.854,0.767l0.518,1.025
	c0.888,1.756,1.501,3.581,1.836,5.452c0.216,1.146,0.332,2.319,0.332,3.517c0,6.102-2.916,11.625-7.625,15.616
	c-4.677,4.019-11.129,6.507-18.245,6.507c-4.999,0-9.668-1.232-13.627-3.356c-7.392-3.882-12.32-10.834-12.32-18.767
	c0-3.21,0.813-6.256,2.263-9.007l0.476-0.947l-0.862-0.765C4.317,22.824,3,19.906,3,16.855z"/>
<path d="M12.102,42.75c0,7.05,8.316,12.786,18.539,12.786c10.223,0,18.539-5.736,18.539-12.786S40.863,29.964,30.64,29.964
	C20.418,29.964,12.102,35.7,12.102,42.75z M30.64,41.25c-2.347,0-4.167-1.12-4.167-2.083s1.82-2.083,4.167-2.083
	s4.167,1.12,4.167,2.083S32.987,41.25,30.64,41.25z M30.64,32.964c8.568,0,15.539,4.39,15.539,9.786
	c0,5.077-6.172,9.261-14.039,9.738v-8.346c3.275-0.477,5.667-2.491,5.667-4.975c0-2.85-3.148-5.083-7.167-5.083
	s-7.167,2.233-7.167,5.083c0,2.484,2.392,4.498,5.667,4.975v8.346c-7.866-0.477-14.039-4.661-14.039-9.738
	C15.102,37.354,22.072,32.964,30.64,32.964z"/>
<path d="M19.64,26.5c-2.579,0-2.579,4,0,4S22.22,26.5,19.64,26.5z"/>
<path d="M41.64,30.5c2.579,0,2.579-4,0-4S39.061,30.5,41.64,30.5z"/>
</svg>
