<?xml version="1.0" encoding="utf-8"?>
<!-- Generator: Adobe Illustrator 17.0.2, SVG Export Plug-In . SVG Version: 6.00 Build 0)  -->
<!DOCTYPE svg PUBLIC "-//W3C//DTD SVG 1.1//EN" "http://www.w3.org/Graphics/SVG/1.1/DTD/svg11.dtd">
<svg version="1.1" id="Capa_1" xmlns="http://www.w3.org/2000/svg" xmlns:xlink="http://www.w3.org/1999/xlink" x="0px" y="0px"
	 width="64px" height="64px" viewBox="0 0 64 64" enable-background="new 0 0 64 64" xml:space="preserve">
<path d="M18.339,1.41l-1.13,0.125c-6.375,0.706-9.235,5.437-9.354,5.638L7.319,8.081l5.308,6.404l2.914-1.739l0.879,1.445
	c-3.406,1.601-5.455,3.834-5.455,6.38c0,0.206,0.035,0.407,0.062,0.609h-0.211l2.937,30.821c0.063,5.107,6.487,8.402,16.402,8.402
	c3.614,0,15.372-0.606,15.472-8.378l0.853-6.712c0.567-0.153,1.123-0.332,1.648-0.57c6.472-2.935,6.009-11.319,1.074-15.467
	c-0.205-0.172-0.423-0.271-0.642-0.322l0.988-7.773h-0.265c0.027-0.202,0.062-0.403,0.062-0.609c0-5.111-8.249-8.965-19.188-8.965
	c-4.107,0-7.834,0.543-10.888,1.492l-1.149-1.889l3.368-2.01L18.339,1.41z M46.343,20.571c0,0.202-0.045,0.405-0.115,0.609
	c-0.356,1.047-1.597,2.104-3.509,3c-2.915,1.366-7.371,2.355-12.565,2.355c-1.004,0-1.973-0.043-2.916-0.113
	c-0.029-0.189-0.094-0.375-0.2-0.549l-1.03-1.694l-1.825-3l-3.291-5.409c2.587-0.713,5.756-1.165,9.262-1.165
	C39.42,14.606,46.343,17.755,46.343,20.571z M20.672,21.181l1.825,3l1.091,1.794c-2.369-0.422-4.413-1.051-5.999-1.794
	c-1.913-0.896-3.153-1.953-3.51-3c-0.069-0.204-0.115-0.408-0.115-0.609c0-1.307,1.506-2.683,4.033-3.786L20.672,21.181z
	 M42.639,51.736l-0.012,0.189c0,3.379-4.779,5.479-12.473,5.479c-9.208,0-13.402-2.84-13.402-5.479l-2.491-26.203
	c3.392,2.336,9.125,3.813,15.893,3.813c6.698,0,12.375-1.449,15.78-3.742l-2.14,16.844c-0.389,0.023-0.775,0.032-1.149,0.029
	c-4.771-0.031-10.077-2.005-13.864-4.856c-1.506-1.134-2.959,1.404-1.474,2.522c3.924,2.955,10.451,5.635,16.091,5.429
	L42.639,51.736z M49.983,38.399c-0.315,1.945-1.548,3.034-3.086,3.625l1.234-9.71C49.636,33.979,50.372,35.997,49.983,38.399z
	 M11.053,7.884c0.848-0.981,2.596-2.574,5.379-3.186l1.31,3.241l-4.444,2.652L11.053,7.884z"/>
</svg>
