<?xml version="1.0" encoding="utf-8"?>
<!-- Generator: Adobe Illustrator 17.0.2, SVG Export Plug-In . SVG Version: 6.00 Build 0)  -->
<!DOCTYPE svg PUBLIC "-//W3C//DTD SVG 1.1//EN" "http://www.w3.org/Graphics/SVG/1.1/DTD/svg11.dtd">
<svg version="1.1" id="Capa_1" xmlns="http://www.w3.org/2000/svg" xmlns:xlink="http://www.w3.org/1999/xlink" x="0px" y="0px"
	 width="64px" height="64px" viewBox="0 0 64 64" enable-background="new 0 0 64 64" xml:space="preserve">
<path d="M9.623,49.269c0.395,5.086,4.65,9.106,9.836,9.106s9.441-4.02,9.836-9.106h4.328c0.395,5.086,4.65,9.106,9.836,9.106
	s9.441-4.02,9.836-9.106h5.289c0.829,0,1.5-0.671,1.5-1.5c0-1.288,0.044-2.659,0.091-4.109c0.203-6.288,0.412-12.79-2.717-16.081
	c-1.216-1.279-2.819-1.946-4.764-1.981c-6.248-0.115-9.945-5.285-13.207-9.846c-2.679-3.747-4.993-6.982-8.403-6.982
	c-1.647,0-3.19-0.01-4.638-0.02c-1.284-0.009-2.493-0.017-3.632-0.017c-19.73,0-19.73,3.694-19.73,39.037c0,0.829,0.671,1.5,1.5,1.5
	H9.623z M22.814,11.732c1.132,0,2.334,0.008,3.612,0.017c1.454,0.01,3.004,0.02,4.658,0.02c1.867,0,3.856,2.782,5.963,5.728
	c3.491,4.882,7.836,10.958,15.592,11.1c1.144,0.021,1.984,0.354,2.645,1.049c2.264,2.382,2.067,8.51,1.893,13.917
	c-0.03,0.933-0.059,1.833-0.076,2.706h-4.03c-1.015-4.372-4.934-7.644-9.611-7.644s-8.596,3.271-9.611,7.644H29.07
	c-1.015-4.372-4.934-7.644-9.611-7.644s-8.596,3.271-9.611,7.644H6.084C6.092,12.061,6.476,11.732,22.814,11.732z M50.334,48.5
	c0,0.26-0.018,0.516-0.046,0.769c-0.384,3.43-3.298,6.106-6.829,6.106s-6.446-2.676-6.829-6.106
	c-0.028-0.253-0.046-0.508-0.046-0.769c0-0.247,0.015-0.491,0.04-0.732c0.055-0.52,0.174-1.021,0.339-1.5
	c0.929-2.697,3.487-4.644,6.496-4.644s5.567,1.946,6.496,4.644c0.165,0.479,0.284,0.98,0.339,1.5
	C50.319,48.009,50.334,48.253,50.334,48.5z M26.334,48.5c0,0.26-0.018,0.516-0.046,0.769c-0.384,3.43-3.298,6.106-6.829,6.106
	s-6.446-2.676-6.829-6.106c-0.028-0.253-0.046-0.508-0.046-0.769c0-0.247,0.015-0.491,0.04-0.732c0.055-0.52,0.174-1.021,0.339-1.5
	c0.929-2.697,3.487-4.644,6.496-4.644s5.567,1.946,6.496,4.644c0.165,0.479,0.284,0.98,0.339,1.5
	C26.319,48.009,26.334,48.253,26.334,48.5z"/>
<path d="M30.536,28.85l3.076,0.006c0.001,0,0.009,0,0.01,0c2.941,0,5.339-2.393,5.344-5.334c0-0.391-0.151-0.767-0.423-1.047
	l-6.906-7.125c-0.283-0.292-0.678-0.456-1.084-0.456c-2.941,0-5.339,2.393-5.344,5.334l-0.006,3.268
	c-0.002,1.428,0.551,2.771,1.558,3.782C27.767,28.289,29.108,28.848,30.536,28.85z M33.617,25.856l-3.076-0.006
	c-0.626-0.001-1.214-0.246-1.656-0.69c-0.442-0.443-0.685-1.033-0.684-1.659l0.006-3.268c0.002-1.096,0.761-2.018,1.783-2.271
	l5.91,6.097c-0.248,1.029-1.176,1.796-2.279,1.796v1.499L33.617,25.856z"/>
<path d="M14.264,28.917h3.306c2.972,0,5.389-2.417,5.389-5.389v-3.306c0-2.971-2.417-5.389-5.389-5.389h-3.306
	c-2.971,0-5.389,2.417-5.389,5.389v3.306C8.875,26.499,11.293,28.917,14.264,28.917z M11.875,20.222
	c0-1.317,1.072-2.389,2.389-2.389h3.306c1.317,0,2.389,1.072,2.389,2.389v3.306c0,1.317-1.072,2.389-2.389,2.389h-3.306
	c-1.317,0-2.389-1.072-2.389-2.389V20.222z"/>
</svg>
