<?xml version="1.0" encoding="utf-8"?>
<!-- Generator: Adobe Illustrator 17.0.2, SVG Export Plug-In . SVG Version: 6.00 Build 0)  -->
<!DOCTYPE svg PUBLIC "-//W3C//DTD SVG 1.1//EN" "http://www.w3.org/Graphics/SVG/1.1/DTD/svg11.dtd">
<svg version="1.1" id="Capa_1" xmlns="http://www.w3.org/2000/svg" xmlns:xlink="http://www.w3.org/1999/xlink" x="0px" y="0px"
	 width="64px" height="64px" viewBox="0 0 64 64" enable-background="new 0 0 64 64" xml:space="preserve">
<path d="M31.98,1.009c-4.598,0-9.051,1.005-13.236,2.986C3.302,11.305-3.314,29.814,3.995,45.256
	c5.1,10.773,16.1,17.735,28.024,17.735c4.598,0,9.051-1.005,13.236-2.986c15.442-7.31,22.059-25.819,14.749-41.261
	C54.905,7.971,43.905,1.009,31.98,1.009z M43.973,57.294c-3.781,1.789-7.803,2.697-11.953,2.697
	c-10.771,0-20.707-6.288-25.313-16.019C0.104,30.025,6.081,13.309,20.027,6.706c3.781-1.789,7.803-2.697,11.953-2.697
	c10.771,0,20.707,6.288,25.313,16.019C63.896,33.975,57.919,50.691,43.973,57.294z"/>
<path d="M31.987,11.465c-3.047,0-5.997,0.665-8.771,1.979c-4.957,2.346-8.703,6.482-10.55,11.646
	c-1.846,5.164-1.57,10.738,0.776,15.694c3.379,7.14,10.668,11.752,18.569,11.752c3.047,0,5.997-0.665,8.771-1.979
	c4.957-2.346,8.703-6.482,10.55-11.646c1.846-5.164,1.57-10.738-0.776-15.694C47.178,16.077,39.889,11.465,31.987,11.465z
	 M48.508,37.901c-1.576,4.409-4.775,7.94-9.008,9.944c-2.369,1.121-4.888,1.689-7.487,1.689c-6.747,0-12.973-3.939-15.858-10.035
	c-2.003-4.232-2.238-8.991-0.662-13.401c1.576-4.409,4.775-7.94,9.008-9.944c2.369-1.121,4.888-1.689,7.487-1.689
	c6.747,0,12.973,3.939,15.858,10.035C49.849,28.732,50.084,33.491,48.508,37.901z"/>
<path d="M39.739,23.252c-0.756,0-1.486,0.165-2.173,0.49c-2.058,0.974-3.135,3.16-2.833,5.305l-1.834,0.868l-0.867-1.832
	c0.601-0.551,1.08-1.226,1.363-2.016c0.457-1.279,0.389-2.659-0.192-3.886c-0.836-1.768-2.641-2.909-4.597-2.909
	c-0.755,0-1.485,0.164-2.172,0.489c-1.228,0.581-2.154,1.604-2.611,2.884c-0.457,1.278-0.389,2.658,0.191,3.884
	c0.836,1.769,2.641,2.911,4.597,2.911c0.242,0,0.481-0.023,0.718-0.057l0.859,1.815l-1.818,0.86
	c-0.95-1.031-2.304-1.654-3.744-1.654c-0.755,0-1.486,0.165-2.172,0.49c-1.228,0.58-2.155,1.604-2.612,2.883
	s-0.389,2.658,0.192,3.886c0.836,1.768,2.641,2.909,4.597,2.909c0.755,0,1.486-0.165,2.172-0.49c2.058-0.974,3.136-3.16,2.834-5.305
	l1.834-0.868l0.868,1.834c-1.593,1.467-2.146,3.841-1.171,5.9c0.836,1.768,2.641,2.909,4.596,2.909c0.755,0,1.486-0.165,2.172-0.49
	c1.228-0.58,2.155-1.604,2.612-2.883s0.389-2.658-0.192-3.885c-0.836-1.768-2.641-2.91-4.597-2.91c-0.242,0-0.481,0.023-0.717,0.057
	l-0.859-1.816L36,31.766c0.95,1.032,2.304,1.654,3.743,1.654c0.756,0,1.486-0.165,2.173-0.49c2.533-1.199,3.618-4.235,2.419-6.769
	C43.499,24.394,41.694,23.252,39.739,23.252z M26.726,25.247c-0.237-0.503-0.266-1.068-0.078-1.593
	c0.187-0.523,0.567-0.943,1.068-1.181c0.282-0.134,0.582-0.201,0.89-0.201c0.803,0,1.543,0.468,1.886,1.192
	c0.231,0.49,0.26,1.039,0.088,1.551l-0.616-1.301c-0.354-0.749-1.248-1.07-1.997-0.714c-0.749,0.354-1.068,1.248-0.714,1.997
	l0.605,1.277C27.373,26.087,26.954,25.731,26.726,25.247z M25.52,37.372c-1.019,0.48-2.3,0.01-2.774-0.991
	c-0.237-0.503-0.266-1.068-0.078-1.593c0.187-0.523,0.567-0.943,1.07-1.182c0.282-0.133,0.581-0.201,0.889-0.201
	c0.227,0,0.445,0.046,0.654,0.116l-1.294,0.613c-0.749,0.354-1.068,1.248-0.714,1.997c0.256,0.542,0.795,0.858,1.356,0.858
	c0.215,0,0.434-0.046,0.641-0.145l1.301-0.616C26.386,36.714,26.024,37.133,25.52,37.372z M37.645,38.578
	c0.237,0.503,0.266,1.068,0.078,1.592c-0.187,0.523-0.567,0.943-1.07,1.182c-1.017,0.479-2.3,0.01-2.773-0.991
	c-0.239-0.505-0.253-1.058-0.088-1.55l0.615,1.3c0.256,0.542,0.795,0.858,1.356,0.858c0.215,0,0.434-0.046,0.641-0.145
	c0.749-0.354,1.068-1.248,0.714-1.997l-0.607-1.282C36.997,37.736,37.414,38.092,37.645,38.578z M39.107,30.295l1.275-0.604
	c0.749-0.354,1.068-1.248,0.714-1.997c-0.354-0.748-1.249-1.068-1.997-0.714l-1.3,0.615c0.185-0.485,0.546-0.904,1.05-1.143
	c0.282-0.133,0.581-0.201,0.89-0.201c0.802,0,1.542,0.469,1.885,1.192c0.491,1.038,0.046,2.283-0.991,2.774
	C40.146,30.448,39.599,30.455,39.107,30.295z"/>
</svg>
