<?xml version="1.0" encoding="utf-8"?>
<!-- Generator: Adobe Illustrator 17.0.2, SVG Export Plug-In . SVG Version: 6.00 Build 0)  -->
<!DOCTYPE svg PUBLIC "-//W3C//DTD SVG 1.1//EN" "http://www.w3.org/Graphics/SVG/1.1/DTD/svg11.dtd">
<svg version="1.1" id="Capa_1" xmlns="http://www.w3.org/2000/svg" xmlns:xlink="http://www.w3.org/1999/xlink" x="0px" y="0px"
	 width="64px" height="64px" viewBox="0 0 64 64" enable-background="new 0 0 64 64" xml:space="preserve">
<path d="M50.648,2.537c-0.586-0.586-1.535-0.586-2.121,0l-9.016,9.015L7.51,43.553c-0.199,0.2-0.339,0.451-0.401,0.727L3.756,58.957
	c-0.113,0.494,0.031,1.011,0.383,1.376c0.285,0.295,0.676,0.458,1.079,0.458c0.094,0,0.188-0.009,0.282-0.027l15.127-2.902
	c0.295-0.057,0.566-0.2,0.778-0.413l32.002-32.002l9.016-9.015c0.281-0.281,0.439-0.663,0.439-1.061s-0.158-0.779-0.439-1.061
	L50.648,2.537z M28.604,46.008c-0.178-0.047-0.367-0.065-0.561-0.04c-0.732,0.088-1.721,0.079-2.271-0.471
	c-0.742-0.742-0.68-2.475,0.166-4.636c1.027-2.626,3.04-5.519,5.666-8.145c2.626-2.626,5.519-4.638,8.145-5.666
	c2.162-0.846,3.894-0.907,4.636-0.166c0.691,0.691,0.532,2.082,0.377,2.849c-0.009,0.044-0.008,0.087-0.013,0.13L28.604,46.008z
	 M47.699,26.913c-0.257-0.988-0.727-1.685-1.193-2.15c-1.657-1.658-4.445-1.838-7.85-0.506c-3.003,1.175-6.261,3.426-9.173,6.338
	s-5.163,6.17-6.339,9.173c-1.332,3.404-1.152,6.192,0.507,7.851c0.455,0.454,1.15,0.931,2.15,1.192l-6.192,6.192l-4.939,0.948
	c-0.084-0.245-0.226-0.487-0.438-0.716c-1.579-1.579-3.148-3.165-4.62-4.845c-0.22-0.251-0.46-0.413-0.706-0.51l1.03-4.509
	l30.636-30.636l9.653,9.653L47.699,26.913z M52.347,22.265l-9.653-9.653l6.895-6.894l9.653,9.653L52.347,22.265z"/>
</svg>
