<?xml version="1.0" encoding="utf-8"?>
<!-- Generator: Adobe Illustrator 17.0.2, SVG Export Plug-In . SVG Version: 6.00 Build 0)  -->
<!DOCTYPE svg PUBLIC "-//W3C//DTD SVG 1.1//EN" "http://www.w3.org/Graphics/SVG/1.1/DTD/svg11.dtd">
<svg version="1.1" id="Capa_1" xmlns="http://www.w3.org/2000/svg" xmlns:xlink="http://www.w3.org/1999/xlink" x="0px" y="0px"
	 width="64px" height="64px" viewBox="0 0 64 64" enable-background="new 0 0 64 64" xml:space="preserve">
<path d="M62.216,29.329v-1.5H29.941c-0.465-0.617-0.978-1.213-1.541-1.776c-2.707-2.707-6.167-4.323-9.258-4.323
	c-1.216,0-2.326,0.248-3.291,0.722L4.828,9.001C4.303,8.36,3.358,8.266,2.717,8.792c-0.641,0.525-0.734,1.47-0.209,2.111
	l11.048,13.482c-0.72,0.99-1.125,2.167-1.242,3.444H3.933v1.5c0,9.967,5.032,18.778,12.686,24.035
	c0.467-0.312,1.001-0.561,1.58-0.742c0.658-0.205,1.376-0.321,2.135-0.321h0.284C12.889,48.092,7.503,40.103,6.976,30.829h5.563
	h3.12h12.688h3.358h27.47C58.647,40.103,53.26,48.092,45.531,52.3h0.284c0.759,0,1.477,0.116,2.135,0.321
	c0.579,0.181,1.113,0.43,1.58,0.742C57.184,48.107,62.216,39.296,62.216,29.329z M16.31,25.756c0.848-0.848,2.008-1.026,2.833-1.026
	c2.183,0,4.676,1.157,6.763,3.099H15.338C15.457,27.01,15.771,26.294,16.31,25.756z"/>
<path d="M33.075,55.471h-8.98h-3.88h-0.96c-0.829,0-1.5,0.671-1.5,1.5s0.671,1.5,1.5,1.5h13.821h13.821c0.829,0,1.5-0.671,1.5-1.5
	s-0.671-1.5-1.5-1.5h-0.96h-3.88H33.075z"/>
<path d="M48.675,45.926c2.988-3.045,5.748-6.74,5.773-11.183c0.005-0.967-0.783-1.663-1.71-1.71
	c-2.658-0.134-5.318-0.142-7.979-0.142c-2.205,0-2.205,3.419,0,3.42c2.021,0,4.041,0.023,6.061,0.084
	c-0.615,2.767-2.612,5.125-4.563,7.113C44.712,45.083,47.128,47.502,48.675,45.926z"/>
</svg>
