<?xml version="1.0" encoding="utf-8"?>
<!-- Generator: Adobe Illustrator 17.0.2, SVG Export Plug-In . SVG Version: 6.00 Build 0)  -->
<!DOCTYPE svg PUBLIC "-//W3C//DTD SVG 1.1//EN" "http://www.w3.org/Graphics/SVG/1.1/DTD/svg11.dtd">
<svg version="1.1" id="Capa_1" xmlns="http://www.w3.org/2000/svg" xmlns:xlink="http://www.w3.org/1999/xlink" x="0px" y="0px"
	 width="64px" height="64px" viewBox="0 0 64 64" enable-background="new 0 0 64 64" xml:space="preserve">
<path d="M3.672,29.406v7.232c0,2.049,0.971,4.002,2.606,5.259c0.107,0.1,0.23,0.184,0.367,0.25
	c0.096,0.046,9.516,4.653,10.557,10.603v1.027c0,0.829,0.77,1.5,1.598,1.5h14.399c0.828,0,1.5-0.671,1.5-1.5V52.75
	C35.74,46.8,45.161,42.193,45.257,42.147c0.136-0.065,0.258-0.149,0.365-0.249c1.475-1.133,2.403-2.833,2.573-4.659
	c1.834,1.094,3.625,1.915,5.286,2.416c0.596,0.235,1.227,0.383,1.877,0.437c0.534,0.084,1.051,0.135,1.541,0.135
	c1.731,0,3.183-0.535,4.194-1.547c1.321-1.321,1.749-3.296,1.415-5.645c-0.04-0.572-0.155-1.138-0.343-1.685
	c-1.102-4.008-4.128-8.83-8.686-13.388c-4.271-4.271-9.082-7.375-13.111-8.591c-0.593-0.234-1.221-0.381-1.868-0.435
	C37.964,8.851,37.445,8.8,36.954,8.8c-1.731,0-3.183,0.535-4.194,1.547c-1.321,1.321-1.749,3.296-1.415,5.645
	c0.04,0.572,0.155,1.138,0.343,1.686c0.437,1.589,1.19,3.308,2.207,5.086H10.314C6.651,22.764,3.672,25.744,3.672,29.406z
	 M39.634,25.764h1.953c2.009,0,3.644,1.634,3.644,3.643v2.042v3.808v1.381c0,1.144-0.528,2.194-1.452,2.893
	c-1.469,0.737-10.839,5.69-12.042,12.745H20.165C18.961,45.217,9.581,40.262,8.121,39.53c-0.922-0.7-1.449-1.749-1.449-2.892v-7.232
	c0-2.008,1.634-3.643,3.643-3.643H35.84H39.634z M53.354,36.06c-0.684-0.684-1.061-1.592-1.061-2.559
	c0-0.967,0.377-1.875,1.061-2.56c0.684-0.684,1.593-1.06,2.56-1.06c0.966,0,1.875,0.376,2.559,1.06
	c0.351,0.352,0.615,0.758,0.791,1.192c0.004,0.015,0.01,0.031,0.014,0.045c0.012,0.03,0.016,0.061,0.027,0.091
	c0.075,0.274,0.133,0.535,0.184,0.791c0.13,1.068-0.198,2.182-1.016,2.999c-0.842,0.842-2.068,1.161-3.206,0.966
	c-0.049-0.011-0.097-0.02-0.147-0.031c-0.159-0.037-0.338-0.099-0.505-0.145C54.149,36.681,53.715,36.421,53.354,36.06z
	 M40.498,12.968c0.684,0.684,1.061,1.592,1.061,2.559s-0.377,1.875-1.061,2.559c-1.366,1.366-3.75,1.368-5.118,0
	c-0.352-0.352-0.615-0.759-0.792-1.193c-0.003-0.012-0.008-0.024-0.011-0.036c-0.013-0.033-0.018-0.069-0.03-0.103
	c-0.075-0.272-0.132-0.532-0.183-0.787c-0.13-1.068,0.198-2.182,1.016-3c0.684-0.684,1.593-1.06,2.559-1.06
	c0.132,0,0.26,0.024,0.39,0.038c0.322,0.061,0.664,0.146,1.019,0.248C39.771,12.373,40.162,12.632,40.498,12.968z M37,22.072
	c0.309,0.044,0.621,0.074,0.939,0.074c1.769,0,3.431-0.688,4.681-1.938c1.251-1.25,1.939-2.913,1.939-4.681
	c0-0.324-0.031-0.642-0.076-0.956c2.16,1.328,4.508,3.145,6.875,5.512c2.3,2.3,4.134,4.663,5.495,6.873
	c-0.309-0.044-0.621-0.073-0.938-0.073c-1.769,0-3.431,0.688-4.681,1.938c-1.251,1.25-1.939,2.913-1.939,4.681
	c0,0.323,0.031,0.641,0.076,0.956c-0.375-0.23-0.754-0.476-1.14-0.736v-4.314c0-3.663-2.98-6.643-6.644-6.643h-4.151
	C37.285,22.531,37.141,22.302,37,22.072z"/>
<path d="M16.392,38.509l0.081,0.277c1.538,4.924,8.498,8.543,8.794,8.694l0.685,0.352l0.685-0.352
	c0.296-0.151,7.256-3.77,8.797-8.703l0.081-0.282c0.101-0.369,0.166-0.718,0.2-1.065c0.02-0.207,0.03-0.415,0.03-0.624
	c0-3.536-2.877-6.413-6.413-6.413c-1.207,0-2.372,0.337-3.38,0.966c-1.008-0.629-2.173-0.966-3.38-0.966
	c-3.537,0-6.414,2.877-6.414,6.413c0,0.209,0.012,0.417,0.031,0.622C16.223,37.778,16.288,38.127,16.392,38.509z M22.571,33.394
	c0.875,0,1.708,0.334,2.347,0.941l1.033,0.981l1.033-0.981c0.639-0.607,1.472-0.941,2.347-0.941c1.882,0,3.413,1.531,3.413,3.413
	c0,0.11-0.005,0.219-0.017,0.331c-0.018,0.179-0.053,0.365-0.126,0.648l-0.035,0.106c-0.855,2.737-4.591,5.369-6.615,6.543
	c-2.025-1.175-5.763-3.812-6.637-6.603l-0.031-0.126c-0.056-0.203-0.091-0.389-0.108-0.571c-0.012-0.109-0.018-0.218-0.018-0.328
	C19.157,34.925,20.688,33.394,22.571,33.394z"/>
</svg>
