<?xml version="1.0" encoding="utf-8"?>
<!-- Generator: Adobe Illustrator 17.0.2, SVG Export Plug-In . SVG Version: 6.00 Build 0)  -->
<!DOCTYPE svg PUBLIC "-//W3C//DTD SVG 1.1//EN" "http://www.w3.org/Graphics/SVG/1.1/DTD/svg11.dtd">
<svg version="1.1" id="Capa_1" xmlns="http://www.w3.org/2000/svg" xmlns:xlink="http://www.w3.org/1999/xlink" x="0px" y="0px"
	 width="64px" height="64px" viewBox="0 0 64 64" enable-background="new 0 0 64 64" xml:space="preserve">
<path d="M53.54,10.428c-0.104-0.122-0.227-0.216-0.357-0.296c-0.034-0.085-0.075-0.169-0.126-0.249
	c-3.194-4.998-10.848-6.516-16.061-3.185c-4.789,3.061-7.846,9.668-4.445,14.989c0.527,0.848,1.602,2.919,2.121,4.948
	c-0.141,0.013-0.283,0.04-0.421,0.095c-0.044,0.018-4.431,1.772-9.202,2.419c-5.877,0.799-9.554-0.354-10.922-3.422
	c-0.443-0.994-1.788-4.018-4.189-3.549c-4.219,0.829-5.122,13.748-5.126,13.877c-0.442,14.101,8.532,23.233,24.005,24.43
	c0.727,0.056,1.456,0.083,2.188,0.083c8.316,0,16.818-3.564,21.69-9.232c3.337-3.882,4.75-8.413,4.148-13.2
	c-0.001-0.04,0.004-0.08,0-0.121c-0.144-1.467-1.439-14.428-2.48-17.64c-0.004-0.013-0.008-0.025-0.011-0.036
	c0.366-0.171,1.19-0.337,1.763-0.453c1.718-0.347,3.855-0.778,5.188-2.428l1.166-1.444l-1.657-0.837
	C59.241,14.385,54.873,11.984,53.54,10.428z M50.419,49.382c-4.635,5.392-13.43,8.732-21.372,8.113
	C15.159,56.421,7.418,48.641,7.81,36.15c0.085-2.723,1.425-9.447,2.611-10.871c0.197,0.224,0.533,0.7,0.966,1.67
	c4.206,9.433,20.249,3.97,23.447,2.771c-0.01,0.039-0.015,0.082-0.027,0.121c-0.216,0.695-0.657,1.167-1.388,1.488
	c-0.759,0.333-1.105,1.217-0.772,1.976c0.247,0.563,0.797,0.899,1.375,0.899c0.201,0,0.405-0.041,0.601-0.126
	c1.522-0.667,2.577-1.824,3.049-3.346c1.305-4.201-2.171-9.981-2.582-10.643c-2.337-3.658-0.066-8.57,3.522-10.863
	c3.749-2.397,9.653-1.271,11.918,2.273c0.108,0.169,0.245,0.308,0.399,0.417c0.026,2.476,0.167,4.947,0.322,7.418
	c0.011,0.176,0.053,0.33,0.108,0.474c-0.063,0.464-0.023,0.961,0.151,1.495c0.677,2.09,1.622,10.092,2.125,14.841
	c-0.086,0.254-0.108,0.533-0.043,0.814C54.634,41.458,53.538,45.754,50.419,49.382z"/>
<path d="M39.359,39.591c-2.146-1.82-5.072-2.957-8.239-3.201c-0.832-0.053-1.547,0.554-1.611,1.38
	c-0.064,0.826,0.554,1.547,1.38,1.611c2.543,0.196,4.862,1.083,6.53,2.498c1.53,1.297,2.305,2.878,2.184,4.451
	s-1.13,3.016-2.841,4.063c-1.865,1.142-4.292,1.662-6.836,1.465c-0.832-0.057-1.547,0.555-1.611,1.38
	c-0.064,0.826,0.554,1.547,1.38,1.611c0.426,0.033,0.851,0.049,1.272,0.049c2.709,0,5.285-0.676,7.362-1.946
	c2.554-1.562,4.069-3.832,4.267-6.391S41.642,41.528,39.359,39.591z"/>
<path d="M44.917,12.333c-1.935,0-1.935,3,0,3C46.852,15.333,46.852,12.333,44.917,12.333z"/>
</svg>
