<?xml version="1.0" encoding="utf-8"?>
<!-- Generator: Adobe Illustrator 17.0.2, SVG Export Plug-In . SVG Version: 6.00 Build 0)  -->
<!DOCTYPE svg PUBLIC "-//W3C//DTD SVG 1.1//EN" "http://www.w3.org/Graphics/SVG/1.1/DTD/svg11.dtd">
<svg version="1.1" id="Capa_1" xmlns="http://www.w3.org/2000/svg" xmlns:xlink="http://www.w3.org/1999/xlink" x="0px" y="0px"
	 width="64px" height="64px" viewBox="0 0 64 64" enable-background="new 0 0 64 64" xml:space="preserve">
<path d="M23.669,30.762c-2.292,0-2.292,3.554,0,3.554C25.961,34.317,25.961,30.762,23.669,30.762z"/>
<path d="M34.924,34.094c2.292,0,2.292-3.554,0-3.554S32.632,34.094,34.924,34.094z"/>
<path d="M34.706,38.353c0-0.828-0.671-1.5-1.5-1.5c-0.667,0-1.232,0.435-1.427,1.036c-0.332,0.179-1.188,0.444-2.481,0.444
	s-2.15-0.266-2.481-0.444c-0.195-0.602-0.761-1.036-1.427-1.036c-0.829,0-1.5,0.672-1.5,1.5c0,2.059,2.716,2.98,5.409,2.98
	S34.706,40.411,34.706,38.353z"/>
<path d="M56.106,35.193c0.574-1.041,0.904-2.235,0.904-3.505c0-3.954-3.164-7.184-7.093-7.29
	c-3.103-8.415-11.414-14.195-20.62-14.195c-0.602,0-1.199,0.027-1.792,0.076c-1.012-0.119-2.011-0.333-2.951-0.691
	c-1.549-0.589-4.022-2.654-2.013-4.362c1.591-1.353,4.536-1.741,6.508-1.117c1.058,0.335,2.438,1.33,0.89,2.128
	c-1.128,0.581-2.182,0.518-3.328,0.028c-1.582-0.677-2.338,1.882-0.777,2.551c1.928,0.825,4.318,0.691,5.995-0.657
	c1.2-0.964,2.109-2.779,1.179-4.258C30.943,0.617,25.84,0.675,22.65,2.073c-3.143,1.378-4.839,5.6-1.96,8.239
	c0.461,0.422,0.976,0.767,1.512,1.077c-6.173,2.098-11.25,6.839-13.525,13.008c-3.929,0.106-7.093,3.336-7.093,7.29
	s3.164,7.184,7.092,7.29c3.103,8.416,11.413,14.196,20.621,14.196c1.611,0,3.191-0.187,4.724-0.524
	c1.964,6.012,7.617,10.371,14.276,10.371c8.283,0,15.021-6.738,15.021-15.021C63.318,42.579,60.422,37.834,56.106,35.193z
	 M48.297,60.021c-5.299,0-9.799-3.45-11.395-8.218c-0.317-0.947-0.514-1.946-0.585-2.98c-0.019-0.273-0.042-0.545-0.042-0.823
	c0-6.435,5.086-11.69,11.447-11.992c0.192-0.009,0.38-0.029,0.574-0.029c2.111,0,4.095,0.551,5.821,1.511
	c3.694,2.054,6.201,5.993,6.201,10.511C60.318,54.629,54.926,60.021,48.297,60.021z M29.297,50.174
	c-8.305,0-15.761-5.428-18.131-13.2l-0.376-1.234l-1.276,0.188c-0.208,0.031-0.419,0.054-0.636,0.054
	c-2.367,0-4.293-1.926-4.293-4.293s1.926-4.293,4.293-4.293c0.217,0,0.428,0.023,0.636,0.055l1.276,0.188l0.376-1.234
	c2.37-7.772,9.826-13.2,18.131-13.2s15.761,5.428,18.131,13.2l0.376,1.234l1.276-0.188c0.208-0.031,0.419-0.055,0.636-0.055
	c2.367,0,4.293,1.926,4.293,4.293c0,0.806-0.237,1.552-0.625,2.197c-1.592-0.576-3.3-0.906-5.088-0.906
	c-8.283,0-15.021,6.738-15.021,15.021c0,0.582,0.041,1.153,0.106,1.718C32.056,50.009,30.69,50.174,29.297,50.174z"/>
<path d="M54.385,44.422c0-2.455-1.463-4.57-3.561-5.532c-0.771-0.354-1.625-0.557-2.528-0.557c-0.489,0-0.962,0.064-1.418,0.174
	c-2.674,0.642-4.67,3.047-4.67,5.915c0,0.233,0.016,0.462,0.042,0.688c0.125,1.1,0.546,2.108,1.178,2.952
	c0.822,1.097,2.003,1.905,3.368,2.253v1.602H45.51c-0.829,0-1.5,0.672-1.5,1.5s0.671,1.5,1.5,1.5h1.287v1.146
	c0,0.828,0.671,1.5,1.5,1.5s1.5-0.672,1.5-1.5v-1.146h1.287c0.829,0,1.5-0.672,1.5-1.5s-0.671-1.5-1.5-1.5h-1.287v-1.602
	C52.43,49.644,54.385,47.26,54.385,44.422z M45.208,44.422c0-1.703,1.385-3.089,3.088-3.089c0.184,0,0.362,0.023,0.537,0.054
	c1.447,0.256,2.552,1.515,2.552,3.035c0,1.703-1.385,3.088-3.088,3.088c-1.137,0-2.121-0.624-2.657-1.54
	C45.373,45.513,45.208,44.988,45.208,44.422z"/>
</svg>
