<?xml version="1.0" encoding="utf-8"?>
<!-- Generator: Adobe Illustrator 17.0.2, SVG Export Plug-In . SVG Version: 6.00 Build 0)  -->
<!DOCTYPE svg PUBLIC "-//W3C//DTD SVG 1.1//EN" "http://www.w3.org/Graphics/SVG/1.1/DTD/svg11.dtd">
<svg version="1.1" id="Capa_1" xmlns="http://www.w3.org/2000/svg" xmlns:xlink="http://www.w3.org/1999/xlink" x="0px" y="0px"
	 width="64px" height="64px" viewBox="0 0 64 64" enable-background="new 0 0 64 64" xml:space="preserve">
<path d="M34.317,12.833C23.749,12.833,15.15,21.432,15.15,32s8.599,19.167,19.167,19.167S53.484,42.568,53.484,32
	S44.886,12.833,34.317,12.833z M34.317,48.167c-8.914,0-16.167-7.252-16.167-16.167s7.253-16.167,16.167-16.167
	S50.484,23.086,50.484,32S43.231,48.167,34.317,48.167z"/>
<path d="M34.422,21.785c-0.036,0-0.071,0-0.106,0c-2.689,0-5.225,1.034-7.147,2.919c-1.949,1.91-3.038,4.464-3.065,7.193
	c-0.009,0.828,0.656,1.507,1.484,1.515c0.006,0,0.011,0,0.016,0c0.821,0,1.491-0.662,1.5-1.485c0.02-1.927,0.788-3.731,2.165-5.081
	c1.358-1.331,3.148-2.062,5.048-2.062c0.025,0,0.051,0,0.075,0c1.928,0.02,3.732,0.789,5.081,2.166
	c1.349,1.376,2.081,3.196,2.061,5.124c-0.02,1.927-0.788,3.731-2.165,5.081c-1.358,1.331-3.148,2.062-5.048,2.062
	c-0.031,0-0.065,0.001-0.091,0c-0.821,0-1.491,0.662-1.5,1.485c-0.009,0.828,0.656,1.507,1.484,1.515c0.036,0,0.071,0,0.106,0
	c2.689,0,5.225-1.034,7.147-2.919c1.949-1.91,3.038-4.464,3.065-7.192c0.028-2.729-1.008-5.305-2.918-7.254
	C39.705,22.901,37.15,21.812,34.422,21.785z"/>
<path d="M6.834,30.726V46c0,0.829,0.672,1.5,1.5,1.5s1.5-0.671,1.5-1.5V30.635c0.895-0.183,1.873-0.51,2.93-1.048l0.82-0.417v-5.92
	c0-0.829-0.672-1.5-1.5-1.5s-1.5,0.671-1.5,1.5v4.036c-0.26,0.104-0.509,0.187-0.75,0.258V23.25c0-0.829-0.672-1.5-1.5-1.5
	s-1.5,0.671-1.5,1.5v4.432c-0.302-0.075-0.555-0.169-0.75-0.26V23.25c0-0.829-0.672-1.5-1.5-1.5s-1.5,0.671-1.5,1.5v5.679
	l0.51,0.448C3.675,29.448,4.832,30.419,6.834,30.726z"/>
<path d="M58.186,19.728c-0.168,0.064-0.325,0.161-0.466,0.288c-0.007,0.006-0.016,0.008-0.023,0.015
	c-0.146,0.136-3.549,3.381-3.618,7.75c-0.039,2.486,0.982,4.788,3.037,6.842c0.032,0.032,0.074,0.043,0.107,0.071V46
	c0,0.829,0.672,1.5,1.5,1.5s1.5-0.671,1.5-1.5V21.125c0-0.017-0.008-0.032-0.009-0.049c-0.006-0.147-0.03-0.293-0.078-0.434
	c-0.006-0.018-0.01-0.038-0.017-0.056c-0.064-0.166-0.16-0.322-0.286-0.462c-0.007-0.008-0.009-0.018-0.016-0.026
	c-0.004-0.004-0.009-0.005-0.013-0.009c-0.134-0.14-0.289-0.247-0.455-0.323c-0.01-0.004-0.018-0.011-0.027-0.015
	c-0.165-0.072-0.342-0.109-0.52-0.118c-0.016-0.001-0.031-0.004-0.047-0.005c-0.011,0-0.021-0.003-0.032-0.003
	c-0.171,0-0.332,0.035-0.485,0.087C58.222,19.718,58.203,19.722,58.186,19.728z M57.078,27.846c0.005-0.415,0.06-0.819,0.146-1.208
	v2.497C57.124,28.711,57.073,28.281,57.078,27.846z"/>
</svg>
