<?xml version="1.0" encoding="utf-8"?>
<!-- Generator: Adobe Illustrator 17.0.2, SVG Export Plug-In . SVG Version: 6.00 Build 0)  -->
<!DOCTYPE svg PUBLIC "-//W3C//DTD SVG 1.1//EN" "http://www.w3.org/Graphics/SVG/1.1/DTD/svg11.dtd">
<svg version="1.1" id="Capa_1" xmlns="http://www.w3.org/2000/svg" xmlns:xlink="http://www.w3.org/1999/xlink" x="0px" y="0px"
	 width="64px" height="64px" viewBox="0 0 64 64" enable-background="new 0 0 64 64" xml:space="preserve">
<path d="M52.203,21.286c0-11.094-9.025-20.119-20.119-20.119c-11.095,0-20.12,9.025-20.12,20.119c0,7.288,3.909,13.664,9.727,17.194
	l3.028,10.221h-3.117v5.825c0,3.72,3.025,6.745,6.745,6.745h7.473c3.72,0,6.745-3.025,6.745-6.745v-5.825h-3.117l3.029-10.221
	C48.295,34.95,52.203,28.574,52.203,21.286z M39.565,51.701v2.825c0,2.065-1.68,3.745-3.745,3.745h-7.473
	c-2.065,0-3.745-1.68-3.745-3.745v-2.825H39.565z M14.964,21.286c0-7.124,4.377-13.24,10.581-15.815
	c-2.413,3.655-3.942,9.324-3.942,15.815c0,5.093,0.944,9.677,2.514,13.186c0.431,0.963,0.908,1.843,1.427,2.629
	c-1.589-0.659-3.06-1.547-4.366-2.629C17.385,31.329,14.964,26.585,14.964,21.286z M49.203,21.286
	c0,5.299-2.421,10.043-6.215,13.186c-1.306,1.082-2.776,1.97-4.365,2.629c0.519-0.787,0.997-1.667,1.427-2.629
	c1.57-3.508,2.514-8.092,2.514-13.186c0-6.49-1.529-12.16-3.942-15.815C44.827,8.046,49.203,14.162,49.203,21.286z M29.814,37.472
	c-0.837-0.669-1.642-1.683-2.361-3c-1.658-3.038-2.85-7.645-2.85-13.186c0-10.089,3.942-17.119,7.481-17.119
	s7.481,7.03,7.481,17.119c0,5.54-1.192,10.148-2.85,13.186c-0.719,1.317-1.525,2.331-2.361,3c-0.748,0.598-1.517,0.934-2.27,0.934
	S30.562,38.07,29.814,37.472z M36.34,48.633h-8.512l-2.494-8.417c2.114,0.756,4.38,1.19,6.75,1.19s4.637-0.434,6.75-1.19
	L36.34,48.633z"/>
</svg>
