<?xml version="1.0" encoding="utf-8"?>
<!-- Generator: Adobe Illustrator 17.0.2, SVG Export Plug-In . SVG Version: 6.00 Build 0)  -->
<!DOCTYPE svg PUBLIC "-//W3C//DTD SVG 1.1//EN" "http://www.w3.org/Graphics/SVG/1.1/DTD/svg11.dtd">
<svg version="1.1" id="Capa_1" xmlns="http://www.w3.org/2000/svg" xmlns:xlink="http://www.w3.org/1999/xlink" x="0px" y="0px"
	 width="64px" height="64px" viewBox="0 0 64 64" enable-background="new 0 0 64 64" xml:space="preserve">
<path d="M62.181,54.896c0.082-0.106,0.148-0.229,0.21-0.398c0.031-0.095,0.051-0.195,0.061-0.309l0.008-23.931l-9.225,0.002
	l1.863-2.018l0.084-0.104c0.081-0.106,0.147-0.229,0.209-0.397c0.031-0.095,0.051-0.195,0.061-0.309L55.459,3.5L31.583,3.505
	c-0.128,0.004-0.253,0.026-0.425,0.083c-0.125,0.047-0.243,0.114-0.356,0.204l-6.125,5.651c-0.037,0.034-0.071,0.07-0.104,0.108
	H24.25V30.26L9.625,30.263c-0.129,0.004-0.254,0.027-0.428,0.083c-0.123,0.047-0.238,0.113-0.347,0.198l-6.136,5.66
	c-0.035,0.033-0.068,0.067-0.1,0.104H2.292v25.158h24.877l4.081-4.421v4.421h24.877l5.971-6.468L62.181,54.896z M28.465,9.551
	l3.68-3.4h18.79l-3.4,3.4H28.465z M6.507,36.309l3.68-3.4H24.25v1.801h2.926l-1.6,1.6H6.507z M26.875,31.908v-0.651v-0.499v-0.499
	V19.867H26.9v-7.666h19.857v7.666h0.024v10.394v0.497v0.52v0.63v0.5v0.15h-7.996H38.05h-0.959h-0.737h-0.73h-2.125h-0.498h-0.5
	H30.74h-0.707h-3.158v-0.15V31.908z M53.758,38.959v19.857H33.9V38.959H53.758z M35.465,36.309l1.731-1.6h11.931l1.662-1.801h7.145
	l-3.4,3.4H35.465z M49.524,30.758l-0.44,0.492v-0.492v-0.497V12.15l4.5-5.15v19.22l-3.615,4.041L49.524,30.758z M4.942,58.816
	V38.959H24.8v19.857H4.942z M27.084,39.15l3.881-4.441l0.437-0.5L31.584,34v0.209v0.5v1.589V53.22l-0.334,0.373l-4.166,4.657V39.15z
	 M56.084,39.15l4.5-5.15v19.22l-4.5,5.03V39.15z"/>
<path d="M16.702,40.495h-3.823c-0.178,0-0.342,0.094-0.432,0.248l-1.315,2.25c-0.091,0.155-0.091,0.346-0.002,0.501
	c0.089,0.155,0.255,0.251,0.434,0.251h2.244v13.117c0,0.276,0.224,0.5,0.5,0.5h2.395c0.276,0,0.5-0.224,0.5-0.5V40.995
	C17.202,40.718,16.979,40.495,16.702,40.495z"/>
<path d="M31.016,30.258c0.086,0.163,0.252,0.271,0.438,0.271h2.048h4.337h4.273c0.191,0,0.351-0.11,0.435-0.267
	c0.038-0.07,0.065-0.147,0.065-0.233v-2.251c0-0.276-0.224-0.5-0.5-0.5h-4.832l1.771-2.095c0.705-0.833,1.267-1.528,1.717-2.123
	c0.463-0.61,0.82-1.149,1.062-1.596c0.289-0.522,0.485-1.056,0.607-1.596c0.089-0.392,0.144-0.787,0.144-1.184
	c0-1.495-0.552-2.766-1.638-3.777c-1.07-1.003-2.409-1.512-3.979-1.512c-3.23,0-5.154,1.887-5.563,5.458
	c-0.016,0.141,0.029,0.283,0.124,0.39c0.095,0.106,0.23,0.167,0.373,0.167h2.384c0.253,0,0.466-0.188,0.496-0.439
	c0.266-2.158,1.416-2.408,2.258-2.408c0.64,0,1.158,0.2,1.586,0.61c0.423,0.406,0.628,0.897,0.628,1.5
	c0,0.345-0.124,0.746-0.359,1.194c-0.05,0.095-0.099,0.19-0.159,0.29c-0.182,0.311-0.453,0.706-0.806,1.174
	c-0.363,0.482-0.813,1.053-1.348,1.709l-5.509,6.67c-0.123,0.149-0.149,0.356-0.066,0.531
	C31.004,30.249,31.012,30.252,31.016,30.258z"/>
<path d="M43.798,57.619c1.624,0,2.982-0.502,4.037-1.493c1.062-0.999,1.601-2.297,1.601-3.858c0-1.651-0.554-2.928-1.649-3.804
	c0.925-0.862,1.393-1.988,1.393-3.358c0-1.427-0.496-2.611-1.474-3.52c-0.969-0.908-2.228-1.369-3.743-1.369
	c-1.498,0-2.693,0.395-3.553,1.173c-0.85,0.77-1.414,1.972-1.678,3.573c-0.024,0.145,0.017,0.292,0.112,0.405
	c0.095,0.112,0.234,0.176,0.381,0.176h2.384c0.235,0,0.438-0.164,0.488-0.393c0.146-0.667,0.366-1.154,0.625-1.397
	c0.268-0.237,0.674-0.357,1.209-0.357c0.583,0,1.038,0.166,1.395,0.512c0.351,0.329,0.521,0.751,0.521,1.291
	c0,0.701-0.23,1.188-0.706,1.492c-0.149,0.097-0.578,0.259-1.773,0.259c-0.276,0-0.5,0.224-0.5,0.5v2.045c0,0.276,0.224,0.5,0.5,0.5
	c1.043,0,1.562,0.175,1.81,0.32c0.604,0.359,0.896,0.965,0.896,1.852c0,0.68-0.203,1.223-0.616,1.653
	c-0.413,0.418-0.926,0.622-1.566,0.622c-0.649,0-1.153-0.161-1.54-0.491c-0.387-0.332-0.626-0.81-0.731-1.462
	c-0.039-0.242-0.248-0.42-0.493-0.42h-2.312c-0.142,0-0.275,0.06-0.37,0.164c-0.095,0.105-0.142,0.245-0.128,0.385
	c0.11,1.117,0.383,2.015,0.81,2.672C40.145,56.834,41.717,57.619,43.798,57.619z"/>
</svg>
