<?xml version="1.0" encoding="utf-8"?>
<!-- Generator: Adobe Illustrator 17.0.2, SVG Export Plug-In . SVG Version: 6.00 Build 0)  -->
<!DOCTYPE svg PUBLIC "-//W3C//DTD SVG 1.1//EN" "http://www.w3.org/Graphics/SVG/1.1/DTD/svg11.dtd">
<svg version="1.1" id="Capa_1" xmlns="http://www.w3.org/2000/svg" xmlns:xlink="http://www.w3.org/1999/xlink" x="0px" y="0px"
	 width="64px" height="64px" viewBox="0 0 64 64" enable-background="new 0 0 64 64" xml:space="preserve">
<path d="M57.794,40.62c2.642-4.476,2.943-9.382,0.807-13.124c-1.5-2.627-4.022-4.259-6.584-4.259c-1.618,0-3.135,0.635-4.386,1.836
	c-0.932,0.895-2.128,1.618-3.437,2.206c2.555-5.077,5.226-12.587,2.501-18.268c-2.116-4.413-7.002-6.883-14.519-7.342l-0.092-0.006
	l-0.092,0.006c-7.518,0.459-12.402,2.929-14.52,7.342c-2.724,5.681-0.054,13.19,2.502,18.267c-1.31-0.587-2.505-1.31-3.437-2.205
	c-1.251-1.201-2.768-1.836-4.386-1.836c-2.562,0-5.085,1.632-6.585,4.259c-2.136,3.741-1.834,8.647,0.808,13.124
	c3.125,5.294,9.275,7.937,14.779,9.26l-1.736,7.032c-0.267,1.079-0.056,2.161,0.578,2.971c0.635,0.81,1.635,1.274,2.746,1.274
	h18.685c1.11,0,2.111-0.464,2.745-1.273c0.635-0.809,0.846-1.892,0.58-2.972l-1.736-7.032C48.519,48.557,54.67,45.914,57.794,40.62z
	 M26.066,42.488c0.147-0.593,0.787-1.115,1.407-1.208c2.933,0.416,5.916,0.389,8.859-0.037h0.18c0.671,0,1.429,0.594,1.59,1.245
	l1.258,5.095c-3.535,0.575-6.398,0.617-7.1,0.617l-0.199-0.001l-0.15,0.001c-0.703,0-3.565-0.042-7.1-0.617L26.066,42.488z
	 M41.014,41.77c-0.12-0.488-0.333-0.949-0.613-1.368c1.596-0.437,3.166-0.989,4.694-1.653c2.175-0.945,0.296-4.12-1.86-3.182
	c-6.976,3.032-15.383,3.336-22.302,0c-2.13-1.027-4.001,2.15-1.86,3.182c1.509,0.727,3.061,1.306,4.641,1.749
	c-0.25,0.394-0.448,0.82-0.56,1.272l-1.291,5.23c-4.9-1.159-10.268-3.435-12.906-7.904c-2.088-3.537-2.382-7.317-0.786-10.112
	c0.967-1.694,2.492-2.747,3.979-2.747c0.841,0,1.617,0.336,2.308,1c2.016,1.936,4.892,3.194,7.741,4.013
	c0.719,0.207,1.436,0.386,2.138,0.54c0.413,0.091,0.819,0.173,1.218,0.248c3.466,0.651,6.293,0.726,6.56,0.731
	c0.237-0.005,3.047-0.081,6.505-0.731c0.395-0.074,0.798-0.155,1.207-0.246c0.701-0.155,1.419-0.334,2.138-0.541
	c2.847-0.819,5.725-2.078,7.742-4.014c0.69-0.664,1.467-1,2.308-1c1.487,0,3.012,1.052,3.979,2.747
	c1.596,2.794,1.302,6.575-0.786,10.112c-2.638,4.469-8.005,6.744-12.906,7.904L41.014,41.77z M20.18,10.306
	c1.604-3.34,5.608-5.236,11.904-5.636c6.295,0.4,10.3,2.296,11.904,5.636c2.697,5.615-1.517,14.171-3.979,18.369
	c-4.058,0.991-7.867,1.095-7.892,1.096c-0.065-0.001-3.893-0.105-7.959-1.098C21.695,24.475,17.483,15.92,20.18,10.306z
	 M41.839,57.629c0.043,0.175,0.032,0.326-0.028,0.403c-0.062,0.077-0.205,0.124-0.385,0.124H22.741c-0.18,0-0.323-0.046-0.384-0.124
	c-0.061-0.078-0.071-0.228-0.028-0.402l1.764-7.147c3.901,0.668,7.045,0.717,7.816,0.717l0.149-0.001l0.2,0.001
	c0.772,0,3.915-0.048,7.816-0.717L41.839,57.629z"/>
<path d="M35.417,10.667c4.838,0.436,4.678,5.626,3.22,9.101c-0.748,1.783,2.156,2.554,2.893,0.798
	c2.347-5.593,0.657-12.288-6.113-12.899C33.49,7.493,33.507,10.494,35.417,10.667z"/>
</svg>
