<?xml version="1.0" encoding="utf-8"?>
<!-- Generator: Adobe Illustrator 17.0.2, SVG Export Plug-In . SVG Version: 6.00 Build 0)  -->
<!DOCTYPE svg PUBLIC "-//W3C//DTD SVG 1.1//EN" "http://www.w3.org/Graphics/SVG/1.1/DTD/svg11.dtd">
<svg version="1.1" id="Capa_1" xmlns="http://www.w3.org/2000/svg" xmlns:xlink="http://www.w3.org/1999/xlink" x="0px" y="0px"
	 width="64px" height="64px" viewBox="0 0 64 64" enable-background="new 0 0 64 64" xml:space="preserve">
<path d="M45.622,19.218l2.932-0.556l-2.196-2.026c-0.032-0.029-3.16-2.969-3.734-8.354c-0.558-5.225-4.717-7.563-8.592-7.563
	c-0.806,0-1.544,0.107-2.148,0.311c-1.986,0.374-3.759,1.542-4.878,3.222c-1.074,1.612-1.433,3.509-1.008,5.341
	c0.949,4.105,3.124,5.936,7.049,5.936c0.752,0,1.601-0.064,2.571-0.196c0.959,1.537,3.229,4.113,7.672,4.113
	C44.035,19.445,44.82,19.369,45.622,19.218z M37.847,13.156l-0.437-1.154l-1.216,0.206c-1.271,0.215-2.3,0.319-3.148,0.319
	c-2.521,0-3.485-0.844-4.127-3.613c-0.235-1.018-0.028-2.084,0.582-3c0.688-1.032,1.788-1.744,3.017-1.952l0.278-0.075
	c0.105-0.04,0.508-0.169,1.235-0.169c0.85,0,5.113,0.235,5.609,4.881c0.367,3.448,1.598,6.06,2.707,7.786
	C39.002,15.951,37.893,13.269,37.847,13.156z"/>
<path d="M20.154,36.549c0,4.388,2.718,8.182,6.495,9.322l0.956,15.325h9.26l1.003-23.287V21.53c0-2.54-2.066-4.607-4.607-4.607
	c-1.522,0-5.846,2.002-6.974,5.16c-0.446,1.247-0.55,3.004,0.864,5.001C23.157,28.021,20.154,31.909,20.154,36.549z M29.011,29.87
	c0.265,0,0.546,0.027,0.887,0.087l1.757,0.305v-2.907l-0.55-0.45c-1.664-1.364-2.348-2.604-2.033-3.688
	c0.533-1.834,3.516-3.208,4.189-3.293c0.887,0,1.607,0.721,1.607,1.607l0.001,16.314l-0.877,20.352h-3.568L29.497,43.34
	l-1.211-0.171c-2.926-0.413-5.132-3.259-5.132-6.62C23.154,32.866,25.781,29.87,29.011,29.87z"/>
</svg>
