<?xml version="1.0" encoding="utf-8"?>
<!-- Generator: Adobe Illustrator 17.0.2, SVG Export Plug-In . SVG Version: 6.00 Build 0)  -->
<!DOCTYPE svg PUBLIC "-//W3C//DTD SVG 1.1//EN" "http://www.w3.org/Graphics/SVG/1.1/DTD/svg11.dtd">
<svg version="1.1" id="Capa_1" xmlns="http://www.w3.org/2000/svg" xmlns:xlink="http://www.w3.org/1999/xlink" x="0px" y="0px"
	 width="64px" height="64px" viewBox="0 0 64 64" enable-background="new 0 0 64 64" xml:space="preserve">
<path d="M61.084,44.5c0.828,0,1.5-0.672,1.5-1.5c0-16.817-13.683-30.5-30.5-30.5S1.584,26.183,1.584,43c0,0.828,0.672,1.5,1.5,1.5
	s1.5-0.672,1.5-1.5c0-15.163,12.337-27.5,27.5-27.5s27.5,12.337,27.5,27.5C59.584,43.828,60.256,44.5,61.084,44.5z"/>
<path d="M56.084,44.5c0.828,0,1.5-0.672,1.5-1.5c0-14.061-11.439-25.5-25.5-25.5S6.584,28.939,6.584,43c0,0.828,0.672,1.5,1.5,1.5
	s1.5-0.672,1.5-1.5c0-12.406,10.094-22.5,22.5-22.5s22.5,10.094,22.5,22.5C54.584,43.828,55.256,44.5,56.084,44.5z"/>
<path d="M51.334,44.5c0.828,0,1.5-0.672,1.5-1.5c0-11.441-9.309-20.75-20.75-20.75S11.334,31.559,11.334,43
	c0,0.828,0.672,1.5,1.5,1.5s1.5-0.672,1.5-1.5c0-9.787,7.963-17.75,17.75-17.75s17.75,7.963,17.75,17.75
	C49.834,43.828,50.506,44.5,51.334,44.5z"/>
<path d="M32.084,27.174c-8.631,0-15.652,7.021-15.652,15.652c0,0.828,0.672,1.5,1.5,1.5s1.5-0.672,1.5-1.5
	c0-6.977,5.676-12.652,12.652-12.652s12.652,5.676,12.652,12.652c0,0.828,0.672,1.5,1.5,1.5s1.5-0.672,1.5-1.5
	C47.736,34.195,40.715,27.174,32.084,27.174z"/>
</svg>
