<?xml version="1.0" encoding="utf-8"?>
<!-- Generator: Adobe Illustrator 17.0.2, SVG Export Plug-In . SVG Version: 6.00 Build 0)  -->
<!DOCTYPE svg PUBLIC "-//W3C//DTD SVG 1.1//EN" "http://www.w3.org/Graphics/SVG/1.1/DTD/svg11.dtd">
<svg version="1.1" id="Capa_1" xmlns="http://www.w3.org/2000/svg" xmlns:xlink="http://www.w3.org/1999/xlink" x="0px" y="0px"
	 width="64px" height="64px" viewBox="0 0 64 64" enable-background="new 0 0 64 64" xml:space="preserve">
<path d="M13.795,60.166c0.458,0.459,1.03,0.711,1.608,0.711c0.967,0,1.766-0.668,2.033-1.705l3.997-15.47
	c0.055-0.215,0.076-0.425,0.078-0.63l11.73-11.73c3.082,2.593,6.935,4.013,11.01,4.013c4.58,0,8.885-1.783,12.123-5.021
	c3.238-3.238,5.021-7.543,5.021-12.123s-1.783-8.885-5.021-12.123C53.135,2.851,48.83,1.067,44.25,1.067
	c-4.579,0-8.884,1.783-12.122,5.021c-3.238,3.238-5.021,7.543-5.021,12.123c0,4.075,1.419,7.928,4.012,11.01L19.388,40.952
	c-0.207,0.001-0.418,0.022-0.63,0.077L3.29,45.025c-0.836,0.216-1.433,0.766-1.636,1.51c-0.203,0.744,0.031,1.521,0.642,2.132
	L13.795,60.166z M30.107,18.211c0-3.039,0.966-5.923,2.729-8.329c0.29,0.289,0.705,0.458,1.233,0.371
	c1.37-0.226,1.5-1.808,0.763-2.571c2.596-2.327,5.905-3.614,9.418-3.614c3.778,0,7.33,1.471,10.001,4.142
	c2.671,2.671,4.143,6.224,4.143,10.001c0,3.612-1.358,7.009-3.811,9.635c-0.75-0.796-2.42-0.663-2.623,0.751
	c-0.075,0.519,0.093,0.924,0.377,1.208c-2.356,1.651-5.151,2.55-8.087,2.55c-3.778,0-7.33-1.471-10.001-4.143
	S30.107,21.989,30.107,18.211z M17.484,44.444l0.524,0.524l-3.114,12.055l-9.455-9.456L17.484,44.444z"/>
<path d="M34.011,11.951c-1.909,0.315-1.421,3.275,0.488,2.96C36.408,14.597,35.92,11.637,34.011,11.951z"/>
<path d="M36.571,20.313c1.909-0.315,1.421-3.275-0.488-2.96C34.175,17.667,34.663,20.627,36.571,20.313z"/>
<path d="M50.264,28.69c0.276-1.915-2.694-2.342-2.969-0.427C47.019,30.178,49.988,30.605,50.264,28.69z"/>
<path d="M44.821,26.729c0.276-1.915-2.694-2.342-2.969-0.427S44.545,28.643,44.821,26.729z"/>
<path d="M39.358,24.921c1.909-0.315,1.421-3.275-0.488-2.96C36.961,22.275,37.449,25.236,39.358,24.921z"/>
</svg>
