<?xml version="1.0" encoding="utf-8"?>
<!-- Generator: Adobe Illustrator 17.0.2, SVG Export Plug-In . SVG Version: 6.00 Build 0)  -->
<!DOCTYPE svg PUBLIC "-//W3C//DTD SVG 1.1//EN" "http://www.w3.org/Graphics/SVG/1.1/DTD/svg11.dtd">
<svg version="1.1" id="Capa_1" xmlns="http://www.w3.org/2000/svg" xmlns:xlink="http://www.w3.org/1999/xlink" x="0px" y="0px"
	 width="64px" height="64px" viewBox="0 0 64 64" enable-background="new 0 0 64 64" xml:space="preserve">
<path d="M28.986,44.214c2.171,1.087,4.71,1.638,7.546,1.638c6.68,0,14.354-3.187,19.097-7.93c3.973-3.973,6.161-9.255,6.161-14.874
	c0-5.619-2.188-10.901-6.161-14.874c-3.973-3.973-9.255-6.161-14.873-6.161c-5.619,0-10.901,2.188-14.874,6.161
	c-0.161,0.161-0.314,0.342-0.472,0.51c-0.32,0.171-0.535,0.422-0.658,0.712c-5.575,6.488-8.936,17.579-5.308,25.121
	C20.49,36.696,26.823,43.13,28.986,44.214z M40.756,5.013c4.816,0,9.346,1.876,12.752,5.282s5.282,7.935,5.282,12.752
	c0,4.411-1.589,8.57-4.47,11.857c-2.771-1.881-2.18-8.036-4.17-10.612c-2.459-3.183-6.787-3.08-10.438-3.777
	c-3.689-0.704-2.991-7.016-5.104-9.63c-1.241-1.536-2.602-2.349-4.115-2.657C33.487,6.145,37.032,5.013,40.756,5.013z
	 M26.726,11.726c7.99-1.975,5.363,5.523,7.816,9.342c1.413,2.2,3.725,2.55,6.168,3.016c2.049,0.391,4.742,0.345,6.455,1.74
	c1.734,1.412,1.988,5.376,2.125,7.413c0.132,1.956,1.083,3.161,2.508,4.088c-4.211,3.362-10.076,5.527-15.266,5.527
	c-2.365,0-4.452-0.444-6.202-1.32c-1.598-0.8-7.41-6.705-8.184-8.313C19.147,26.98,22.055,17.422,26.726,11.726z"/>
<path d="M11.616,62.376c2.722,0,5.28-1.06,7.204-2.984c1.712-1.712,2.753-3.979,2.944-6.4c0.353-1.273,0.736-1.732,0.785-1.769
	c0.531,0.217,1.067,0.327,1.593,0.327c2.199,0,3.584-1.89,4.056-3.007l0.393-0.93L16.107,35.128l-0.931,0.393
	c-1.697,0.717-3.804,2.793-2.689,5.63c-0.188,0.2-0.891,0.657-2.5,0.986c-0.18,0.029-0.359,0.061-0.469,0.087
	c-0.187,0.031-0.312,0.048-0.323,0.05L8.68,42.43c-1.605,0.482-3.08,1.364-4.267,2.551c-0.261,0.26-0.514,0.545-0.77,0.868
	c-0.113,0.142-0.221,0.287-0.292,0.395c-2.934,4.072-2.487,9.601,1.061,13.148C6.336,61.316,8.895,62.376,11.616,62.376z
	 M5.813,47.958c0.053-0.079,0.109-0.156,0.175-0.237c0.168-0.212,0.347-0.419,0.546-0.618c0.849-0.85,1.904-1.477,3.053-1.813
	l0.195-0.07c0.078-0.012,0.18-0.029,0.305-0.05c0.125-0.027,0.25-0.05,0.438-0.081c2.438-0.497,4.003-1.365,4.652-2.579
	c0.411-0.769,0.444-1.625,0.098-2.475c-0.211-0.517-0.013-0.925,0.277-1.22l9.343,9.343c-0.308,0.318-0.682,0.501-1.21,0.287
	c-0.383-0.156-0.772-0.236-1.156-0.236c-1.188,0-2.795,0.72-3.7,4.148l-0.047,0.288c-0.11,1.75-0.851,3.393-2.082,4.625
	c-1.357,1.357-3.163,2.105-5.083,2.105s-3.726-0.748-5.083-2.105C4.031,54.769,3.717,50.869,5.813,47.958z"/>
<path d="M11.616,57.665c1.464,0,2.839-0.57,3.873-1.604c2.136-2.136,2.136-5.611,0-7.747c-1.034-1.035-2.409-1.604-3.873-1.604
	s-2.84,0.57-3.874,1.604c-1.035,1.035-1.604,2.41-1.604,3.874s0.569,2.839,1.604,3.874C8.776,57.095,10.152,57.665,11.616,57.665z
	 M9.863,50.435c0.468-0.468,1.091-0.726,1.753-0.726s1.284,0.257,1.752,0.726c0.966,0.966,0.966,2.539,0,3.505
	c-0.936,0.937-2.569,0.937-3.505,0C8.897,52.973,8.897,51.401,9.863,50.435z"/>
</svg>
