<?xml version="1.0" encoding="utf-8"?>
<!-- Generator: Adobe Illustrator 17.0.2, SVG Export Plug-In . SVG Version: 6.00 Build 0)  -->
<!DOCTYPE svg PUBLIC "-//W3C//DTD SVG 1.1//EN" "http://www.w3.org/Graphics/SVG/1.1/DTD/svg11.dtd">
<svg version="1.1" id="Capa_1" xmlns="http://www.w3.org/2000/svg" xmlns:xlink="http://www.w3.org/1999/xlink" x="0px" y="0px"
	 width="64px" height="64px" viewBox="0 0 64 64" enable-background="new 0 0 64 64" xml:space="preserve">
<path d="M32.489,1.829c-7.916,0-14.356,6.44-14.356,14.356c0,6.931,3.915,12.353,9.875,13.896c-0.007,0.437-0.01,0.92-0.013,1.437
	c-0.021,3.159-0.055,8.447-1.047,10.51c-1.45,3.013-1.983,7.687-2.168,10.152c-0.052,0.475-0.076,0.871-0.076,1.248
	c0,5.14,3.492,9.321,7.785,9.321c4.292,0,7.784-4.182,7.784-9.321c0-0.39-0.024-0.787-0.071-1.197
	c-0.189-2.519-0.723-7.192-2.172-10.203c-0.992-2.062-1.026-7.351-1.047-10.51c-0.003-0.517-0.006-1-0.013-1.437
	c5.959-1.544,9.874-6.966,9.874-13.896C46.845,8.27,40.405,1.829,32.489,1.829z M35.203,27.389l-1.339,0.21l0.073,1.354
	c0.035,0.633,0.04,1.535,0.047,2.586c0.024,3.849,0.058,9.12,1.343,11.791c1.281,2.662,1.743,7.27,1.889,9.183
	c0.033,0.301,0.058,0.604,0.058,0.917c0,3.485-2.146,6.321-4.784,6.321c-2.639,0-4.785-2.836-4.785-6.321
	c0-0.312,0.025-0.618,0.063-0.972c0.14-1.857,0.602-6.464,1.884-9.128c1.285-2.671,1.318-7.942,1.343-11.791
	c0.007-1.051,0.012-1.953,0.047-2.586l0.073-1.354l-1.339-0.21c-5.169-0.812-8.643-5.313-8.643-11.203
	c0-6.262,5.095-11.356,11.356-11.356s11.355,5.095,11.355,11.356C43.845,22.075,40.372,26.577,35.203,27.389z"/>
<path d="M28.941,52.833c0,2.606,1.559,4.647,3.548,4.647s3.548-2.041,3.548-4.647c0-2.605-1.559-4.646-3.548-4.646
	S28.941,50.228,28.941,52.833z M32.489,54.464c-0.186-0.132-0.548-0.707-0.548-1.631c0-0.994,0.421-1.585,0.508-1.652
	c0.167,0.067,0.588,0.658,0.588,1.652C33.037,53.757,32.675,54.332,32.489,54.464z"/>
<path d="M38.752,12.898c-2.138,0-3.871,0-3.871,0l-1.196-3.681c-0.661-2.033-1.732-2.033-2.392,0s-1.196,3.681-1.196,3.681h-3.871
	c-2.138,0-2.469,1.019-0.739,2.275c1.729,1.257,3.132,2.275,3.132,2.275l-1.196,3.681c-0.661,2.033,0.206,2.663,1.935,1.406
	c1.73-1.257,3.132-2.275,3.132-2.275l3.132,2.275c1.729,1.257,2.596,0.627,1.935-1.406c-0.661-2.033-1.196-3.681-1.196-3.681
	l3.132-2.275C41.221,13.916,40.89,12.898,38.752,12.898z"/>
<path d="M16.385,10.598c0.412-0.719,0.165-1.636-0.554-2.048c-0.718-0.411-1.635-0.164-2.048,0.554
	c-1.275,2.222-1.95,4.758-1.95,7.334c0,2.574,0.674,5.11,1.949,7.332c0.277,0.483,0.782,0.754,1.302,0.754
	c0.254,0,0.51-0.063,0.745-0.199c0.719-0.412,0.967-1.329,0.555-2.047c-0.631-1.101-1.054-2.304-1.3-3.546
	c-0.15-0.754-0.25-1.519-0.25-2.294c0-0.775,0.101-1.541,0.251-2.295C15.331,12.9,15.753,11.698,16.385,10.598z"/>
<path d="M11.273,5.211C10.556,4.797,9.64,5.046,9.227,5.766C7.37,8.999,6.39,12.689,6.39,16.438s0.98,7.438,2.836,10.671
	c0.277,0.483,0.782,0.754,1.302,0.754c0.254,0,0.51-0.063,0.745-0.199c0.719-0.412,0.967-1.329,0.555-2.047
	c-0.516-0.9-0.945-1.844-1.3-2.815c-0.743-2.028-1.137-4.182-1.137-6.364c0-2.181,0.395-4.335,1.138-6.363
	c0.356-0.971,0.784-1.916,1.301-2.816C12.24,6.54,11.992,5.623,11.273,5.211z"/>
<path d="M49.144,8.55c-0.719,0.412-0.967,1.329-0.555,2.047c0.632,1.101,1.054,2.306,1.301,3.549c0.149,0.753,0.25,1.517,0.25,2.291
	c0,0.774-0.1,1.538-0.25,2.291c-0.247,1.244-0.669,2.448-1.3,3.549c-0.412,0.718-0.164,1.635,0.555,2.047
	c0.235,0.136,0.491,0.199,0.745,0.199c0.52,0,1.024-0.271,1.302-0.754c1.274-2.221,1.948-4.756,1.948-7.332
	c0-2.575-0.674-5.111-1.949-7.333C50.777,8.385,49.86,8.136,49.144,8.55z"/>
<path d="M53.146,25.616c-0.412,0.718-0.164,1.635,0.555,2.047c0.235,0.136,0.491,0.199,0.745,0.199c0.52,0,1.024-0.271,1.302-0.754
	c1.855-3.232,2.836-6.923,2.836-10.671s-0.98-7.438-2.837-10.672c-0.413-0.72-1.33-0.969-2.047-0.555
	c-0.719,0.412-0.967,1.329-0.555,2.047c0.516,0.9,0.945,1.845,1.301,2.816c0.743,2.029,1.138,4.183,1.138,6.364
	c0,2.182-0.394,4.336-1.137,6.365C54.091,23.773,53.663,24.717,53.146,25.616z"/>
</svg>
