<?xml version="1.0" encoding="utf-8"?>
<!-- Generator: Adobe Illustrator 18.1.0, SVG Export Plug-In . SVG Version: 6.00 Build 0)  -->
<svg version="1.1" id="Layer_1" xmlns="http://www.w3.org/2000/svg" xmlns:xlink="http://www.w3.org/1999/xlink" x="0px" y="0px"
	 viewBox="-284 311.6 63.6 63.6" enable-background="new -284 311.6 63.6 63.6" xml:space="preserve">
<g>
	<defs>
		<path id="SVGID_1_" d="M-227.9,375.2h-48.6c-4.1,0-7.5-3.4-7.5-7.5v-48.6c0-4.1,3.4-7.5,7.5-7.5h48.6c4.1,0,7.5,3.4,7.5,7.5v48.6
			C-220.4,371.8-223.8,375.2-227.9,375.2z"/>
	</defs>
	<clipPath id="SVGID_2_">
		<use xlink:href="#SVGID_1_"  overflow="visible"/>
	</clipPath>
	<path clip-path="url(#SVGID_2_)" fill="#1BA1E2" d="M-227.9,375.2h-48.6c-4.1,0-7.5-3.4-7.5-7.5v-48.6c0-4.1,3.4-7.5,7.5-7.5h48.6
		c4.1,0,7.5,3.4,7.5,7.5v48.6C-220.4,371.8-223.8,375.2-227.9,375.2z"/>
	<g opacity="0.4" clip-path="url(#SVGID_2_)">
		<g>
			<g>
				<path fill="#1BA1E2" d="M-188.9,385.1v-0.2c0-4.6-3.8-8.4-8.4-8.4h-3.2v-1.9c0.6-0.6,1-1.4,1-2.3c0-1.7-1.4-3.1-3.1-3.1
					c-1.7,0-3.1,1.4-3.1,3.1c0,0.9,0.4,1.8,1.1,2.3v1.9h-3.2c-4.6,0-8.4,3.8-8.4,8.4v0.2h-3v10.4h3c0,0.2,0,4.7,0,4.9h27.2
					c0-0.2,0-4.7,0-4.9h3.4v-10.4L-188.9,385.1L-188.9,385.1z M-209.1,394.4c-2.7,0-4.9-2.2-4.9-4.9c0-2.7,2.2-4.9,4.9-4.9
					c2.7,0,4.9,2.2,4.9,4.9C-204.2,392.3-206.4,394.4-209.1,394.4z M-196.2,394.4c-2.7,0-4.9-2.2-4.9-4.9c0-2.7,2.2-4.9,4.9-4.9
					c2.7,0,4.9,2.2,4.9,4.9C-191.4,392.3-193.6,394.4-196.2,394.4z"/>
				<path fill="#1BA1E2" d="M-209.4,409.1h13.5c3.8,0,6.9-3.1,6.9-6.9h-27.2C-216.2,406.1-213.2,409.1-209.4,409.1z"/>
			</g>
		</g>
		<g>
			<g>
				<path fill="#1BA1E2" d="M-189.4,384.6v-0.2c0-4.6-3.8-8.4-8.4-8.4h-3.2v-1.9c0.6-0.6,1-1.4,1-2.3c0-1.7-1.4-3.1-3.1-3.1
					c-1.7,0-3.1,1.4-3.1,3.1c0,0.9,0.4,1.8,1.1,2.3v1.9h-3.2c-4.6,0-8.4,3.8-8.4,8.4v0.2h-3v10.4h3c0,0.2,0,4.7,0,4.9h27.2
					c0-0.2,0-4.7,0-4.9h3.4v-10.4L-189.4,384.6L-189.4,384.6z M-209.6,393.9c-2.7,0-4.9-2.2-4.9-4.9c0-2.7,2.2-4.9,4.9-4.9
					c2.7,0,4.9,2.2,4.9,4.9C-204.7,391.8-206.9,393.9-209.6,393.9z M-196.7,393.9c-2.7,0-4.9-2.2-4.9-4.9c0-2.7,2.2-4.9,4.9-4.9
					c2.7,0,4.9,2.2,4.9,4.9C-191.9,391.8-194.1,393.9-196.7,393.9z"/>
				<path fill="#1BA1E2" d="M-209.9,408.6h13.5c3.8,0,6.9-3.1,6.9-6.9h-27.2C-216.7,405.6-213.7,408.6-209.9,408.6z"/>
			</g>
		</g>
		<g>
			<g>
				<path fill="#1BA1E2" d="M-189.9,384.1v-0.2c0-4.6-3.8-8.4-8.4-8.4h-3.2v-1.9c0.6-0.6,1-1.4,1-2.3c0-1.7-1.4-3.1-3.1-3.1
					c-1.7,0-3.1,1.4-3.1,3.1c0,0.9,0.4,1.8,1.1,2.3v1.9h-3.2c-4.6,0-8.4,3.8-8.4,8.4v0.2h-3v10.4h3c0,0.2,0,4.7,0,4.9h27.2
					c0-0.2,0-4.7,0-4.9h3.4v-10.4L-189.9,384.1L-189.9,384.1z M-210.1,393.4c-2.7,0-4.9-2.2-4.9-4.9c0-2.7,2.2-4.9,4.9-4.9
					c2.7,0,4.9,2.2,4.9,4.9C-205.2,391.3-207.4,393.4-210.1,393.4z M-197.2,393.4c-2.7,0-4.9-2.2-4.9-4.9c0-2.7,2.2-4.9,4.9-4.9
					c2.7,0,4.9,2.2,4.9,4.9C-192.4,391.3-194.6,393.4-197.2,393.4z"/>
				<path fill="#1BA1E2" d="M-210.4,408.1h13.5c3.8,0,6.9-3.1,6.9-6.9h-27.2C-217.2,405.1-214.2,408.1-210.4,408.1z"/>
			</g>
		</g>
		<g>
			<g>
				<path fill="#1BA1E2" d="M-190.4,383.6v-0.2c0-4.6-3.8-8.4-8.4-8.4h-3.2v-1.9c0.6-0.6,1-1.4,1-2.3c0-1.7-1.4-3.1-3.1-3.1
					c-1.7,0-3.1,1.4-3.1,3.1c0,0.9,0.4,1.8,1.1,2.3v1.9h-3.2c-4.6,0-8.4,3.8-8.4,8.4v0.2h-3v10.4h3c0,0.2,0,4.7,0,4.9h27.2
					c0-0.2,0-4.7,0-4.9h3.4v-10.4L-190.4,383.6L-190.4,383.6z M-210.6,392.9c-2.7,0-4.9-2.2-4.9-4.9c0-2.7,2.2-4.9,4.9-4.9
					c2.7,0,4.9,2.2,4.9,4.9C-205.7,390.8-207.9,392.9-210.6,392.9z M-197.7,392.9c-2.7,0-4.9-2.2-4.9-4.9c0-2.7,2.2-4.9,4.9-4.9
					c2.7,0,4.9,2.2,4.9,4.9C-192.9,390.8-195.1,392.9-197.7,392.9z"/>
				<path fill="#1BA1E2" d="M-210.9,407.6h13.5c3.8,0,6.9-3.1,6.9-6.9h-27.2C-217.7,404.6-214.7,407.6-210.9,407.6z"/>
			</g>
		</g>
		<g>
			<g>
				<path fill="#1BA1E2" d="M-190.9,383.1v-0.2c0-4.6-3.8-8.4-8.4-8.4h-3.2v-1.9c0.6-0.6,1-1.4,1-2.3c0-1.7-1.4-3.1-3.1-3.1
					c-1.7,0-3.1,1.4-3.1,3.1c0,0.9,0.4,1.8,1.1,2.3v1.9h-3.2c-4.6,0-8.4,3.8-8.4,8.4v0.2h-3v10.4h3c0,0.2,0,4.7,0,4.9h27.2
					c0-0.2,0-4.7,0-4.9h3.4v-10.4L-190.9,383.1L-190.9,383.1z M-211.1,392.4c-2.7,0-4.9-2.2-4.9-4.9c0-2.7,2.2-4.9,4.9-4.9
					c2.7,0,4.9,2.2,4.9,4.9C-206.2,390.3-208.4,392.4-211.1,392.4z M-198.2,392.4c-2.7,0-4.9-2.2-4.9-4.9c0-2.7,2.2-4.9,4.9-4.9
					c2.7,0,4.9,2.2,4.9,4.9C-193.4,390.3-195.6,392.4-198.2,392.4z"/>
				<path fill="#1BA1E2" d="M-211.4,407.1h13.5c3.8,0,6.9-3.1,6.9-6.9h-27.2C-218.2,404.1-215.2,407.1-211.4,407.1z"/>
			</g>
		</g>
		<g>
			<g>
				<path fill="#1BA1E2" d="M-191.4,382.6v-0.2c0-4.6-3.8-8.4-8.4-8.4h-3.2v-1.9c0.6-0.6,1-1.4,1-2.3c0-1.7-1.4-3.1-3.1-3.1
					c-1.7,0-3.1,1.4-3.1,3.1c0,0.9,0.4,1.8,1.1,2.3v1.9h-3.2c-4.6,0-8.4,3.8-8.4,8.4v0.2h-3v10.4h3c0,0.2,0,4.7,0,4.9h27.2
					c0-0.2,0-4.7,0-4.9h3.4v-10.4L-191.4,382.6L-191.4,382.6z M-211.6,391.9c-2.7,0-4.9-2.2-4.9-4.9c0-2.7,2.2-4.9,4.9-4.9
					c2.7,0,4.9,2.2,4.9,4.9C-206.7,389.8-208.9,391.9-211.6,391.9z M-198.7,391.9c-2.7,0-4.9-2.2-4.9-4.9c0-2.7,2.2-4.9,4.9-4.9
					c2.7,0,4.9,2.2,4.9,4.9C-193.9,389.8-196.1,391.9-198.7,391.9z"/>
				<path fill="#1BA1E2" d="M-211.9,406.6h13.5c3.8,0,6.9-3.1,6.9-6.9h-27.2C-218.7,403.6-215.7,406.6-211.9,406.6z"/>
			</g>
		</g>
		<g>
			<g>
				<path fill="#1BA1E2" d="M-191.9,382.1v-0.2c0-4.6-3.8-8.4-8.4-8.4h-3.2v-1.9c0.6-0.6,1-1.4,1-2.3c0-1.7-1.4-3.1-3.1-3.1
					c-1.7,0-3.1,1.4-3.1,3.1c0,0.9,0.4,1.8,1.1,2.3v1.9h-3.2c-4.6,0-8.4,3.8-8.4,8.4v0.2h-3v10.4h3c0,0.2,0,4.7,0,4.9h27.2
					c0-0.2,0-4.7,0-4.9h3.4v-10.4L-191.9,382.1L-191.9,382.1z M-212.1,391.4c-2.7,0-4.9-2.2-4.9-4.9c0-2.7,2.2-4.9,4.9-4.9
					c2.7,0,4.9,2.2,4.9,4.9C-207.2,389.3-209.4,391.4-212.1,391.4z M-199.2,391.4c-2.7,0-4.9-2.2-4.9-4.9c0-2.7,2.2-4.9,4.9-4.9
					c2.7,0,4.9,2.2,4.9,4.9C-194.4,389.3-196.6,391.4-199.2,391.4z"/>
				<path fill="#1BA1E2" d="M-212.4,406.1h13.5c3.8,0,6.9-3.1,6.9-6.9h-27.2C-219.2,403.1-216.2,406.1-212.4,406.1z"/>
			</g>
		</g>
		<g>
			<g>
				<path fill="#1BA1E2" d="M-192.4,381.6v-0.2c0-4.6-3.8-8.4-8.4-8.4h-3.2v-1.9c0.6-0.6,1-1.4,1-2.3c0-1.7-1.4-3.1-3.1-3.1
					c-1.7,0-3.1,1.4-3.1,3.1c0,0.9,0.4,1.8,1.1,2.3v1.9h-3.2c-4.6,0-8.4,3.8-8.4,8.4v0.2h-3v10.4h3c0,0.2,0,4.7,0,4.9h27.2
					c0-0.2,0-4.7,0-4.9h3.4v-10.4L-192.4,381.6L-192.4,381.6z M-212.6,390.9c-2.7,0-4.9-2.2-4.9-4.9c0-2.7,2.2-4.9,4.9-4.9
					c2.7,0,4.9,2.2,4.9,4.9C-207.7,388.8-209.9,390.9-212.6,390.9z M-199.7,390.9c-2.7,0-4.9-2.2-4.9-4.9c0-2.7,2.2-4.9,4.9-4.9
					c2.7,0,4.9,2.2,4.9,4.9C-194.9,388.8-197.1,390.9-199.7,390.9z"/>
				<path fill="#1BA1E2" d="M-212.9,405.6h13.5c3.8,0,6.9-3.1,6.9-6.9h-27.2C-219.7,402.6-216.7,405.6-212.9,405.6z"/>
			</g>
		</g>
		<g>
			<g>
				<path fill="#1BA1E2" d="M-192.9,381.1v-0.2c0-4.6-3.8-8.4-8.4-8.4h-3.2v-1.9c0.6-0.6,1-1.4,1-2.3c0-1.7-1.4-3.1-3.1-3.1
					c-1.7,0-3.1,1.4-3.1,3.1c0,0.9,0.4,1.8,1.1,2.3v1.9h-3.2c-4.6,0-8.4,3.8-8.4,8.4v0.2h-3v10.4h3c0,0.2,0,4.7,0,4.9h27.2
					c0-0.2,0-4.7,0-4.9h3.4v-10.4L-192.9,381.1L-192.9,381.1z M-213.1,390.4c-2.7,0-4.9-2.2-4.9-4.9c0-2.7,2.2-4.9,4.9-4.9
					c2.7,0,4.9,2.2,4.9,4.9C-208.2,388.3-210.4,390.4-213.1,390.4z M-200.2,390.4c-2.7,0-4.9-2.2-4.9-4.9c0-2.7,2.2-4.9,4.9-4.9
					c2.7,0,4.9,2.2,4.9,4.9C-195.4,388.3-197.6,390.4-200.2,390.4z"/>
				<path fill="#1BA1E2" d="M-213.4,405.1h13.5c3.8,0,6.9-3.1,6.9-6.9h-27.2C-220.2,402.1-217.2,405.1-213.4,405.1z"/>
			</g>
		</g>
		<g>
			<g>
				<path fill="#1BA1E2" d="M-193.4,380.6v-0.2c0-4.6-3.8-8.4-8.4-8.4h-3.2v-1.9c0.6-0.6,1-1.4,1-2.3c0-1.7-1.4-3.1-3.1-3.1
					c-1.7,0-3.1,1.4-3.1,3.1c0,0.9,0.4,1.8,1.1,2.3v1.9h-3.2c-4.6,0-8.4,3.8-8.4,8.4v0.2h-3v10.4h3c0,0.2,0,4.7,0,4.9h27.2
					c0-0.2,0-4.7,0-4.9h3.4v-10.4L-193.4,380.6L-193.4,380.6z M-213.6,389.9c-2.7,0-4.9-2.2-4.9-4.9c0-2.7,2.2-4.9,4.9-4.9
					c2.7,0,4.9,2.2,4.9,4.9C-208.7,387.8-210.9,389.9-213.6,389.9z M-200.7,389.9c-2.7,0-4.9-2.2-4.9-4.9c0-2.7,2.2-4.9,4.9-4.9
					c2.7,0,4.9,2.2,4.9,4.9C-195.9,387.8-198.1,389.9-200.7,389.9z"/>
				<path fill="#1BA1E2" d="M-213.9,404.6h13.5c3.8,0,6.9-3.1,6.9-6.9h-27.2C-220.7,401.6-217.7,404.6-213.9,404.6z"/>
			</g>
		</g>
		<g>
			<g>
				<path fill="#1BA1E2" d="M-193.9,380.1v-0.2c0-4.6-3.8-8.4-8.4-8.4h-3.2v-1.9c0.6-0.6,1-1.4,1-2.3c0-1.7-1.4-3.1-3.1-3.1
					c-1.7,0-3.1,1.4-3.1,3.1c0,0.9,0.4,1.8,1.1,2.3v1.9h-3.2c-4.6,0-8.4,3.8-8.4,8.4v0.2h-3v10.4h3c0,0.2,0,4.7,0,4.9h27.2
					c0-0.2,0-4.7,0-4.9h3.4v-10.4L-193.9,380.1L-193.9,380.1z M-214.1,389.4c-2.7,0-4.9-2.2-4.9-4.9c0-2.7,2.2-4.9,4.9-4.9
					c2.7,0,4.9,2.2,4.9,4.9C-209.2,387.3-211.4,389.4-214.1,389.4z M-201.2,389.4c-2.7,0-4.9-2.2-4.9-4.9c0-2.7,2.2-4.9,4.9-4.9
					c2.7,0,4.9,2.2,4.9,4.9C-196.4,387.3-198.6,389.4-201.2,389.4z"/>
				<path fill="#1BA1E2" d="M-214.4,404.1h13.5c3.8,0,6.9-3.1,6.9-6.9h-27.2C-221.2,401.1-218.2,404.1-214.4,404.1z"/>
			</g>
		</g>
		<g>
			<g>
				<path fill="#1BA1E2" d="M-194.4,379.6v-0.2c0-4.6-3.8-8.4-8.4-8.4h-3.2v-1.9c0.6-0.6,1-1.4,1-2.3c0-1.7-1.4-3.1-3.1-3.1
					c-1.7,0-3.1,1.4-3.1,3.1c0,0.9,0.4,1.8,1.1,2.3v1.9h-3.2c-4.6,0-8.4,3.8-8.4,8.4v0.2h-3v10.4h3c0,0.2,0,4.7,0,4.9h27.2
					c0-0.2,0-4.7,0-4.9h3.4v-10.4L-194.4,379.6L-194.4,379.6z M-214.6,388.9c-2.7,0-4.9-2.2-4.9-4.9c0-2.7,2.2-4.9,4.9-4.9
					c2.7,0,4.9,2.2,4.9,4.9C-209.7,386.8-211.9,388.9-214.6,388.9z M-201.7,388.9c-2.7,0-4.9-2.2-4.9-4.9c0-2.7,2.2-4.9,4.9-4.9
					c2.7,0,4.9,2.2,4.9,4.9C-196.9,386.8-199.1,388.9-201.7,388.9z"/>
				<path fill="#1BA1E2" d="M-214.9,403.6h13.5c3.8,0,6.9-3.1,6.9-6.9h-27.2C-221.7,400.6-218.7,403.6-214.9,403.6z"/>
			</g>
		</g>
		<g>
			<g>
				<path fill="#1BA1E2" d="M-194.9,379.1v-0.2c0-4.6-3.8-8.4-8.4-8.4h-3.2v-1.9c0.6-0.6,1-1.4,1-2.3c0-1.7-1.4-3.1-3.1-3.1
					c-1.7,0-3.1,1.4-3.1,3.1c0,0.9,0.4,1.8,1.1,2.3v1.9h-3.2c-4.6,0-8.4,3.8-8.4,8.4v0.2h-3v10.4h3c0,0.2,0,4.7,0,4.9h27.2
					c0-0.2,0-4.7,0-4.9h3.4v-10.4L-194.9,379.1L-194.9,379.1z M-215.1,388.4c-2.7,0-4.9-2.2-4.9-4.9c0-2.7,2.2-4.9,4.9-4.9
					c2.7,0,4.9,2.2,4.9,4.9C-210.2,386.3-212.4,388.4-215.1,388.4z M-202.2,388.4c-2.7,0-4.9-2.2-4.9-4.9c0-2.7,2.2-4.9,4.9-4.9
					c2.7,0,4.9,2.2,4.9,4.9C-197.4,386.3-199.6,388.4-202.2,388.4z"/>
				<path fill="#1BA1E2" d="M-215.4,403.1h13.5c3.8,0,6.9-3.1,6.9-6.9h-27.2C-222.2,400.1-219.2,403.1-215.4,403.1z"/>
			</g>
		</g>
		<g>
			<g>
				<path fill="#1BA1E2" d="M-195.4,378.6v-0.2c0-4.6-3.8-8.4-8.4-8.4h-3.2v-1.9c0.6-0.6,1-1.4,1-2.3c0-1.7-1.4-3.1-3.1-3.1
					c-1.7,0-3.1,1.4-3.1,3.1c0,0.9,0.4,1.8,1.1,2.3v1.9h-3.2c-4.6,0-8.4,3.8-8.4,8.4v0.2h-3v10.4h3c0,0.2,0,4.7,0,4.9h27.2
					c0-0.2,0-4.7,0-4.9h3.4v-10.4L-195.4,378.6L-195.4,378.6z M-215.6,387.9c-2.7,0-4.9-2.2-4.9-4.9c0-2.7,2.2-4.9,4.9-4.9
					c2.7,0,4.9,2.2,4.9,4.9C-210.7,385.8-212.9,387.9-215.6,387.9z M-202.7,387.9c-2.7,0-4.9-2.2-4.9-4.9c0-2.7,2.2-4.9,4.9-4.9
					c2.7,0,4.9,2.2,4.9,4.9C-197.9,385.8-200.1,387.9-202.7,387.9z"/>
				<path fill="#1BA1E2" d="M-215.9,402.6h13.5c3.8,0,6.9-3.1,6.9-6.9h-27.2C-222.7,399.6-219.7,402.6-215.9,402.6z"/>
			</g>
		</g>
		<g>
			<g>
				<path fill="#1BA1E2" d="M-195.9,378.1v-0.2c0-4.6-3.8-8.4-8.4-8.4h-3.2v-1.9c0.6-0.6,1-1.4,1-2.3c0-1.7-1.4-3.1-3.1-3.1
					c-1.7,0-3.1,1.4-3.1,3.1c0,0.9,0.4,1.8,1.1,2.3v1.9h-3.2c-4.6,0-8.4,3.8-8.4,8.4v0.2h-3v10.4h3c0,0.2,0,4.7,0,4.9h27.2
					c0-0.2,0-4.7,0-4.9h3.4v-10.4L-195.9,378.1L-195.9,378.1z M-216.1,387.4c-2.7,0-4.9-2.2-4.9-4.9c0-2.7,2.2-4.9,4.9-4.9
					c2.7,0,4.9,2.2,4.9,4.9C-211.2,385.3-213.4,387.4-216.1,387.4z M-203.2,387.4c-2.7,0-4.9-2.2-4.9-4.9c0-2.7,2.2-4.9,4.9-4.9
					c2.7,0,4.9,2.2,4.9,4.9C-198.4,385.3-200.6,387.4-203.2,387.4z"/>
				<path fill="#1BA1E2" d="M-216.4,402.1h13.5c3.8,0,6.9-3.1,6.9-6.9h-27.2C-223.2,399.1-220.2,402.1-216.4,402.1z"/>
			</g>
		</g>
		<g>
			<g>
				<path fill="#1BA1E2" d="M-196.4,377.6v-0.2c0-4.6-3.8-8.4-8.4-8.4h-3.2v-1.9c0.6-0.6,1-1.4,1-2.3c0-1.7-1.4-3.1-3.1-3.1
					c-1.7,0-3.1,1.4-3.1,3.1c0,0.9,0.4,1.8,1.1,2.3v1.9h-3.2c-4.6,0-8.4,3.8-8.4,8.4v0.2h-3v10.4h3c0,0.2,0,4.7,0,4.9h27.2
					c0-0.2,0-4.7,0-4.9h3.4v-10.4L-196.4,377.6L-196.4,377.6z M-216.6,386.9c-2.7,0-4.9-2.2-4.9-4.9c0-2.7,2.2-4.9,4.9-4.9
					c2.7,0,4.9,2.2,4.9,4.9C-211.7,384.8-213.9,386.9-216.6,386.9z M-203.7,386.9c-2.7,0-4.9-2.2-4.9-4.9c0-2.7,2.2-4.9,4.9-4.9
					c2.7,0,4.9,2.2,4.9,4.9C-198.9,384.8-201.1,386.9-203.7,386.9z"/>
				<path fill="#1BA1E2" d="M-216.9,401.6h13.5c3.8,0,6.9-3.1,6.9-6.9h-27.2C-223.7,398.6-220.7,401.6-216.9,401.6z"/>
			</g>
		</g>
		<g>
			<g>
				<path fill="#1BA1E2" d="M-196.9,377.1v-0.2c0-4.6-3.8-8.4-8.4-8.4h-3.2v-1.9c0.6-0.6,1-1.4,1-2.3c0-1.7-1.4-3.1-3.1-3.1
					c-1.7,0-3.1,1.4-3.1,3.1c0,0.9,0.4,1.8,1.1,2.3v1.9h-3.2c-4.6,0-8.4,3.8-8.4,8.4v0.2h-3v10.4h3c0,0.2,0,4.7,0,4.9h27.2
					c0-0.2,0-4.7,0-4.9h3.4v-10.4L-196.9,377.1L-196.9,377.1z M-217.1,386.4c-2.7,0-4.9-2.2-4.9-4.9c0-2.7,2.2-4.9,4.9-4.9
					c2.7,0,4.9,2.2,4.9,4.9C-212.2,384.3-214.4,386.4-217.1,386.4z M-204.2,386.4c-2.7,0-4.9-2.2-4.9-4.9c0-2.7,2.2-4.9,4.9-4.9
					c2.7,0,4.9,2.2,4.9,4.9C-199.4,384.3-201.6,386.4-204.2,386.4z"/>
				<path fill="#1BA1E2" d="M-217.4,401.1h13.5c3.8,0,6.9-3.1,6.9-6.9h-27.2C-224.2,398.1-221.2,401.1-217.4,401.1z"/>
			</g>
		</g>
		<g>
			<g>
				<path fill="#1BA1E2" d="M-197.4,376.6v-0.2c0-4.6-3.8-8.4-8.4-8.4h-3.2v-1.9c0.6-0.6,1-1.4,1-2.3c0-1.7-1.4-3.1-3.1-3.1
					c-1.7,0-3.1,1.4-3.1,3.1c0,0.9,0.4,1.8,1.1,2.3v1.9h-3.2c-4.6,0-8.4,3.8-8.4,8.4v0.2h-3v10.4h3c0,0.2,0,4.7,0,4.9h27.2
					c0-0.2,0-4.7,0-4.9h3.4v-10.4L-197.4,376.6L-197.4,376.6z M-217.6,385.9c-2.7,0-4.9-2.2-4.9-4.9c0-2.7,2.2-4.9,4.9-4.9
					c2.7,0,4.9,2.2,4.9,4.9C-212.7,383.8-214.9,385.9-217.6,385.9z M-204.7,385.9c-2.7,0-4.9-2.2-4.9-4.9c0-2.7,2.2-4.9,4.9-4.9
					c2.7,0,4.9,2.2,4.9,4.9C-199.9,383.8-202.1,385.9-204.7,385.9z"/>
				<path fill="#1BA1E2" d="M-217.9,400.6h13.5c3.8,0,6.9-3.1,6.9-6.9h-27.2C-224.7,397.6-221.7,400.6-217.9,400.6z"/>
			</g>
		</g>
		<g>
			<g>
				<path fill="#1BA1E2" d="M-197.9,376.1v-0.2c0-4.6-3.8-8.4-8.4-8.4h-3.2v-1.9c0.6-0.6,1-1.4,1-2.3c0-1.7-1.4-3.1-3.1-3.1
					c-1.7,0-3.1,1.4-3.1,3.1c0,0.9,0.4,1.8,1.1,2.3v1.9h-3.2c-4.6,0-8.4,3.8-8.4,8.4v0.2h-3v10.4h3c0,0.2,0,4.7,0,4.9h27.2
					c0-0.2,0-4.7,0-4.9h3.4v-10.4L-197.9,376.1L-197.9,376.1z M-218.1,385.4c-2.7,0-4.9-2.2-4.9-4.9c0-2.7,2.2-4.9,4.9-4.9
					c2.7,0,4.9,2.2,4.9,4.9C-213.2,383.3-215.4,385.4-218.1,385.4z M-205.2,385.4c-2.7,0-4.9-2.2-4.9-4.9c0-2.7,2.2-4.9,4.9-4.9
					c2.7,0,4.9,2.2,4.9,4.9C-200.4,383.3-202.6,385.4-205.2,385.4z"/>
				<path fill="#1BA1E2" d="M-218.4,400.1h13.5c3.8,0,6.9-3.1,6.9-6.9h-27.2C-225.2,397.1-222.2,400.1-218.4,400.1z"/>
			</g>
		</g>
		<g>
			<g>
				<path fill="#1BA1E2" d="M-198.4,375.6v-0.2c0-4.6-3.8-8.4-8.4-8.4h-3.2v-1.9c0.6-0.6,1-1.4,1-2.3c0-1.7-1.4-3.1-3.1-3.1
					c-1.7,0-3.1,1.4-3.1,3.1c0,0.9,0.4,1.8,1.1,2.3v1.9h-3.2c-4.6,0-8.4,3.8-8.4,8.4v0.2h-3v10.4h3c0,0.2,0,4.7,0,4.9h27.2
					c0-0.2,0-4.7,0-4.9h3.4v-10.4L-198.4,375.6L-198.4,375.6z M-218.6,384.9c-2.7,0-4.9-2.2-4.9-4.9c0-2.7,2.2-4.9,4.9-4.9
					c2.7,0,4.9,2.2,4.9,4.9C-213.7,382.8-215.9,384.9-218.6,384.9z M-205.7,384.9c-2.7,0-4.9-2.2-4.9-4.9c0-2.7,2.2-4.9,4.9-4.9
					c2.7,0,4.9,2.2,4.9,4.9C-200.9,382.8-203.1,384.9-205.7,384.9z"/>
				<path fill="#1BA1E2" d="M-218.9,399.6h13.5c3.8,0,6.9-3.1,6.9-6.9h-27.2C-225.7,396.6-222.7,399.6-218.9,399.6z"/>
			</g>
		</g>
		<g>
			<g>
				<path fill="#1BA1E2" d="M-198.9,375.1v-0.2c0-4.6-3.8-8.4-8.4-8.4h-3.2v-1.9c0.6-0.6,1-1.4,1-2.3c0-1.7-1.4-3.1-3.1-3.1
					c-1.7,0-3.1,1.4-3.1,3.1c0,0.9,0.4,1.8,1.1,2.3v1.9h-3.2c-4.6,0-8.4,3.8-8.4,8.4v0.2h-3v10.4h3c0,0.2,0,4.7,0,4.9h27.2
					c0-0.2,0-4.7,0-4.9h3.4v-10.4L-198.9,375.1L-198.9,375.1z M-219.1,384.4c-2.7,0-4.9-2.2-4.9-4.9c0-2.7,2.2-4.9,4.9-4.9
					c2.7,0,4.9,2.2,4.9,4.9C-214.2,382.3-216.4,384.4-219.1,384.4z M-206.2,384.4c-2.7,0-4.9-2.2-4.9-4.9c0-2.7,2.2-4.9,4.9-4.9
					c2.7,0,4.9,2.2,4.9,4.9C-201.4,382.3-203.6,384.4-206.2,384.4z"/>
				<path fill="#1BA1E2" d="M-219.4,399.1h13.5c3.8,0,6.9-3.1,6.9-6.9h-27.2C-226.2,396.1-223.2,399.1-219.4,399.1z"/>
			</g>
		</g>
		<g>
			<g>
				<path fill="#1BA1E2" d="M-199.4,374.6v-0.2c0-4.6-3.8-8.4-8.4-8.4h-3.2v-1.9c0.6-0.6,1-1.4,1-2.3c0-1.7-1.4-3.1-3.1-3.1
					c-1.7,0-3.1,1.4-3.1,3.1c0,0.9,0.4,1.8,1.1,2.3v1.9h-3.2c-4.6,0-8.4,3.8-8.4,8.4v0.2h-3v10.4h3c0,0.2,0,4.7,0,4.9h27.2
					c0-0.2,0-4.7,0-4.9h3.4v-10.4L-199.4,374.6L-199.4,374.6z M-219.6,383.9c-2.7,0-4.9-2.2-4.9-4.9c0-2.7,2.2-4.9,4.9-4.9
					c2.7,0,4.9,2.2,4.9,4.9C-214.7,381.8-216.9,383.9-219.6,383.9z M-206.7,383.9c-2.7,0-4.9-2.2-4.9-4.9c0-2.7,2.2-4.9,4.9-4.9
					c2.7,0,4.9,2.2,4.9,4.9C-201.9,381.8-204.1,383.9-206.7,383.9z"/>
				<path fill="#1BA1E2" d="M-219.9,398.6h13.5c3.8,0,6.9-3.1,6.9-6.9h-27.2C-226.7,395.6-223.7,398.6-219.9,398.6z"/>
			</g>
		</g>
		<g>
			<g>
				<path fill="#1BA1E2" d="M-199.9,374.1v-0.2c0-4.6-3.8-8.4-8.4-8.4h-3.2v-1.9c0.6-0.6,1-1.4,1-2.3c0-1.7-1.4-3.1-3.1-3.1
					c-1.7,0-3.1,1.4-3.1,3.1c0,0.9,0.4,1.8,1.1,2.3v1.9h-3.2c-4.6,0-8.4,3.8-8.4,8.4v0.2h-3v10.4h3c0,0.2,0,4.7,0,4.9h27.2
					c0-0.2,0-4.7,0-4.9h3.4v-10.4L-199.9,374.1L-199.9,374.1z M-220.1,383.4c-2.7,0-4.9-2.2-4.9-4.9c0-2.7,2.2-4.9,4.9-4.9
					c2.7,0,4.9,2.2,4.9,4.9C-215.2,381.3-217.4,383.4-220.1,383.4z M-207.2,383.4c-2.7,0-4.9-2.2-4.9-4.9c0-2.7,2.2-4.9,4.9-4.9
					c2.7,0,4.9,2.2,4.9,4.9C-202.4,381.3-204.6,383.4-207.2,383.4z"/>
				<path fill="#1BA1E2" d="M-220.4,398.1h13.5c3.8,0,6.9-3.1,6.9-6.9h-27.2C-227.2,395.1-224.2,398.1-220.4,398.1z"/>
			</g>
		</g>
		<g>
			<g>
				<path fill="#1BA1E2" d="M-200.4,373.6v-0.2c0-4.6-3.8-8.4-8.4-8.4h-3.2v-1.9c0.6-0.6,1-1.4,1-2.3c0-1.7-1.4-3.1-3.1-3.1
					c-1.7,0-3.1,1.4-3.1,3.1c0,0.9,0.4,1.8,1.1,2.3v1.9h-3.2c-4.6,0-8.4,3.8-8.4,8.4v0.2h-3v10.4h3c0,0.2,0,4.7,0,4.9h27.2
					c0-0.2,0-4.7,0-4.9h3.4v-10.4L-200.4,373.6L-200.4,373.6z M-220.6,382.9c-2.7,0-4.9-2.2-4.9-4.9c0-2.7,2.2-4.9,4.9-4.9
					c2.7,0,4.9,2.2,4.9,4.9C-215.7,380.8-217.9,382.9-220.6,382.9z M-207.7,382.9c-2.7,0-4.9-2.2-4.9-4.9c0-2.7,2.2-4.9,4.9-4.9
					c2.7,0,4.9,2.2,4.9,4.9C-202.9,380.8-205.1,382.9-207.7,382.9z"/>
				<path fill="#1BA1E2" d="M-220.9,397.6h13.5c3.8,0,6.9-3.1,6.9-6.9h-27.2C-227.7,394.6-224.7,397.6-220.9,397.6z"/>
			</g>
		</g>
		<g>
			<g>
				<path fill="#1BA1E2" d="M-200.9,373.1v-0.2c0-4.6-3.8-8.4-8.4-8.4h-3.2v-1.9c0.6-0.6,1-1.4,1-2.3c0-1.7-1.4-3.1-3.1-3.1
					c-1.7,0-3.1,1.4-3.1,3.1c0,0.9,0.4,1.8,1.1,2.3v1.9h-3.2c-4.6,0-8.4,3.8-8.4,8.4v0.2h-3v10.4h3c0,0.2,0,4.7,0,4.9h27.2
					c0-0.2,0-4.7,0-4.9h3.4v-10.4L-200.9,373.1L-200.9,373.1z M-221.1,382.4c-2.7,0-4.9-2.2-4.9-4.9c0-2.7,2.2-4.9,4.9-4.9
					c2.7,0,4.9,2.2,4.9,4.9C-216.2,380.3-218.4,382.4-221.1,382.4z M-208.2,382.4c-2.7,0-4.9-2.2-4.9-4.9c0-2.7,2.2-4.9,4.9-4.9
					c2.7,0,4.9,2.2,4.9,4.9C-203.4,380.3-205.6,382.4-208.2,382.4z"/>
				<path fill="#1BA1E2" d="M-221.4,397.1h13.5c3.8,0,6.9-3.1,6.9-6.9h-27.2C-228.2,394.1-225.2,397.1-221.4,397.1z"/>
			</g>
		</g>
		<g>
			<g>
				<path fill="#1BA1E2" d="M-201.4,372.6v-0.2c0-4.6-3.8-8.4-8.4-8.4h-3.2v-1.9c0.6-0.6,1-1.4,1-2.3c0-1.7-1.4-3.1-3.1-3.1
					c-1.7,0-3.1,1.4-3.1,3.1c0,0.9,0.4,1.8,1.1,2.3v1.9h-3.2c-4.6,0-8.4,3.8-8.4,8.4v0.2h-3v10.4h3c0,0.2,0,4.7,0,4.9h27.2
					c0-0.2,0-4.7,0-4.9h3.4v-10.4L-201.4,372.6L-201.4,372.6z M-221.6,381.9c-2.7,0-4.9-2.2-4.9-4.9c0-2.7,2.2-4.9,4.9-4.9
					c2.7,0,4.9,2.2,4.9,4.9C-216.7,379.8-218.9,381.9-221.6,381.9z M-208.7,381.9c-2.7,0-4.9-2.2-4.9-4.9c0-2.7,2.2-4.9,4.9-4.9
					c2.7,0,4.9,2.2,4.9,4.9C-203.9,379.8-206.1,381.9-208.7,381.9z"/>
				<path fill="#1BA1E2" d="M-221.9,396.6h13.5c3.8,0,6.9-3.1,6.9-6.9h-27.2C-228.7,393.6-225.7,396.6-221.9,396.6z"/>
			</g>
		</g>
		<g>
			<g>
				<path fill="#1BA1E2" d="M-201.9,372.1v-0.2c0-4.6-3.8-8.4-8.4-8.4h-3.2v-1.9c0.6-0.6,1-1.4,1-2.3c0-1.7-1.4-3.1-3.1-3.1
					c-1.7,0-3.1,1.4-3.1,3.1c0,0.9,0.4,1.8,1.1,2.3v1.9h-3.2c-4.6,0-8.4,3.8-8.4,8.4v0.2h-3v10.4h3c0,0.2,0,4.7,0,4.9h27.2
					c0-0.2,0-4.7,0-4.9h3.4v-10.4L-201.9,372.1L-201.9,372.1z M-222.1,381.4c-2.7,0-4.9-2.2-4.9-4.9c0-2.7,2.2-4.9,4.9-4.9
					c2.7,0,4.9,2.2,4.9,4.9C-217.2,379.3-219.4,381.4-222.1,381.4z M-209.2,381.4c-2.7,0-4.9-2.2-4.9-4.9c0-2.7,2.2-4.9,4.9-4.9
					c2.7,0,4.9,2.2,4.9,4.9C-204.4,379.3-206.6,381.4-209.2,381.4z"/>
				<path fill="#1BA1E2" d="M-222.4,396.1h13.5c3.8,0,6.9-3.1,6.9-6.9h-27.2C-229.2,393.1-226.2,396.1-222.4,396.1z"/>
			</g>
		</g>
		<g>
			<g>
				<path fill="#1BA1E2" d="M-202.4,371.6v-0.2c0-4.6-3.8-8.4-8.4-8.4h-3.2v-1.9c0.6-0.6,1-1.4,1-2.3c0-1.7-1.4-3.1-3.1-3.1
					c-1.7,0-3.1,1.4-3.1,3.1c0,0.9,0.4,1.8,1.1,2.3v1.9h-3.2c-4.6,0-8.4,3.8-8.4,8.4v0.2h-3v10.4h3c0,0.2,0,4.7,0,4.9h27.2
					c0-0.2,0-4.7,0-4.9h3.4v-10.4L-202.4,371.6L-202.4,371.6z M-222.6,380.9c-2.7,0-4.9-2.2-4.9-4.9c0-2.7,2.2-4.9,4.9-4.9
					c2.7,0,4.9,2.2,4.9,4.9C-217.7,378.8-219.9,380.9-222.6,380.9z M-209.7,380.9c-2.7,0-4.9-2.2-4.9-4.9c0-2.7,2.2-4.9,4.9-4.9
					c2.7,0,4.9,2.2,4.9,4.9C-204.9,378.8-207.1,380.9-209.7,380.9z"/>
				<path fill="#1BA1E2" d="M-222.9,395.6h13.5c3.8,0,6.9-3.1,6.9-6.9h-27.2C-229.7,392.6-226.7,395.6-222.9,395.6z"/>
			</g>
		</g>
		<g>
			<g>
				<path fill="#1BA1E2" d="M-202.9,371.1v-0.2c0-4.6-3.8-8.4-8.4-8.4h-3.2v-1.9c0.6-0.6,1-1.4,1-2.3c0-1.7-1.4-3.1-3.1-3.1
					c-1.7,0-3.1,1.4-3.1,3.1c0,0.9,0.4,1.8,1.1,2.3v1.9h-3.2c-4.6,0-8.4,3.8-8.4,8.4v0.2h-3v10.4h3c0,0.2,0,4.7,0,4.9h27.2
					c0-0.2,0-4.7,0-4.9h3.4v-10.4L-202.9,371.1L-202.9,371.1z M-223.1,380.4c-2.7,0-4.9-2.2-4.9-4.9c0-2.7,2.2-4.9,4.9-4.9
					c2.7,0,4.9,2.2,4.9,4.9C-218.2,378.3-220.4,380.4-223.1,380.4z M-210.2,380.4c-2.7,0-4.9-2.2-4.9-4.9c0-2.7,2.2-4.9,4.9-4.9
					c2.7,0,4.9,2.2,4.9,4.9C-205.4,378.3-207.6,380.4-210.2,380.4z"/>
				<path fill="#1BA1E2" d="M-223.4,395.1h13.5c3.8,0,6.9-3.1,6.9-6.9h-27.2C-230.2,392.1-227.2,395.1-223.4,395.1z"/>
			</g>
		</g>
		<g>
			<g>
				<path fill="#1BA1E2" d="M-203.4,370.6v-0.2c0-4.6-3.8-8.4-8.4-8.4h-3.2v-1.9c0.6-0.6,1-1.4,1-2.3c0-1.7-1.4-3.1-3.1-3.1
					c-1.7,0-3.1,1.4-3.1,3.1c0,0.9,0.4,1.8,1.1,2.3v1.9h-3.2c-4.6,0-8.4,3.8-8.4,8.4v0.2h-3v10.4h3c0,0.2,0,4.7,0,4.9h27.2
					c0-0.2,0-4.7,0-4.9h3.4v-10.4L-203.4,370.6L-203.4,370.6z M-223.6,379.9c-2.7,0-4.9-2.2-4.9-4.9c0-2.7,2.2-4.9,4.9-4.9
					c2.7,0,4.9,2.2,4.9,4.9C-218.7,377.8-220.9,379.9-223.6,379.9z M-210.7,379.9c-2.7,0-4.9-2.2-4.9-4.9c0-2.7,2.2-4.9,4.9-4.9
					c2.7,0,4.9,2.2,4.9,4.9C-205.9,377.8-208.1,379.9-210.7,379.9z"/>
				<path fill="#1BA1E2" d="M-223.9,394.6h13.5c3.8,0,6.9-3.1,6.9-6.9h-27.2C-230.7,391.6-227.7,394.6-223.9,394.6z"/>
			</g>
		</g>
		<g>
			<g>
				<path fill="#1BA1E2" d="M-203.9,370.1v-0.2c0-4.6-3.8-8.4-8.4-8.4h-3.2v-1.9c0.6-0.6,1-1.4,1-2.3c0-1.7-1.4-3.1-3.1-3.1
					c-1.7,0-3.1,1.4-3.1,3.1c0,0.9,0.4,1.8,1.1,2.3v1.9h-3.2c-4.6,0-8.4,3.8-8.4,8.4v0.2h-3v10.4h3c0,0.2,0,4.7,0,4.9h27.2
					c0-0.2,0-4.7,0-4.9h3.4v-10.4L-203.9,370.1L-203.9,370.1z M-224.1,379.4c-2.7,0-4.9-2.2-4.9-4.9c0-2.7,2.2-4.9,4.9-4.9
					c2.7,0,4.9,2.2,4.9,4.9C-219.2,377.3-221.4,379.4-224.1,379.4z M-211.2,379.4c-2.7,0-4.9-2.2-4.9-4.9c0-2.7,2.2-4.9,4.9-4.9
					c2.7,0,4.9,2.2,4.9,4.9C-206.4,377.3-208.6,379.4-211.2,379.4z"/>
				<path fill="#1BA1E2" d="M-224.4,394.1h13.5c3.8,0,6.9-3.1,6.9-6.9h-27.2C-231.2,391.1-228.2,394.1-224.4,394.1z"/>
			</g>
		</g>
		<g>
			<g>
				<path fill="#1BA1E2" d="M-204.4,369.6v-0.2c0-4.6-3.8-8.4-8.4-8.4h-3.2v-1.9c0.6-0.6,1-1.4,1-2.3c0-1.7-1.4-3.1-3.1-3.1
					c-1.7,0-3.1,1.4-3.1,3.1c0,0.9,0.4,1.8,1.1,2.3v1.9h-3.2c-4.6,0-8.4,3.8-8.4,8.4v0.2h-3v10.4h3c0,0.2,0,4.7,0,4.9h27.2
					c0-0.2,0-4.7,0-4.9h3.4v-10.4L-204.4,369.6L-204.4,369.6z M-224.6,378.9c-2.7,0-4.9-2.2-4.9-4.9c0-2.7,2.2-4.9,4.9-4.9
					c2.7,0,4.9,2.2,4.9,4.9C-219.7,376.8-221.9,378.9-224.6,378.9z M-211.7,378.9c-2.7,0-4.9-2.2-4.9-4.9c0-2.7,2.2-4.9,4.9-4.9
					c2.7,0,4.9,2.2,4.9,4.9C-206.9,376.8-209.1,378.9-211.7,378.9z"/>
				<path fill="#1BA1E2" d="M-224.9,393.6h13.5c3.8,0,6.9-3.1,6.9-6.9h-27.2C-231.7,390.6-228.7,393.6-224.9,393.6z"/>
			</g>
		</g>
		<g>
			<g>
				<path fill="#1BA1E2" d="M-204.9,369.1v-0.2c0-4.6-3.8-8.4-8.4-8.4h-3.2v-1.9c0.6-0.6,1-1.4,1-2.3c0-1.7-1.4-3.1-3.1-3.1
					c-1.7,0-3.1,1.4-3.1,3.1c0,0.9,0.4,1.8,1.1,2.3v1.9h-3.2c-4.6,0-8.4,3.8-8.4,8.4v0.2h-3v10.4h3c0,0.2,0,4.7,0,4.9h27.2
					c0-0.2,0-4.7,0-4.9h3.4v-10.4L-204.9,369.1L-204.9,369.1z M-225.1,378.4c-2.7,0-4.9-2.2-4.9-4.9c0-2.7,2.2-4.9,4.9-4.9
					c2.7,0,4.9,2.2,4.9,4.9C-220.2,376.3-222.4,378.4-225.1,378.4z M-212.2,378.4c-2.7,0-4.9-2.2-4.9-4.9c0-2.7,2.2-4.9,4.9-4.9
					c2.7,0,4.9,2.2,4.9,4.9C-207.4,376.3-209.6,378.4-212.2,378.4z"/>
				<path fill="#1BA1E2" d="M-225.4,393.1h13.5c3.8,0,6.9-3.1,6.9-6.9h-27.2C-232.2,390.1-229.2,393.1-225.4,393.1z"/>
			</g>
		</g>
		<g>
			<g>
				<path fill="#1BA1E2" d="M-205.4,368.6v-0.2c0-4.6-3.8-8.4-8.4-8.4h-3.2v-1.9c0.6-0.6,1-1.4,1-2.3c0-1.7-1.4-3.1-3.1-3.1
					c-1.7,0-3.1,1.4-3.1,3.1c0,0.9,0.4,1.8,1.1,2.3v1.9h-3.2c-4.6,0-8.4,3.8-8.4,8.4v0.2h-3v10.4h3c0,0.2,0,4.7,0,4.9h27.2
					c0-0.2,0-4.7,0-4.9h3.4v-10.4L-205.4,368.6L-205.4,368.6z M-225.6,377.9c-2.7,0-4.9-2.2-4.9-4.9c0-2.7,2.2-4.9,4.9-4.9
					c2.7,0,4.9,2.2,4.9,4.9C-220.7,375.8-222.9,377.9-225.6,377.9z M-212.7,377.9c-2.7,0-4.9-2.2-4.9-4.9c0-2.7,2.2-4.9,4.9-4.9
					c2.7,0,4.9,2.2,4.9,4.9C-207.9,375.8-210.1,377.9-212.7,377.9z"/>
				<path fill="#1BA1E2" d="M-225.9,392.6h13.5c3.8,0,6.9-3.1,6.9-6.9h-27.2C-232.7,389.6-229.7,392.6-225.9,392.6z"/>
			</g>
		</g>
		<g>
			<g>
				<path fill="#1BA1E2" d="M-205.9,368.1v-0.2c0-4.6-3.8-8.4-8.4-8.4h-3.2v-1.9c0.6-0.6,1-1.4,1-2.3c0-1.7-1.4-3.1-3.1-3.1
					c-1.7,0-3.1,1.4-3.1,3.1c0,0.9,0.4,1.8,1.1,2.3v1.9h-3.2c-4.6,0-8.4,3.8-8.4,8.4v0.2h-3v10.4h3c0,0.2,0,4.7,0,4.9h27.2
					c0-0.2,0-4.7,0-4.9h3.4v-10.4L-205.9,368.1L-205.9,368.1z M-226.1,377.4c-2.7,0-4.9-2.2-4.9-4.9c0-2.7,2.2-4.9,4.9-4.9
					c2.7,0,4.9,2.2,4.9,4.9C-221.2,375.3-223.4,377.4-226.1,377.4z M-213.2,377.4c-2.7,0-4.9-2.2-4.9-4.9c0-2.7,2.2-4.9,4.9-4.9
					c2.7,0,4.9,2.2,4.9,4.9C-208.4,375.3-210.6,377.4-213.2,377.4z"/>
				<path fill="#1BA1E2" d="M-226.4,392.1h13.5c3.8,0,6.9-3.1,6.9-6.9h-27.2C-233.2,389.1-230.2,392.1-226.4,392.1z"/>
			</g>
		</g>
		<g>
			<g>
				<path fill="#1BA1E2" d="M-206.4,367.6v-0.2c0-4.6-3.8-8.4-8.4-8.4h-3.2v-1.9c0.6-0.6,1-1.4,1-2.3c0-1.7-1.4-3.1-3.1-3.1
					c-1.7,0-3.1,1.4-3.1,3.1c0,0.9,0.4,1.8,1.1,2.3v1.9h-3.2c-4.6,0-8.4,3.8-8.4,8.4v0.2h-3v10.4h3c0,0.2,0,4.7,0,4.9h27.2
					c0-0.2,0-4.7,0-4.9h3.4v-10.4L-206.4,367.6L-206.4,367.6z M-226.6,376.9c-2.7,0-4.9-2.2-4.9-4.9c0-2.7,2.2-4.9,4.9-4.9
					c2.7,0,4.9,2.2,4.9,4.9C-221.7,374.8-223.9,376.9-226.6,376.9z M-213.7,376.9c-2.7,0-4.9-2.2-4.9-4.9c0-2.7,2.2-4.9,4.9-4.9
					c2.7,0,4.9,2.2,4.9,4.9C-208.9,374.8-211.1,376.9-213.7,376.9z"/>
				<path fill="#1BA1E2" d="M-226.9,391.6h13.5c3.8,0,6.9-3.1,6.9-6.9h-27.2C-233.7,388.6-230.7,391.6-226.9,391.6z"/>
			</g>
		</g>
		<g>
			<g>
				<path fill="#1BA1E2" d="M-206.9,367.1v-0.2c0-4.6-3.8-8.4-8.4-8.4h-3.2v-1.9c0.6-0.6,1-1.4,1-2.3c0-1.7-1.4-3.1-3.1-3.1
					c-1.7,0-3.1,1.4-3.1,3.1c0,0.9,0.4,1.8,1.1,2.3v1.9h-3.2c-4.6,0-8.4,3.8-8.4,8.4v0.2h-3v10.4h3c0,0.2,0,4.7,0,4.9h27.2
					c0-0.2,0-4.7,0-4.9h3.4v-10.4L-206.9,367.1L-206.9,367.1z M-227.1,376.4c-2.7,0-4.9-2.2-4.9-4.9c0-2.7,2.2-4.9,4.9-4.9
					c2.7,0,4.9,2.2,4.9,4.9C-222.2,374.3-224.4,376.4-227.1,376.4z M-214.2,376.4c-2.7,0-4.9-2.2-4.9-4.9c0-2.7,2.2-4.9,4.9-4.9
					c2.7,0,4.9,2.2,4.9,4.9C-209.4,374.3-211.6,376.4-214.2,376.4z"/>
				<path fill="#1BA1E2" d="M-227.4,391.1h13.5c3.8,0,6.9-3.1,6.9-6.9h-27.2C-234.2,388.1-231.2,391.1-227.4,391.1z"/>
			</g>
		</g>
		<g>
			<g>
				<path fill="#1BA1E2" d="M-207.4,366.6v-0.2c0-4.6-3.8-8.4-8.4-8.4h-3.2v-1.9c0.6-0.6,1-1.4,1-2.3c0-1.7-1.4-3.1-3.1-3.1
					c-1.7,0-3.1,1.4-3.1,3.1c0,0.9,0.4,1.8,1.1,2.3v1.9h-3.2c-4.6,0-8.4,3.8-8.4,8.4v0.2h-3v10.4h3c0,0.2,0,4.7,0,4.9h27.2
					c0-0.2,0-4.7,0-4.9h3.4v-10.4L-207.4,366.6L-207.4,366.6z M-227.6,375.9c-2.7,0-4.9-2.2-4.9-4.9c0-2.7,2.2-4.9,4.9-4.9
					c2.7,0,4.9,2.2,4.9,4.9C-222.7,373.8-224.9,375.9-227.6,375.9z M-214.7,375.9c-2.7,0-4.9-2.2-4.9-4.9c0-2.7,2.2-4.9,4.9-4.9
					c2.7,0,4.9,2.2,4.9,4.9C-209.9,373.8-212.1,375.9-214.7,375.9z"/>
				<path fill="#1BA1E2" d="M-227.9,390.6h13.5c3.8,0,6.9-3.1,6.9-6.9h-27.2C-234.7,387.6-231.7,390.6-227.9,390.6z"/>
			</g>
		</g>
		<g>
			<g>
				<path fill="#1BA1E2" d="M-207.9,366.1v-0.2c0-4.6-3.8-8.4-8.4-8.4h-3.2v-1.9c0.6-0.6,1-1.4,1-2.3c0-1.7-1.4-3.1-3.1-3.1
					c-1.7,0-3.1,1.4-3.1,3.1c0,0.9,0.4,1.8,1.1,2.3v1.9h-3.2c-4.6,0-8.4,3.8-8.4,8.4v0.2h-3v10.4h3c0,0.2,0,4.7,0,4.9h27.2
					c0-0.2,0-4.7,0-4.9h3.4v-10.4L-207.9,366.1L-207.9,366.1z M-228.1,375.4c-2.7,0-4.9-2.2-4.9-4.9c0-2.7,2.2-4.9,4.9-4.9
					c2.7,0,4.9,2.2,4.9,4.9C-223.2,373.3-225.4,375.4-228.1,375.4z M-215.2,375.4c-2.7,0-4.9-2.2-4.9-4.9c0-2.7,2.2-4.9,4.9-4.9
					c2.7,0,4.9,2.2,4.9,4.9C-210.4,373.3-212.6,375.4-215.2,375.4z"/>
				<path fill="#1BA1E2" d="M-228.4,390.1h13.5c3.8,0,6.9-3.1,6.9-6.9h-27.2C-235.2,387.1-232.2,390.1-228.4,390.1z"/>
			</g>
		</g>
		<g>
			<g>
				<path fill="#1BA1E2" d="M-208.4,365.6v-0.2c0-4.6-3.8-8.4-8.4-8.4h-3.2v-1.9c0.6-0.6,1-1.4,1-2.3c0-1.7-1.4-3.1-3.1-3.1
					c-1.7,0-3.1,1.4-3.1,3.1c0,0.9,0.4,1.8,1.1,2.3v1.9h-3.2c-4.6,0-8.4,3.8-8.4,8.4v0.2h-3v10.4h3c0,0.2,0,4.7,0,4.9h27.2
					c0-0.2,0-4.7,0-4.9h3.4v-10.4L-208.4,365.6L-208.4,365.6z M-228.6,374.9c-2.7,0-4.9-2.2-4.9-4.9c0-2.7,2.2-4.9,4.9-4.9
					c2.7,0,4.9,2.2,4.9,4.9C-223.7,372.8-225.9,374.9-228.6,374.9z M-215.7,374.9c-2.7,0-4.9-2.2-4.9-4.9c0-2.7,2.2-4.9,4.9-4.9
					c2.7,0,4.9,2.2,4.9,4.9C-210.9,372.8-213.1,374.9-215.7,374.9z"/>
				<path fill="#1BA1E2" d="M-228.9,389.6h13.5c3.8,0,6.9-3.1,6.9-6.9h-27.2C-235.7,386.6-232.7,389.6-228.9,389.6z"/>
			</g>
		</g>
		<g>
			<g>
				<path fill="#1BA1E2" d="M-208.9,365.1v-0.2c0-4.6-3.8-8.4-8.4-8.4h-3.2v-1.9c0.6-0.6,1-1.4,1-2.3c0-1.7-1.4-3.1-3.1-3.1
					c-1.7,0-3.1,1.4-3.1,3.1c0,0.9,0.4,1.8,1.1,2.3v1.9h-3.2c-4.6,0-8.4,3.8-8.4,8.4v0.2h-3v10.4h3c0,0.2,0,4.7,0,4.9h27.2
					c0-0.2,0-4.7,0-4.9h3.4v-10.4L-208.9,365.1L-208.9,365.1z M-229.1,374.4c-2.7,0-4.9-2.2-4.9-4.9c0-2.7,2.2-4.9,4.9-4.9
					c2.7,0,4.9,2.2,4.9,4.9C-224.2,372.3-226.4,374.4-229.1,374.4z M-216.2,374.4c-2.7,0-4.9-2.2-4.9-4.9c0-2.7,2.2-4.9,4.9-4.9
					c2.7,0,4.9,2.2,4.9,4.9C-211.4,372.3-213.6,374.4-216.2,374.4z"/>
				<path fill="#1BA1E2" d="M-229.4,389.1h13.5c3.8,0,6.9-3.1,6.9-6.9h-27.2C-236.2,386.1-233.2,389.1-229.4,389.1z"/>
			</g>
		</g>
		<g>
			<g>
				<path fill="#1BA1E2" d="M-209.4,364.6v-0.2c0-4.6-3.8-8.4-8.4-8.4h-3.2v-1.9c0.6-0.6,1-1.4,1-2.3c0-1.7-1.4-3.1-3.1-3.1
					c-1.7,0-3.1,1.4-3.1,3.1c0,0.9,0.4,1.8,1.1,2.3v1.9h-3.2c-4.6,0-8.4,3.8-8.4,8.4v0.2h-3v10.4h3c0,0.2,0,4.7,0,4.9h27.2
					c0-0.2,0-4.7,0-4.9h3.4v-10.4L-209.4,364.6L-209.4,364.6z M-229.6,373.9c-2.7,0-4.9-2.2-4.9-4.9c0-2.7,2.2-4.9,4.9-4.9
					c2.7,0,4.9,2.2,4.9,4.9C-224.7,371.8-226.9,373.9-229.6,373.9z M-216.7,373.9c-2.7,0-4.9-2.2-4.9-4.9c0-2.7,2.2-4.9,4.9-4.9
					c2.7,0,4.9,2.2,4.9,4.9C-211.9,371.8-214.1,373.9-216.7,373.9z"/>
				<path fill="#1BA1E2" d="M-229.9,388.6h13.5c3.8,0,6.9-3.1,6.9-6.9h-27.2C-236.7,385.6-233.7,388.6-229.9,388.6z"/>
			</g>
		</g>
		<g>
			<g>
				<path fill="#1BA1E2" d="M-209.9,364.1v-0.2c0-4.6-3.8-8.4-8.4-8.4h-3.2v-1.9c0.6-0.6,1-1.4,1-2.3c0-1.7-1.4-3.1-3.1-3.1
					c-1.7,0-3.1,1.4-3.1,3.1c0,0.9,0.4,1.8,1.1,2.3v1.9h-3.2c-4.6,0-8.4,3.8-8.4,8.4v0.2h-3v10.4h3c0,0.2,0,4.7,0,4.9h27.2
					c0-0.2,0-4.7,0-4.9h3.4v-10.4L-209.9,364.1L-209.9,364.1z M-230.1,373.4c-2.7,0-4.9-2.2-4.9-4.9c0-2.7,2.2-4.9,4.9-4.9
					c2.7,0,4.9,2.2,4.9,4.9C-225.2,371.3-227.4,373.4-230.1,373.4z M-217.2,373.4c-2.7,0-4.9-2.2-4.9-4.9c0-2.7,2.2-4.9,4.9-4.9
					c2.7,0,4.9,2.2,4.9,4.9C-212.4,371.3-214.6,373.4-217.2,373.4z"/>
				<path fill="#1BA1E2" d="M-230.4,388.1h13.5c3.8,0,6.9-3.1,6.9-6.9h-27.2C-237.2,385.1-234.2,388.1-230.4,388.1z"/>
			</g>
		</g>
		<g>
			<g>
				<path fill="#1BA1E2" d="M-210.4,363.6v-0.2c0-4.6-3.8-8.4-8.4-8.4h-3.2v-1.9c0.6-0.6,1-1.4,1-2.3c0-1.7-1.4-3.1-3.1-3.1
					c-1.7,0-3.1,1.4-3.1,3.1c0,0.9,0.4,1.8,1.1,2.3v1.9h-3.2c-4.6,0-8.4,3.8-8.4,8.4v0.2h-3v10.4h3c0,0.2,0,4.7,0,4.9h27.2
					c0-0.2,0-4.7,0-4.9h3.4v-10.4L-210.4,363.6L-210.4,363.6z M-230.6,372.9c-2.7,0-4.9-2.2-4.9-4.9c0-2.7,2.2-4.9,4.9-4.9
					c2.7,0,4.9,2.2,4.9,4.9C-225.7,370.8-227.9,372.9-230.6,372.9z M-217.7,372.9c-2.7,0-4.9-2.2-4.9-4.9c0-2.7,2.2-4.9,4.9-4.9
					c2.7,0,4.9,2.2,4.9,4.9C-212.9,370.8-215.1,372.9-217.7,372.9z"/>
				<path fill="#1BA1E2" d="M-230.9,387.6h13.5c3.8,0,6.9-3.1,6.9-6.9h-27.2C-237.7,384.6-234.7,387.6-230.9,387.6z"/>
			</g>
		</g>
		<g>
			<g>
				<path fill="#1BA1E2" d="M-210.9,363.1v-0.2c0-4.6-3.8-8.4-8.4-8.4h-3.2v-1.9c0.6-0.6,1-1.4,1-2.3c0-1.7-1.4-3.1-3.1-3.1
					c-1.7,0-3.1,1.4-3.1,3.1c0,0.9,0.4,1.8,1.1,2.3v1.9h-3.2c-4.6,0-8.4,3.8-8.4,8.4v0.2h-3v10.4h3c0,0.2,0,4.7,0,4.9h27.2
					c0-0.2,0-4.7,0-4.9h3.4v-10.4L-210.9,363.1L-210.9,363.1z M-231.1,372.4c-2.7,0-4.9-2.2-4.9-4.9c0-2.7,2.2-4.9,4.9-4.9
					c2.7,0,4.9,2.2,4.9,4.9C-226.2,370.3-228.4,372.4-231.1,372.4z M-218.2,372.4c-2.7,0-4.9-2.2-4.9-4.9c0-2.7,2.2-4.9,4.9-4.9
					c2.7,0,4.9,2.2,4.9,4.9C-213.4,370.3-215.6,372.4-218.2,372.4z"/>
				<path fill="#1BA1E2" d="M-231.4,387.1h13.5c3.8,0,6.9-3.1,6.9-6.9h-27.2C-238.2,384.1-235.2,387.1-231.4,387.1z"/>
			</g>
		</g>
		<g>
			<g>
				<path fill="#1BA1E2" d="M-211.4,362.6v-0.2c0-4.6-3.8-8.4-8.4-8.4h-3.2v-1.9c0.6-0.6,1-1.4,1-2.3c0-1.7-1.4-3.1-3.1-3.1
					c-1.7,0-3.1,1.4-3.1,3.1c0,0.9,0.4,1.8,1.1,2.3v1.9h-3.2c-4.6,0-8.4,3.8-8.4,8.4v0.2h-3v10.4h3c0,0.2,0,4.7,0,4.9h27.2
					c0-0.2,0-4.7,0-4.9h3.4v-10.4L-211.4,362.6L-211.4,362.6z M-231.6,371.9c-2.7,0-4.9-2.2-4.9-4.9c0-2.7,2.2-4.9,4.9-4.9
					c2.7,0,4.9,2.2,4.9,4.9C-226.7,369.8-228.9,371.9-231.6,371.9z M-218.7,371.9c-2.7,0-4.9-2.2-4.9-4.9c0-2.7,2.2-4.9,4.9-4.9
					c2.7,0,4.9,2.2,4.9,4.9C-213.9,369.8-216.1,371.9-218.7,371.9z"/>
				<path fill="#1BA1E2" d="M-231.9,386.6h13.5c3.8,0,6.9-3.1,6.9-6.9h-27.2C-238.7,383.6-235.7,386.6-231.9,386.6z"/>
			</g>
		</g>
		<g>
			<g>
				<path fill="#1BA1E2" d="M-211.9,362.1v-0.2c0-4.6-3.8-8.4-8.4-8.4h-3.2v-1.9c0.6-0.6,1-1.4,1-2.3c0-1.7-1.4-3.1-3.1-3.1
					c-1.7,0-3.1,1.4-3.1,3.1c0,0.9,0.4,1.8,1.1,2.3v1.9h-3.2c-4.6,0-8.4,3.8-8.4,8.4v0.2h-3v10.4h3c0,0.2,0,4.7,0,4.9h27.2
					c0-0.2,0-4.7,0-4.9h3.4v-10.4L-211.9,362.1L-211.9,362.1z M-232.1,371.4c-2.7,0-4.9-2.2-4.9-4.9c0-2.7,2.2-4.9,4.9-4.9
					c2.7,0,4.9,2.2,4.9,4.9C-227.2,369.3-229.4,371.4-232.1,371.4z M-219.2,371.4c-2.7,0-4.9-2.2-4.9-4.9c0-2.7,2.2-4.9,4.9-4.9
					c2.7,0,4.9,2.2,4.9,4.9C-214.4,369.3-216.6,371.4-219.2,371.4z"/>
				<path fill="#1BA1E2" d="M-232.4,386.1h13.5c3.8,0,6.9-3.1,6.9-6.9h-27.2C-239.2,383.1-236.2,386.1-232.4,386.1z"/>
			</g>
		</g>
		<g>
			<g>
				<path fill="#1BA1E2" d="M-212.4,361.6v-0.2c0-4.6-3.8-8.4-8.4-8.4h-3.2v-1.9c0.6-0.6,1-1.4,1-2.3c0-1.7-1.4-3.1-3.1-3.1
					c-1.7,0-3.1,1.4-3.1,3.1c0,0.9,0.4,1.8,1.1,2.3v1.9h-3.2c-4.6,0-8.4,3.8-8.4,8.4v0.2h-3v10.4h3c0,0.2,0,4.7,0,4.9h27.2
					c0-0.2,0-4.7,0-4.9h3.4v-10.4L-212.4,361.6L-212.4,361.6z M-232.6,370.9c-2.7,0-4.9-2.2-4.9-4.9c0-2.7,2.2-4.9,4.9-4.9
					c2.7,0,4.9,2.2,4.9,4.9C-227.7,368.8-229.9,370.9-232.6,370.9z M-219.7,370.9c-2.7,0-4.9-2.2-4.9-4.9c0-2.7,2.2-4.9,4.9-4.9
					c2.7,0,4.9,2.2,4.9,4.9C-214.9,368.8-217.1,370.9-219.7,370.9z"/>
				<path fill="#1BA1E2" d="M-232.9,385.6h13.5c3.8,0,6.9-3.1,6.9-6.9h-27.2C-239.7,382.6-236.7,385.6-232.9,385.6z"/>
			</g>
		</g>
		<g>
			<g>
				<path fill="#1BA1E2" d="M-212.9,361.1v-0.2c0-4.6-3.8-8.4-8.4-8.4h-3.2v-1.9c0.6-0.6,1-1.4,1-2.3c0-1.7-1.4-3.1-3.1-3.1
					c-1.7,0-3.1,1.4-3.1,3.1c0,0.9,0.4,1.8,1.1,2.3v1.9h-3.2c-4.6,0-8.4,3.8-8.4,8.4v0.2h-3v10.4h3c0,0.2,0,4.7,0,4.9h27.2
					c0-0.2,0-4.7,0-4.9h3.4v-10.4L-212.9,361.1L-212.9,361.1z M-233.1,370.4c-2.7,0-4.9-2.2-4.9-4.9c0-2.7,2.2-4.9,4.9-4.9
					c2.7,0,4.9,2.2,4.9,4.9C-228.2,368.3-230.4,370.4-233.1,370.4z M-220.2,370.4c-2.7,0-4.9-2.2-4.9-4.9c0-2.7,2.2-4.9,4.9-4.9
					c2.7,0,4.9,2.2,4.9,4.9C-215.4,368.3-217.6,370.4-220.2,370.4z"/>
				<path fill="#1BA1E2" d="M-233.4,385.1h13.5c3.8,0,6.9-3.1,6.9-6.9h-27.2C-240.2,382.1-237.2,385.1-233.4,385.1z"/>
			</g>
		</g>
		<g>
			<g>
				<path fill="#1BA1E2" d="M-213.4,360.6v-0.2c0-4.6-3.8-8.4-8.4-8.4h-3.2v-1.9c0.6-0.6,1-1.4,1-2.3c0-1.7-1.4-3.1-3.1-3.1
					c-1.7,0-3.1,1.4-3.1,3.1c0,0.9,0.4,1.8,1.1,2.3v1.9h-3.2c-4.6,0-8.4,3.8-8.4,8.4v0.2h-3v10.4h3c0,0.2,0,4.7,0,4.9h27.2
					c0-0.2,0-4.7,0-4.9h3.4v-10.4L-213.4,360.6L-213.4,360.6z M-233.6,369.9c-2.7,0-4.9-2.2-4.9-4.9c0-2.7,2.2-4.9,4.9-4.9
					c2.7,0,4.9,2.2,4.9,4.9C-228.7,367.8-230.9,369.9-233.6,369.9z M-220.7,369.9c-2.7,0-4.9-2.2-4.9-4.9c0-2.7,2.2-4.9,4.9-4.9
					c2.7,0,4.9,2.2,4.9,4.9C-215.9,367.8-218.1,369.9-220.7,369.9z"/>
				<path fill="#1BA1E2" d="M-233.9,384.6h13.5c3.8,0,6.9-3.1,6.9-6.9h-27.2C-240.7,381.6-237.7,384.6-233.9,384.6z"/>
			</g>
		</g>
		<g>
			<g>
				<path fill="#1BA1E2" d="M-213.9,360.1v-0.2c0-4.6-3.8-8.4-8.4-8.4h-3.2v-1.9c0.6-0.6,1-1.4,1-2.3c0-1.7-1.4-3.1-3.1-3.1
					c-1.7,0-3.1,1.4-3.1,3.1c0,0.9,0.4,1.8,1.1,2.3v1.9h-3.2c-4.6,0-8.4,3.8-8.4,8.4v0.2h-3v10.4h3c0,0.2,0,4.7,0,4.9h27.2
					c0-0.2,0-4.7,0-4.9h3.4v-10.4L-213.9,360.1L-213.9,360.1z M-234.1,369.4c-2.7,0-4.9-2.2-4.9-4.9c0-2.7,2.2-4.9,4.9-4.9
					c2.7,0,4.9,2.2,4.9,4.9C-229.2,367.3-231.4,369.4-234.1,369.4z M-221.2,369.4c-2.7,0-4.9-2.2-4.9-4.9c0-2.7,2.2-4.9,4.9-4.9
					c2.7,0,4.9,2.2,4.9,4.9C-216.4,367.3-218.6,369.4-221.2,369.4z"/>
				<path fill="#1BA1E2" d="M-234.4,384.1h13.5c3.8,0,6.9-3.1,6.9-6.9h-27.2C-241.2,381.1-238.2,384.1-234.4,384.1z"/>
			</g>
		</g>
		<g>
			<g>
				<path fill="#1BA1E2" d="M-214.4,359.6v-0.2c0-4.6-3.8-8.4-8.4-8.4h-3.2v-1.9c0.6-0.6,1-1.4,1-2.3c0-1.7-1.4-3.1-3.1-3.1
					c-1.7,0-3.1,1.4-3.1,3.1c0,0.9,0.4,1.8,1.1,2.3v1.9h-3.2c-4.6,0-8.4,3.8-8.4,8.4v0.2h-3v10.4h3c0,0.2,0,4.7,0,4.9h27.2
					c0-0.2,0-4.7,0-4.9h3.4v-10.4L-214.4,359.6L-214.4,359.6z M-234.6,368.9c-2.7,0-4.9-2.2-4.9-4.9c0-2.7,2.2-4.9,4.9-4.9
					c2.7,0,4.9,2.2,4.9,4.9C-229.7,366.8-231.9,368.9-234.6,368.9z M-221.7,368.9c-2.7,0-4.9-2.2-4.9-4.9c0-2.7,2.2-4.9,4.9-4.9
					c2.7,0,4.9,2.2,4.9,4.9C-216.9,366.8-219.1,368.9-221.7,368.9z"/>
				<path fill="#1BA1E2" d="M-234.9,383.6h13.5c3.8,0,6.9-3.1,6.9-6.9h-27.2C-241.7,380.6-238.7,383.6-234.9,383.6z"/>
			</g>
		</g>
		<g>
			<g>
				<path fill="#1BA1E2" d="M-214.9,359.1v-0.2c0-4.6-3.8-8.4-8.4-8.4h-3.2v-1.9c0.6-0.6,1-1.4,1-2.3c0-1.7-1.4-3.1-3.1-3.1
					c-1.7,0-3.1,1.4-3.1,3.1c0,0.9,0.4,1.8,1.1,2.3v1.9h-3.2c-4.6,0-8.4,3.8-8.4,8.4v0.2h-3v10.4h3c0,0.2,0,4.7,0,4.9h27.2
					c0-0.2,0-4.7,0-4.9h3.4v-10.4L-214.9,359.1L-214.9,359.1z M-235.1,368.4c-2.7,0-4.9-2.2-4.9-4.9c0-2.7,2.2-4.9,4.9-4.9
					c2.7,0,4.9,2.2,4.9,4.9C-230.2,366.3-232.4,368.4-235.1,368.4z M-222.2,368.4c-2.7,0-4.9-2.2-4.9-4.9c0-2.7,2.2-4.9,4.9-4.9
					c2.7,0,4.9,2.2,4.9,4.9C-217.4,366.3-219.6,368.4-222.2,368.4z"/>
				<path fill="#1BA1E2" d="M-235.4,383.1h13.5c3.8,0,6.9-3.1,6.9-6.9h-27.2C-242.2,380.1-239.2,383.1-235.4,383.1z"/>
			</g>
		</g>
		<g>
			<g>
				<path fill="#1BA1E2" d="M-215.4,358.6v-0.2c0-4.6-3.8-8.4-8.4-8.4h-3.2v-1.9c0.6-0.6,1-1.4,1-2.3c0-1.7-1.4-3.1-3.1-3.1
					c-1.7,0-3.1,1.4-3.1,3.1c0,0.9,0.4,1.8,1.1,2.3v1.9h-3.2c-4.6,0-8.4,3.8-8.4,8.4v0.2h-3v10.4h3c0,0.2,0,4.7,0,4.9h27.2
					c0-0.2,0-4.7,0-4.9h3.4v-10.4L-215.4,358.6L-215.4,358.6z M-235.6,367.9c-2.7,0-4.9-2.2-4.9-4.9c0-2.7,2.2-4.9,4.9-4.9
					c2.7,0,4.9,2.2,4.9,4.9C-230.7,365.8-232.9,367.9-235.6,367.9z M-222.7,367.9c-2.7,0-4.9-2.2-4.9-4.9c0-2.7,2.2-4.9,4.9-4.9
					c2.7,0,4.9,2.2,4.9,4.9C-217.9,365.8-220.1,367.9-222.7,367.9z"/>
				<path fill="#1BA1E2" d="M-235.9,382.6h13.5c3.8,0,6.9-3.1,6.9-6.9h-27.2C-242.7,379.6-239.7,382.6-235.9,382.6z"/>
			</g>
		</g>
		<g>
			<g>
				<path fill="#1BA1E2" d="M-215.9,358.1v-0.2c0-4.6-3.8-8.4-8.4-8.4h-3.2v-1.9c0.6-0.6,1-1.4,1-2.3c0-1.7-1.4-3.1-3.1-3.1
					c-1.7,0-3.1,1.4-3.1,3.1c0,0.9,0.4,1.8,1.1,2.3v1.9h-3.2c-4.6,0-8.4,3.8-8.4,8.4v0.2h-3v10.4h3c0,0.2,0,4.7,0,4.9h27.2
					c0-0.2,0-4.7,0-4.9h3.4v-10.4L-215.9,358.1L-215.9,358.1z M-236.1,367.4c-2.7,0-4.9-2.2-4.9-4.9c0-2.7,2.2-4.9,4.9-4.9
					c2.7,0,4.9,2.2,4.9,4.9C-231.2,365.3-233.4,367.4-236.1,367.4z M-223.2,367.4c-2.7,0-4.9-2.2-4.9-4.9c0-2.7,2.2-4.9,4.9-4.9
					c2.7,0,4.9,2.2,4.9,4.9C-218.4,365.3-220.6,367.4-223.2,367.4z"/>
				<path fill="#1BA1E2" d="M-236.4,382.1h13.5c3.8,0,6.9-3.1,6.9-6.9h-27.2C-243.2,379.1-240.2,382.1-236.4,382.1z"/>
			</g>
		</g>
		<g>
			<g>
				<path fill="#1BA1E2" d="M-216.4,357.6v-0.2c0-4.6-3.8-8.4-8.4-8.4h-3.2v-1.9c0.6-0.6,1-1.4,1-2.3c0-1.7-1.4-3.1-3.1-3.1
					c-1.7,0-3.1,1.4-3.1,3.1c0,0.9,0.4,1.8,1.1,2.3v1.9h-3.2c-4.6,0-8.4,3.8-8.4,8.4v0.2h-3v10.4h3c0,0.2,0,4.7,0,4.9h27.2
					c0-0.2,0-4.7,0-4.9h3.4v-10.4L-216.4,357.6L-216.4,357.6z M-236.6,366.9c-2.7,0-4.9-2.2-4.9-4.9c0-2.7,2.2-4.9,4.9-4.9
					c2.7,0,4.9,2.2,4.9,4.9C-231.7,364.8-233.9,366.9-236.6,366.9z M-223.7,366.9c-2.7,0-4.9-2.2-4.9-4.9c0-2.7,2.2-4.9,4.9-4.9
					c2.7,0,4.9,2.2,4.9,4.9C-218.9,364.8-221.1,366.9-223.7,366.9z"/>
				<path fill="#1BA1E2" d="M-236.9,381.6h13.5c3.8,0,6.9-3.1,6.9-6.9h-27.2C-243.7,378.6-240.7,381.6-236.9,381.6z"/>
			</g>
		</g>
		<g>
			<g>
				<path fill="#1BA1E2" d="M-216.9,357.1v-0.2c0-4.6-3.8-8.4-8.4-8.4h-3.2v-1.9c0.6-0.6,1-1.4,1-2.3c0-1.7-1.4-3.1-3.1-3.1
					c-1.7,0-3.1,1.4-3.1,3.1c0,0.9,0.4,1.8,1.1,2.3v1.9h-3.2c-4.6,0-8.4,3.8-8.4,8.4v0.2h-3v10.4h3c0,0.2,0,4.7,0,4.9h27.2
					c0-0.2,0-4.7,0-4.9h3.4v-10.4L-216.9,357.1L-216.9,357.1z M-237.1,366.4c-2.7,0-4.9-2.2-4.9-4.9c0-2.7,2.2-4.9,4.9-4.9
					c2.7,0,4.9,2.2,4.9,4.9C-232.2,364.3-234.4,366.4-237.1,366.4z M-224.2,366.4c-2.7,0-4.9-2.2-4.9-4.9c0-2.7,2.2-4.9,4.9-4.9
					c2.7,0,4.9,2.2,4.9,4.9C-219.4,364.3-221.6,366.4-224.2,366.4z"/>
				<path fill="#1BA1E2" d="M-237.4,381.1h13.5c3.8,0,6.9-3.1,6.9-6.9h-27.2C-244.2,378.1-241.2,381.1-237.4,381.1z"/>
			</g>
		</g>
		<g>
			<g>
				<path fill="#1BA1E2" d="M-217.4,356.6v-0.2c0-4.6-3.8-8.4-8.4-8.4h-3.2v-1.9c0.6-0.6,1-1.4,1-2.3c0-1.7-1.4-3.1-3.1-3.1
					c-1.7,0-3.1,1.4-3.1,3.1c0,0.9,0.4,1.8,1.1,2.3v1.9h-3.2c-4.6,0-8.4,3.8-8.4,8.4v0.2h-3v10.4h3c0,0.2,0,4.7,0,4.9h27.2
					c0-0.2,0-4.7,0-4.9h3.4v-10.4L-217.4,356.6L-217.4,356.6z M-237.6,365.9c-2.7,0-4.9-2.2-4.9-4.9c0-2.7,2.2-4.9,4.9-4.9
					c2.7,0,4.9,2.2,4.9,4.9C-232.7,363.8-234.9,365.9-237.6,365.9z M-224.7,365.9c-2.7,0-4.9-2.2-4.9-4.9c0-2.7,2.2-4.9,4.9-4.9
					c2.7,0,4.9,2.2,4.9,4.9C-219.9,363.8-222.1,365.9-224.7,365.9z"/>
				<path fill="#1BA1E2" d="M-237.9,380.6h13.5c3.8,0,6.9-3.1,6.9-6.9h-27.2C-244.7,377.6-241.7,380.6-237.9,380.6z"/>
			</g>
		</g>
		<g>
			<g>
				<path fill="#1BA1E2" d="M-217.9,356.1v-0.2c0-4.6-3.8-8.4-8.4-8.4h-3.2v-1.9c0.6-0.6,1-1.4,1-2.3c0-1.7-1.4-3.1-3.1-3.1
					c-1.7,0-3.1,1.4-3.1,3.1c0,0.9,0.4,1.8,1.1,2.3v1.9h-3.2c-4.6,0-8.4,3.8-8.4,8.4v0.2h-3v10.4h3c0,0.2,0,4.7,0,4.9h27.2
					c0-0.2,0-4.7,0-4.9h3.4v-10.4L-217.9,356.1L-217.9,356.1z M-238.1,365.4c-2.7,0-4.9-2.2-4.9-4.9c0-2.7,2.2-4.9,4.9-4.9
					c2.7,0,4.9,2.2,4.9,4.9C-233.2,363.3-235.4,365.4-238.1,365.4z M-225.2,365.4c-2.7,0-4.9-2.2-4.9-4.9c0-2.7,2.2-4.9,4.9-4.9
					c2.7,0,4.9,2.2,4.9,4.9C-220.4,363.3-222.6,365.4-225.2,365.4z"/>
				<path fill="#1BA1E2" d="M-238.4,380.1h13.5c3.8,0,6.9-3.1,6.9-6.9h-27.2C-245.2,377.1-242.2,380.1-238.4,380.1z"/>
			</g>
		</g>
		<g>
			<g>
				<path fill="#1BA1E2" d="M-218.4,355.6v-0.2c0-4.6-3.8-8.4-8.4-8.4h-3.2v-1.9c0.6-0.6,1-1.4,1-2.3c0-1.7-1.4-3.1-3.1-3.1
					c-1.7,0-3.1,1.4-3.1,3.1c0,0.9,0.4,1.8,1.1,2.3v1.9h-3.2c-4.6,0-8.4,3.8-8.4,8.4v0.2h-3v10.4h3c0,0.2,0,4.7,0,4.9h27.2
					c0-0.2,0-4.7,0-4.9h3.4v-10.4L-218.4,355.6L-218.4,355.6z M-238.6,364.9c-2.7,0-4.9-2.2-4.9-4.9c0-2.7,2.2-4.9,4.9-4.9
					c2.7,0,4.9,2.2,4.9,4.9C-233.7,362.8-235.9,364.9-238.6,364.9z M-225.7,364.9c-2.7,0-4.9-2.2-4.9-4.9c0-2.7,2.2-4.9,4.9-4.9
					c2.7,0,4.9,2.2,4.9,4.9C-220.9,362.8-223.1,364.9-225.7,364.9z"/>
				<path fill="#1BA1E2" d="M-238.9,379.6h13.5c3.8,0,6.9-3.1,6.9-6.9h-27.2C-245.7,376.6-242.7,379.6-238.9,379.6z"/>
			</g>
		</g>
		<g>
			<g>
				<path fill="#1BA1E2" d="M-218.9,355.1v-0.2c0-4.6-3.8-8.4-8.4-8.4h-3.2v-1.9c0.6-0.6,1-1.4,1-2.3c0-1.7-1.4-3.1-3.1-3.1
					c-1.7,0-3.1,1.4-3.1,3.1c0,0.9,0.4,1.8,1.1,2.3v1.9h-3.2c-4.6,0-8.4,3.8-8.4,8.4v0.2h-3v10.4h3c0,0.2,0,4.7,0,4.9h27.2
					c0-0.2,0-4.7,0-4.9h3.4v-10.4L-218.9,355.1L-218.9,355.1z M-239.1,364.4c-2.7,0-4.9-2.2-4.9-4.9c0-2.7,2.2-4.9,4.9-4.9
					c2.7,0,4.9,2.2,4.9,4.9C-234.2,362.3-236.4,364.4-239.1,364.4z M-226.2,364.4c-2.7,0-4.9-2.2-4.9-4.9c0-2.7,2.2-4.9,4.9-4.9
					c2.7,0,4.9,2.2,4.9,4.9C-221.4,362.3-223.6,364.4-226.2,364.4z"/>
				<path fill="#1BA1E2" d="M-239.4,379.1h13.5c3.8,0,6.9-3.1,6.9-6.9h-27.2C-246.2,376.1-243.2,379.1-239.4,379.1z"/>
			</g>
		</g>
		<g>
			<g>
				<path fill="#1BA1E2" d="M-219.4,354.6v-0.2c0-4.6-3.8-8.4-8.4-8.4h-3.2v-1.9c0.6-0.6,1-1.4,1-2.3c0-1.7-1.4-3.1-3.1-3.1
					c-1.7,0-3.1,1.4-3.1,3.1c0,0.9,0.4,1.8,1.1,2.3v1.9h-3.2c-4.6,0-8.4,3.8-8.4,8.4v0.2h-3v10.4h3c0,0.2,0,4.7,0,4.9h27.2
					c0-0.2,0-4.7,0-4.9h3.4v-10.4L-219.4,354.6L-219.4,354.6z M-239.6,363.9c-2.7,0-4.9-2.2-4.9-4.9c0-2.7,2.2-4.9,4.9-4.9
					c2.7,0,4.9,2.2,4.9,4.9C-234.7,361.8-236.9,363.9-239.6,363.9z M-226.7,363.9c-2.7,0-4.9-2.2-4.9-4.9c0-2.7,2.2-4.9,4.9-4.9
					c2.7,0,4.9,2.2,4.9,4.9C-221.9,361.8-224.1,363.9-226.7,363.9z"/>
				<path fill="#1BA1E2" d="M-239.9,378.6h13.5c3.8,0,6.9-3.1,6.9-6.9h-27.2C-246.7,375.6-243.7,378.6-239.9,378.6z"/>
			</g>
		</g>
		<g>
			<g>
				<path fill="#1BA1E2" d="M-219.9,354.1v-0.2c0-4.6-3.8-8.4-8.4-8.4h-3.2v-1.9c0.6-0.6,1-1.4,1-2.3c0-1.7-1.4-3.1-3.1-3.1
					c-1.7,0-3.1,1.4-3.1,3.1c0,0.9,0.4,1.8,1.1,2.3v1.9h-3.2c-4.6,0-8.4,3.8-8.4,8.4v0.2h-3v10.4h3c0,0.2,0,4.7,0,4.9h27.2
					c0-0.2,0-4.7,0-4.9h3.4v-10.4L-219.9,354.1L-219.9,354.1z M-240.1,363.4c-2.7,0-4.9-2.2-4.9-4.9c0-2.7,2.2-4.9,4.9-4.9
					c2.7,0,4.9,2.2,4.9,4.9C-235.2,361.3-237.4,363.4-240.1,363.4z M-227.2,363.4c-2.7,0-4.9-2.2-4.9-4.9c0-2.7,2.2-4.9,4.9-4.9
					c2.7,0,4.9,2.2,4.9,4.9C-222.4,361.3-224.6,363.4-227.2,363.4z"/>
				<path fill="#1BA1E2" d="M-240.4,378.1h13.5c3.8,0,6.9-3.1,6.9-6.9h-27.2C-247.2,375.1-244.2,378.1-240.4,378.1z"/>
			</g>
		</g>
		<g>
			<g>
				<path fill="#1BA1E2" d="M-220.4,353.6v-0.2c0-4.6-3.8-8.4-8.4-8.4h-3.2v-1.9c0.6-0.6,1-1.4,1-2.3c0-1.7-1.4-3.1-3.1-3.1
					c-1.7,0-3.1,1.4-3.1,3.1c0,0.9,0.4,1.8,1.1,2.3v1.9h-3.2c-4.6,0-8.4,3.8-8.4,8.4v0.2h-3v10.4h3c0,0.2,0,4.7,0,4.9h27.2
					c0-0.2,0-4.7,0-4.9h3.4v-10.4L-220.4,353.6L-220.4,353.6z M-240.6,362.9c-2.7,0-4.9-2.2-4.9-4.9c0-2.7,2.2-4.9,4.9-4.9
					c2.7,0,4.9,2.2,4.9,4.9C-235.7,360.8-237.9,362.9-240.6,362.9z M-227.7,362.9c-2.7,0-4.9-2.2-4.9-4.9c0-2.7,2.2-4.9,4.9-4.9
					c2.7,0,4.9,2.2,4.9,4.9C-222.9,360.8-225.1,362.9-227.7,362.9z"/>
				<path fill="#1BA1E2" d="M-240.9,377.6h13.5c3.8,0,6.9-3.1,6.9-6.9h-27.2C-247.7,374.6-244.7,377.6-240.9,377.6z"/>
			</g>
		</g>
		<g>
			<g>
				<path fill="#1BA1E2" d="M-220.9,353.1v-0.2c0-4.6-3.8-8.4-8.4-8.4h-3.2v-1.9c0.6-0.6,1-1.4,1-2.3c0-1.7-1.4-3.1-3.1-3.1
					c-1.7,0-3.1,1.4-3.1,3.1c0,0.9,0.4,1.8,1.1,2.3v1.9h-3.2c-4.6,0-8.4,3.8-8.4,8.4v0.2h-3v10.4h3c0,0.2,0,4.7,0,4.9h27.2
					c0-0.2,0-4.7,0-4.9h3.4v-10.4L-220.9,353.1L-220.9,353.1z M-241.1,362.4c-2.7,0-4.9-2.2-4.9-4.9c0-2.7,2.2-4.9,4.9-4.9
					c2.7,0,4.9,2.2,4.9,4.9C-236.2,360.3-238.4,362.4-241.1,362.4z M-228.2,362.4c-2.7,0-4.9-2.2-4.9-4.9c0-2.7,2.2-4.9,4.9-4.9
					c2.7,0,4.9,2.2,4.9,4.9C-223.4,360.3-225.6,362.4-228.2,362.4z"/>
				<path fill="#1BA1E2" d="M-241.4,377.1h13.5c3.8,0,6.9-3.1,6.9-6.9h-27.2C-248.2,374.1-245.2,377.1-241.4,377.1z"/>
			</g>
		</g>
		<g>
			<g>
				<path fill="#1BA1E2" d="M-221.4,352.6v-0.2c0-4.6-3.8-8.4-8.4-8.4h-3.2v-1.9c0.6-0.6,1-1.4,1-2.3c0-1.7-1.4-3.1-3.1-3.1
					c-1.7,0-3.1,1.4-3.1,3.1c0,0.9,0.4,1.8,1.1,2.3v1.9h-3.2c-4.6,0-8.4,3.8-8.4,8.4v0.2h-3v10.4h3c0,0.2,0,4.7,0,4.9h27.2
					c0-0.2,0-4.7,0-4.9h3.4v-10.4L-221.4,352.6L-221.4,352.6z M-241.6,361.9c-2.7,0-4.9-2.2-4.9-4.9c0-2.7,2.2-4.9,4.9-4.9
					c2.7,0,4.9,2.2,4.9,4.9C-236.7,359.8-238.9,361.9-241.6,361.9z M-228.7,361.9c-2.7,0-4.9-2.2-4.9-4.9c0-2.7,2.2-4.9,4.9-4.9
					c2.7,0,4.9,2.2,4.9,4.9C-223.9,359.8-226.1,361.9-228.7,361.9z"/>
				<path fill="#1BA1E2" d="M-241.9,376.6h13.5c3.8,0,6.9-3.1,6.9-6.9h-27.2C-248.7,373.6-245.7,376.6-241.9,376.6z"/>
			</g>
		</g>
		<g>
			<g>
				<path fill="#1BA1E2" d="M-221.9,352.1v-0.2c0-4.6-3.8-8.4-8.4-8.4h-3.2v-1.9c0.6-0.6,1-1.4,1-2.3c0-1.7-1.4-3.1-3.1-3.1
					c-1.7,0-3.1,1.4-3.1,3.1c0,0.9,0.4,1.8,1.1,2.3v1.9h-3.2c-4.6,0-8.4,3.8-8.4,8.4v0.2h-3v10.4h3c0,0.2,0,4.7,0,4.9h27.2
					c0-0.2,0-4.7,0-4.9h3.4v-10.4L-221.9,352.1L-221.9,352.1z M-242.1,361.4c-2.7,0-4.9-2.2-4.9-4.9c0-2.7,2.2-4.9,4.9-4.9
					c2.7,0,4.9,2.2,4.9,4.9C-237.2,359.3-239.4,361.4-242.1,361.4z M-229.2,361.4c-2.7,0-4.9-2.2-4.9-4.9c0-2.7,2.2-4.9,4.9-4.9
					c2.7,0,4.9,2.2,4.9,4.9C-224.4,359.3-226.6,361.4-229.2,361.4z"/>
				<path fill="#1BA1E2" d="M-242.4,376.1h13.5c3.8,0,6.9-3.1,6.9-6.9h-27.2C-249.2,373.1-246.2,376.1-242.4,376.1z"/>
			</g>
		</g>
		<g>
			<g>
				<path fill="#1BA1E2" d="M-222.4,351.6v-0.2c0-4.6-3.8-8.4-8.4-8.4h-3.2v-1.9c0.6-0.6,1-1.4,1-2.3c0-1.7-1.4-3.1-3.1-3.1
					c-1.7,0-3.1,1.4-3.1,3.1c0,0.9,0.4,1.8,1.1,2.3v1.9h-3.2c-4.6,0-8.4,3.8-8.4,8.4v0.2h-3v10.4h3c0,0.2,0,4.7,0,4.9h27.2
					c0-0.2,0-4.7,0-4.9h3.4v-10.4L-222.4,351.6L-222.4,351.6z M-242.6,360.9c-2.7,0-4.9-2.2-4.9-4.9c0-2.7,2.2-4.9,4.9-4.9
					c2.7,0,4.9,2.2,4.9,4.9C-237.7,358.8-239.9,360.9-242.6,360.9z M-229.7,360.9c-2.7,0-4.9-2.2-4.9-4.9c0-2.7,2.2-4.9,4.9-4.9
					c2.7,0,4.9,2.2,4.9,4.9C-224.9,358.8-227.1,360.9-229.7,360.9z"/>
				<path fill="#1BA1E2" d="M-242.9,375.6h13.5c3.8,0,6.9-3.1,6.9-6.9h-27.2C-249.7,372.6-246.7,375.6-242.9,375.6z"/>
			</g>
		</g>
		<g>
			<g>
				<path fill="#1BA1E2" d="M-222.9,351.1v-0.2c0-4.6-3.8-8.4-8.4-8.4h-3.2v-1.9c0.6-0.6,1-1.4,1-2.3c0-1.7-1.4-3.1-3.1-3.1
					c-1.7,0-3.1,1.4-3.1,3.1c0,0.9,0.4,1.8,1.1,2.3v1.9h-3.2c-4.6,0-8.4,3.8-8.4,8.4v0.2h-3v10.4h3c0,0.2,0,4.7,0,4.9h27.2
					c0-0.2,0-4.7,0-4.9h3.4v-10.4L-222.9,351.1L-222.9,351.1z M-243.1,360.4c-2.7,0-4.9-2.2-4.9-4.9c0-2.7,2.2-4.9,4.9-4.9
					c2.7,0,4.9,2.2,4.9,4.9C-238.2,358.3-240.4,360.4-243.1,360.4z M-230.2,360.4c-2.7,0-4.9-2.2-4.9-4.9c0-2.7,2.2-4.9,4.9-4.9
					c2.7,0,4.9,2.2,4.9,4.9C-225.4,358.3-227.6,360.4-230.2,360.4z"/>
				<path fill="#1BA1E2" d="M-243.4,375.1h13.5c3.8,0,6.9-3.1,6.9-6.9h-27.2C-250.2,372.1-247.2,375.1-243.4,375.1z"/>
			</g>
		</g>
		<g>
			<g>
				<path fill="#1BA1E2" d="M-223.4,350.6v-0.2c0-4.6-3.8-8.4-8.4-8.4h-3.2v-1.9c0.6-0.6,1-1.4,1-2.3c0-1.7-1.4-3.1-3.1-3.1
					c-1.7,0-3.1,1.4-3.1,3.1c0,0.9,0.4,1.8,1.1,2.3v1.9h-3.2c-4.6,0-8.4,3.8-8.4,8.4v0.2h-3v10.4h3c0,0.2,0,4.7,0,4.9h27.2
					c0-0.2,0-4.7,0-4.9h3.4v-10.4L-223.4,350.6L-223.4,350.6z M-243.6,359.9c-2.7,0-4.9-2.2-4.9-4.9c0-2.7,2.2-4.9,4.9-4.9
					c2.7,0,4.9,2.2,4.9,4.9C-238.7,357.8-240.9,359.9-243.6,359.9z M-230.7,359.9c-2.7,0-4.9-2.2-4.9-4.9c0-2.7,2.2-4.9,4.9-4.9
					c2.7,0,4.9,2.2,4.9,4.9C-225.9,357.8-228.1,359.9-230.7,359.9z"/>
				<path fill="#1BA1E2" d="M-243.9,374.6h13.5c3.8,0,6.9-3.1,6.9-6.9h-27.2C-250.7,371.6-247.7,374.6-243.9,374.6z"/>
			</g>
		</g>
		<g>
			<g>
				<path fill="#1BA1E2" d="M-223.9,350.1v-0.2c0-4.6-3.8-8.4-8.4-8.4h-3.2v-1.9c0.6-0.6,1-1.4,1-2.3c0-1.7-1.4-3.1-3.1-3.1
					c-1.7,0-3.1,1.4-3.1,3.1c0,0.9,0.4,1.8,1.1,2.3v1.9h-3.2c-4.6,0-8.4,3.8-8.4,8.4v0.2h-3v10.4h3c0,0.2,0,4.7,0,4.9h27.2
					c0-0.2,0-4.7,0-4.9h3.4v-10.4L-223.9,350.1L-223.9,350.1z M-244.1,359.4c-2.7,0-4.9-2.2-4.9-4.9c0-2.7,2.2-4.9,4.9-4.9
					c2.7,0,4.9,2.2,4.9,4.9C-239.2,357.3-241.4,359.4-244.1,359.4z M-231.2,359.4c-2.7,0-4.9-2.2-4.9-4.9c0-2.7,2.2-4.9,4.9-4.9
					c2.7,0,4.9,2.2,4.9,4.9C-226.4,357.3-228.6,359.4-231.2,359.4z"/>
				<path fill="#1BA1E2" d="M-244.4,374.1h13.5c3.8,0,6.9-3.1,6.9-6.9h-27.2C-251.2,371.1-248.2,374.1-244.4,374.1z"/>
			</g>
		</g>
		<g>
			<g>
				<path fill="#1BA1E2" d="M-224.4,349.6v-0.2c0-4.6-3.8-8.4-8.4-8.4h-3.2v-1.9c0.6-0.6,1-1.4,1-2.3c0-1.7-1.4-3.1-3.1-3.1
					c-1.7,0-3.1,1.4-3.1,3.1c0,0.9,0.4,1.8,1.1,2.3v1.9h-3.2c-4.6,0-8.4,3.8-8.4,8.4v0.2h-3v10.4h3c0,0.2,0,4.7,0,4.9h27.2
					c0-0.2,0-4.7,0-4.9h3.4v-10.4L-224.4,349.6L-224.4,349.6z M-244.6,358.9c-2.7,0-4.9-2.2-4.9-4.9c0-2.7,2.2-4.9,4.9-4.9
					c2.7,0,4.9,2.2,4.9,4.9C-239.7,356.8-241.9,358.9-244.6,358.9z M-231.7,358.9c-2.7,0-4.9-2.2-4.9-4.9c0-2.7,2.2-4.9,4.9-4.9
					c2.7,0,4.9,2.2,4.9,4.9C-226.9,356.8-229.1,358.9-231.7,358.9z"/>
				<path fill="#1BA1E2" d="M-244.9,373.6h13.5c3.8,0,6.9-3.1,6.9-6.9h-27.2C-251.7,370.6-248.7,373.6-244.9,373.6z"/>
			</g>
		</g>
		<g>
			<g>
				<path fill="#1BA1E2" d="M-224.9,349.1v-0.2c0-4.6-3.8-8.4-8.4-8.4h-3.2v-1.9c0.6-0.6,1-1.4,1-2.3c0-1.7-1.4-3.1-3.1-3.1
					c-1.7,0-3.1,1.4-3.1,3.1c0,0.9,0.4,1.8,1.1,2.3v1.9h-3.2c-4.6,0-8.4,3.8-8.4,8.4v0.2h-3v10.4h3c0,0.2,0,4.7,0,4.9h27.2
					c0-0.2,0-4.7,0-4.9h3.4v-10.4L-224.9,349.1L-224.9,349.1z M-245.1,358.4c-2.7,0-4.9-2.2-4.9-4.9c0-2.7,2.2-4.9,4.9-4.9
					c2.7,0,4.9,2.2,4.9,4.9C-240.2,356.3-242.4,358.4-245.1,358.4z M-232.2,358.4c-2.7,0-4.9-2.2-4.9-4.9c0-2.7,2.2-4.9,4.9-4.9
					c2.7,0,4.9,2.2,4.9,4.9C-227.4,356.3-229.6,358.4-232.2,358.4z"/>
				<path fill="#1BA1E2" d="M-245.4,373.1h13.5c3.8,0,6.9-3.1,6.9-6.9h-27.2C-252.2,370.1-249.2,373.1-245.4,373.1z"/>
			</g>
		</g>
		<g>
			<g>
				<path fill="#1BA1E2" d="M-225.4,348.6v-0.2c0-4.6-3.8-8.4-8.4-8.4h-3.2v-1.9c0.6-0.6,1-1.4,1-2.3c0-1.7-1.4-3.1-3.1-3.1
					c-1.7,0-3.1,1.4-3.1,3.1c0,0.9,0.4,1.8,1.1,2.3v1.9h-3.2c-4.6,0-8.4,3.8-8.4,8.4v0.2h-3v10.4h3c0,0.2,0,4.7,0,4.9h27.2
					c0-0.2,0-4.7,0-4.9h3.4v-10.4L-225.4,348.6L-225.4,348.6z M-245.6,357.9c-2.7,0-4.9-2.2-4.9-4.9c0-2.7,2.2-4.9,4.9-4.9
					c2.7,0,4.9,2.2,4.9,4.9C-240.7,355.8-242.9,357.9-245.6,357.9z M-232.7,357.9c-2.7,0-4.9-2.2-4.9-4.9c0-2.7,2.2-4.9,4.9-4.9
					c2.7,0,4.9,2.2,4.9,4.9C-227.9,355.8-230.1,357.9-232.7,357.9z"/>
				<path fill="#1BA1E2" d="M-245.9,372.6h13.5c3.8,0,6.9-3.1,6.9-6.9h-27.2C-252.7,369.6-249.7,372.6-245.9,372.6z"/>
			</g>
		</g>
		<g>
			<g>
				<path fill="#1BA1E2" d="M-225.9,348.1v-0.2c0-4.6-3.8-8.4-8.4-8.4h-3.2v-1.9c0.6-0.6,1-1.4,1-2.3c0-1.7-1.4-3.1-3.1-3.1
					c-1.7,0-3.1,1.4-3.1,3.1c0,0.9,0.4,1.8,1.1,2.3v1.9h-3.2c-4.6,0-8.4,3.8-8.4,8.4v0.2h-3v10.4h3c0,0.2,0,4.7,0,4.9h27.2
					c0-0.2,0-4.7,0-4.9h3.4v-10.4L-225.9,348.1L-225.9,348.1z M-246.1,357.4c-2.7,0-4.9-2.2-4.9-4.9c0-2.7,2.2-4.9,4.9-4.9
					c2.7,0,4.9,2.2,4.9,4.9C-241.2,355.3-243.4,357.4-246.1,357.4z M-233.2,357.4c-2.7,0-4.9-2.2-4.9-4.9c0-2.7,2.2-4.9,4.9-4.9
					c2.7,0,4.9,2.2,4.9,4.9C-228.4,355.3-230.6,357.4-233.2,357.4z"/>
				<path fill="#1BA1E2" d="M-246.4,372.1h13.5c3.8,0,6.9-3.1,6.9-6.9h-27.2C-253.2,369.1-250.2,372.1-246.4,372.1z"/>
			</g>
		</g>
		<g>
			<g>
				<path fill="#1BA1E2" d="M-226.4,347.6v-0.2c0-4.6-3.8-8.4-8.4-8.4h-3.2v-1.9c0.6-0.6,1-1.4,1-2.3c0-1.7-1.4-3.1-3.1-3.1
					c-1.7,0-3.1,1.4-3.1,3.1c0,0.9,0.4,1.8,1.1,2.3v1.9h-3.2c-4.6,0-8.4,3.8-8.4,8.4v0.2h-3v10.4h3c0,0.2,0,4.7,0,4.9h27.2
					c0-0.2,0-4.7,0-4.9h3.4v-10.4L-226.4,347.6L-226.4,347.6z M-246.6,356.9c-2.7,0-4.9-2.2-4.9-4.9c0-2.7,2.2-4.9,4.9-4.9
					c2.7,0,4.9,2.2,4.9,4.9C-241.7,354.8-243.9,356.9-246.6,356.9z M-233.7,356.9c-2.7,0-4.9-2.2-4.9-4.9c0-2.7,2.2-4.9,4.9-4.9
					c2.7,0,4.9,2.2,4.9,4.9C-228.9,354.8-231.1,356.9-233.7,356.9z"/>
				<path fill="#1BA1E2" d="M-246.9,371.6h13.5c3.8,0,6.9-3.1,6.9-6.9h-27.2C-253.7,368.6-250.7,371.6-246.9,371.6z"/>
			</g>
		</g>
		<g>
			<g>
				<path fill="#1BA1E2" d="M-226.9,347.1v-0.2c0-4.6-3.8-8.4-8.4-8.4h-3.2v-1.9c0.6-0.6,1-1.4,1-2.3c0-1.7-1.4-3.1-3.1-3.1
					c-1.7,0-3.1,1.4-3.1,3.1c0,0.9,0.4,1.8,1.1,2.3v1.9h-3.2c-4.6,0-8.4,3.8-8.4,8.4v0.2h-3v10.4h3c0,0.2,0,4.7,0,4.9h27.2
					c0-0.2,0-4.7,0-4.9h3.4v-10.4L-226.9,347.1L-226.9,347.1z M-247.1,356.4c-2.7,0-4.9-2.2-4.9-4.9c0-2.7,2.2-4.9,4.9-4.9
					c2.7,0,4.9,2.2,4.9,4.9C-242.2,354.3-244.4,356.4-247.1,356.4z M-234.2,356.4c-2.7,0-4.9-2.2-4.9-4.9c0-2.7,2.2-4.9,4.9-4.9
					c2.7,0,4.9,2.2,4.9,4.9C-229.4,354.3-231.6,356.4-234.2,356.4z"/>
				<path fill="#1BA1E2" d="M-247.4,371.1h13.5c3.8,0,6.9-3.1,6.9-6.9h-27.2C-254.2,368.1-251.2,371.1-247.4,371.1z"/>
			</g>
		</g>
		<g>
			<g>
				<path fill="#1BA1E2" d="M-227.4,346.6v-0.2c0-4.6-3.8-8.4-8.4-8.4h-3.2v-1.9c0.6-0.6,1-1.4,1-2.3c0-1.7-1.4-3.1-3.1-3.1
					c-1.7,0-3.1,1.4-3.1,3.1c0,0.9,0.4,1.8,1.1,2.3v1.9h-3.2c-4.6,0-8.4,3.8-8.4,8.4v0.2h-3v10.4h3c0,0.2,0,4.7,0,4.9h27.2
					c0-0.2,0-4.7,0-4.9h3.4v-10.4L-227.4,346.6L-227.4,346.6z M-247.6,355.9c-2.7,0-4.9-2.2-4.9-4.9c0-2.7,2.2-4.9,4.9-4.9
					c2.7,0,4.9,2.2,4.9,4.9C-242.7,353.8-244.9,355.9-247.6,355.9z M-234.7,355.9c-2.7,0-4.9-2.2-4.9-4.9c0-2.7,2.2-4.9,4.9-4.9
					c2.7,0,4.9,2.2,4.9,4.9C-229.9,353.8-232.1,355.9-234.7,355.9z"/>
				<path fill="#1BA1E2" d="M-247.9,370.6h13.5c3.8,0,6.9-3.1,6.9-6.9h-27.2C-254.7,367.6-251.7,370.6-247.9,370.6z"/>
			</g>
		</g>
		<g>
			<g>
				<path fill="#1BA1E2" d="M-227.9,346.1v-0.2c0-4.6-3.8-8.4-8.4-8.4h-3.2v-1.9c0.6-0.6,1-1.4,1-2.3c0-1.7-1.4-3.1-3.1-3.1
					c-1.7,0-3.1,1.4-3.1,3.1c0,0.9,0.4,1.8,1.1,2.3v1.9h-3.2c-4.6,0-8.4,3.8-8.4,8.4v0.2h-3v10.4h3c0,0.2,0,4.7,0,4.9h27.2
					c0-0.2,0-4.7,0-4.9h3.4v-10.4L-227.9,346.1L-227.9,346.1z M-248.1,355.4c-2.7,0-4.9-2.2-4.9-4.9c0-2.7,2.2-4.9,4.9-4.9
					c2.7,0,4.9,2.2,4.9,4.9C-243.2,353.3-245.4,355.4-248.1,355.4z M-235.2,355.4c-2.7,0-4.9-2.2-4.9-4.9c0-2.7,2.2-4.9,4.9-4.9
					c2.7,0,4.9,2.2,4.9,4.9C-230.4,353.3-232.6,355.4-235.2,355.4z"/>
				<path fill="#1BA1E2" d="M-248.4,370.1h13.5c3.8,0,6.9-3.1,6.9-6.9h-27.2C-255.2,367.1-252.2,370.1-248.4,370.1z"/>
			</g>
		</g>
		<g>
			<g>
				<path fill="#1BA1E2" d="M-228.4,345.6v-0.2c0-4.6-3.8-8.4-8.4-8.4h-3.2v-1.9c0.6-0.6,1-1.4,1-2.3c0-1.7-1.4-3.1-3.1-3.1
					c-1.7,0-3.1,1.4-3.1,3.1c0,0.9,0.4,1.8,1.1,2.3v1.9h-3.2c-4.6,0-8.4,3.8-8.4,8.4v0.2h-3v10.4h3c0,0.2,0,4.7,0,4.9h27.2
					c0-0.2,0-4.7,0-4.9h3.4v-10.4L-228.4,345.6L-228.4,345.6z M-248.6,354.9c-2.7,0-4.9-2.2-4.9-4.9c0-2.7,2.2-4.9,4.9-4.9
					c2.7,0,4.9,2.2,4.9,4.9C-243.7,352.8-245.9,354.9-248.6,354.9z M-235.7,354.9c-2.7,0-4.9-2.2-4.9-4.9c0-2.7,2.2-4.9,4.9-4.9
					c2.7,0,4.9,2.2,4.9,4.9C-230.9,352.8-233.1,354.9-235.7,354.9z"/>
				<path fill="#1BA1E2" d="M-248.9,369.6h13.5c3.8,0,6.9-3.1,6.9-6.9h-27.2C-255.7,366.6-252.7,369.6-248.9,369.6z"/>
			</g>
		</g>
		<g>
			<g>
				<path fill="#1BA1E2" d="M-228.9,345.1v-0.2c0-4.6-3.8-8.4-8.4-8.4h-3.2v-1.9c0.6-0.6,1-1.4,1-2.3c0-1.7-1.4-3.1-3.1-3.1
					c-1.7,0-3.1,1.4-3.1,3.1c0,0.9,0.4,1.8,1.1,2.3v1.9h-3.2c-4.6,0-8.4,3.8-8.4,8.4v0.2h-3v10.4h3c0,0.2,0,4.7,0,4.9h27.2
					c0-0.2,0-4.7,0-4.9h3.4v-10.4L-228.9,345.1L-228.9,345.1z M-249.1,354.4c-2.7,0-4.9-2.2-4.9-4.9c0-2.7,2.2-4.9,4.9-4.9
					c2.7,0,4.9,2.2,4.9,4.9C-244.2,352.3-246.4,354.4-249.1,354.4z M-236.2,354.4c-2.7,0-4.9-2.2-4.9-4.9c0-2.7,2.2-4.9,4.9-4.9
					c2.7,0,4.9,2.2,4.9,4.9C-231.4,352.3-233.6,354.4-236.2,354.4z"/>
				<path fill="#1BA1E2" d="M-249.4,369.1h13.5c3.8,0,6.9-3.1,6.9-6.9h-27.2C-256.2,366.1-253.2,369.1-249.4,369.1z"/>
			</g>
		</g>
		<g>
			<g>
				<path fill="#1BA1E2" d="M-229.4,344.6v-0.2c0-4.6-3.8-8.4-8.4-8.4h-3.2v-1.9c0.6-0.6,1-1.4,1-2.3c0-1.7-1.4-3.1-3.1-3.1
					c-1.7,0-3.1,1.4-3.1,3.1c0,0.9,0.4,1.8,1.1,2.3v1.9h-3.2c-4.6,0-8.4,3.8-8.4,8.4v0.2h-3v10.4h3c0,0.2,0,4.7,0,4.9h27.2
					c0-0.2,0-4.7,0-4.9h3.4v-10.4L-229.4,344.6L-229.4,344.6z M-249.6,353.9c-2.7,0-4.9-2.2-4.9-4.9c0-2.7,2.2-4.9,4.9-4.9
					c2.7,0,4.9,2.2,4.9,4.9C-244.7,351.8-246.9,353.9-249.6,353.9z M-236.7,353.9c-2.7,0-4.9-2.2-4.9-4.9c0-2.7,2.2-4.9,4.9-4.9
					c2.7,0,4.9,2.2,4.9,4.9C-231.9,351.8-234.1,353.9-236.7,353.9z"/>
				<path fill="#1BA1E2" d="M-249.9,368.6h13.5c3.8,0,6.9-3.1,6.9-6.9h-27.2C-256.7,365.6-253.7,368.6-249.9,368.6z"/>
			</g>
		</g>
		<g>
			<g>
				<path fill="#1BA1E2" d="M-229.9,344.1v-0.2c0-4.6-3.8-8.4-8.4-8.4h-3.2v-1.9c0.6-0.6,1-1.4,1-2.3c0-1.7-1.4-3.1-3.1-3.1
					c-1.7,0-3.1,1.4-3.1,3.1c0,0.9,0.4,1.8,1.1,2.3v1.9h-3.2c-4.6,0-8.4,3.8-8.4,8.4v0.2h-3v10.4h3c0,0.2,0,4.7,0,4.9h27.2
					c0-0.2,0-4.7,0-4.9h3.4v-10.4L-229.9,344.1L-229.9,344.1z M-250.1,353.4c-2.7,0-4.9-2.2-4.9-4.9c0-2.7,2.2-4.9,4.9-4.9
					c2.7,0,4.9,2.2,4.9,4.9C-245.2,351.3-247.4,353.4-250.1,353.4z M-237.2,353.4c-2.7,0-4.9-2.2-4.9-4.9c0-2.7,2.2-4.9,4.9-4.9
					c2.7,0,4.9,2.2,4.9,4.9C-232.4,351.3-234.6,353.4-237.2,353.4z"/>
				<path fill="#1BA1E2" d="M-250.4,368.1h13.5c3.8,0,6.9-3.1,6.9-6.9h-27.2C-257.2,365.1-254.2,368.1-250.4,368.1z"/>
			</g>
		</g>
		<g>
			<g>
				<path fill="#1BA1E2" d="M-230.4,343.6v-0.2c0-4.6-3.8-8.4-8.4-8.4h-3.2v-1.9c0.6-0.6,1-1.4,1-2.3c0-1.7-1.4-3.1-3.1-3.1
					c-1.7,0-3.1,1.4-3.1,3.1c0,0.9,0.4,1.8,1.1,2.3v1.9h-3.2c-4.6,0-8.4,3.8-8.4,8.4v0.2h-3v10.4h3c0,0.2,0,4.7,0,4.9h27.2
					c0-0.2,0-4.7,0-4.9h3.4v-10.4L-230.4,343.6L-230.4,343.6z M-250.6,352.9c-2.7,0-4.9-2.2-4.9-4.9c0-2.7,2.2-4.9,4.9-4.9
					c2.7,0,4.9,2.2,4.9,4.9C-245.7,350.8-247.9,352.9-250.6,352.9z M-237.7,352.9c-2.7,0-4.9-2.2-4.9-4.9c0-2.7,2.2-4.9,4.9-4.9
					c2.7,0,4.9,2.2,4.9,4.9C-232.9,350.8-235.1,352.9-237.7,352.9z"/>
				<path fill="#1BA1E2" d="M-250.9,367.6h13.5c3.8,0,6.9-3.1,6.9-6.9h-27.2C-257.7,364.6-254.7,367.6-250.9,367.6z"/>
			</g>
		</g>
		<g>
			<g>
				<path fill="#1BA1E2" d="M-230.9,343.1v-0.2c0-4.6-3.8-8.4-8.4-8.4h-3.2v-1.9c0.6-0.6,1-1.4,1-2.3c0-1.7-1.4-3.1-3.1-3.1
					c-1.7,0-3.1,1.4-3.1,3.1c0,0.9,0.4,1.8,1.1,2.3v1.9h-3.2c-4.6,0-8.4,3.8-8.4,8.4v0.2h-3v10.4h3c0,0.2,0,4.7,0,4.9h27.2
					c0-0.2,0-4.7,0-4.9h3.4v-10.4L-230.9,343.1L-230.9,343.1z M-251.1,352.4c-2.7,0-4.9-2.2-4.9-4.9c0-2.7,2.2-4.9,4.9-4.9
					c2.7,0,4.9,2.2,4.9,4.9C-246.2,350.3-248.4,352.4-251.1,352.4z M-238.2,352.4c-2.7,0-4.9-2.2-4.9-4.9c0-2.7,2.2-4.9,4.9-4.9
					c2.7,0,4.9,2.2,4.9,4.9C-233.4,350.3-235.6,352.4-238.2,352.4z"/>
				<path fill="#1BA1E2" d="M-251.4,367.1h13.5c3.8,0,6.9-3.1,6.9-6.9h-27.2C-258.2,364.1-255.2,367.1-251.4,367.1z"/>
			</g>
		</g>
		<g>
			<g>
				<path fill="#1BA1E2" d="M-231.4,342.6v-0.2c0-4.6-3.8-8.4-8.4-8.4h-3.2v-1.9c0.6-0.6,1-1.4,1-2.3c0-1.7-1.4-3.1-3.1-3.1
					c-1.7,0-3.1,1.4-3.1,3.1c0,0.9,0.4,1.8,1.1,2.3v1.9h-3.2c-4.6,0-8.4,3.8-8.4,8.4v0.2h-3v10.4h3c0,0.2,0,4.7,0,4.9h27.2
					c0-0.2,0-4.7,0-4.9h3.4v-10.4L-231.4,342.6L-231.4,342.6z M-251.6,351.9c-2.7,0-4.9-2.2-4.9-4.9c0-2.7,2.2-4.9,4.9-4.9
					c2.7,0,4.9,2.2,4.9,4.9C-246.7,349.8-248.9,351.9-251.6,351.9z M-238.7,351.9c-2.7,0-4.9-2.2-4.9-4.9c0-2.7,2.2-4.9,4.9-4.9
					c2.7,0,4.9,2.2,4.9,4.9C-233.9,349.8-236.1,351.9-238.7,351.9z"/>
				<path fill="#1BA1E2" d="M-251.9,366.6h13.5c3.8,0,6.9-3.1,6.9-6.9h-27.2C-258.7,363.6-255.7,366.6-251.9,366.6z"/>
			</g>
		</g>
		<g>
			<g>
				<path fill="#1BA1E2" d="M-231.9,342.1v-0.2c0-4.6-3.8-8.4-8.4-8.4h-3.2v-1.9c0.6-0.6,1-1.4,1-2.3c0-1.7-1.4-3.1-3.1-3.1
					c-1.7,0-3.1,1.4-3.1,3.1c0,0.9,0.4,1.8,1.1,2.3v1.9h-3.2c-4.6,0-8.4,3.8-8.4,8.4v0.2h-3v10.4h3c0,0.2,0,4.7,0,4.9h27.2
					c0-0.2,0-4.7,0-4.9h3.4v-10.4L-231.9,342.1L-231.9,342.1z M-252.1,351.4c-2.7,0-4.9-2.2-4.9-4.9c0-2.7,2.2-4.9,4.9-4.9
					c2.7,0,4.9,2.2,4.9,4.9C-247.2,349.3-249.4,351.4-252.1,351.4z M-239.2,351.4c-2.7,0-4.9-2.2-4.9-4.9c0-2.7,2.2-4.9,4.9-4.9
					c2.7,0,4.9,2.2,4.9,4.9C-234.4,349.3-236.6,351.4-239.2,351.4z"/>
				<path fill="#1BA1E2" d="M-252.4,366.1h13.5c3.8,0,6.9-3.1,6.9-6.9h-27.2C-259.2,363.1-256.2,366.1-252.4,366.1z"/>
			</g>
		</g>
		<g>
			<g>
				<path fill="#1BA1E2" d="M-232.4,341.6v-0.2c0-4.6-3.8-8.4-8.4-8.4h-3.2v-1.9c0.6-0.6,1-1.4,1-2.3c0-1.7-1.4-3.1-3.1-3.1
					c-1.7,0-3.1,1.4-3.1,3.1c0,0.9,0.4,1.8,1.1,2.3v1.9h-3.2c-4.6,0-8.4,3.8-8.4,8.4v0.2h-3v10.4h3c0,0.2,0,4.7,0,4.9h27.2
					c0-0.2,0-4.7,0-4.9h3.4v-10.4L-232.4,341.6L-232.4,341.6z M-252.6,350.9c-2.7,0-4.9-2.2-4.9-4.9c0-2.7,2.2-4.9,4.9-4.9
					c2.7,0,4.9,2.2,4.9,4.9C-247.7,348.8-249.9,350.9-252.6,350.9z M-239.7,350.9c-2.7,0-4.9-2.2-4.9-4.9c0-2.7,2.2-4.9,4.9-4.9
					c2.7,0,4.9,2.2,4.9,4.9C-234.9,348.8-237.1,350.9-239.7,350.9z"/>
				<path fill="#1BA1E2" d="M-252.9,365.6h13.5c3.8,0,6.9-3.1,6.9-6.9h-27.2C-259.7,362.6-256.7,365.6-252.9,365.6z"/>
			</g>
		</g>
		<g>
			<g>
				<path fill="#1BA1E2" d="M-232.9,341.1v-0.2c0-4.6-3.8-8.4-8.4-8.4h-3.2v-1.9c0.6-0.6,1-1.4,1-2.3c0-1.7-1.4-3.1-3.1-3.1
					c-1.7,0-3.1,1.4-3.1,3.1c0,0.9,0.4,1.8,1.1,2.3v1.9h-3.2c-4.6,0-8.4,3.8-8.4,8.4v0.2h-3v10.4h3c0,0.2,0,4.7,0,4.9h27.2
					c0-0.2,0-4.7,0-4.9h3.4v-10.4L-232.9,341.1L-232.9,341.1z M-253.1,350.4c-2.7,0-4.9-2.2-4.9-4.9c0-2.7,2.2-4.9,4.9-4.9
					c2.7,0,4.9,2.2,4.9,4.9C-248.2,348.3-250.4,350.4-253.1,350.4z M-240.2,350.4c-2.7,0-4.9-2.2-4.9-4.9c0-2.7,2.2-4.9,4.9-4.9
					c2.7,0,4.9,2.2,4.9,4.9C-235.4,348.3-237.6,350.4-240.2,350.4z"/>
				<path fill="#1BA1E2" d="M-253.4,365.1h13.5c3.8,0,6.9-3.1,6.9-6.9h-27.2C-260.2,362.1-257.2,365.1-253.4,365.1z"/>
			</g>
		</g>
		<g>
			<g>
				<path fill="#1BA1E2" d="M-233.4,340.6v-0.2c0-4.6-3.8-8.4-8.4-8.4h-3.2v-1.9c0.6-0.6,1-1.4,1-2.3c0-1.7-1.4-3.1-3.1-3.1
					c-1.7,0-3.1,1.4-3.1,3.1c0,0.9,0.4,1.8,1.1,2.3v1.9h-3.2c-4.6,0-8.4,3.8-8.4,8.4v0.2h-3v10.4h3c0,0.2,0,4.7,0,4.9h27.2
					c0-0.2,0-4.7,0-4.9h3.4v-10.4L-233.4,340.6L-233.4,340.6z M-253.6,349.9c-2.7,0-4.9-2.2-4.9-4.9c0-2.7,2.2-4.9,4.9-4.9
					c2.7,0,4.9,2.2,4.9,4.9C-248.7,347.8-250.9,349.9-253.6,349.9z M-240.7,349.9c-2.7,0-4.9-2.2-4.9-4.9c0-2.7,2.2-4.9,4.9-4.9
					c2.7,0,4.9,2.2,4.9,4.9C-235.9,347.8-238.1,349.9-240.7,349.9z"/>
				<path fill="#1BA1E2" d="M-253.9,364.6h13.5c3.8,0,6.9-3.1,6.9-6.9h-27.2C-260.7,361.6-257.7,364.6-253.9,364.6z"/>
			</g>
		</g>
		<g>
			<g>
				<path fill="#1BA1E2" d="M-233.9,340.1v-0.2c0-4.6-3.8-8.4-8.4-8.4h-3.2v-1.9c0.6-0.6,1-1.4,1-2.3c0-1.7-1.4-3.1-3.1-3.1
					c-1.7,0-3.1,1.4-3.1,3.1c0,0.9,0.4,1.8,1.1,2.3v1.9h-3.2c-4.6,0-8.4,3.8-8.4,8.4v0.2h-3v10.4h3c0,0.2,0,4.7,0,4.9h27.2
					c0-0.2,0-4.7,0-4.9h3.4v-10.4L-233.9,340.1L-233.9,340.1z M-254.1,349.4c-2.7,0-4.9-2.2-4.9-4.9c0-2.7,2.2-4.9,4.9-4.9
					c2.7,0,4.9,2.2,4.9,4.9C-249.2,347.3-251.4,349.4-254.1,349.4z M-241.2,349.4c-2.7,0-4.9-2.2-4.9-4.9c0-2.7,2.2-4.9,4.9-4.9
					c2.7,0,4.9,2.2,4.9,4.9C-236.4,347.3-238.6,349.4-241.2,349.4z"/>
				<path fill="#1BA1E2" d="M-254.4,364.1h13.5c3.8,0,6.9-3.1,6.9-6.9h-27.2C-261.2,361.1-258.2,364.1-254.4,364.1z"/>
			</g>
		</g>
		<g>
			<g>
				<path fill="#1BA1E2" d="M-234.4,339.6v-0.2c0-4.6-3.8-8.4-8.4-8.4h-3.2v-1.9c0.6-0.6,1-1.4,1-2.3c0-1.7-1.4-3.1-3.1-3.1
					c-1.7,0-3.1,1.4-3.1,3.1c0,0.9,0.4,1.8,1.1,2.3v1.9h-3.2c-4.6,0-8.4,3.8-8.4,8.4v0.2h-3v10.4h3c0,0.2,0,4.7,0,4.9h27.2
					c0-0.2,0-4.7,0-4.9h3.4v-10.4L-234.4,339.6L-234.4,339.6z M-254.6,348.9c-2.7,0-4.9-2.2-4.9-4.9c0-2.7,2.2-4.9,4.9-4.9
					c2.7,0,4.9,2.2,4.9,4.9C-249.7,346.8-251.9,348.9-254.6,348.9z M-241.7,348.9c-2.7,0-4.9-2.2-4.9-4.9c0-2.7,2.2-4.9,4.9-4.9
					c2.7,0,4.9,2.2,4.9,4.9C-236.9,346.8-239.1,348.9-241.7,348.9z"/>
				<path fill="#1BA1E2" d="M-254.9,363.6h13.5c3.8,0,6.9-3.1,6.9-6.9h-27.2C-261.7,360.6-258.7,363.6-254.9,363.6z"/>
			</g>
		</g>
		<g>
			<g>
				<path fill="#1BA1E2" d="M-234.9,339.1v-0.2c0-4.6-3.8-8.4-8.4-8.4h-3.2v-1.9c0.6-0.6,1-1.4,1-2.3c0-1.7-1.4-3.1-3.1-3.1
					c-1.7,0-3.1,1.4-3.1,3.1c0,0.9,0.4,1.8,1.1,2.3v1.9h-3.2c-4.6,0-8.4,3.8-8.4,8.4v0.2h-3v10.4h3c0,0.2,0,4.7,0,4.9h27.2
					c0-0.2,0-4.7,0-4.9h3.4v-10.4L-234.9,339.1L-234.9,339.1z M-255.1,348.4c-2.7,0-4.9-2.2-4.9-4.9c0-2.7,2.2-4.9,4.9-4.9
					c2.7,0,4.9,2.2,4.9,4.9C-250.2,346.3-252.4,348.4-255.1,348.4z M-242.2,348.4c-2.7,0-4.9-2.2-4.9-4.9c0-2.7,2.2-4.9,4.9-4.9
					c2.7,0,4.9,2.2,4.9,4.9C-237.4,346.3-239.6,348.4-242.2,348.4z"/>
				<path fill="#1BA1E2" d="M-255.4,363.1h13.5c3.8,0,6.9-3.1,6.9-6.9h-27.2C-262.2,360.1-259.2,363.1-255.4,363.1z"/>
			</g>
		</g>
		<g>
			<g>
				<path fill="#1BA1E2" d="M-235.4,338.6v-0.2c0-4.6-3.8-8.4-8.4-8.4h-3.2v-1.9c0.6-0.6,1-1.4,1-2.3c0-1.7-1.4-3.1-3.1-3.1
					c-1.7,0-3.1,1.4-3.1,3.1c0,0.9,0.4,1.8,1.1,2.3v1.9h-3.2c-4.6,0-8.4,3.8-8.4,8.4v0.2h-3v10.4h3c0,0.2,0,4.7,0,4.9h27.2
					c0-0.2,0-4.7,0-4.9h3.4v-10.4L-235.4,338.6L-235.4,338.6z M-255.6,347.9c-2.7,0-4.9-2.2-4.9-4.9c0-2.7,2.2-4.9,4.9-4.9
					c2.7,0,4.9,2.2,4.9,4.9C-250.7,345.8-252.9,347.9-255.6,347.9z M-242.7,347.9c-2.7,0-4.9-2.2-4.9-4.9c0-2.7,2.2-4.9,4.9-4.9
					c2.7,0,4.9,2.2,4.9,4.9C-237.9,345.8-240.1,347.9-242.7,347.9z"/>
				<path fill="#1BA1E2" d="M-255.9,362.6h13.5c3.8,0,6.9-3.1,6.9-6.9h-27.2C-262.7,359.6-259.7,362.6-255.9,362.6z"/>
			</g>
		</g>
		<g>
			<g>
				<path fill="#1BA1E2" d="M-235.9,338.1v-0.2c0-4.6-3.8-8.4-8.4-8.4h-3.2v-1.9c0.6-0.6,1-1.4,1-2.3c0-1.7-1.4-3.1-3.1-3.1
					c-1.7,0-3.1,1.4-3.1,3.1c0,0.9,0.4,1.8,1.1,2.3v1.9h-3.2c-4.6,0-8.4,3.8-8.4,8.4v0.2h-3v10.4h3c0,0.2,0,4.7,0,4.9h27.2
					c0-0.2,0-4.7,0-4.9h3.4v-10.4L-235.9,338.1L-235.9,338.1z M-256.1,347.4c-2.7,0-4.9-2.2-4.9-4.9c0-2.7,2.2-4.9,4.9-4.9
					c2.7,0,4.9,2.2,4.9,4.9C-251.2,345.3-253.4,347.4-256.1,347.4z M-243.2,347.4c-2.7,0-4.9-2.2-4.9-4.9c0-2.7,2.2-4.9,4.9-4.9
					c2.7,0,4.9,2.2,4.9,4.9C-238.4,345.3-240.6,347.4-243.2,347.4z"/>
				<path fill="#1BA1E2" d="M-256.4,362.1h13.5c3.8,0,6.9-3.1,6.9-6.9h-27.2C-263.2,359.1-260.2,362.1-256.4,362.1z"/>
			</g>
		</g>
		<g>
			<g>
				<path fill="#1BA1E2" d="M-236.4,337.6v-0.2c0-4.6-3.8-8.4-8.4-8.4h-3.2v-1.9c0.6-0.6,1-1.4,1-2.3c0-1.7-1.4-3.1-3.1-3.1
					c-1.7,0-3.1,1.4-3.1,3.1c0,0.9,0.4,1.8,1.1,2.3v1.9h-3.2c-4.6,0-8.4,3.8-8.4,8.4v0.2h-3v10.4h3c0,0.2,0,4.7,0,4.9h27.2
					c0-0.2,0-4.7,0-4.9h3.4v-10.4L-236.4,337.6L-236.4,337.6z M-256.6,346.9c-2.7,0-4.9-2.2-4.9-4.9c0-2.7,2.2-4.9,4.9-4.9
					c2.7,0,4.9,2.2,4.9,4.9C-251.7,344.8-253.9,346.9-256.6,346.9z M-243.7,346.9c-2.7,0-4.9-2.2-4.9-4.9c0-2.7,2.2-4.9,4.9-4.9
					c2.7,0,4.9,2.2,4.9,4.9C-238.9,344.8-241.1,346.9-243.7,346.9z"/>
				<path fill="#1BA1E2" d="M-256.9,361.6h13.5c3.8,0,6.9-3.1,6.9-6.9h-27.2C-263.7,358.6-260.7,361.6-256.9,361.6z"/>
			</g>
		</g>
		<g>
			<g>
				<path fill="#1BA1E2" d="M-236.9,337.1v-0.2c0-4.6-3.8-8.4-8.4-8.4h-3.2v-1.9c0.6-0.6,1-1.4,1-2.3c0-1.7-1.4-3.1-3.1-3.1
					c-1.7,0-3.1,1.4-3.1,3.1c0,0.9,0.4,1.8,1.1,2.3v1.9h-3.2c-4.6,0-8.4,3.8-8.4,8.4v0.2h-3v10.4h3c0,0.2,0,4.7,0,4.9h27.2
					c0-0.2,0-4.7,0-4.9h3.4v-10.4L-236.9,337.1L-236.9,337.1z M-257.1,346.4c-2.7,0-4.9-2.2-4.9-4.9c0-2.7,2.2-4.9,4.9-4.9
					c2.7,0,4.9,2.2,4.9,4.9C-252.2,344.3-254.4,346.4-257.1,346.4z M-244.2,346.4c-2.7,0-4.9-2.2-4.9-4.9c0-2.7,2.2-4.9,4.9-4.9
					c2.7,0,4.9,2.2,4.9,4.9C-239.4,344.3-241.6,346.4-244.2,346.4z"/>
				<path fill="#1BA1E2" d="M-257.4,361.1h13.5c3.8,0,6.9-3.1,6.9-6.9h-27.2C-264.2,358.1-261.2,361.1-257.4,361.1z"/>
			</g>
		</g>
		<g>
			<g>
				<path fill="#1BA1E2" d="M-237.4,336.6v-0.2c0-4.6-3.8-8.4-8.4-8.4h-3.2v-1.9c0.6-0.6,1-1.4,1-2.3c0-1.7-1.4-3.1-3.1-3.1
					c-1.7,0-3.1,1.4-3.1,3.1c0,0.9,0.4,1.8,1.1,2.3v1.9h-3.2c-4.6,0-8.4,3.8-8.4,8.4v0.2h-3v10.4h3c0,0.2,0,4.7,0,4.9h27.2
					c0-0.2,0-4.7,0-4.9h3.4v-10.4L-237.4,336.6L-237.4,336.6z M-257.6,345.9c-2.7,0-4.9-2.2-4.9-4.9c0-2.7,2.2-4.9,4.9-4.9
					c2.7,0,4.9,2.2,4.9,4.9C-252.7,343.8-254.9,345.9-257.6,345.9z M-244.7,345.9c-2.7,0-4.9-2.2-4.9-4.9c0-2.7,2.2-4.9,4.9-4.9
					c2.7,0,4.9,2.2,4.9,4.9C-239.9,343.8-242.1,345.9-244.7,345.9z"/>
				<path fill="#1BA1E2" d="M-257.9,360.6h13.5c3.8,0,6.9-3.1,6.9-6.9h-27.2C-264.7,357.6-261.7,360.6-257.9,360.6z"/>
			</g>
		</g>
		<g>
			<g>
				<path fill="#1BA1E2" d="M-237.9,336.1v-0.2c0-4.6-3.8-8.4-8.4-8.4h-3.2v-1.9c0.6-0.6,1-1.4,1-2.3c0-1.7-1.4-3.1-3.1-3.1
					c-1.7,0-3.1,1.4-3.1,3.1c0,0.9,0.4,1.8,1.1,2.3v1.9h-3.2c-4.6,0-8.4,3.8-8.4,8.4v0.2h-3v10.4h3c0,0.2,0,4.7,0,4.9h27.2
					c0-0.2,0-4.7,0-4.9h3.4v-10.4L-237.9,336.1L-237.9,336.1z M-258.1,345.4c-2.7,0-4.9-2.2-4.9-4.9c0-2.7,2.2-4.9,4.9-4.9
					c2.7,0,4.9,2.2,4.9,4.9C-253.2,343.3-255.4,345.4-258.1,345.4z M-245.2,345.4c-2.7,0-4.9-2.2-4.9-4.9c0-2.7,2.2-4.9,4.9-4.9
					c2.7,0,4.9,2.2,4.9,4.9C-240.4,343.3-242.6,345.4-245.2,345.4z"/>
				<path fill="#1BA1E2" d="M-258.4,360.1h13.5c3.8,0,6.9-3.1,6.9-6.9h-27.2C-265.2,357.1-262.2,360.1-258.4,360.1z"/>
			</g>
		</g>
		<g>
			<g>
				<path fill="#1BA1E2" d="M-238.4,335.6v-0.2c0-4.6-3.8-8.4-8.4-8.4h-3.2v-1.9c0.6-0.6,1-1.4,1-2.3c0-1.7-1.4-3.1-3.1-3.1
					c-1.7,0-3.1,1.4-3.1,3.1c0,0.9,0.4,1.8,1.1,2.3v1.9h-3.2c-4.6,0-8.4,3.8-8.4,8.4v0.2h-3v10.4h3c0,0.2,0,4.7,0,4.9h27.2
					c0-0.2,0-4.7,0-4.9h3.4v-10.4L-238.4,335.6L-238.4,335.6z M-258.6,344.9c-2.7,0-4.9-2.2-4.9-4.9c0-2.7,2.2-4.9,4.9-4.9
					c2.7,0,4.9,2.2,4.9,4.9C-253.7,342.8-255.9,344.9-258.6,344.9z M-245.7,344.9c-2.7,0-4.9-2.2-4.9-4.9c0-2.7,2.2-4.9,4.9-4.9
					c2.7,0,4.9,2.2,4.9,4.9C-240.9,342.8-243.1,344.9-245.7,344.9z"/>
				<path fill="#1BA1E2" d="M-258.9,359.6h13.5c3.8,0,6.9-3.1,6.9-6.9h-27.2C-265.7,356.6-262.7,359.6-258.9,359.6z"/>
			</g>
		</g>
		<g>
			<g>
				<path fill="#1BA1E2" d="M-238.9,335.1v-0.2c0-4.6-3.8-8.4-8.4-8.4h-3.2v-1.9c0.6-0.6,1-1.4,1-2.3c0-1.7-1.4-3.1-3.1-3.1
					c-1.7,0-3.1,1.4-3.1,3.1c0,0.9,0.4,1.8,1.1,2.3v1.9h-3.2c-4.6,0-8.4,3.8-8.4,8.4v0.2h-3v10.4h3c0,0.2,0,4.7,0,4.9h27.2
					c0-0.2,0-4.7,0-4.9h3.4v-10.4L-238.9,335.1L-238.9,335.1z M-259.1,344.4c-2.7,0-4.9-2.2-4.9-4.9c0-2.7,2.2-4.9,4.9-4.9
					c2.7,0,4.9,2.2,4.9,4.9C-254.2,342.3-256.4,344.4-259.1,344.4z M-246.2,344.4c-2.7,0-4.9-2.2-4.9-4.9c0-2.7,2.2-4.9,4.9-4.9
					c2.7,0,4.9,2.2,4.9,4.9C-241.4,342.3-243.6,344.4-246.2,344.4z"/>
				<path fill="#1BA1E2" d="M-259.4,359.1h13.5c3.8,0,6.9-3.1,6.9-6.9h-27.2C-266.2,356.1-263.2,359.1-259.4,359.1z"/>
			</g>
		</g>
	</g>
	<g clip-path="url(#SVGID_2_)">
		<path fill="#FFFFFF" d="M-238.9,335.1v-0.2c0-4.6-3.8-8.4-8.4-8.4h-3.2v-1.9c0.6-0.6,1-1.4,1-2.3c0-1.7-1.4-3.1-3.1-3.1
			c-1.7,0-3.1,1.4-3.1,3.1c0,0.9,0.4,1.8,1.1,2.3v1.9h-3.2c-4.6,0-8.4,3.8-8.4,8.4v0.2h-3v10.4h3c0,0.2,0,4.7,0,4.9h27.2
			c0-0.2,0-4.7,0-4.9h3.4v-10.4L-238.9,335.1L-238.9,335.1z M-259.1,344.4c-2.7,0-4.9-2.2-4.9-4.9c0-2.7,2.2-4.9,4.9-4.9
			c2.7,0,4.9,2.2,4.9,4.9C-254.2,342.3-256.4,344.4-259.1,344.4z M-246.2,344.4c-2.7,0-4.9-2.2-4.9-4.9c0-2.7,2.2-4.9,4.9-4.9
			c2.7,0,4.9,2.2,4.9,4.9C-241.4,342.3-243.6,344.4-246.2,344.4z"/>
		<path fill="#FFFFFF" d="M-259.4,359.1h13.5c3.8,0,6.9-3.1,6.9-6.9h-27.2C-266.2,356.1-263.2,359.1-259.4,359.1z"/>
	</g>
</g>
</svg>
