<?xml version="1.0" encoding="utf-8"?>
<!-- Generator: Adobe Illustrator 17.0.2, SVG Export Plug-In . SVG Version: 6.00 Build 0)  -->
<!DOCTYPE svg PUBLIC "-//W3C//DTD SVG 1.1//EN" "http://www.w3.org/Graphics/SVG/1.1/DTD/svg11.dtd">
<svg version="1.1" id="Capa_1" xmlns="http://www.w3.org/2000/svg" xmlns:xlink="http://www.w3.org/1999/xlink" x="0px" y="0px"
	 width="64px" height="64px" viewBox="0 0 64 64" enable-background="new 0 0 64 64" xml:space="preserve">
<path d="M55.157,25.59C52.183,17.387,44.783,11.41,36.138,9.962c-0.143-0.053-0.296-0.094-0.471-0.103
	c-0.109-0.006-0.223-0.005-0.333-0.01c-1.069-0.143-2.152-0.232-3.25-0.232c-10.327,0-19.643,6.511-23.074,15.973
	c-4.379,0.05-7.926,3.628-7.926,8.019c0,4.391,3.547,7.969,7.926,8.019c3.43,9.462,12.747,15.973,23.074,15.973
	c10.326,0,19.643-6.511,23.073-15.973c4.379-0.05,7.927-3.628,7.927-8.019C63.084,29.218,59.537,25.641,55.157,25.59z
	 M55.064,38.628c-0.217,0-0.453-0.02-0.743-0.062l-1.277-0.188l-0.376,1.235c-2.691,8.825-11.156,14.988-20.584,14.988
	S14.19,48.437,11.499,39.612l-0.376-1.235l-1.277,0.188c-0.29,0.042-0.525,0.062-0.743,0.062c-2.768,0-5.019-2.252-5.019-5.02
	s2.251-5.019,5.019-5.019c0.22,0,0.456,0.02,0.74,0.062l1.279,0.191l0.377-1.237c1.825-5.983,6.306-10.735,11.939-13.18
	c-1.257,2.785,0.45,6.219,3.297,7.559c3.547,1.669,9.286,1.887,11.707-1.744c1.091-1.636,0.122-3.705-1.198-4.825
	c-1.847-1.567-4.531-1.79-6.725-0.919c-1.776,0.705-1.003,3.607,0.798,2.893c1.304-0.517,2.492-0.556,3.743,0.131
	c1.717,0.944,0.135,2.022-1.065,2.367c-2.237,0.643-5.538,0.118-7.287-1.452c-2.208-1.982,0.636-4.231,2.396-4.847
	c1.908-0.668,4.005-0.816,6.025-0.743c8.161,1.161,15.143,6.898,17.541,14.76l0.377,1.237l1.279-0.191
	c0.285-0.042,0.52-0.062,0.74-0.062c2.768,0,5.02,2.251,5.02,5.019S57.832,38.628,55.064,38.628z"/>
<path d="M25.75,32.567c-2.579,0-2.579,4,0,4S28.33,32.567,25.75,32.567z"/>
<path d="M38.417,32.317c-2.579,0-2.579,4,0,4S40.997,32.317,38.417,32.317z"/>
<path d="M32.084,39.21c-3.252,0-5.899,2.646-5.899,5.898c0,0.829,0.671,1.5,1.5,1.5s1.5-0.671,1.5-1.5v0
	c0-1.598,1.3-2.898,2.899-2.898c1.598,0,2.898,1.3,2.898,2.898v0c0,0.829,0.671,1.5,1.5,1.5s1.5-0.671,1.5-1.5
	C37.982,41.856,35.336,39.21,32.084,39.21z"/>
</svg>
