<?xml version="1.0" encoding="utf-8"?>
<!-- Generator: Adobe Illustrator 17.0.2, SVG Export Plug-In . SVG Version: 6.00 Build 0)  -->
<!DOCTYPE svg PUBLIC "-//W3C//DTD SVG 1.1//EN" "http://www.w3.org/Graphics/SVG/1.1/DTD/svg11.dtd">
<svg version="1.1" id="Capa_1" xmlns="http://www.w3.org/2000/svg" xmlns:xlink="http://www.w3.org/1999/xlink" x="0px" y="0px"
	 width="64px" height="64px" viewBox="0 0 64 64" enable-background="new 0 0 64 64" xml:space="preserve">
<path d="M21.268,15.024c0.31,0.311,0.564,0.678,0.781,1.146c1.122,2.203,2.688,4.732,4.853,4.732c0.473,0,0.924-0.122,1.344-0.363
	c0.004,0,0.013,0,0.022,0c0.255,0,0.655,0.076,1.008,0.144c0.534,0.102,1.065,0.195,1.503,0.158l0.55-0.044l6.537-6.537
	l-8.218-8.218c-2.692-2.692-6.271-4.175-10.078-4.175S12.182,3.349,9.49,6.042L7.086,8.446c-2.692,2.692-4.175,6.271-4.175,10.078
	s1.482,7.386,4.175,10.078l3.458,3.458l4.761,4.761l21.987,21.987c0.015,0.015,0.034,0.019,0.049,0.033
	c0.056,0.058,0.105,0.121,0.162,0.179c2.373,2.373,5.528,3.68,8.884,3.68c3.356,0,6.511-1.307,8.884-3.68s3.68-5.528,3.68-8.884
	c0-1.229-0.187-2.428-0.528-3.574c-0.012-0.046-0.018-0.093-0.035-0.139c-0.001-0.002-0.003-0.008-0.004-0.01
	c-0.13-0.419-0.28-0.832-0.453-1.234C55.862,39.574,47.285,16.784,40.39,4.875c-0.415-0.717-1.333-0.961-2.05-0.547
	c-0.717,0.416-0.962,1.333-0.547,2.05c4.979,8.6,11.022,23.446,14.625,32.736c-1.828-1.004-3.887-1.543-6.031-1.543
	c-3.356,0-6.511,1.307-8.884,3.68c-2.373,2.373-3.68,5.528-3.68,8.884c0,0.34,0.023,0.676,0.049,1.011L17.425,34.699l4.417-4.416
	l0.044-0.55c0.039-0.477-0.057-0.975-0.158-1.501c-0.055-0.286-0.152-0.796-0.146-1.028c0.357-0.621,0.455-1.313,0.282-2.011
	c-0.313-1.265-1.471-2.425-3.644-3.651l-0.199-0.112l-0.223-0.048c-0.712-0.153-1.359-0.505-1.871-1.017
	c-0.713-0.713-1.106-1.662-1.106-2.67s0.393-1.956,1.106-2.669C17.354,13.598,19.841,13.598,21.268,15.024z M39.624,43.372
	c1.807-1.806,4.208-2.801,6.763-2.801c2.554,0,4.956,0.995,6.763,2.801c0.857,0.857,1.525,1.852,1.997,2.931
	c0.16,0.365,0.3,0.737,0.412,1.12c0.256,0.87,0.392,1.78,0.392,2.712c0,2.554-0.995,4.956-2.801,6.763
	c-1.807,1.806-4.208,2.801-6.763,2.801c-2.555,0-4.957-0.995-6.763-2.801c-1.806-1.807-2.801-4.208-2.801-6.763
	C36.822,47.58,37.817,45.178,39.624,43.372z M13.807,22.485c0.862,0.863,1.937,1.472,3.121,1.772
	c1.431,0.831,1.861,1.372,1.981,1.572c-0.519,0.927-0.302,2.054-0.127,2.967c0.015,0.077,0.032,0.167,0.048,0.256l-3.526,3.526
	l-2.64-2.64l-3.458-3.458c-2.125-2.125-3.296-4.951-3.296-7.957s1.17-5.832,3.296-7.957l2.404-2.404
	c2.125-2.125,4.951-3.296,7.957-3.296s5.832,1.17,7.957,3.296l6.097,6.097l-3.526,3.526c-0.088-0.016-0.178-0.033-0.257-0.049
	c-0.484-0.092-1.033-0.197-1.572-0.197c-0.548,0-1.007,0.107-1.399,0.328c-0.244-0.139-0.951-0.71-2.12-3.004
	c-0.339-0.738-0.797-1.398-1.359-1.96c-1.28-1.28-2.981-1.985-4.791-1.985s-3.511,0.705-4.791,1.985
	c-1.28,1.279-1.985,2.981-1.985,4.791S12.527,21.205,13.807,22.485z"/>
</svg>
