<?xml version="1.0" encoding="utf-8"?>
<!-- Generator: Adobe Illustrator 17.0.2, SVG Export Plug-In . SVG Version: 6.00 Build 0)  -->
<!DOCTYPE svg PUBLIC "-//W3C//DTD SVG 1.1//EN" "http://www.w3.org/Graphics/SVG/1.1/DTD/svg11.dtd">
<svg version="1.1" id="Capa_1" xmlns="http://www.w3.org/2000/svg" xmlns:xlink="http://www.w3.org/1999/xlink" x="0px" y="0px"
	 width="64px" height="64px" viewBox="0 0 64 64" enable-background="new 0 0 64 64" xml:space="preserve">
<path d="M53.238,48.069V6h3.846c0.829,0,1.5-0.672,1.5-1.5S57.912,3,57.083,3H46.392c-0.829,0-1.5,0.672-1.5,1.5s0.671,1.5,1.5,1.5
	h3.846v42.069H53.238z"/>
<path d="M20.888,55.8c-0.752-4.369-4.559-7.707-9.139-7.707c-5.119,0-9.284,4.165-9.284,9.284c0,0.828,0.671,1.5,1.5,1.5
	s1.5-0.672,1.5-1.5c0-3.465,2.819-6.284,6.284-6.284c3.464,0,6.283,2.819,6.283,6.284c0,0.828,0.671,1.5,1.5,1.5
	c0.163,0,0.317-0.033,0.463-0.08l23.954,0.08c0.001,0,0.003,0,0.005,0c0.103,0,0.204-0.01,0.302-0.03
	c0.031-0.006,0.059-0.019,0.089-0.028c0.065-0.018,0.131-0.034,0.192-0.06c0.027-0.011,0.05-0.029,0.076-0.041
	c0.061-0.03,0.123-0.059,0.178-0.097c0.023-0.015,0.041-0.035,0.063-0.052c0.055-0.042,0.11-0.082,0.159-0.131
	c0.026-0.026,0.047-0.058,0.071-0.086c0.038-0.044,0.079-0.087,0.112-0.136c0.024-0.036,0.041-0.076,0.062-0.114
	c0.026-0.046,0.055-0.091,0.076-0.14c0.02-0.047,0.031-0.097,0.046-0.146c0.014-0.045,0.032-0.088,0.042-0.135
	c0.01-0.05,0.011-0.103,0.016-0.155c0.005-0.048,0.015-0.095,0.015-0.145c0-0.001,0-0.002,0-0.003c0-0.001,0-0.002,0-0.002
	c0-3.465,2.819-6.284,6.283-6.284s6.283,2.819,6.283,6.284c0,0.828,0.671,1.5,1.5,1.5s1.5-0.672,1.5-1.5
	c0-5.119-4.165-9.284-9.283-9.284c-4.605,0-8.427,3.375-9.15,7.78L20.888,55.8z"/>
<path d="M16.261,57.296c0-2.487-2.024-4.512-4.512-4.512s-4.512,2.024-4.512,4.512s2.024,4.512,4.512,4.512
	S16.261,59.783,16.261,57.296z M10.237,57.296c0-0.834,0.678-1.512,1.512-1.512s1.512,0.678,1.512,1.512s-0.678,1.512-1.512,1.512
	S10.237,58.13,10.237,57.296z"/>
<path d="M56.25,57.296c0-2.487-2.024-4.512-4.512-4.512s-4.512,2.024-4.512,4.512s2.024,4.512,4.512,4.512
	S56.25,59.783,56.25,57.296z M50.226,57.296c0-0.834,0.678-1.512,1.512-1.512s1.512,0.678,1.512,1.512s-0.678,1.512-1.512,1.512
	S50.226,58.13,50.226,57.296z"/>
</svg>
