<?xml version="1.0" encoding="utf-8"?>
<!-- Generator: Adobe Illustrator 17.0.2, SVG Export Plug-In . SVG Version: 6.00 Build 0)  -->
<!DOCTYPE svg PUBLIC "-//W3C//DTD SVG 1.1//EN" "http://www.w3.org/Graphics/SVG/1.1/DTD/svg11.dtd">
<svg version="1.1" id="Capa_1" xmlns="http://www.w3.org/2000/svg" xmlns:xlink="http://www.w3.org/1999/xlink" x="0px" y="0px"
	 width="64px" height="64px" viewBox="0 0 64 64" enable-background="new 0 0 64 64" xml:space="preserve">
<path d="M28,11.021c2.616-0.482,5.205-0.483,7.825,0c0.091,0.018,0.182,0.025,0.272,0.025c0.485,0,0.947-0.235,1.23-0.643
	c0.337-0.482,0.36-1.118,0.059-1.624l-4.186-7.042c-0.271-0.455-0.76-0.733-1.29-0.733s-1.019,0.278-1.29,0.733l-4.185,7.042
	c-0.301,0.506-0.278,1.142,0.059,1.624C26.833,10.887,27.417,11.133,28,11.021z M31.912,5.439l1.34,2.255
	c-0.449-0.025-0.896-0.038-1.34-0.038s-0.891,0.013-1.34,0.038L31.912,5.439z"/>
<path d="M62.174,30.711l-7.042-4.186c-0.505-0.301-1.142-0.277-1.624,0.059c-0.483,0.337-0.724,0.925-0.617,1.504
	c0.242,1.304,0.364,2.62,0.364,3.912s-0.123,2.608-0.364,3.912c-0.107,0.579,0.134,1.167,0.617,1.504
	c0.257,0.179,0.557,0.27,0.858,0.27c0.265,0,0.53-0.07,0.766-0.211l7.042-4.186c0.455-0.27,0.734-0.76,0.734-1.289
	S62.629,30.98,62.174,30.711z M56.217,33.341c0.025-0.449,0.038-0.896,0.038-1.341s-0.013-0.892-0.038-1.341L58.472,32
	L56.217,33.341z"/>
<path d="M35.825,52.979c-2.62,0.482-5.208,0.482-7.825,0c-0.582-0.112-1.167,0.134-1.503,0.617c-0.337,0.482-0.36,1.118-0.059,1.624
	l4.185,7.042c0.271,0.455,0.76,0.733,1.29,0.733s1.019-0.278,1.29-0.733l4.186-7.042c0.301-0.506,0.278-1.142-0.059-1.624
	C36.992,53.113,36.403,52.867,35.825,52.979z M31.912,58.561l-1.34-2.255c0.897,0.051,1.783,0.051,2.68,0L31.912,58.561z"/>
<path d="M9.458,37.686c0.301,0,0.601-0.091,0.858-0.27c0.483-0.337,0.724-0.925,0.617-1.504c-0.242-1.304-0.364-2.62-0.364-3.912
	s0.123-2.608,0.364-3.912c0.107-0.579-0.134-1.167-0.617-1.504c-0.482-0.335-1.119-0.358-1.624-0.059l-7.042,4.186
	C1.194,30.98,0.915,31.471,0.915,32s0.279,1.02,0.734,1.289l7.042,4.186C8.928,37.615,9.193,37.686,9.458,37.686z M7.606,33.341
	L5.351,32l2.255-1.341C7.581,31.108,7.568,31.555,7.568,32S7.581,32.892,7.606,33.341z"/>
<path d="M53.829,10.082c-0.374-0.374-0.917-0.52-1.431-0.394l-7.938,2.021c-0.57,0.146-1.003,0.611-1.106,1.191
	c-0.104,0.579,0.142,1.166,0.627,1.499c2.174,1.493,4.035,3.354,5.531,5.531c0.283,0.411,0.748,0.65,1.236,0.65
	c0.087,0,0.175-0.008,0.263-0.023c0.58-0.104,1.045-0.536,1.19-1.106l2.02-7.938C54.353,11,54.203,10.456,53.829,10.082z
	 M50.045,15.763c-0.597-0.667-1.229-1.3-1.896-1.896l2.543-0.647L50.045,15.763z"/>
<path d="M44.461,52.291l7.938,2.021c0.123,0.03,0.247,0.046,0.37,0.046c0.393,0,0.776-0.154,1.061-0.439
	c0.374-0.374,0.523-0.918,0.393-1.431l-2.02-7.938c-0.145-0.57-0.61-1.003-1.19-1.106c-0.579-0.103-1.166,0.143-1.5,0.627
	c-1.496,2.177-3.357,4.038-5.531,5.531c-0.485,0.333-0.731,0.92-0.627,1.499C43.458,51.68,43.891,52.146,44.461,52.291z
	 M50.045,48.237l0.647,2.544l-2.543-0.647C48.816,49.537,49.449,48.904,50.045,48.237z"/>
<path d="M9.994,53.918c0.285,0.285,0.668,0.439,1.061,0.439c0.124,0,0.248-0.016,0.37-0.046l7.938-2.021
	c0.57-0.146,1.003-0.611,1.106-1.191c0.104-0.579-0.142-1.166-0.627-1.499c-2.174-1.493-4.035-3.354-5.531-5.531
	c-0.333-0.484-0.921-0.73-1.5-0.627c-0.58,0.104-1.045,0.536-1.19,1.106l-2.02,7.938C9.471,53,9.62,53.544,9.994,53.918z
	 M13.778,48.237c0.597,0.667,1.229,1.3,1.896,1.896l-2.543,0.647L13.778,48.237z"/>
<path d="M12.811,20.558c0.088,0.016,0.176,0.023,0.263,0.023c0.488,0,0.953-0.239,1.236-0.65c1.496-2.177,3.357-4.038,5.531-5.531
	c0.485-0.333,0.731-0.92,0.627-1.499c-0.103-0.58-0.536-1.046-1.106-1.191l-7.938-2.021c-0.513-0.127-1.057,0.019-1.431,0.394
	C9.62,10.456,9.471,11,9.601,11.513l2.02,7.938C11.766,20.021,12.231,20.454,12.811,20.558z M15.674,13.866
	c-0.667,0.597-1.299,1.229-1.896,1.896l-0.647-2.544L15.674,13.866z"/>
<path d="M51.526,32c0-10.815-8.799-19.614-19.615-19.614S12.297,21.185,12.297,32s8.799,19.614,19.615,19.614
	S51.526,42.815,51.526,32z M39.158,46.928c-0.59,0.287-1.197,0.542-1.823,0.759c-1.703,0.591-3.523,0.927-5.424,0.927
	c-1.901,0-3.721-0.337-5.424-0.927c-0.626-0.217-1.233-0.472-1.823-0.759c-3.342-1.629-6.052-4.339-7.681-7.68
	c-0.288-0.59-0.543-1.198-0.76-1.824c-0.59-1.703-0.927-3.522-0.927-5.423c0-1.901,0.337-3.721,0.927-5.423
	c0.217-0.627,0.472-1.234,0.76-1.824c1.629-3.341,4.339-6.051,7.681-7.68c0.59-0.287,1.197-0.542,1.823-0.759
	c1.703-0.591,3.523-0.927,5.424-0.927c1.901,0,3.721,0.337,5.424,0.927c0.626,0.217,1.233,0.472,1.823,0.759
	c3.342,1.629,6.052,4.339,7.681,7.68c0.288,0.59,0.543,1.197,0.76,1.824c0.591,1.703,0.927,3.522,0.927,5.423
	s-0.337,3.721-0.927,5.423c-0.217,0.626-0.472,1.234-0.76,1.824C45.21,42.589,42.5,45.299,39.158,46.928z"/>
<path d="M38.267,26.503c-2.262,0-2.262,3.508,0,3.508S40.529,26.503,38.267,26.503z"/>
<path d="M25.403,26.503c-2.262,0-2.262,3.508,0,3.508S27.666,26.503,25.403,26.503z"/>
<path d="M36.698,31.552c-0.699,0-1.287,0.479-1.453,1.126c-0.168,0.105-0.508,0.251-1.007,0.374c-0.526,0.129-1.23,0.232-2.11,0.232
	s-1.584-0.103-2.11-0.232c-0.5-0.123-0.84-0.269-1.007-0.374c-0.166-0.647-0.754-1.126-1.453-1.126c-0.829,0-1.5,0.672-1.5,1.5
	c0,2.233,3.049,3.232,6.071,3.232s6.071-0.999,6.071-3.232C38.198,32.224,37.527,31.552,36.698,31.552z"/>
</svg>
