<?xml version="1.0" encoding="utf-8"?>
<!-- Generator: Adobe Illustrator 17.0.2, SVG Export Plug-In . SVG Version: 6.00 Build 0)  -->
<!DOCTYPE svg PUBLIC "-//W3C//DTD SVG 1.1//EN" "http://www.w3.org/Graphics/SVG/1.1/DTD/svg11.dtd">
<svg version="1.1" id="Capa_1" xmlns="http://www.w3.org/2000/svg" xmlns:xlink="http://www.w3.org/1999/xlink" x="0px" y="0px"
	 width="64px" height="64px" viewBox="0 0 64 64" enable-background="new 0 0 64 64" xml:space="preserve">
<path d="M17.971,34.496c-3.904,2.622-8.687,5.451-11.313,9.481C0.843,52.9,11.729,58.875,19.606,59.633
	c10.517,1.012,23.156-1.682,30.588-9.69c7.508-8.09,7.877-22.112,5.602-32.534c0.668-0.152,1.167-0.746,1.167-1.46V3.69
	c0-0.829-0.672-1.5-1.5-1.5h-30.31c-0.828,0-1.5,0.671-1.5,1.5v12.258c0,0.829,0.672,1.5,1.5,1.5h1.554
	c-0.006,0.06-0.017,0.117-0.017,0.181C26.7,25.183,24.312,30.238,17.971,34.496z M18.836,55.905
	c-0.058-0.008-0.12-0.013-0.177-0.021c-5.357-0.787-13.157-4.727-8.376-10.716c0.812-1.017,1.755-1.935,2.763-2.797
	c0.002,0.001,0.004,0.002,0.006,0.003C18.311,44.436,19.406,50.79,18.836,55.905z M46.784,48.322
	c-1.448,1.56-3.213,2.862-5.176,3.935c0.206-6.538,3.973-11.993,10.452-13.702C51.017,42.207,49.325,45.583,46.784,48.322z
	 M26.653,5.19h27.31v9.155c-0.19-0.07-0.397-0.12-0.638-0.12H28.293c-0.342,0-0.624,0.09-0.865,0.224h-0.775V5.19z M30.292,17.83
	h21.905c1.21,5.293,1.62,11.383,0.673,17.094c-0.035,0.004-0.067,0-0.103,0.006c-9.362,1.476-15.063,9.724-14.542,18.876
	c-5.068,1.944-10.905,2.664-16.037,2.415c0.622-6.163-0.859-12.797-6.205-16.099c1.726-1.203,3.517-2.318,5.189-3.44
	C27.841,32.202,30.26,25.594,30.292,17.83z"/>
</svg>
