<?xml version="1.0" encoding="utf-8"?>
<!-- Generator: Adobe Illustrator 17.0.2, SVG Export Plug-In . SVG Version: 6.00 Build 0)  -->
<!DOCTYPE svg PUBLIC "-//W3C//DTD SVG 1.1//EN" "http://www.w3.org/Graphics/SVG/1.1/DTD/svg11.dtd">
<svg version="1.1" id="Capa_1" xmlns="http://www.w3.org/2000/svg" xmlns:xlink="http://www.w3.org/1999/xlink" x="0px" y="0px"
	 width="64px" height="64px" viewBox="0 0 64 64" enable-background="new 0 0 64 64" xml:space="preserve">
<path d="M31.455,54.398l-0.037-17.233l-14.834-8.645L1.777,37.134l0.036,17.368l14.771,8.576L31.455,54.398z M18.089,58.727
	l0.026-12.066l10.311-6.023l0.026,12.039L18.089,58.727z M16.582,31.991l10.361,6.039l-10.326,6.032L6.256,37.999L16.582,31.991z
	 M4.785,40.615l10.33,6.045l-0.026,12.082L4.81,52.773L4.785,40.615z"/>
<path d="M47.453,28.521l-14.807,8.613l0.037,17.368l14.771,8.576l14.87-8.68l-0.037-17.233L47.453,28.521z M47.451,31.991
	l10.361,6.039l-10.326,6.032l-10.362-6.063L47.451,31.991z M35.654,40.615l10.329,6.045l-0.026,12.082L35.68,52.773L35.654,40.615z
	 M48.958,58.727l0.026-12.066l10.311-6.023l0.026,12.039L48.958,58.727z"/>
<path d="M46.886,9.908L32.052,1.265L17.245,9.877l0.036,17.368l14.771,8.577l14.87-8.68L46.886,9.908z M32.05,4.735l10.362,6.038
	l-10.326,6.033l-10.362-6.064L32.05,4.735z M20.253,13.358l10.33,6.046l-0.026,12.082l-10.279-5.968L20.253,13.358z M33.556,31.471
	l0.026-12.066l10.311-6.024l0.026,12.04L33.556,31.471z"/>
</svg>
