<?xml version="1.0" encoding="utf-8"?>
<!-- Generator: Adobe Illustrator 17.0.2, SVG Export Plug-In . SVG Version: 6.00 Build 0)  -->
<!DOCTYPE svg PUBLIC "-//W3C//DTD SVG 1.1//EN" "http://www.w3.org/Graphics/SVG/1.1/DTD/svg11.dtd">
<svg version="1.1" id="Capa_1" xmlns="http://www.w3.org/2000/svg" xmlns:xlink="http://www.w3.org/1999/xlink" x="0px" y="0px"
	 width="64px" height="64px" viewBox="0 0 64 64" enable-background="new 0 0 64 64" xml:space="preserve">
<path d="M24.195,46.467c3.653,0,7.116-1.076,10.293-3.2c1.39-0.928,2.177-2.194,2.341-3.764c0.313-3-1.855-6.464-3.553-8.666
	c2.742,0.481,7.02,1.107,10.77,1.107c0,0,0,0,0.001,0c1.845,0,3.389-0.156,4.591-0.464c1.229-0.315,2.456-0.514,3.665-0.607
	c-3.224,4.284-6.405,16.72-6.405,17.516c0,2.732,5.78,5.29,8.406,5.29s8.405-2.558,8.405-5.29c0-1.137-1.352-5.907-2.836-10.007
	c-1.417-3.915-2.515-6.118-3.365-7.358c0.672,0.113,1.049,0.229,1.055,0.23c0.439,0.143,0.919-0.035,1.16-0.428
	c0.068-0.112,0.652-1.129-0.006-2.318c-1.043-1.882-4.557-2.821-10.741-2.872c-4.161-0.034-7.56-2.139-10.559-3.996
	c-2.21-1.368-4.117-2.55-5.911-2.55c-2.875,0-4.591,2.735-5.809,9.371c-1.291-0.57-3.525-1.516-6.198-2.47
	c-3.769-1.346-6.246-6.314-6.078-9.007c0.029-0.475-0.279-0.904-0.738-1.028c-0.457-0.124-0.941,0.094-1.154,0.519
	c-0.084,0.169-2.055,4.188-0.636,8.259c0.311,0.89,0.756,1.709,1.333,2.455c-2.981-1.15-6.388-3.17-7.154-6.524
	c-0.104-0.455-0.509-0.777-0.975-0.777c-0.002,0-0.005,0-0.007,0c-0.469,0.003-0.873,0.332-0.971,0.79
	c-0.021,0.098-1.938,9.792,11.366,12.749c2.675,0.594,3.38,1.215,3.536,1.397c-0.372,0.505-2.574,1.38-5.796,1.38h-0.001
	c-3.828,0-7.221-1.182-9.31-3.242c-0.383-0.377-0.994-0.385-1.385-0.019c-0.393,0.367-0.425,0.978-0.074,1.384
	C1.884,34.822,12.068,46.467,24.195,46.467z M58.17,39.554c1.575,4.438,2.54,8.243,2.54,8.836c0,0.887-3.971,3.29-6.405,3.29
	c-2.436,0-6.406-2.403-6.406-3.29c0-0.593,0.965-4.397,2.541-8.837c1.964-5.532,3.318-7.626,3.865-8.067
	C54.852,31.927,56.205,34.021,58.17,39.554z M12.226,38.204L12.226,38.204c3.596,0,7.575-0.999,7.815-3.191
	c0.257-2.344-3.791-3.243-5.121-3.539c-5.48-1.218-7.977-3.617-9.086-5.804c3.948,3.736,10.535,4.774,10.901,4.83
	c0.484,0.062,0.963-0.225,1.105-0.701c0.144-0.476-0.084-0.984-0.535-1.194c-2.326-1.084-3.847-2.603-4.519-4.514
	c-0.323-0.921-0.423-1.855-0.399-2.723c1.243,2.797,3.579,5.485,6.439,6.507c4.063,1.452,7.178,2.921,7.209,2.936
	c0.281,0.134,0.613,0.128,0.893-0.018c0.278-0.146,0.472-0.415,0.522-0.726c1.307-8.046,2.94-8.977,4.056-8.977
	c1.225,0,2.908,1.043,4.858,2.25c3.062,1.896,6.874,4.257,11.596,4.296c5.467,0.045,7.637,0.803,8.493,1.354
	c-0.701-0.1-1.599-0.182-2.658-0.182c-1.853,0-3.755,0.247-5.654,0.733c-1.04,0.267-2.417,0.401-4.095,0.401h-0.001
	c-5.754,0-13.097-1.593-13.17-1.608c-0.429-0.095-0.873,0.104-1.088,0.491s-0.15,0.867,0.158,1.184
	c1.474,1.512,5.225,6.126,4.894,9.286c-0.102,0.962-0.579,1.717-1.463,2.308c-2.842,1.899-5.931,2.862-9.182,2.862
	c-6.281,0-12.16-3.562-16.131-6.713C9.378,38.05,10.776,38.204,12.226,38.204z"/>
<path d="M35.25,26.125c1.29,0,1.29-2,0-2S33.96,26.125,35.25,26.125z"/>
</svg>
