<?xml version="1.0" encoding="utf-8"?>
<!-- Generator: Adobe Illustrator 17.0.2, SVG Export Plug-In . SVG Version: 6.00 Build 0)  -->
<!DOCTYPE svg PUBLIC "-//W3C//DTD SVG 1.1//EN" "http://www.w3.org/Graphics/SVG/1.1/DTD/svg11.dtd">
<svg version="1.1" id="Capa_1" xmlns="http://www.w3.org/2000/svg" xmlns:xlink="http://www.w3.org/1999/xlink" x="0px" y="0px"
	 width="64px" height="64px" viewBox="0 0 64 64" enable-background="new 0 0 64 64" xml:space="preserve">
<path d="M32.163,45.756c-2.442,0-2.442,3.846,0,3.846C34.605,49.602,34.605,45.756,32.163,45.756z"/>
<path d="M27.271,43.352c2.442,0,2.442-3.846,0-3.846C24.829,39.506,24.829,43.352,27.271,43.352z"/>
<path d="M22.853,45.916c-2.442,0-2.442,3.846,0,3.846C25.295,49.762,25.295,45.916,22.853,45.916z"/>
<path d="M27.429,52.166c-2.442,0-2.442,3.846,0,3.846C29.871,56.011,29.871,52.166,27.429,52.166z"/>
<path d="M36.896,39.506c-2.442,0-2.442,3.846,0,3.846C39.338,43.352,39.338,39.506,36.896,39.506z"/>
<path d="M41.314,45.916c-2.442,0-2.442,3.846,0,3.846S43.756,45.916,41.314,45.916z"/>
<path d="M36.738,52.166c-2.442,0-2.442,3.846,0,3.846C39.18,56.011,39.18,52.166,36.738,52.166z"/>
<path d="M25.936,36.78h12.297c3.249,0,5.892-2.643,5.892-5.892v-3.413c0-3.249-2.643-5.892-5.892-5.892H25.936
	c-3.249,0-5.892,2.643-5.892,5.892v3.413C20.044,34.137,22.687,36.78,25.936,36.78z M23.044,27.476c0-1.594,1.297-2.892,2.892-2.892
	h12.297c1.595,0,2.892,1.297,2.892,2.892v3.413c0,1.594-1.297,2.892-2.892,2.892H25.936c-1.595,0-2.892-1.297-2.892-2.892V27.476z"
	/>
<path d="M22.209,62.375h19.75c3.584,0,6.5-2.916,6.5-6.5v-33.25c0-3.584-2.916-6.5-6.5-6.5H26.035V6.663
	c0-2.847-2.316-5.163-5.163-5.163s-5.163,2.316-5.163,5.163v15.674c0,0.05,0.002,0.099,0.005,0.137l-0.005,33.401
	C15.709,59.459,18.625,62.375,22.209,62.375z M18.709,22.699l0.016-0.218l-0.002-0.06c-0.002-0.054-0.007-0.106-0.014-0.161V6.663
	c0-1.193,0.971-2.163,2.163-2.163s2.163,0.97,2.163,2.163v12.462h18.924c1.93,0,3.5,1.57,3.5,3.5v33.25c0,1.93-1.57,3.5-3.5,3.5
	h-19.75c-1.93,0-3.5-1.57-3.5-3.5V22.699z"/>
</svg>
