<?xml version="1.0" encoding="utf-8"?>
<!-- Generator: Adobe Illustrator 17.0.2, SVG Export Plug-In . SVG Version: 6.00 Build 0)  -->
<!DOCTYPE svg PUBLIC "-//W3C//DTD SVG 1.1//EN" "http://www.w3.org/Graphics/SVG/1.1/DTD/svg11.dtd">
<svg version="1.1" id="Capa_1" xmlns="http://www.w3.org/2000/svg" xmlns:xlink="http://www.w3.org/1999/xlink" x="0px" y="0px"
	 width="64px" height="64px" viewBox="0 0 64 64" enable-background="new 0 0 64 64" xml:space="preserve">
<path d="M61.167,45.506v-1.5c0-11.607-3.186-13.663-8.817-16.296c-0.61-0.285-1.25-0.584-1.917-0.919
	c-2.941-7.373-10.139-12.285-18.098-12.285c-7.96,0-15.157,4.912-18.099,12.285c-0.667,0.335-1.307,0.634-1.917,0.919
	C6.686,30.343,3.5,32.398,3.5,44.006v1.5h6.327c-0.087-0.488-0.14-0.987-0.14-1.5s0.053-1.012,0.14-1.5H6.519
	c0.229-8.881,2.591-9.984,7.069-12.078c0.798-0.373,1.644-0.77,2.534-1.231l0.519-0.27l0.2-0.549
	c2.364-6.503,8.59-10.872,15.493-10.872s13.129,4.369,15.493,10.872l0.2,0.549l0.519,0.27c0.89,0.462,1.736,0.858,2.534,1.231
	c4.479,2.094,6.84,3.197,7.069,12.078h-3.627c0.087,0.488,0.14,0.987,0.14,1.5s-0.053,1.012-0.14,1.5H61.167z"/>
<path d="M26.521,42.506c0.087,0.488,0.14,0.987,0.14,1.5s-0.053,1.012-0.14,1.5h11.306c-0.087-0.488-0.14-0.987-0.14-1.5
	s0.053-1.012,0.14-1.5H26.521z"/>
<path d="M18.174,36.914c-3.396,0-6.239,2.4-6.929,5.592c-0.105,0.484-0.163,0.985-0.163,1.5v0c0,0.515,0.058,1.016,0.163,1.5
	c0.691,3.192,3.534,5.592,6.929,5.592s6.239-2.4,6.929-5.592c0.105-0.484,0.163-0.985,0.163-1.5v0c0-0.515-0.058-1.016-0.163-1.5
	C24.412,39.314,21.57,36.914,18.174,36.914z M22.266,44.006L22.266,44.006c0,0.531-0.109,1.034-0.294,1.5
	c-0.601,1.514-2.073,2.592-3.798,2.592s-3.198-1.077-3.798-2.592c-0.185-0.466-0.294-0.969-0.294-1.5v0
	c0-0.531,0.109-1.034,0.294-1.5c0.601-1.514,2.073-2.592,3.798-2.592s3.198,1.077,3.798,2.592
	C22.157,42.971,22.266,43.475,22.266,44.006z"/>
<path d="M46.174,51.098c3.396,0,6.239-2.4,6.929-5.592c0.105-0.484,0.163-0.985,0.163-1.5v0c0-0.515-0.058-1.016-0.163-1.5
	c-0.691-3.192-3.534-5.592-6.929-5.592s-6.239,2.4-6.929,5.592c-0.105,0.484-0.163,0.985-0.163,1.5v0c0,0.515,0.058,1.016,0.163,1.5
	C39.935,48.698,42.778,51.098,46.174,51.098z M42.375,42.506c0.601-1.514,2.073-2.592,3.798-2.592s3.198,1.077,3.798,2.592
	c0.185,0.466,0.294,0.969,0.294,1.5v0c0,0.531-0.109,1.034-0.294,1.5c-0.601,1.514-2.073,2.592-3.798,2.592
	s-3.198-1.077-3.798-2.592c-0.185-0.466-0.294-0.969-0.294-1.5v0C42.082,43.475,42.191,42.971,42.375,42.506z"/>
<path d="M42.766,30.401c0-5.753-4.68-10.433-10.433-10.433s-10.433,4.68-10.433,10.433v1.5h20.865V30.401z M25.053,28.901
	c0.696-3.382,3.696-5.933,7.281-5.933s6.584,2.551,7.281,5.933H25.053z"/>
</svg>
