<?xml version="1.0" encoding="utf-8"?>
<!-- Generator: Adobe Illustrator 17.0.2, SVG Export Plug-In . SVG Version: 6.00 Build 0)  -->
<!DOCTYPE svg PUBLIC "-//W3C//DTD SVG 1.1//EN" "http://www.w3.org/Graphics/SVG/1.1/DTD/svg11.dtd">
<svg version="1.1" id="Capa_1" xmlns="http://www.w3.org/2000/svg" xmlns:xlink="http://www.w3.org/1999/xlink" x="0px" y="0px"
	 width="64px" height="64px" viewBox="0 0 64 64" enable-background="new 0 0 64 64" xml:space="preserve">
<path d="M32.084,1.596c-12.444,0-23.151,7.575-27.756,18.355c-0.303,0.287-0.424,0.65-0.405,1.013
	c-1.291,3.355-2.006,6.994-2.006,10.799c0,16.634,13.533,30.166,30.167,30.166c16.634,0,30.167-13.532,30.167-30.166
	S48.718,1.596,32.084,1.596z M59.25,31.763c0,14.47-11.373,26.331-25.649,27.121c-4.567-7.499-7.275-20.423-2.06-28.271
	c0.128,0.072,0.251,0.149,0.383,0.217c1.584,0.809,3.323,1.236,5.027,1.236c3.366,0,6.189-1.591,7.553-4.257
	c4.915,0.594,9.57,0.05,14.051-2.129C59.005,27.638,59.25,29.671,59.25,31.763z M4.917,31.763c0-3.438,0.649-6.726,1.819-9.757
	c6.277-3.259,13.168-3.98,20.025-2.616c-1.297,3.133-0.265,6.839,2.408,9.455c-5.525,8.462-3.714,21.286,0.951,30.005
	C16.054,57.839,4.917,46.081,4.917,31.763z M34.778,4.73c0.004,0.009,0.006,0.018,0.01,0.027c1.531,3.042,1.409,6.799-0.036,9.855
	c-0.068-0.001-0.136-0.013-0.204-0.013c-2.333,0-4.391,0.778-5.897,2.135c-6.721-1.564-13.528-1.305-19.872,1.085
	c4.753-7.914,13.42-13.223,23.305-13.223C32.993,4.596,33.892,4.642,34.778,4.73z M57.711,22.76
	c-3.946,2.057-8.074,2.64-12.42,2.153c0.082-1.263-0.14-2.571-0.69-3.851c-0.946-2.199-2.73-4.056-5.023-5.226
	c-0.579-0.296-1.182-0.522-1.793-0.713c1.244-3.139,1.417-6.621,0.406-9.827C47.287,7.395,54.649,14.069,57.711,22.76z
	 M29.664,20.227c0.839-1.645,2.666-2.627,4.884-2.627c1.232,0,2.5,0.314,3.665,0.909c1.671,0.854,2.961,2.181,3.631,3.739
	c0.477,1.108,0.589,2.23,0.341,3.249c-0.13,0.219-0.216,0.461-0.243,0.704c-0.035,0.079-0.064,0.161-0.104,0.238
	c-0.84,1.645-2.666,2.627-4.885,2.627c-1.232,0-2.5-0.314-3.664-0.908C29.932,26.445,28.306,22.888,29.664,20.227z"/>
</svg>
