<?xml version="1.0" encoding="utf-8"?>
<!-- Generator: Adobe Illustrator 17.0.2, SVG Export Plug-In . SVG Version: 6.00 Build 0)  -->
<!DOCTYPE svg PUBLIC "-//W3C//DTD SVG 1.1//EN" "http://www.w3.org/Graphics/SVG/1.1/DTD/svg11.dtd">
<svg version="1.1" id="Capa_1" xmlns="http://www.w3.org/2000/svg" xmlns:xlink="http://www.w3.org/1999/xlink" x="0px" y="0px"
	 width="64px" height="64px" viewBox="0 0 64 64" enable-background="new 0 0 64 64" xml:space="preserve">
<path d="M41.598,36.777c-0.338-0.817-1.192-1.389-2.077-1.389H25.247c-0.861,0-1.713,0.548-2.072,1.333l-3.809,8.35
	c-0.246,0.538-0.238,1.141,0.022,1.654c0.259,0.513,0.739,0.877,1.316,0.998c3.961,0.827,7.967,1.246,11.907,1.246
	c3.754,0,7.489-0.383,11.102-1.14c0.565-0.118,1.042-0.474,1.307-0.974c0.265-0.502,0.291-1.097,0.069-1.635L41.598,36.777z
	 M22.671,45.053l3.04-6.664h13.307l2.792,6.757C35.618,46.274,29.119,46.237,22.671,45.053z"/>
<path d="M62.029,47.594l-2.933-6.563c-0.447-1.003-1.745-1.449-2.715-0.938c-1.33,0.7-2.679,1.336-4.094,1.928l-3.599-17.417
	c1.097,0.642,2.179,1.837,2.515,4.059c0.151,1,1.023,1.754,2.093,1.754c0,0,0.001,0,0.002,0l3.772-0.126
	c1.076-0.034,1.952-0.938,1.952-2.016V7c0-1.095-0.887-1.986-2.054-1.986c-0.001,0-0.002,0-0.003,0
	c-2.968,0.115-17.943,1.26-24.067,12.556H14.109c-0.948,0-1.819,0.669-2.071,1.59c-0.409,1.501-2.744,5.424-4.895,6.003
	c-0.617,0.165-1.091,0.585-1.301,1.152c-0.204,0.555-0.122,1.163,0.226,1.669c0.815,1.182,3.247,3.058,6.303,3.058
	c0.378,0,0.756-0.029,1.131-0.086l-1.703,10.976c-2.065-0.821-3.482-1.535-4.057-1.837c-0.965-0.504-2.226-0.093-2.703,0.881
	l-3.219,6.579c-0.237,0.483-0.27,1.029-0.092,1.536c0.177,0.508,0.542,0.914,1.03,1.145c9.632,4.551,19.601,6.858,29.629,6.858
	c15.662,0,26.715-5.723,28.772-6.87C62.078,49.71,62.459,48.556,62.029,47.594z M32.389,54.093c-9.262,0-18.483-2.066-27.422-6.142
	l2.314-4.73c1.063,0.519,2.662,1.239,4.725,2.002c0.221,0.083,0.451,0.125,0.683,0.125c0.938,0,1.724-0.684,1.869-1.623L16.765,29.5
	c0.086-0.55-0.053-1.069-0.39-1.463c-0.489-0.57-1.336-0.745-2.074-0.418c-0.632,0.28-1.28,0.422-1.928,0.422
	c-1.056,0-1.99-0.374-2.677-0.792c2.571-1.665,4.376-5.017,5.025-6.68h18.595c0.829,0,1.675-0.52,2.057-1.261
	C40.116,10.101,51.88,8.39,56.022,8.072v19.251l-2.008,0.067c-1.146-4.988-5.255-6.145-6.541-6.386l-0.358-0.033
	c-0.554,0-1.069,0.242-1.412,0.664c-0.351,0.432-0.485,1.004-0.368,1.568l4.275,20.688c0.188,0.905,0.957,1.537,1.87,1.537
	c0.243,0,0.483-0.045,0.714-0.136c1.607-0.628,3.124-1.301,4.608-2.044l2.129,4.766C55.755,49.654,45.908,54.093,32.389,54.093z"/>
<path d="M51.917,17.833c1.935,0,1.935-3,0-3C49.983,14.833,49.983,17.833,51.917,17.833z"/>
</svg>
