<?xml version="1.0" encoding="utf-8"?>
<!-- Generator: Adobe Illustrator 17.0.2, SVG Export Plug-In . SVG Version: 6.00 Build 0)  -->
<!DOCTYPE svg PUBLIC "-//W3C//DTD SVG 1.1//EN" "http://www.w3.org/Graphics/SVG/1.1/DTD/svg11.dtd">
<svg version="1.1" id="Capa_1" xmlns="http://www.w3.org/2000/svg" xmlns:xlink="http://www.w3.org/1999/xlink" x="0px" y="0px"
	 width="64px" height="64px" viewBox="0 0 64 64" enable-background="new 0 0 64 64" xml:space="preserve">
<path d="M2.746,47.287C2.746,54.297,8.449,60,15.459,60c6.501,0,11.87-4.909,12.616-11.213h1.59c-0.504,1.063-0.794,2.247-0.794,3.5
	c0,4.529,3.685,8.213,8.213,8.213s8.213-3.684,8.213-8.213c0-1.253-0.29-2.437-0.794-3.5h2.163c-0.504,1.063-0.794,2.247-0.794,3.5
	c0,4.529,3.685,8.213,8.213,8.213s8.213-3.684,8.213-8.213c0-2.39-1.033-4.538-2.668-6.04c0.001-0.022,0.006-0.042,0.006-0.064
	V28.516c0-1.436-1.168-2.604-2.604-2.604h-4.241V16.84c0-1.436-1.168-2.604-2.604-2.604h-5.521c-1.437,0-2.604,1.168-2.604,2.604
	v9.072h-9.283V15.304h2.641c1.436,0,2.604-1.168,2.604-2.604V8.641c0-1.436-1.168-2.604-2.604-2.604H6.71
	c-1.436,0-2.604,1.168-2.604,2.604V12.7c0,1.436,1.168,2.604,2.604,2.604h3.193V35.87C5.674,37.937,2.746,42.271,2.746,47.287z
	 M25.172,47.287c0,0.511-0.052,1.01-0.128,1.5C24.319,53.431,20.303,57,15.459,57c-5.355,0-9.713-4.357-9.713-9.713
	c0-3.289,1.648-6.197,4.157-7.955c0.9-0.631,1.913-1.108,3-1.405c0.816-0.223,1.67-0.353,2.556-0.353
	c4.844,0,8.86,3.569,9.585,8.213C25.12,46.277,25.172,46.776,25.172,47.287z M42.297,52.287c0,2.875-2.339,5.213-5.213,5.213
	s-5.213-2.338-5.213-5.213c0-1.351,0.53-2.573,1.376-3.5c0.954-1.045,2.314-1.713,3.836-1.713s2.882,0.668,3.836,1.713
	C41.767,49.714,42.297,50.936,42.297,52.287z M54.084,57.5c-2.874,0-5.213-2.338-5.213-5.213c0-1.351,0.53-2.573,1.376-3.5
	c0.954-1.045,2.314-1.713,3.836-1.713c1.461,0,2.78,0.608,3.727,1.581c0.916,0.94,1.486,2.219,1.486,3.632
	C59.297,55.162,56.958,57.5,54.084,57.5z M45.062,17.236h4.729v8.676h-4.729V17.236z M7.106,12.304V9.037h27.916v3.267h-2.244H9.903
	H7.106z M12.903,15.304h16.875v13.608h12.283h10.729h3.845v15.573c-0.804-0.264-1.661-0.411-2.552-0.411
	c-1.883,0-3.614,0.643-5.001,1.713h-6.998c-1.387-1.069-3.118-1.713-5.001-1.713s-3.614,0.643-5.001,1.713h-4.008
	c-0.746-6.304-6.115-11.213-12.616-11.213c-0.875,0-1.73,0.089-2.556,0.258V15.304z"/>
</svg>
