<?xml version="1.0" encoding="utf-8"?>
<!-- Generator: Adobe Illustrator 17.0.2, SVG Export Plug-In . SVG Version: 6.00 Build 0)  -->
<!DOCTYPE svg PUBLIC "-//W3C//DTD SVG 1.1//EN" "http://www.w3.org/Graphics/SVG/1.1/DTD/svg11.dtd">
<svg version="1.1" id="Capa_1" xmlns="http://www.w3.org/2000/svg" xmlns:xlink="http://www.w3.org/1999/xlink" x="0px" y="0px"
	 width="64px" height="64px" viewBox="0 0 64 64" enable-background="new 0 0 64 64" xml:space="preserve">
<path d="M7.085,39.862c0.327,0,0.651-0.027,0.97-0.079v7.225c0,0.829,0.672,1.5,1.5,1.5h8.986c0.007,0,0.015,0,0.02,0
	c0.829,0,1.5-0.671,1.5-1.5c0-0.345-0.116-0.662-0.312-0.916c-0.217-0.424-0.327-0.866-0.327-1.316c0-1.633,1.329-2.962,2.962-2.962
	c1.634,0,2.963,1.329,2.963,2.962c0,0.507-0.14,1.003-0.415,1.476c-0.271,0.464-0.272,1.037-0.005,1.503
	c0.268,0.465,0.764,0.752,1.301,0.752h8.42c0.224,0.133,0.482,0.214,0.761,0.214h8.985c0.007,0,0.015,0.001,0.02,0
	c0.829,0,1.5-0.671,1.5-1.5c0-0.344-0.115-0.662-0.311-0.915c-0.217-0.425-0.327-0.867-0.327-1.316c0-1.633,1.329-2.962,2.962-2.962
	s2.962,1.329,2.962,2.962c0,0.507-0.14,1.003-0.415,1.477c-0.27,0.464-0.271,1.037-0.003,1.502s0.763,0.752,1.3,0.752h8.985
	c0.828,0,1.5-0.671,1.5-1.5v-8.985c0-0.537-0.287-1.033-0.752-1.3c-0.468-0.268-1.039-0.266-1.503,0.004
	c-0.473,0.275-0.97,0.415-1.477,0.415c-1.633,0-2.962-1.329-2.962-2.962s1.329-2.962,2.962-2.962c0.507,0,1.004,0.14,1.477,0.415
	c0.464,0.271,1.035,0.272,1.503,0.004c0.465-0.268,0.752-0.763,0.752-1.3v-8.986c0-0.829-0.672-1.5-1.5-1.5h-7.001
	c0.089-0.407,0.134-0.825,0.134-1.249c0-3.288-2.675-5.962-5.962-5.962s-5.962,2.675-5.962,5.962c0,0.424,0.045,0.842,0.134,1.249
	h-6.436c-0.224-0.133-0.482-0.214-0.761-0.214h-7.001c0.09-0.407,0.135-0.825,0.135-1.25c0-3.288-2.675-5.962-5.963-5.962
	c-3.287,0-5.962,2.674-5.962,5.962c0,0.424,0.045,0.842,0.134,1.25H9.555c-0.828,0-1.5,0.671-1.5,1.5v6.667
	c-0.318-0.052-0.643-0.079-0.97-0.079c-3.287,0-5.962,2.675-5.962,5.962S3.798,39.862,7.085,39.862z M36.908,23.063h7.839
	c0.575,0,1.1-0.329,1.35-0.846c0.251-0.517,0.184-1.132-0.173-1.583c-0.296-0.375-0.648-0.995-0.648-1.819
	c0-1.633,1.329-2.962,2.962-2.962s2.962,1.329,2.962,2.962c0,0.825-0.353,1.444-0.648,1.819c-0.356,0.451-0.424,1.066-0.173,1.583
	c0.25,0.518,0.774,0.846,1.35,0.846h7.839v5.415c-0.243-0.031-0.487-0.047-0.731-0.047c-3.287,0-5.962,2.674-5.962,5.962
	s2.675,5.962,5.962,5.962c0.244,0,0.488-0.016,0.731-0.047v5.414h-5.415c0.032-0.243,0.048-0.487,0.048-0.731
	c0-3.288-2.675-5.962-5.962-5.962s-5.962,2.675-5.962,5.962c0,0.244,0.016,0.488,0.048,0.731h-5.415v-7.894
	c0-0.553-0.305-1.062-0.792-1.322c-0.487-0.261-1.079-0.232-1.54,0.074c-0.487,0.325-1.055,0.497-1.639,0.497
	c-1.006,0-1.894-0.507-2.43-1.276c-0.307-0.466-0.488-1.023-0.488-1.621c0-1.633,1.329-2.962,2.963-2.962
	c0.507,0,1.003,0.14,1.476,0.415c0.129,0.075,0.267,0.125,0.408,0.158c0.404,0.157,0.859,0.142,1.25-0.067
	c0.487-0.261,0.792-0.769,0.792-1.322V23.063z M7.085,30.938c0.584,0,1.15,0.172,1.638,0.497c0.46,0.308,1.053,0.336,1.54,0.075
	c0.487-0.261,0.792-0.77,0.792-1.323V22.85h7.839c0.575,0,1.099-0.329,1.35-0.846s0.184-1.132-0.172-1.583
	c-0.297-0.375-0.649-0.996-0.649-1.82c0-1.633,1.329-2.962,2.962-2.962c1.634,0,2.963,1.329,2.963,2.962
	c0,0.823-0.354,1.445-0.649,1.821c-0.356,0.451-0.423,1.066-0.172,1.583s0.775,0.845,1.35,0.845h7.838v5.365
	c-0.257-0.034-0.514-0.063-0.775-0.063c-3.287,0-5.962,2.675-5.962,5.962c0,1.248,0.387,2.406,1.044,3.364
	c1.07,1.603,2.894,2.663,4.963,2.663c0.244,0,0.487-0.016,0.73-0.047v5.415h-5.414c0.032-0.243,0.048-0.487,0.048-0.731
	c0-3.288-2.675-5.962-5.963-5.962c-3.287,0-5.962,2.674-5.962,5.962c0,0.244,0.016,0.488,0.048,0.731h-5.415v-7.895
	c0-0.553-0.305-1.062-0.792-1.323c-0.486-0.26-1.079-0.232-1.54,0.075c-0.487,0.325-1.054,0.497-1.638,0.497
	c-1.633,0-2.962-1.329-2.962-2.962S5.452,30.938,7.085,30.938z"/>
</svg>
